<svg width="347" height="196" viewBox="0 0 347 196" fill="none" xmlns="http://www.w3.org/2000/svg">
<path d="M0.5 8C0.5 3.58173 4.08172 0 8.5 0H338.5C342.918 0 346.5 3.58172 346.5 8V129H0.5V8Z" fill="#E0E5EE"/>
<mask id="mask0_2459_23458" style="mask-type:alpha" maskUnits="userSpaceOnUse" x="0" y="0" width="346" height="129">
<rect x="0.75" width="345" height="129" rx="8" fill="white"/>
</mask>
<g mask="url(#mask0_2459_23458)">
<path opacity="0.8" d="M157.892 70.0001C158.566 68.6602 158.886 67.1701 158.822 65.6715C158.757 64.173 158.31 62.716 157.523 61.439C156.736 60.1621 155.636 59.1077 154.326 58.3762C153.017 57.6448 151.542 57.2605 150.042 57.2601C148.91 57.2582 147.789 57.4791 146.742 57.9101C145.871 55.4225 144.248 53.2672 142.099 51.7425C139.949 50.2178 137.378 49.3993 134.742 49.4001H134.502C133.519 45.1195 131.204 41.2611 127.889 38.3796C124.574 35.4982 120.431 33.7422 116.055 33.3644C111.679 32.9865 107.297 34.0061 103.537 36.2766C99.7774 38.5471 96.8347 41.9515 95.1322 46.0001C93.0571 46.6445 91.1497 47.7386 89.5457 49.2043C87.9417 50.67 86.6806 52.4714 85.8522 54.4801C84.4684 54.0939 83.0192 54.0006 81.5973 54.2061C80.1754 54.4117 78.812 54.9115 77.5943 55.6738C76.3765 56.4361 75.3311 57.444 74.5249 58.6332C73.7187 59.8224 73.1695 61.1666 72.9122 62.5801C71.9488 62.202 70.9075 62.065 69.8791 62.1813C68.8506 62.2975 67.8662 62.6634 67.0114 63.247C66.1567 63.8306 65.4576 64.6143 64.9749 65.5299C64.4923 66.4455 64.2407 67.4651 64.2422 68.5001C64.2443 69.0126 64.3081 69.5229 64.4322 70.0201L157.892 70.0001Z" fill="#DADFE9"/>
<path opacity="0.8" d="M314.45 94C314.45 93.7045 314.5 93.3946 314.5 93.0919C314.5 90.9014 313.643 88.8006 312.116 87.2516C310.59 85.7027 308.52 84.8325 306.362 84.8325C305.351 84.8314 304.348 85.0246 303.408 85.4019C302.74 82.1371 300.88 79.2498 298.2 77.3204C295.521 75.3911 292.221 74.5628 288.964 75.002C287.997 70.5702 285.684 66.558 282.352 63.5303C279.019 60.5027 274.835 58.6123 270.388 58.1253C265.942 57.6382 261.457 58.5791 257.564 60.8155C253.672 63.0518 250.57 66.4709 248.693 70.5913C246.75 70.6531 244.838 71.0961 243.062 71.8958C240.663 69.9597 237.774 68.7507 234.728 68.4079C231.682 68.065 228.603 68.6024 225.845 69.9581C223.086 71.3137 220.761 73.4325 219.138 76.0705C217.514 78.7084 216.657 81.7582 216.666 84.8686C214.515 84.8628 212.448 85.7213 210.918 87.2566C209.388 88.792 208.519 90.8794 208.5 93.0631C208.501 93.3667 208.52 93.6699 208.557 93.9712L314.45 94Z" fill="#DADFE9"/>
<circle opacity="0.7" cx="-7" cy="98" r="15.5" transform="rotate(180 -7 98)" fill="#D7DCE6"/>
<circle opacity="0.7" cx="15" cy="67.5" r="4.5" transform="rotate(180 15 67.5)" fill="#D7DCE6"/>
</g>
<path d="M117.885 51.282H104.875V55.4226H117.885V51.282Z" fill="#EBEBEB"/>
<path d="M151.705 134.345H138.695V138.486H151.705V134.345Z" fill="#EBEBEB"/>
<path d="M110.628 46.0609C108.468 46.0979 102.928 46.1904 100.841 46.2163H97.6184L97.7886 46.0461V50.1867L97.6036 50.0017C99.7645 50.0017 105.274 50.0313 107.361 50.0609L110.614 50.1016L110.525 50.1867L110.614 46.0461L110.628 46.0609ZM110.628 46.0609L110.714 50.2015V50.2903H110.625C109 50.3125 105.74 50.3495 104.12 50.3606L97.6147 50.3865H97.4297V50.2015V46.0609V45.8944H97.5962H100.878C102.95 45.9166 108.464 46.0091 110.606 46.0461L110.628 46.0609Z" fill="#EBEBEB"/>
<path d="M246.994 46.0609H233.984V50.2015H246.994V46.0609Z" fill="#EBEBEB"/>
<path d="M247 57.7981H220.344V75.2041H247V57.7981Z" fill="#DBDBDB"/>
<path d="M247 76.2217H220.344V93.6277H247V76.2217Z" fill="#EBEBEB"/>
<path d="M225.567 79.5668H222.977V82.1569H225.567V79.5668Z" fill="white"/>
<path d="M228.7 79.5668H226.109V82.1569H228.7V79.5668Z" fill="#C7C7C7"/>
<path d="M231.832 79.5668H229.242V82.1569H231.832V79.5668Z" fill="white"/>
<path d="M234.957 79.5668H232.367V82.1569H234.957V79.5668Z" fill="white"/>
<path d="M238.098 79.5668H235.508V82.1569H238.098V79.5668Z" fill="white"/>
<path d="M241.231 79.5668H238.641V82.1569H241.231V79.5668Z" fill="white"/>
<path d="M244.356 79.5668H241.766V82.1569H244.356V79.5668Z" fill="white"/>
<path d="M225.567 82.723H222.977V85.3132H225.567V82.723Z" fill="white"/>
<path d="M228.7 82.723H226.109V85.3132H228.7V82.723Z" fill="white"/>
<path d="M231.832 82.723H229.242V85.3132H231.832V82.723Z" fill="white"/>
<path d="M234.957 82.723H232.367V85.3132H234.957V82.723Z" fill="white"/>
<path d="M238.098 82.723H235.508V85.3132H238.098V82.723Z" fill="#C7C7C7"/>
<path d="M241.231 82.723H238.641V85.3132H241.231V82.723Z" fill="white"/>
<path d="M244.356 82.723H241.766V85.3132H244.356V82.723Z" fill="white"/>
<path d="M225.567 85.8757H222.977V88.4658H225.567V85.8757Z" fill="white"/>
<path d="M228.7 85.8757H226.109V88.4658H228.7V85.8757Z" fill="white"/>
<path d="M231.832 85.8757H229.242V88.4658H231.832V85.8757Z" fill="white"/>
<path d="M234.957 85.8757H232.367V88.4658H234.957V85.8757Z" fill="white"/>
<path d="M238.098 85.8757H235.508V88.4658H238.098V85.8757Z" fill="white"/>
<path d="M241.231 85.8757H238.641V88.4658H241.231V85.8757Z" fill="white"/>
<path d="M244.356 85.8757H241.766V88.4658H244.356V85.8757Z" fill="white"/>
<path d="M225.567 89.0283H222.977V91.6184H225.567V89.0283Z" fill="white"/>
<path d="M228.7 89.0283H226.109V91.6184H228.7V89.0283Z" fill="white"/>
<path d="M231.832 89.0283H229.242V91.6184H231.832V89.0283Z" fill="#C7C7C7"/>
<path d="M234.957 89.0283H232.367V91.6184H234.957V89.0283Z" fill="white"/>
<path d="M238.098 89.0283H235.508V91.6184H238.098V89.0283Z" fill="white"/>
<path d="M241.231 89.0283H238.641V91.6184H241.231V89.0283Z" fill="white"/>
<path d="M244.356 89.0283H241.766V91.6184H244.356V89.0283Z" fill="white"/>
<path d="M222.393 74.3753H221.383V77.0506H222.393V74.3753Z" fill="#C7C7C7"/>
<path d="M224.745 74.3753H223.734V77.0506H224.745V74.3753Z" fill="#C7C7C7"/>
<path d="M227.096 74.3753H226.086V77.0506H227.096V74.3753Z" fill="#C7C7C7"/>
<path d="M229.463 74.3753H228.453V77.0506H229.463V74.3753Z" fill="#C7C7C7"/>
<path d="M231.815 74.3753H230.805V77.0506H231.815V74.3753Z" fill="#C7C7C7"/>
<path d="M234.166 74.3753H233.156V77.0506H234.166V74.3753Z" fill="#C7C7C7"/>
<path d="M236.526 74.3753H235.516V77.0506H236.526V74.3753Z" fill="#C7C7C7"/>
<path d="M238.877 74.3753H237.867V77.0506H238.877V74.3753Z" fill="#C7C7C7"/>
<path d="M241.229 74.3753H240.219V77.0506H241.229V74.3753Z" fill="#C7C7C7"/>
<path d="M243.596 74.3753H242.586V77.0506H243.596V74.3753Z" fill="#C7C7C7"/>
<path d="M245.94 74.3753H244.93V77.0506H245.94V74.3753Z" fill="#C7C7C7"/>
<path d="M234.101 59.578C234.101 59.6909 234.056 59.7991 233.976 59.8789C233.897 59.9587 233.788 60.0035 233.676 60.0035C233.563 60.0035 233.454 59.9587 233.375 59.8789C233.295 59.7991 233.25 59.6909 233.25 59.578C233.25 59.4651 233.295 59.3569 233.375 59.2771C233.454 59.1973 233.563 59.1525 233.676 59.1525C233.788 59.1525 233.897 59.1973 233.976 59.2771C234.056 59.3569 234.101 59.4651 234.101 59.578Z" fill="#263238"/>
<path d="M194.453 145.971H204.429L202.768 146.142L194.453 145.971Z" fill="#C7C7C7"/>
<path d="M125.836 135.967L126.772 141.58L133.111 175.815H134.132L129.521 141.58L128.841 135.967H125.836Z" fill="#DBDBDB"/>
<path d="M128.841 137.746H125.836L126.772 143.359H129.521L128.841 137.746Z" fill="#C7C7C7"/>
<path d="M105.93 175.815H106.955L113.293 141.58L114.229 135.967H111.221L110.54 141.58L105.93 175.815Z" fill="#DBDBDB"/>
<path d="M111.212 137.746L110.531 143.359H113.284L114.22 137.746H111.212Z" fill="#C7C7C7"/>
<path d="M86.9141 175.815H87.9353L94.2739 141.58L95.21 135.967H92.2017L91.5209 141.58L86.9141 175.815Z" fill="#DBDBDB"/>
<path d="M91.5156 143.359H94.2686L95.2048 137.746H92.1965L91.5156 143.359Z" fill="#C7C7C7"/>
<path d="M88.5312 138.605H134.988V134.838L117.597 133.71L111.754 99.9966H90.3037L88.5312 138.605Z" fill="#AFC3EC"/>
<path d="M88.5312 140.384H91.0659L92.7162 101.776H90.3037L88.5312 140.384Z" fill="#C7C7C7"/>
<path d="M234.01 53.9426H110.617V58.5346H234.01V53.9426Z" fill="#6C9AF5"/>
<path opacity="0.3" d="M234.01 53.9426H110.617V58.5346H234.01V53.9426Z" fill="black"/>
<path d="M231.591 58.5345H113.039V127.319H231.591V58.5345Z" fill="white"/>
<path d="M231.588 58.5346C231.606 58.6049 231.658 127.33 231.669 127.396C231.68 127.463 113.061 127.437 113.039 127.455H112.898V127.319C112.898 127.215 112.935 58.5272 112.935 58.431L231.588 58.5346ZM231.588 58.5346C231.588 58.4902 112.625 58.7899 113.139 58.5346L113.176 127.319L113.039 127.178C113.039 127.219 231.921 127.115 231.51 127.319L231.588 58.5346Z" fill="#263238"/>
<path d="M231.588 58.5345V61.2283L113.039 59.8814V58.5345H231.588Z" fill="#DBDBDB"/>
<path opacity="0.9" d="M154.725 80.7249H137.094V88.5139H154.725V80.7249Z" fill="#6C9AF5"/>
<path opacity="0.9" d="M172.358 80.7249H154.727V88.5139H172.358V80.7249Z" fill="#6C9AF5"/>
<path opacity="0.9" d="M189.983 80.7249H172.352V88.5139H189.983V80.7249Z" fill="#6C9AF5"/>
<path opacity="0.3" d="M207.616 80.7249H189.984V88.5139H207.616V80.7249Z" fill="#6C9AF5"/>
<path opacity="0.9" d="M154.725 88.5103H137.094V96.2993H154.725V88.5103Z" fill="#6C9AF5"/>
<path opacity="0.6" d="M172.358 88.5103H154.727V96.2993H172.358V88.5103Z" fill="#6C9AF5"/>
<path opacity="0.6" d="M189.983 88.5103H172.352V96.2993H189.983V88.5103Z" fill="#6C9AF5"/>
<path opacity="0.3" d="M207.616 88.5103H189.984V96.2993H207.616V88.5103Z" fill="#6C9AF5"/>
<path opacity="0.6" d="M154.725 96.2993H137.094V104.088H154.725V96.2993Z" fill="#6C9AF5"/>
<path opacity="0.6" d="M172.358 96.2993H154.727V104.088H172.358V96.2993Z" fill="#6C9AF5"/>
<path opacity="0.3" d="M189.983 96.2993H172.352V104.088H189.983V96.2993Z" fill="#6C9AF5"/>
<path opacity="0.6" d="M154.725 104.085H137.094V111.874H154.725V104.085Z" fill="#6C9AF5"/>
<path opacity="0.3" d="M172.358 104.085H154.727V111.874H172.358V104.085Z" fill="#6C9AF5"/>
<path opacity="0.3" d="M154.725 111.874H137.094V119.663H154.725V111.874Z" fill="#6C9AF5"/>
<path opacity="0.3" d="M225.249 80.7249H207.617V88.5139H225.249V80.7249Z" fill="#6C9AF5"/>
<path d="M225.226 119.618C225.207 119.574 119.28 119.785 119.399 119.618C119.487 119.522 119.191 70.0091 119.458 70.109C119.458 70.109 225.263 70.1793 225.285 70.1719C225.307 70.1645 225.226 119.592 225.226 119.618ZM225.226 119.618V70.2015C225.396 70.2866 119.443 70.2644 119.476 70.294C119.647 69.7056 119.513 119.748 119.536 119.618C119.14 119.456 225.363 119.663 225.255 119.618H225.226Z" fill="#263238"/>
<path d="M119.398 80.725C152.568 80.6177 192.09 80.6177 225.255 80.725C192.086 80.8286 152.564 80.8286 119.398 80.725Z" fill="#263238"/>
<path d="M119.398 88.5104C152.568 88.403 192.09 88.403 225.255 88.5104C192.086 88.6177 152.564 88.6177 119.398 88.5104Z" fill="#263238"/>
<path d="M119.398 96.2993C152.568 96.192 192.09 96.192 225.255 96.2993C192.086 96.4066 152.564 96.4029 119.398 96.2993Z" fill="#263238"/>
<path d="M119.398 104.085C152.568 103.977 192.09 103.977 225.255 104.085C192.086 104.192 152.564 104.192 119.398 104.085Z" fill="#263238"/>
<path d="M119.398 111.874C152.568 111.766 192.09 111.766 225.255 111.874C192.086 111.981 152.564 111.977 119.398 111.874Z" fill="#263238"/>
<path d="M137.094 70.2014C137.209 86.0311 137.209 103.789 137.094 119.618C136.979 103.789 136.979 86.0311 137.094 70.2014Z" fill="#263238"/>
<path d="M154.727 70.2014C154.838 86.0311 154.838 103.789 154.727 119.618C154.612 103.789 154.612 86.0311 154.727 70.2014Z" fill="#263238"/>
<path d="M172.35 70.2014C172.465 86.0311 172.465 103.789 172.35 119.618C172.236 103.789 172.239 86.0311 172.35 70.2014Z" fill="#263238"/>
<path d="M189.984 70.2014C190.095 86.0311 190.099 103.789 189.984 119.618C189.87 103.789 189.87 86.0311 189.984 70.2014Z" fill="#263238"/>
<path d="M207.616 70.2014C207.731 86.0311 207.731 103.789 207.616 119.618C207.501 103.789 207.505 86.0311 207.616 70.2014Z" fill="#263238"/>
<path d="M225.227 70.2014C225.338 86.0311 225.341 103.789 225.227 119.618C225.112 103.789 225.112 86.0311 225.227 70.2014Z" fill="#263238"/>
<path d="M189.984 70.2014C190.095 86.0311 190.099 103.789 189.984 119.618C189.87 103.789 189.87 86.0311 189.984 70.2014Z" fill="#263238"/>
<path d="M144.528 74.9785L144.047 76.1256H143.998L143.739 75.5151L143.484 76.1256C143.481 76.1243 143.478 76.1236 143.475 76.1236C143.472 76.1236 143.468 76.1243 143.466 76.1256H143.417H143.399L142.914 74.9785C142.909 74.9657 142.906 74.9519 142.906 74.9379C142.906 74.924 142.909 74.9103 142.915 74.8975C142.92 74.8847 142.928 74.8732 142.938 74.8636C142.949 74.854 142.96 74.8465 142.973 74.8416C142.986 74.8356 143 74.8322 143.014 74.8317C143.028 74.8313 143.043 74.8337 143.056 74.8389C143.069 74.8441 143.081 74.852 143.091 74.862C143.101 74.872 143.109 74.8839 143.114 74.8971L143.484 75.8074L143.736 75.2042C143.744 75.1838 143.758 75.1665 143.777 75.1546C143.796 75.1427 143.817 75.1367 143.839 75.1376C143.861 75.1377 143.882 75.144 143.901 75.1558C143.919 75.1676 143.934 75.1844 143.943 75.2042L144.195 75.8074L144.565 74.8971C144.57 74.8839 144.578 74.872 144.588 74.862C144.598 74.852 144.61 74.8441 144.623 74.8389C144.636 74.8337 144.65 74.8313 144.664 74.8317C144.678 74.8322 144.692 74.8356 144.705 74.8416C144.714 74.8533 144.721 74.8666 144.725 74.8808C144.728 74.895 144.729 74.9099 144.728 74.9245C144.726 74.9391 144.721 74.9531 144.714 74.9659C144.706 74.9787 144.696 74.9899 144.685 74.9989C144.673 75.0079 144.66 75.0145 144.646 75.0183C144.631 75.0221 144.617 75.0232 144.602 75.0213C144.587 75.0194 144.573 75.0146 144.561 75.0073C144.548 75 144.537 74.9902 144.528 74.9785Z" fill="black"/>
<path d="M144.664 75.689C144.663 75.6255 144.675 75.5624 144.698 75.5034C144.722 75.4445 144.757 75.3907 144.801 75.3453C144.846 75.2999 144.898 75.2637 144.957 75.2389C145.015 75.214 145.078 75.201 145.142 75.2005C145.264 75.1995 145.383 75.2465 145.471 75.3316C145.56 75.4166 145.611 75.533 145.615 75.6556C145.617 75.6616 145.617 75.6682 145.615 75.6741C145.614 75.6858 145.61 75.6972 145.604 75.7074C145.599 75.7177 145.591 75.7267 145.581 75.7339C145.572 75.7412 145.562 75.7465 145.55 75.7495C145.539 75.7526 145.527 75.7534 145.515 75.7519H144.89C144.901 75.8011 144.924 75.8469 144.957 75.8851C145.009 75.9338 145.075 75.9639 145.146 75.9706C145.217 75.9773 145.288 75.9602 145.349 75.9221C145.369 75.9046 145.396 75.895 145.423 75.895C145.45 75.895 145.476 75.9046 145.497 75.9221C145.514 75.9394 145.523 75.9626 145.523 75.9868C145.523 76.011 145.514 76.0343 145.497 76.0516C145.401 76.1394 145.275 76.1859 145.145 76.1811C145.081 76.1811 145.018 76.1683 144.959 76.1434C144.899 76.1186 144.846 76.0821 144.801 76.0363C144.756 75.9904 144.721 75.9361 144.698 75.8764C144.674 75.8168 144.663 75.753 144.664 75.689ZM144.875 75.5927H145.434C145.41 75.5337 145.37 75.4827 145.318 75.4459C145.266 75.4091 145.205 75.3882 145.142 75.3855C145.079 75.3872 145.019 75.4096 144.971 75.4491C144.923 75.4886 144.889 75.5431 144.875 75.6038V75.5927Z" fill="black"/>
<path d="M145.859 75.689C145.859 75.6253 145.871 75.5622 145.895 75.5032C145.919 75.4442 145.954 75.3905 145.999 75.3451C146.043 75.2997 146.097 75.2636 146.155 75.2388C146.214 75.214 146.277 75.201 146.34 75.2005C146.463 75.1995 146.581 75.2465 146.67 75.3316C146.758 75.4166 146.81 75.533 146.814 75.6556C146.816 75.6616 146.816 75.6682 146.814 75.6741C146.81 75.6974 146.798 75.7183 146.779 75.7328C146.761 75.7472 146.738 75.754 146.714 75.7519H146.089C146.096 75.8022 146.12 75.8488 146.155 75.8851C146.206 75.9349 146.273 75.9651 146.344 75.9702C146.415 75.9781 146.487 75.9611 146.548 75.9221C146.568 75.9046 146.595 75.895 146.622 75.895C146.649 75.895 146.675 75.9046 146.696 75.9221C146.713 75.9394 146.722 75.9626 146.722 75.9868C146.722 76.011 146.713 76.0343 146.696 76.0516C146.646 76.097 146.587 76.1319 146.524 76.1541C146.46 76.1764 146.393 76.1856 146.326 76.1811C146.199 76.1753 146.08 76.1209 145.993 76.0291C145.906 75.9373 145.858 75.8154 145.859 75.689ZM146.074 75.5927H146.629C146.607 75.5334 146.568 75.482 146.516 75.4451C146.465 75.4082 146.404 75.3875 146.34 75.3855C146.278 75.3866 146.218 75.4087 146.169 75.4484C146.121 75.488 146.087 75.5428 146.074 75.6038V75.5927Z" fill="black"/>
<path d="M147.127 76.0848V74.9267C147.124 74.9106 147.124 74.8942 147.129 74.8784C147.133 74.8627 147.14 74.848 147.151 74.8355C147.161 74.823 147.174 74.8129 147.189 74.806C147.204 74.7991 147.22 74.7955 147.236 74.7955C147.252 74.7955 147.268 74.7991 147.283 74.806C147.298 74.8129 147.311 74.823 147.321 74.8355C147.332 74.848 147.339 74.8627 147.343 74.8784C147.348 74.8942 147.348 74.9106 147.345 74.9267V75.6038L147.748 75.2005C147.77 75.1844 147.796 75.1767 147.823 75.1786C147.85 75.1805 147.875 75.1919 147.894 75.2108C147.912 75.2297 147.924 75.2548 147.926 75.2814C147.928 75.3081 147.92 75.3345 147.904 75.3559L147.608 75.6519L147.911 76.0219C147.923 76.0382 147.931 76.0575 147.933 76.0777C147.935 76.0979 147.931 76.1183 147.923 76.1366C147.914 76.1549 147.9 76.1704 147.883 76.1815C147.866 76.1927 147.846 76.1989 147.826 76.1995C147.81 76.1997 147.795 76.1961 147.781 76.189C147.766 76.1819 147.754 76.1716 147.745 76.1588L147.456 75.811L147.345 75.9183V76.0922C147.34 76.1177 147.327 76.1408 147.307 76.1574C147.287 76.174 147.262 76.1831 147.236 76.1831C147.21 76.1831 147.185 76.174 147.165 76.1574C147.145 76.1408 147.132 76.1177 147.127 76.0922V76.0848Z" fill="black"/>
<path d="M149.172 74.9266V76.0848C149.171 76.1136 149.159 76.1409 149.138 76.1609C149.118 76.181 149.09 76.1921 149.061 76.1921C149.033 76.1921 149.005 76.1808 148.985 76.1607C148.965 76.1406 148.954 76.1133 148.954 76.0848V75.1191L148.876 75.1635C148.858 75.1685 148.839 75.1685 148.821 75.1635C148.801 75.164 148.783 75.1591 148.766 75.1493C148.75 75.1394 148.737 75.1251 148.728 75.108C148.72 75.096 148.715 75.0825 148.712 75.0684C148.71 75.0542 148.711 75.0397 148.714 75.0258C148.718 75.0119 148.724 74.9989 148.733 74.9875C148.741 74.9762 148.752 74.9668 148.765 74.9599L149.006 74.8193H149.061L149.172 74.9266Z" fill="black"/>
<path d="M126.242 83.8295V84.9877C126.242 85.0165 126.231 85.0442 126.211 85.0649C126.191 85.0856 126.164 85.0977 126.135 85.0987C126.12 85.0992 126.106 85.0967 126.092 85.0913C126.078 85.0859 126.066 85.0777 126.055 85.0673C126.045 85.0569 126.037 85.0445 126.031 85.0308C126.026 85.0171 126.024 85.0024 126.024 84.9877V84.0219L125.946 84.0663C125.931 84.0789 125.911 84.0854 125.891 84.0848C125.872 84.0839 125.854 84.0783 125.838 84.0686C125.822 84.0589 125.808 84.0454 125.798 84.0293C125.79 84.0173 125.785 84.0039 125.783 83.9897C125.78 83.9756 125.781 83.9611 125.784 83.9472C125.788 83.9333 125.794 83.9202 125.803 83.9089C125.812 83.8976 125.823 83.8882 125.835 83.8813L126.076 83.737H126.157L126.242 83.8295Z" fill="black"/>
<path d="M126.492 84.4179C126.489 84.2515 126.535 84.0878 126.626 83.948C126.66 83.8795 126.713 83.8219 126.778 83.7817C126.844 83.7414 126.919 83.7202 126.996 83.7202C127.072 83.7202 127.148 83.7414 127.213 83.7817C127.278 83.8219 127.331 83.8795 127.366 83.948C127.456 84.0878 127.502 84.2515 127.499 84.4179C127.502 84.5842 127.455 84.7477 127.366 84.8878C127.331 84.9563 127.278 85.0139 127.213 85.0541C127.148 85.0943 127.072 85.1156 126.996 85.1156C126.919 85.1156 126.844 85.0943 126.778 85.0541C126.713 85.0139 126.66 84.9563 126.626 84.8878C126.536 84.7477 126.489 84.5842 126.492 84.4179ZM127.269 84.4179C127.275 84.2877 127.241 84.159 127.173 84.0479C127.156 84.0143 127.13 83.9858 127.098 83.965C127.066 83.9443 127.03 83.9321 126.992 83.9295C126.953 83.9319 126.915 83.944 126.882 83.9646C126.85 83.9853 126.822 84.0139 126.803 84.0479C126.743 84.1544 126.711 84.2749 126.711 84.3975C126.711 84.5201 126.743 84.6406 126.803 84.7472C126.822 84.7814 126.85 84.8104 126.882 84.8317C126.915 84.8529 126.953 84.8659 126.992 84.8693C127.03 84.8656 127.066 84.8526 127.098 84.8312C127.13 84.8099 127.156 84.781 127.173 84.7472C127.234 84.6479 127.267 84.5343 127.269 84.4179Z" fill="black"/>
<path d="M127.883 84.4178C127.881 84.2516 127.927 84.0885 128.016 83.9479C128.054 83.8834 128.109 83.8296 128.173 83.7914C128.238 83.7533 128.311 83.732 128.386 83.7296C128.461 83.7313 128.535 83.7523 128.6 83.7905C128.664 83.8287 128.718 83.8829 128.756 83.9479C128.846 84.0878 128.893 84.2514 128.889 84.4178C128.892 84.5842 128.846 84.7477 128.756 84.8877C128.717 84.952 128.663 85.0056 128.599 85.0437C128.534 85.0818 128.461 85.1033 128.386 85.106C128.311 85.1029 128.238 85.0814 128.174 85.0433C128.109 85.0052 128.055 84.9518 128.016 84.8877C127.928 84.7469 127.882 84.5839 127.883 84.4178ZM128.66 84.4178C128.665 84.2877 128.632 84.1589 128.564 84.0478C128.546 84.0142 128.52 83.9857 128.488 83.965C128.457 83.9442 128.42 83.932 128.382 83.9294C128.344 83.9324 128.307 83.9448 128.275 83.9654C128.243 83.9861 128.216 84.0144 128.197 84.0478C128.135 84.1536 128.101 84.2744 128.101 84.3975C128.101 84.5205 128.135 84.6413 128.197 84.7471C128.216 84.7808 128.243 84.8095 128.275 84.8308C128.307 84.852 128.344 84.8652 128.382 84.8692C128.42 84.8656 128.457 84.8525 128.489 84.8312C128.52 84.8098 128.546 84.781 128.564 84.7471C128.621 84.6468 128.65 84.5332 128.649 84.4178H128.66Z" fill="black"/>
<path d="M129.26 84.07C129.257 84.0254 129.264 83.9807 129.279 83.9386C129.294 83.8965 129.318 83.8579 129.348 83.8251C129.378 83.7923 129.415 83.766 129.456 83.7477C129.497 83.7293 129.541 83.7194 129.586 83.7185C129.63 83.7189 129.674 83.7284 129.714 83.7463C129.755 83.7643 129.791 83.7903 129.822 83.8229C129.852 83.8555 129.875 83.8939 129.89 83.9357C129.904 83.9776 129.91 84.022 129.907 84.0663C129.913 84.1124 129.908 84.1591 129.894 84.2034C129.88 84.2477 129.857 84.2885 129.826 84.3234C129.796 84.3582 129.758 84.3863 129.716 84.4057C129.674 84.4252 129.628 84.4356 129.582 84.4363C129.536 84.4356 129.491 84.4253 129.449 84.406C129.407 84.3867 129.37 84.3589 129.34 84.3244C129.309 84.2899 129.287 84.2495 129.273 84.2057C129.259 84.1619 129.255 84.1156 129.26 84.07ZM129.734 84.07C129.734 83.959 129.671 83.8702 129.582 83.8702C129.493 83.8702 129.434 83.959 129.434 84.0663C129.434 84.1773 129.497 84.2661 129.586 84.2661C129.674 84.2661 129.734 84.1736 129.734 84.07ZM129.486 84.9877L130.388 83.7555C130.395 83.7439 130.405 83.7343 130.417 83.7278C130.428 83.7212 130.442 83.718 130.455 83.7185C130.465 83.7185 130.475 83.7205 130.485 83.7244C130.494 83.7283 130.503 83.734 130.51 83.7412C130.517 83.7485 130.523 83.757 130.527 83.7665C130.531 83.7759 130.533 83.786 130.533 83.7962C130.536 83.8133 130.536 83.8309 130.533 83.848L129.63 85.0802C129.622 85.0912 129.611 85.1 129.599 85.1058C129.587 85.1116 129.573 85.1142 129.56 85.1135C129.54 85.1135 129.521 85.1057 129.507 85.0918C129.493 85.0779 129.486 85.0591 129.486 85.0395C129.481 85.0225 129.481 85.0046 129.486 84.9877ZM130.092 84.7731C130.088 84.7276 130.092 84.6817 130.106 84.6382C130.12 84.5948 130.144 84.5547 130.174 84.5207C130.205 84.4868 130.242 84.4596 130.284 84.441C130.325 84.4224 130.371 84.4128 130.416 84.4128C130.462 84.4128 130.507 84.4224 130.549 84.441C130.591 84.4596 130.628 84.4868 130.658 84.5207C130.689 84.5547 130.712 84.5948 130.726 84.6382C130.74 84.6817 130.745 84.7276 130.74 84.7731C130.745 84.8192 130.741 84.8659 130.727 84.9101C130.713 84.9544 130.69 84.9953 130.659 85.0301C130.628 85.0649 130.591 85.093 130.549 85.1125C130.507 85.1319 130.461 85.1423 130.414 85.1431C130.368 85.1424 130.323 85.132 130.281 85.1125C130.239 85.093 130.201 85.0649 130.171 85.03C130.14 84.995 130.118 84.9541 130.104 84.9099C130.091 84.8656 130.087 84.819 130.092 84.7731ZM130.566 84.7731C130.566 84.6621 130.503 84.5732 130.414 84.5732C130.326 84.5732 130.266 84.662 130.266 84.7694C130.266 84.8804 130.329 84.9692 130.418 84.9692C130.507 84.9692 130.566 84.8804 130.566 84.7731Z" fill="black"/>
<path d="M126.242 91.6592V92.8174C126.242 92.8458 126.231 92.8731 126.211 92.8932C126.191 92.9134 126.163 92.9247 126.135 92.9247C126.12 92.9252 126.106 92.9228 126.093 92.9176C126.079 92.9124 126.067 92.9046 126.057 92.8946C126.046 92.8846 126.038 92.8726 126.032 92.8593C126.027 92.846 126.024 92.8318 126.024 92.8174V91.8516L125.946 91.896C125.928 91.9011 125.909 91.9011 125.891 91.896C125.872 91.8957 125.853 91.8905 125.837 91.8807C125.821 91.871 125.807 91.8571 125.798 91.8405C125.79 91.8288 125.785 91.8156 125.783 91.8018C125.78 91.7879 125.781 91.7737 125.784 91.7601C125.788 91.7464 125.794 91.7337 125.803 91.7227C125.812 91.7117 125.823 91.7027 125.835 91.6962L126.076 91.5519H126.168L126.242 91.6592Z" fill="black"/>
<path d="M126.492 92.2364C126.489 92.0712 126.535 91.9088 126.626 91.7702C126.66 91.7017 126.713 91.6442 126.778 91.6039C126.844 91.5637 126.919 91.5424 126.996 91.5424C127.072 91.5424 127.148 91.5637 127.213 91.6039C127.278 91.6442 127.331 91.7017 127.366 91.7702C127.456 91.9088 127.502 92.0712 127.499 92.2364C127.502 92.4029 127.456 92.5665 127.366 92.7064C127.331 92.7749 127.278 92.8324 127.213 92.8727C127.148 92.9129 127.072 92.9342 126.996 92.9342C126.919 92.9342 126.844 92.9129 126.778 92.8727C126.713 92.8324 126.66 92.7749 126.626 92.7064C126.535 92.5665 126.489 92.4029 126.492 92.2364ZM127.269 92.2364C127.271 92.1137 127.238 91.993 127.173 91.8886C127.156 91.855 127.13 91.8265 127.098 91.8058C127.066 91.7851 127.03 91.7728 126.992 91.7702C126.953 91.7726 126.915 91.7847 126.882 91.8054C126.85 91.8261 126.822 91.8547 126.803 91.8886C126.74 91.9934 126.708 92.1141 126.711 92.2364C126.707 92.3589 126.74 92.4796 126.803 92.5843C126.822 92.6185 126.85 92.6474 126.882 92.6687C126.915 92.69 126.953 92.7029 126.992 92.7064C127.03 92.7027 127.066 92.6896 127.098 92.6683C127.13 92.647 127.156 92.6181 127.173 92.5843C127.238 92.48 127.272 92.3592 127.269 92.2364Z" fill="black"/>
<path d="M127.883 92.2364C127.881 92.0714 127.928 91.9095 128.016 91.7702C128.054 91.7057 128.109 91.6519 128.173 91.6138C128.238 91.5756 128.311 91.5543 128.386 91.5519C128.461 91.5536 128.535 91.5746 128.6 91.6128C128.664 91.6511 128.718 91.7052 128.756 91.7702C128.846 91.9088 128.893 92.0712 128.889 92.2364C128.893 92.4028 128.846 92.5665 128.756 92.7064C128.718 92.7713 128.664 92.8255 128.6 92.8637C128.535 92.9019 128.461 92.9229 128.386 92.9247C128.311 92.9222 128.238 92.9009 128.173 92.8628C128.109 92.8247 128.054 92.7709 128.016 92.7064C127.927 92.5657 127.881 92.4026 127.883 92.2364ZM128.66 92.2364C128.662 92.1137 128.628 91.993 128.564 91.8886C128.546 91.855 128.52 91.8265 128.488 91.8058C128.457 91.7851 128.42 91.7728 128.382 91.7702C128.344 91.7732 128.307 91.7856 128.275 91.8062C128.243 91.8269 128.216 91.8552 128.197 91.8886C128.133 91.993 128.099 92.1137 128.101 92.2364C128.099 92.3592 128.132 92.48 128.197 92.5843C128.216 92.618 128.243 92.6466 128.275 92.6679C128.307 92.6891 128.344 92.7023 128.382 92.7064C128.42 92.7027 128.457 92.6896 128.489 92.6683C128.52 92.647 128.546 92.6181 128.564 92.5843C128.625 92.4788 128.654 92.3581 128.649 92.2364H128.66Z" fill="black"/>
<path d="M129.26 91.8887C129.255 91.8426 129.259 91.7959 129.273 91.7516C129.287 91.7074 129.31 91.6665 129.341 91.6317C129.371 91.5968 129.409 91.5688 129.451 91.5493C129.493 91.5299 129.539 91.5194 129.586 91.5187C129.63 91.5191 129.674 91.5285 129.714 91.5465C129.755 91.5645 129.791 91.5905 129.822 91.6231C129.852 91.6557 129.875 91.6941 129.89 91.7359C129.904 91.7778 129.91 91.8222 129.907 91.8665C129.912 91.9119 129.908 91.9579 129.893 92.0013C129.879 92.0448 129.856 92.0848 129.826 92.1188C129.795 92.1528 129.758 92.18 129.716 92.1986C129.675 92.2172 129.629 92.2268 129.584 92.2268C129.538 92.2268 129.493 92.2172 129.451 92.1986C129.409 92.18 129.372 92.1528 129.341 92.1188C129.311 92.0848 129.288 92.0448 129.274 92.0013C129.26 91.9579 129.255 91.9119 129.26 91.8665V91.8887ZM129.734 91.8887C129.734 91.7814 129.671 91.6889 129.582 91.6889C129.493 91.6889 129.434 91.7814 129.434 91.885C129.434 91.9997 129.497 92.0848 129.586 92.0848C129.674 92.0848 129.734 91.996 129.734 91.8887ZM129.486 92.8064L130.388 91.5742C130.396 91.5635 130.406 91.5548 130.418 91.549C130.429 91.5432 130.442 91.5404 130.455 91.5409C130.476 91.5409 130.495 91.5491 130.51 91.5636C130.525 91.5782 130.533 91.598 130.533 91.6186C130.537 91.6343 130.537 91.6509 130.533 91.6667L129.63 92.8989C129.623 92.9108 129.612 92.9205 129.6 92.927C129.587 92.9336 129.574 92.9366 129.56 92.9359C129.55 92.9359 129.54 92.9339 129.53 92.9299C129.521 92.926 129.513 92.9202 129.506 92.9129C129.499 92.9056 129.494 92.897 129.49 92.8876C129.487 92.8782 129.485 92.8682 129.486 92.8582C129.482 92.8411 129.482 92.8234 129.486 92.8064ZM130.092 92.5955C130.088 92.55 130.092 92.5041 130.106 92.4606C130.12 92.4171 130.143 92.3771 130.174 92.3431C130.205 92.3092 130.242 92.282 130.284 92.2634C130.325 92.2448 130.371 92.2352 130.416 92.2352C130.462 92.2352 130.507 92.2448 130.549 92.2634C130.591 92.282 130.628 92.3092 130.658 92.3431C130.689 92.3771 130.712 92.4171 130.726 92.4606C130.74 92.5041 130.745 92.55 130.74 92.5955C130.745 92.6416 130.741 92.6883 130.727 92.7325C130.713 92.7768 130.69 92.8177 130.659 92.8525C130.628 92.8873 130.591 92.9154 130.549 92.9348C130.506 92.9543 130.461 92.9647 130.414 92.9655C130.368 92.9654 130.322 92.9553 130.28 92.936C130.237 92.9167 130.2 92.8886 130.169 92.8536C130.139 92.8185 130.116 92.7774 130.103 92.7328C130.09 92.6883 130.086 92.6415 130.092 92.5955ZM130.566 92.5955C130.566 92.4881 130.503 92.3956 130.414 92.3956C130.326 92.3956 130.266 92.4881 130.266 92.5917C130.266 92.7065 130.329 92.7953 130.418 92.7953C130.507 92.7953 130.566 92.7102 130.566 92.5955Z" fill="black"/>
<path d="M125.445 99.8479C125.447 99.727 125.495 99.6113 125.578 99.5242C125.662 99.437 125.776 99.3849 125.897 99.3783C126.017 99.3718 126.136 99.4112 126.229 99.4887C126.321 99.5663 126.381 99.6761 126.396 99.7961C126.396 99.8368 126.396 99.8738 126.396 99.9108C126.398 100.048 126.374 100.185 126.326 100.314C126.279 100.449 126.191 100.565 126.074 100.647C125.987 100.706 125.884 100.738 125.778 100.74C125.75 100.741 125.721 100.73 125.7 100.711C125.679 100.692 125.666 100.665 125.664 100.636C125.664 100.607 125.676 100.579 125.696 100.558C125.715 100.537 125.742 100.524 125.771 100.521C125.836 100.521 125.9 100.503 125.956 100.47C126.007 100.432 126.05 100.384 126.082 100.329L126.104 100.281C126.044 100.307 125.98 100.319 125.915 100.318C125.791 100.317 125.672 100.267 125.584 100.179C125.496 100.091 125.446 99.9722 125.445 99.8479ZM125.664 99.8479C125.664 99.9166 125.691 99.9824 125.739 100.031C125.788 100.08 125.854 100.107 125.923 100.107C125.991 100.107 126.057 100.08 126.106 100.031C126.154 99.9824 126.182 99.9166 126.182 99.8479C126.182 99.7792 126.154 99.7133 126.106 99.6647C126.057 99.6161 125.991 99.5888 125.923 99.5888C125.854 99.5888 125.788 99.6161 125.739 99.6647C125.691 99.7133 125.664 99.7792 125.664 99.8479Z" fill="black"/>
<path d="M126.711 99.8479C126.713 99.727 126.76 99.6113 126.844 99.5242C126.928 99.437 127.042 99.3849 127.162 99.3783C127.283 99.3718 127.402 99.4112 127.494 99.4887C127.587 99.5663 127.647 99.6761 127.662 99.7961C127.662 99.8368 127.662 99.8738 127.662 99.9108C127.663 100.048 127.641 100.185 127.595 100.314C127.547 100.449 127.458 100.566 127.34 100.647C127.252 100.706 127.149 100.738 127.044 100.74C127.03 100.741 127.015 100.739 127.002 100.734C126.989 100.729 126.976 100.722 126.966 100.712C126.955 100.702 126.947 100.691 126.941 100.677C126.936 100.664 126.933 100.65 126.933 100.636C126.933 100.607 126.943 100.58 126.963 100.559C126.982 100.537 127.008 100.524 127.037 100.521C127.102 100.521 127.166 100.503 127.222 100.47C127.275 100.434 127.318 100.386 127.347 100.329L127.373 100.281C127.314 100.306 127.249 100.319 127.185 100.318C127.06 100.318 126.94 100.268 126.851 100.18C126.762 100.092 126.712 99.9728 126.711 99.8479ZM126.929 99.8479C126.925 99.8842 126.928 99.9211 126.939 99.9561C126.95 99.991 126.968 100.023 126.993 100.051C127.017 100.078 127.047 100.1 127.08 100.115C127.114 100.13 127.15 100.138 127.186 100.138C127.223 100.138 127.259 100.13 127.293 100.115C127.326 100.1 127.356 100.078 127.38 100.051C127.404 100.023 127.423 99.991 127.434 99.9561C127.445 99.9211 127.448 99.8842 127.444 99.8479C127.448 99.8115 127.445 99.7746 127.434 99.7397C127.423 99.7047 127.404 99.6725 127.38 99.6451C127.356 99.6177 127.326 99.5957 127.293 99.5807C127.259 99.5657 127.223 99.5579 127.186 99.5579C127.15 99.5579 127.114 99.5657 127.08 99.5807C127.047 99.5957 127.017 99.6177 126.993 99.6451C126.968 99.6725 126.95 99.7047 126.939 99.7397C126.928 99.7746 126.925 99.8115 126.929 99.8479Z" fill="black"/>
<path d="M128.121 100.481C128.15 100.48 128.18 100.488 128.205 100.504C128.229 100.52 128.249 100.543 128.261 100.57C128.272 100.597 128.276 100.628 128.27 100.657C128.264 100.686 128.25 100.712 128.229 100.733C128.208 100.754 128.182 100.768 128.153 100.774C128.124 100.78 128.093 100.776 128.066 100.765C128.039 100.753 128.016 100.733 128 100.709C127.984 100.684 127.976 100.655 127.977 100.625C127.978 100.587 127.993 100.551 128.02 100.524C128.047 100.497 128.083 100.482 128.121 100.481Z" fill="black"/>
<path d="M128.406 99.8479C128.408 99.727 128.456 99.6113 128.539 99.5242C128.623 99.437 128.737 99.3849 128.858 99.3783C128.978 99.3718 129.097 99.4112 129.19 99.4887C129.282 99.5663 129.342 99.6761 129.357 99.7961C129.357 99.8368 129.357 99.8738 129.357 99.9108C129.359 100.048 129.336 100.185 129.291 100.314C129.242 100.449 129.153 100.566 129.035 100.647C128.949 100.705 128.847 100.737 128.743 100.74C128.729 100.741 128.714 100.739 128.7 100.734C128.687 100.729 128.674 100.722 128.664 100.712C128.653 100.703 128.644 100.691 128.638 100.678C128.632 100.665 128.629 100.65 128.628 100.636C128.628 100.607 128.639 100.579 128.659 100.557C128.679 100.536 128.706 100.523 128.736 100.521C128.8 100.522 128.863 100.504 128.917 100.47C128.97 100.434 129.014 100.386 129.043 100.329C129.053 100.314 129.061 100.298 129.069 100.281C129.009 100.306 128.945 100.319 128.88 100.318C128.755 100.318 128.635 100.268 128.546 100.18C128.458 100.092 128.407 99.9728 128.406 99.8479ZM128.625 99.8479C128.625 99.9166 128.652 99.9824 128.7 100.031C128.749 100.08 128.815 100.107 128.884 100.107C128.935 100.107 128.985 100.092 129.027 100.063C129.07 100.035 129.103 99.9943 129.123 99.947C129.142 99.8997 129.148 99.8476 129.138 99.7973C129.128 99.7471 129.103 99.7009 129.067 99.6647C129.031 99.6285 128.984 99.6038 128.934 99.5938C128.884 99.5838 128.832 99.589 128.784 99.6086C128.737 99.6282 128.697 99.6614 128.668 99.704C128.64 99.7466 128.625 99.7966 128.625 99.8479Z" fill="black"/>
<path d="M129.642 99.711C129.64 99.6663 129.647 99.6216 129.662 99.5795C129.677 99.5375 129.7 99.4989 129.731 99.4661C129.761 99.4333 129.798 99.4069 129.839 99.3886C129.879 99.3703 129.923 99.3604 129.968 99.3594C130.012 99.3598 130.056 99.3693 130.097 99.3873C130.137 99.4052 130.174 99.4313 130.204 99.4639C130.234 99.4964 130.257 99.5348 130.272 99.5767C130.287 99.6185 130.293 99.663 130.29 99.7073C130.295 99.7527 130.29 99.7986 130.276 99.8421C130.262 99.8856 130.239 99.9256 130.208 99.9596C130.178 99.9935 130.141 100.021 130.099 100.039C130.057 100.058 130.012 100.068 129.966 100.068C129.921 100.068 129.875 100.058 129.834 100.039C129.792 100.021 129.755 99.9935 129.724 99.9596C129.694 99.9256 129.67 99.8856 129.656 99.8421C129.642 99.7986 129.638 99.7527 129.642 99.7073V99.711ZM130.116 99.711C130.116 99.6 130.053 99.5111 129.964 99.5111C129.876 99.5111 129.816 99.6 129.816 99.7073C129.816 99.8183 129.879 99.9071 129.968 99.9071C130.057 99.9071 130.127 99.8183 130.127 99.711H130.116ZM129.868 100.629L130.771 99.3964C130.778 99.3858 130.788 99.3771 130.8 99.3713C130.812 99.3655 130.825 99.3627 130.838 99.3631C130.848 99.3626 130.858 99.3642 130.867 99.3677C130.877 99.3712 130.885 99.3765 130.892 99.3835C130.9 99.3904 130.905 99.3987 130.909 99.4079C130.913 99.4172 130.915 99.4271 130.915 99.4371C130.921 99.4539 130.921 99.4721 130.915 99.4889L130.016 100.721C130.008 100.732 129.998 100.742 129.985 100.748C129.973 100.754 129.96 100.758 129.946 100.758C129.925 100.758 129.906 100.75 129.891 100.735C129.876 100.721 129.868 100.701 129.868 100.68C129.865 100.663 129.865 100.646 129.868 100.629ZM130.475 100.414C130.47 100.369 130.475 100.323 130.489 100.279C130.503 100.236 130.526 100.196 130.557 100.162C130.587 100.128 130.624 100.101 130.666 100.082C130.708 100.063 130.753 100.054 130.799 100.054C130.844 100.054 130.89 100.063 130.931 100.082C130.973 100.101 131.01 100.128 131.041 100.162C131.072 100.196 131.095 100.236 131.109 100.279C131.123 100.323 131.127 100.369 131.123 100.414C131.125 100.459 131.119 100.503 131.103 100.545C131.088 100.587 131.065 100.626 131.034 100.659C131.004 100.692 130.967 100.718 130.927 100.736C130.886 100.755 130.842 100.765 130.797 100.766C130.752 100.765 130.708 100.755 130.668 100.736C130.627 100.718 130.591 100.692 130.561 100.659C130.531 100.626 130.508 100.587 130.493 100.545C130.478 100.503 130.472 100.458 130.475 100.414ZM130.949 100.414C130.949 100.303 130.886 100.214 130.797 100.214C130.708 100.214 130.649 100.303 130.649 100.41C130.649 100.521 130.712 100.61 130.801 100.61C130.889 100.61 130.949 100.521 130.949 100.414Z" fill="black"/>
<path d="M126.242 107.3V108.458C126.242 108.487 126.231 108.515 126.211 108.536C126.191 108.556 126.164 108.568 126.135 108.569C126.12 108.57 126.106 108.567 126.092 108.562C126.078 108.557 126.066 108.548 126.055 108.538C126.045 108.528 126.037 108.515 126.031 108.501C126.026 108.488 126.024 108.473 126.024 108.458V107.511L125.946 107.556C125.931 107.568 125.911 107.575 125.891 107.574C125.872 107.573 125.854 107.568 125.838 107.558C125.822 107.548 125.808 107.535 125.798 107.519C125.79 107.507 125.785 107.493 125.783 107.479C125.78 107.465 125.781 107.45 125.784 107.436C125.788 107.422 125.794 107.409 125.803 107.398C125.812 107.387 125.823 107.377 125.835 107.371L126.076 107.226H126.157L126.242 107.3Z" fill="black"/>
<path d="M126.492 107.881C126.489 107.715 126.535 107.551 126.626 107.411C126.66 107.343 126.713 107.285 126.778 107.245C126.844 107.205 126.919 107.183 126.996 107.183C127.072 107.183 127.148 107.205 127.213 107.245C127.278 107.285 127.331 107.343 127.366 107.411C127.456 107.551 127.502 107.715 127.499 107.881C127.502 108.047 127.455 108.211 127.366 108.351C127.331 108.42 127.278 108.477 127.213 108.517C127.148 108.558 127.072 108.579 126.996 108.579C126.919 108.579 126.844 108.558 126.778 108.517C126.713 108.477 126.66 108.42 126.626 108.351C126.536 108.211 126.489 108.047 126.492 107.881ZM127.269 107.881C127.271 107.757 127.238 107.635 127.173 107.53C127.156 107.496 127.13 107.467 127.098 107.447C127.066 107.426 127.03 107.414 126.992 107.411C126.953 107.414 126.915 107.426 126.882 107.446C126.85 107.467 126.822 107.496 126.803 107.53C126.743 107.636 126.711 107.757 126.711 107.879C126.711 108.002 126.743 108.122 126.803 108.229C126.822 108.263 126.85 108.292 126.882 108.313C126.915 108.335 126.953 108.348 126.992 108.351C127.03 108.347 127.066 108.334 127.098 108.313C127.13 108.292 127.156 108.263 127.173 108.229C127.237 108.124 127.271 108.004 127.269 107.881Z" fill="black"/>
<path d="M127.883 107.881C127.881 107.715 127.927 107.552 128.016 107.411C128.054 107.347 128.109 107.293 128.173 107.255C128.238 107.217 128.311 107.195 128.386 107.193C128.461 107.195 128.535 107.216 128.6 107.254C128.664 107.292 128.718 107.346 128.756 107.411C128.846 107.551 128.893 107.715 128.889 107.881C128.892 108.047 128.846 108.211 128.756 108.351C128.717 108.415 128.663 108.469 128.599 108.507C128.534 108.545 128.461 108.567 128.386 108.569C128.311 108.566 128.238 108.545 128.174 108.507C128.109 108.469 128.055 108.415 128.016 108.351C127.928 108.21 127.882 108.047 127.883 107.881ZM128.66 107.881C128.662 107.757 128.628 107.635 128.564 107.53C128.546 107.496 128.52 107.468 128.488 107.447C128.457 107.426 128.42 107.414 128.382 107.411C128.344 107.414 128.307 107.427 128.275 107.447C128.243 107.468 128.216 107.496 128.197 107.53C128.135 107.635 128.101 107.756 128.101 107.879C128.101 108.002 128.135 108.123 128.197 108.229C128.216 108.263 128.243 108.291 128.275 108.313C128.307 108.334 128.344 108.347 128.382 108.351C128.42 108.347 128.457 108.334 128.489 108.313C128.52 108.292 128.546 108.263 128.564 108.229C128.624 108.123 128.653 108.003 128.649 107.881H128.66Z" fill="black"/>
<path d="M129.26 107.533C129.255 107.487 129.259 107.441 129.273 107.396C129.287 107.352 129.31 107.311 129.341 107.276C129.371 107.241 129.409 107.213 129.451 107.194C129.493 107.175 129.539 107.164 129.586 107.163C129.63 107.164 129.674 107.173 129.714 107.191C129.755 107.209 129.791 107.235 129.822 107.268C129.852 107.3 129.875 107.339 129.89 107.381C129.904 107.422 129.91 107.467 129.907 107.511C129.91 107.556 129.903 107.6 129.888 107.643C129.873 107.685 129.85 107.723 129.819 107.756C129.789 107.789 129.752 107.815 129.711 107.834C129.671 107.852 129.627 107.862 129.582 107.863C129.496 107.861 129.414 107.825 129.354 107.764C129.294 107.702 129.26 107.619 129.26 107.533ZM129.734 107.533C129.734 107.422 129.671 107.334 129.582 107.334C129.493 107.334 129.434 107.422 129.434 107.53C129.434 107.641 129.497 107.729 129.586 107.729C129.674 107.729 129.734 107.637 129.734 107.533ZM129.486 108.451L130.388 107.219C130.395 107.207 130.405 107.198 130.417 107.191C130.428 107.185 130.442 107.181 130.455 107.182C130.476 107.182 130.495 107.19 130.51 107.205C130.525 107.219 130.533 107.239 130.533 107.26C130.536 107.277 130.536 107.294 130.533 107.311L129.63 108.544C129.622 108.555 129.611 108.563 129.599 108.569C129.587 108.575 129.573 108.578 129.56 108.577C129.54 108.577 129.521 108.569 129.507 108.555C129.493 108.541 129.486 108.522 129.486 108.503C129.481 108.486 129.481 108.468 129.486 108.451ZM130.092 108.236C130.088 108.191 130.092 108.145 130.106 108.102C130.12 108.058 130.143 108.018 130.174 107.984C130.205 107.95 130.242 107.923 130.284 107.904C130.325 107.886 130.371 107.876 130.416 107.876C130.462 107.876 130.507 107.886 130.549 107.904C130.591 107.923 130.628 107.95 130.658 107.984C130.689 108.018 130.712 108.058 130.726 108.102C130.74 108.145 130.745 108.191 130.74 108.236C130.745 108.283 130.741 108.329 130.727 108.373C130.713 108.418 130.69 108.459 130.659 108.493C130.628 108.528 130.591 108.556 130.549 108.576C130.506 108.595 130.461 108.606 130.414 108.606C130.369 108.606 130.325 108.596 130.284 108.577C130.243 108.558 130.207 108.532 130.177 108.498C130.147 108.465 130.124 108.426 130.109 108.383C130.095 108.341 130.089 108.296 130.092 108.251V108.236ZM130.566 108.236C130.566 108.125 130.503 108.037 130.414 108.037C130.326 108.037 130.266 108.125 130.266 108.233C130.266 108.344 130.329 108.433 130.418 108.433C130.507 108.433 130.566 108.344 130.566 108.251V108.236Z" fill="black"/>
<path d="M126.289 115.489C126.292 115.368 126.34 115.253 126.424 115.167C126.508 115.08 126.622 115.028 126.742 115.022C126.863 115.016 126.981 115.056 127.073 115.134C127.166 115.211 127.225 115.321 127.24 115.441C127.24 115.478 127.24 115.515 127.24 115.552C127.242 115.689 127.218 115.826 127.17 115.955C127.122 116.09 127.034 116.208 126.918 116.292C126.83 116.35 126.728 116.382 126.622 116.384C126.597 116.38 126.574 116.366 126.557 116.346C126.54 116.326 126.531 116.301 126.531 116.275C126.531 116.249 126.54 116.224 126.557 116.204C126.574 116.184 126.597 116.171 126.622 116.166C126.687 116.163 126.751 116.144 126.807 116.11C126.859 116.075 126.902 116.028 126.933 115.974L126.955 115.922C126.896 115.949 126.832 115.963 126.766 115.962C126.64 115.962 126.52 115.913 126.43 115.824C126.341 115.735 126.29 115.615 126.289 115.489ZM126.507 115.489C126.507 115.558 126.535 115.623 126.583 115.672C126.632 115.721 126.698 115.748 126.766 115.748C126.835 115.748 126.901 115.721 126.95 115.672C126.998 115.623 127.025 115.558 127.025 115.489C127.025 115.42 126.998 115.354 126.95 115.306C126.901 115.257 126.835 115.23 126.766 115.23C126.698 115.23 126.632 115.257 126.583 115.306C126.535 115.354 126.507 115.42 126.507 115.489Z" fill="black"/>
<path d="M127.555 115.489C127.557 115.368 127.605 115.253 127.69 115.167C127.774 115.08 127.887 115.028 128.008 115.022C128.128 115.016 128.247 115.056 128.339 115.134C128.431 115.211 128.491 115.321 128.506 115.441C128.506 115.478 128.506 115.515 128.506 115.552C128.507 115.689 128.485 115.826 128.439 115.955C128.39 116.091 128.301 116.208 128.184 116.292C128.097 116.35 127.996 116.382 127.891 116.384C127.866 116.38 127.843 116.366 127.826 116.346C127.81 116.326 127.801 116.301 127.801 116.275C127.801 116.249 127.81 116.224 127.826 116.204C127.843 116.184 127.866 116.171 127.891 116.166C127.955 116.164 128.018 116.145 128.072 116.111C128.127 116.077 128.172 116.03 128.202 115.974C128.202 115.974 128.221 115.94 128.228 115.922C128.169 115.948 128.104 115.962 128.039 115.962C127.976 115.963 127.914 115.952 127.855 115.929C127.797 115.905 127.743 115.871 127.698 115.827C127.653 115.783 127.617 115.73 127.593 115.672C127.568 115.614 127.555 115.552 127.555 115.489ZM127.773 115.489C127.769 115.525 127.772 115.562 127.783 115.597C127.794 115.632 127.812 115.664 127.836 115.692C127.861 115.719 127.891 115.741 127.924 115.756C127.957 115.771 127.994 115.779 128.03 115.779C128.067 115.779 128.103 115.771 128.136 115.756C128.17 115.741 128.2 115.719 128.224 115.692C128.248 115.664 128.266 115.632 128.277 115.597C128.288 115.562 128.292 115.525 128.287 115.489C128.28 115.426 128.249 115.368 128.202 115.326C128.155 115.284 128.094 115.261 128.03 115.261C127.967 115.261 127.906 115.284 127.858 115.326C127.811 115.368 127.781 115.426 127.773 115.489Z" fill="black"/>
<path d="M128.799 115.352C128.794 115.306 128.798 115.259 128.812 115.215C128.826 115.171 128.849 115.13 128.88 115.095C128.911 115.06 128.948 115.032 128.99 115.013C129.032 114.993 129.078 114.983 129.125 114.982C129.169 114.982 129.213 114.992 129.253 115.01C129.294 115.028 129.33 115.054 129.361 115.086C129.391 115.119 129.414 115.157 129.429 115.199C129.443 115.241 129.45 115.285 129.446 115.33C129.451 115.375 129.447 115.421 129.433 115.465C129.418 115.508 129.395 115.548 129.365 115.582C129.334 115.616 129.297 115.643 129.255 115.662C129.214 115.68 129.168 115.69 129.123 115.69C129.077 115.69 129.032 115.68 128.99 115.662C128.948 115.643 128.911 115.616 128.881 115.582C128.85 115.548 128.827 115.508 128.813 115.465C128.799 115.421 128.794 115.375 128.799 115.33V115.352ZM129.273 115.352C129.273 115.245 129.21 115.152 129.121 115.152C129.032 115.152 128.973 115.245 128.973 115.348C128.973 115.463 129.036 115.552 129.125 115.552C129.213 115.552 129.273 115.459 129.273 115.352ZM129.025 116.27L129.928 115.037C129.935 115.026 129.945 115.018 129.956 115.012C129.968 115.006 129.981 115.003 129.994 115.004C130.015 115.004 130.034 115.012 130.049 115.027C130.064 115.041 130.072 115.061 130.072 115.082C130.072 115.1 130.065 115.117 130.053 115.13L129.154 116.362C129.146 116.374 129.136 116.383 129.124 116.389C129.111 116.396 129.098 116.399 129.084 116.399C129.063 116.399 129.043 116.391 129.029 116.376C129.014 116.362 129.006 116.342 129.006 116.321C129.006 116.303 129.011 116.285 129.021 116.27H129.025ZM129.631 116.059C129.627 116.013 129.631 115.967 129.645 115.924C129.659 115.88 129.683 115.84 129.713 115.806C129.744 115.772 129.781 115.745 129.823 115.727C129.864 115.708 129.91 115.698 129.955 115.698C130.001 115.698 130.046 115.708 130.088 115.727C130.13 115.745 130.167 115.772 130.197 115.806C130.228 115.84 130.251 115.88 130.265 115.924C130.279 115.967 130.284 116.013 130.279 116.059C130.284 116.105 130.279 116.151 130.265 116.195C130.25 116.239 130.227 116.28 130.197 116.315C130.166 116.349 130.129 116.377 130.087 116.397C130.045 116.417 130 116.427 129.953 116.429C129.907 116.428 129.862 116.418 129.82 116.398C129.778 116.379 129.74 116.351 129.71 116.316C129.679 116.281 129.657 116.24 129.643 116.196C129.63 116.151 129.626 116.105 129.631 116.059ZM130.105 116.059C130.105 115.951 130.042 115.859 129.953 115.859C129.865 115.859 129.805 115.951 129.805 116.055C129.805 116.17 129.868 116.259 129.957 116.259C130.046 116.259 130.105 116.162 130.105 116.059Z" fill="black"/>
<path d="M161.887 74.9785L161.406 76.1256H161.358L161.099 75.515L160.844 76.1256H160.792H160.773L160.292 74.9785C160.286 74.9535 160.289 74.9271 160.3 74.9041C160.312 74.881 160.331 74.8629 160.355 74.8531C160.379 74.8432 160.406 74.8422 160.43 74.8503C160.454 74.8584 160.475 74.875 160.488 74.8971L160.858 75.8073L161.114 75.2042C161.122 75.1844 161.136 75.1675 161.154 75.1556C161.171 75.1437 161.192 75.1375 161.214 75.1376C161.236 75.1367 161.257 75.1426 161.276 75.1545C161.295 75.1665 161.309 75.1838 161.317 75.2042L161.569 75.8073L161.939 74.8971C161.95 74.8706 161.971 74.8495 161.997 74.8383C162.023 74.8272 162.053 74.8271 162.08 74.8379C162.106 74.8487 162.127 74.8695 162.138 74.8959C162.149 74.9223 162.15 74.952 162.139 74.9785H161.887Z" fill="black"/>
<path d="M162.032 75.689C162.031 75.561 162.08 75.4379 162.17 75.3464C162.259 75.2549 162.381 75.2025 162.509 75.2005C162.632 75.1995 162.75 75.2465 162.839 75.3316C162.927 75.4166 162.979 75.533 162.983 75.6556V75.689C162.978 75.7125 162.965 75.7335 162.946 75.7478C162.927 75.7622 162.903 75.7689 162.879 75.7667H162.254C162.265 75.8159 162.287 75.8617 162.32 75.8999C162.372 75.9485 162.438 75.9784 162.509 75.985C162.582 75.9926 162.655 75.9756 162.716 75.9369C162.736 75.9189 162.762 75.909 162.788 75.909C162.815 75.909 162.841 75.9189 162.861 75.9369C162.869 75.9452 162.877 75.9552 162.881 75.9663C162.886 75.9775 162.889 75.9895 162.889 76.0016C162.889 76.0138 162.886 76.0258 162.881 76.0369C162.877 76.048 162.869 76.0581 162.861 76.0664C162.811 76.1122 162.753 76.1473 162.689 76.1696C162.625 76.1918 162.558 76.2008 162.491 76.1959C162.363 76.1892 162.243 76.1321 162.157 76.0371C162.071 75.9421 162.026 75.8169 162.032 75.689ZM162.246 75.5927H162.801C162.779 75.5331 162.739 75.4816 162.687 75.4447C162.635 75.4078 162.573 75.3872 162.509 75.3855C162.447 75.3868 162.387 75.409 162.34 75.4487C162.292 75.4884 162.259 75.5431 162.246 75.6038V75.5927Z" fill="black"/>
<path d="M163.227 75.689C163.226 75.6253 163.238 75.5622 163.262 75.5032C163.286 75.4442 163.321 75.3905 163.366 75.3451C163.411 75.2997 163.464 75.2636 163.522 75.2388C163.581 75.214 163.644 75.201 163.708 75.2005C163.83 75.1995 163.949 75.2465 164.037 75.3316C164.126 75.4166 164.177 75.533 164.181 75.6556C164.184 75.6616 164.184 75.6682 164.181 75.6741C164.18 75.6858 164.176 75.6972 164.17 75.7074C164.165 75.7177 164.157 75.7267 164.148 75.7339C164.138 75.7412 164.128 75.7465 164.116 75.7495C164.105 75.7526 164.093 75.7534 164.081 75.7519H163.441C163.45 75.8017 163.473 75.8479 163.508 75.8851C163.559 75.9349 163.625 75.9651 163.697 75.9702C163.768 75.9781 163.84 75.9611 163.9 75.9221C163.921 75.9046 163.947 75.895 163.974 75.895C164.001 75.895 164.027 75.9046 164.048 75.9221C164.065 75.9394 164.074 75.9626 164.074 75.9868C164.074 76.011 164.065 76.0343 164.048 76.0516C163.953 76.1394 163.826 76.1859 163.697 76.1811C163.57 76.1763 163.449 76.1222 163.362 76.0303C163.274 75.9384 163.226 75.816 163.227 75.689ZM163.441 75.5927H164C163.976 75.5337 163.936 75.4827 163.884 75.4459C163.833 75.4091 163.771 75.3882 163.708 75.3855C163.645 75.3872 163.585 75.4096 163.537 75.4491C163.489 75.4886 163.455 75.5431 163.441 75.6038V75.5927Z" fill="black"/>
<path d="M164.488 76.0849V74.9267C164.488 74.9123 164.49 74.8979 164.495 74.8845C164.501 74.871 164.508 74.8588 164.518 74.8484C164.528 74.838 164.54 74.8298 164.554 74.8242C164.567 74.8186 164.581 74.8157 164.596 74.8157C164.625 74.8166 164.652 74.8286 164.673 74.8492C164.694 74.8698 164.706 74.8975 164.707 74.9267V75.6038L165.106 75.2005C165.127 75.181 165.155 75.1702 165.184 75.1702C165.213 75.1702 165.241 75.181 165.262 75.2005C165.272 75.2105 165.281 75.2226 165.286 75.2359C165.292 75.2493 165.295 75.2637 165.295 75.2782C165.295 75.2927 165.292 75.3071 165.286 75.3205C165.281 75.3338 165.272 75.3459 165.262 75.3559L164.966 75.6519L165.269 76.022C165.289 76.0421 165.3 76.0694 165.3 76.0978C165.3 76.1263 165.289 76.1535 165.269 76.1737C165.259 76.1841 165.248 76.1924 165.235 76.1981C165.222 76.2038 165.207 76.2067 165.193 76.2067C165.179 76.2067 165.165 76.2038 165.152 76.1981C165.139 76.1924 165.127 76.1841 165.117 76.1737L164.829 75.8258L164.721 75.9332V76.1071C164.72 76.1359 164.708 76.1631 164.688 76.1832C164.667 76.2032 164.639 76.2144 164.61 76.2144C164.593 76.2183 164.575 76.2175 164.558 76.2123C164.54 76.207 164.525 76.1974 164.513 76.1843C164.5 76.1712 164.492 76.1552 164.487 76.1378C164.483 76.1204 164.483 76.1021 164.488 76.0849Z" fill="black"/>
<path d="M167.006 76.0849C167.006 76.1133 166.994 76.1406 166.974 76.1608C166.954 76.1809 166.927 76.1922 166.898 76.1922H166.199C166.184 76.1927 166.169 76.19 166.155 76.1843C166.141 76.1785 166.128 76.1699 166.118 76.1589C166.097 76.1381 166.086 76.1102 166.086 76.0812C166.086 76.0521 166.097 76.0242 166.118 76.0035L166.699 75.478C166.725 75.4541 166.745 75.4249 166.759 75.3924C166.773 75.3599 166.78 75.3247 166.78 75.2893C166.78 75.2262 166.756 75.1653 166.713 75.1191C166.69 75.0916 166.662 75.0696 166.629 75.0549C166.596 75.0401 166.561 75.033 166.525 75.034C166.462 75.0348 166.401 75.0585 166.354 75.1006L166.295 75.1561C166.285 75.1656 166.272 75.1729 166.259 75.1775C166.245 75.1822 166.231 75.1842 166.217 75.1833C166.202 75.1824 166.188 75.1788 166.176 75.1725C166.163 75.1663 166.151 75.1576 166.142 75.1469C166.132 75.1362 166.125 75.1237 166.12 75.1102C166.116 75.0967 166.114 75.0824 166.115 75.0682C166.115 75.0539 166.119 75.04 166.125 75.0271C166.132 75.0143 166.14 75.0028 166.151 74.9933L166.21 74.9378C166.296 74.8593 166.408 74.8157 166.525 74.8157C166.594 74.8137 166.663 74.8265 166.727 74.8533C166.79 74.8801 166.848 74.9203 166.895 74.9711C166.973 75.0585 167.017 75.1718 167.017 75.2893C167.017 75.355 167.003 75.4199 166.976 75.4798C166.949 75.5398 166.91 75.5934 166.861 75.6372L166.491 75.9739H166.91C166.937 75.9767 166.962 75.9897 166.98 76.0103C166.997 76.031 167.007 76.0576 167.006 76.0849Z" fill="black"/>
<path d="M179.476 74.9785L178.995 76.1256H178.976H178.928H178.91L178.651 75.5151L178.395 76.1256H178.347H178.329L177.844 74.9785C177.839 74.9657 177.836 74.9519 177.836 74.938C177.836 74.9241 177.839 74.9103 177.844 74.8975C177.85 74.8847 177.858 74.8732 177.868 74.8636C177.878 74.854 177.89 74.8465 177.903 74.8416C177.916 74.8356 177.93 74.8322 177.944 74.8318C177.958 74.8313 177.972 74.8337 177.985 74.8389C177.999 74.8441 178.011 74.852 178.021 74.862C178.031 74.872 178.039 74.884 178.044 74.8971L178.414 75.8074L178.665 75.2043C178.674 75.1839 178.688 75.1665 178.707 75.1546C178.725 75.1427 178.747 75.1368 178.769 75.1377C178.791 75.1378 178.812 75.1441 178.831 75.1559C178.849 75.1677 178.863 75.1845 178.873 75.2043L179.124 75.8074L179.494 74.8971C179.5 74.8838 179.508 74.8718 179.518 74.8618C179.529 74.8517 179.541 74.8439 179.555 74.8387C179.568 74.8335 179.582 74.8311 179.597 74.8316C179.611 74.8321 179.625 74.8355 179.639 74.8416C179.648 74.8523 179.654 74.8647 179.659 74.878C179.663 74.8913 179.664 74.9053 179.663 74.9193C179.662 74.9332 179.658 74.9467 179.652 74.9591C179.645 74.9715 179.636 74.9825 179.626 74.9915C179.615 75.0005 179.603 75.0073 179.589 75.0115C179.576 75.0157 179.562 75.0173 179.548 75.0161C179.534 75.0149 179.521 75.0109 179.508 75.0045C179.496 74.9981 179.485 74.9892 179.476 74.9785Z" fill="black"/>
<path d="M179.61 75.689C179.609 75.6253 179.621 75.5622 179.645 75.5032C179.669 75.4442 179.704 75.3905 179.749 75.3451C179.794 75.2997 179.847 75.2636 179.906 75.2388C179.964 75.214 180.027 75.201 180.091 75.2005C180.214 75.1995 180.332 75.2465 180.42 75.3316C180.509 75.4166 180.561 75.533 180.564 75.6556V75.689C180.56 75.7125 180.547 75.7335 180.528 75.7478C180.508 75.7622 180.485 75.7689 180.461 75.7667H179.835C179.846 75.8159 179.869 75.8617 179.902 75.8999C179.954 75.9486 180.021 75.9787 180.092 75.9854C180.163 75.9921 180.234 75.975 180.294 75.9369C180.315 75.9194 180.341 75.9098 180.368 75.9098C180.395 75.9098 180.422 75.9194 180.442 75.9369C180.459 75.9542 180.469 75.9774 180.469 76.0016C180.469 76.0258 180.459 76.0491 180.442 76.0664C180.347 76.1542 180.22 76.2007 180.091 76.1959C180.026 76.1949 179.961 76.181 179.902 76.1549C179.842 76.1287 179.788 76.0909 179.744 76.0437C179.699 75.9965 179.664 75.9408 179.641 75.8798C179.618 75.8189 179.607 75.754 179.61 75.689ZM179.824 75.5927H180.383C180.36 75.5337 180.319 75.4827 180.268 75.4459C180.216 75.4091 180.154 75.3882 180.091 75.3855C180.028 75.3872 179.968 75.4096 179.92 75.4491C179.872 75.4886 179.838 75.5431 179.824 75.6038V75.5927Z" fill="black"/>
<path d="M180.828 75.689C180.828 75.6253 180.84 75.5622 180.864 75.5032C180.888 75.4442 180.923 75.3905 180.967 75.3451C181.012 75.2997 181.065 75.2636 181.124 75.2388C181.183 75.214 181.246 75.201 181.309 75.2005C181.432 75.1995 181.55 75.2465 181.639 75.3316C181.727 75.4166 181.779 75.533 181.783 75.6556C181.785 75.6616 181.785 75.6682 181.783 75.6741C181.779 75.6974 181.767 75.7183 181.748 75.7328C181.73 75.7472 181.706 75.754 181.683 75.7519H181.058C181.065 75.8022 181.088 75.8488 181.124 75.8851C181.175 75.9349 181.242 75.9651 181.313 75.9702C181.384 75.9781 181.456 75.9611 181.516 75.9221C181.537 75.9046 181.563 75.895 181.59 75.895C181.617 75.895 181.644 75.9046 181.664 75.9221C181.681 75.9394 181.691 75.9626 181.691 75.9868C181.691 76.011 181.681 76.0343 181.664 76.0516C181.568 76.1387 181.442 76.1852 181.313 76.1811C181.249 76.1806 181.185 76.1675 181.126 76.1425C181.067 76.1175 181.014 76.0811 180.969 76.0354C180.924 75.9897 180.888 75.9356 180.864 75.8762C180.84 75.8167 180.828 75.7531 180.828 75.689ZM181.043 75.5927H181.568C181.546 75.5334 181.507 75.482 181.455 75.4451C181.404 75.4082 181.343 75.3875 181.28 75.3855C181.219 75.389 181.161 75.4122 181.115 75.4517C181.069 75.4911 181.037 75.5445 181.024 75.6038L181.043 75.5927Z" fill="black"/>
<path d="M182.071 76.0849V74.9267C182.07 74.9123 182.073 74.8979 182.078 74.8845C182.083 74.871 182.091 74.8588 182.101 74.8484C182.111 74.838 182.123 74.8298 182.136 74.8242C182.15 74.8186 182.164 74.8157 182.178 74.8157C182.207 74.8166 182.234 74.8288 182.254 74.8495C182.274 74.8702 182.286 74.8979 182.286 74.9267V75.6038L182.689 75.2005C182.71 75.1845 182.737 75.1767 182.763 75.1786C182.79 75.1805 182.815 75.1919 182.834 75.2108C182.853 75.2297 182.864 75.2548 182.866 75.2814C182.868 75.3081 182.86 75.3345 182.844 75.3559L182.548 75.6519L182.852 76.022C182.864 76.0382 182.871 76.0575 182.873 76.0777C182.875 76.0979 182.872 76.1183 182.863 76.1366C182.854 76.1549 182.841 76.1705 182.824 76.1816C182.807 76.1927 182.787 76.1989 182.767 76.1996C182.751 76.1997 182.735 76.1961 182.721 76.189C182.707 76.1819 182.695 76.1716 182.685 76.1589L182.397 75.811L182.286 75.9184V76.0923C182.286 76.1064 182.283 76.1203 182.277 76.1333C182.272 76.1463 182.264 76.1582 182.254 76.1681C182.244 76.1781 182.232 76.186 182.219 76.1914C182.206 76.1968 182.192 76.1996 182.178 76.1996C182.163 76.2002 182.148 76.1976 182.135 76.1919C182.121 76.1863 182.108 76.1777 182.098 76.1668C182.088 76.1559 182.08 76.143 182.076 76.1288C182.071 76.1147 182.069 76.0997 182.071 76.0849Z" fill="black"/>
<path d="M184.453 75.3559C184.499 75.4013 184.535 75.4552 184.56 75.5146C184.584 75.574 184.597 75.6376 184.597 75.7019C184.597 75.7662 184.584 75.8299 184.56 75.8892C184.535 75.9486 184.499 76.0025 184.453 76.0479C184.36 76.1389 184.236 76.1905 184.106 76.1922C183.985 76.1889 183.871 76.1415 183.784 76.059C183.773 76.0486 183.765 76.0363 183.759 76.0226C183.753 76.0089 183.75 75.9943 183.75 75.9794C183.75 75.9646 183.753 75.9499 183.759 75.9363C183.765 75.9226 183.773 75.9102 183.784 75.8999C183.805 75.8804 183.833 75.8696 183.861 75.8696C183.89 75.8696 183.918 75.8804 183.939 75.8999C183.988 75.9487 184.055 75.9761 184.124 75.9761C184.193 75.9761 184.26 75.9487 184.309 75.8999C184.334 75.876 184.354 75.8473 184.368 75.8155C184.381 75.7837 184.388 75.7495 184.388 75.7149C184.388 75.6803 184.381 75.646 184.368 75.6142C184.354 75.5824 184.334 75.5537 184.309 75.5299C184.285 75.5047 184.257 75.4848 184.225 75.4714C184.193 75.4581 184.159 75.4515 184.124 75.4521C184.109 75.4522 184.093 75.4489 184.079 75.4425C184.065 75.4361 184.053 75.4268 184.043 75.4151C184.032 75.4051 184.023 75.3928 184.017 75.3791C184.01 75.3654 184.007 75.3506 184.007 75.3356C184.007 75.3206 184.01 75.3058 184.017 75.2921C184.023 75.2784 184.032 75.2661 184.043 75.256L184.242 75.0525H183.924C183.895 75.0525 183.867 75.0408 183.846 75.02C183.825 74.9992 183.813 74.971 183.813 74.9415C183.813 74.9121 183.825 74.8838 183.846 74.863C183.867 74.8422 183.895 74.8305 183.924 74.8305H184.501C184.516 74.83 184.531 74.8325 184.545 74.8379C184.559 74.8432 184.572 74.8513 184.582 74.8617C184.593 74.872 184.602 74.8844 184.607 74.8982C184.613 74.9119 184.616 74.9266 184.616 74.9415C184.62 74.9586 184.62 74.9762 184.616 74.9933L184.598 75.0192L184.35 75.2745C184.388 75.297 184.422 75.3244 184.453 75.3559Z" fill="black"/>
<path d="M197.022 74.9785L196.541 76.1256H196.522H196.478H196.459L196.204 75.5151L195.945 76.1256H195.927H195.878H195.86L195.375 74.9785C195.37 74.9657 195.367 74.9519 195.367 74.9379C195.367 74.924 195.37 74.9103 195.376 74.8975C195.381 74.8847 195.389 74.8732 195.399 74.8636C195.409 74.854 195.421 74.8465 195.434 74.8416C195.447 74.8356 195.461 74.8322 195.475 74.8317C195.489 74.8313 195.504 74.8337 195.517 74.8389C195.53 74.8441 195.542 74.852 195.552 74.862C195.562 74.872 195.57 74.8839 195.575 74.8971L195.945 75.8074L196.197 75.2042C196.205 75.1838 196.219 75.1665 196.238 75.1546C196.256 75.1427 196.278 75.1367 196.3 75.1376C196.322 75.1375 196.343 75.1438 196.36 75.1556C196.378 75.1675 196.392 75.1844 196.4 75.2042L196.655 75.8074L197.025 74.8971C197.039 74.875 197.059 74.8584 197.084 74.8503C197.108 74.8422 197.135 74.8432 197.159 74.8531C197.182 74.863 197.202 74.8811 197.213 74.9041C197.225 74.9271 197.228 74.9535 197.222 74.9785H197.022Z" fill="black"/>
<path d="M197.156 75.689C197.156 75.6253 197.168 75.5622 197.192 75.5032C197.216 75.4442 197.251 75.3905 197.296 75.3451C197.34 75.2997 197.393 75.2636 197.452 75.2388C197.511 75.214 197.574 75.201 197.637 75.2005C197.76 75.1995 197.878 75.2465 197.967 75.3316C198.055 75.4166 198.107 75.533 198.111 75.6556C198.113 75.6616 198.113 75.6682 198.111 75.6741C198.11 75.6858 198.106 75.6972 198.1 75.7074C198.094 75.7177 198.087 75.7267 198.077 75.7339C198.068 75.7412 198.057 75.7465 198.046 75.7495C198.035 75.7526 198.023 75.7534 198.011 75.7519H197.386C197.393 75.8022 197.417 75.8488 197.452 75.8851C197.503 75.9349 197.57 75.9651 197.641 75.9702C197.712 75.9781 197.784 75.9611 197.845 75.9221C197.865 75.9046 197.891 75.895 197.919 75.895C197.946 75.895 197.972 75.9046 197.993 75.9221C198.009 75.9394 198.019 75.9626 198.019 75.9868C198.019 76.011 198.009 76.0343 197.993 76.0516C197.897 76.1394 197.771 76.1859 197.641 76.1811C197.577 76.1806 197.513 76.1675 197.454 76.1425C197.395 76.1175 197.342 76.0811 197.297 76.0354C197.252 75.9897 197.216 75.9356 197.192 75.8762C197.168 75.8167 197.156 75.7531 197.156 75.689ZM197.371 75.5927H197.926C197.904 75.5334 197.865 75.482 197.813 75.4451C197.762 75.4082 197.701 75.3875 197.637 75.3855C197.575 75.3866 197.514 75.4087 197.466 75.4484C197.418 75.488 197.384 75.5428 197.371 75.6038V75.5927Z" fill="black"/>
<path d="M198.359 75.689C198.358 75.5611 198.408 75.4379 198.497 75.3464C198.587 75.2549 198.709 75.2025 198.837 75.2006C198.96 75.1986 199.079 75.2453 199.167 75.3306C199.256 75.4158 199.307 75.5327 199.31 75.6557V75.689C199.306 75.7125 199.293 75.7335 199.274 75.7479C199.254 75.7623 199.231 75.769 199.207 75.7667H198.585C198.596 75.8159 198.619 75.8617 198.652 75.8999C198.703 75.9485 198.77 75.9785 198.84 75.985C198.913 75.9929 198.986 75.976 199.048 75.9369C199.067 75.919 199.093 75.909 199.12 75.909C199.146 75.909 199.172 75.919 199.192 75.9369C199.201 75.9452 199.208 75.9552 199.213 75.9664C199.217 75.9775 199.22 75.9895 199.22 76.0017C199.22 76.0138 199.217 76.0258 199.213 76.0369C199.208 76.0481 199.201 76.0581 199.192 76.0664C199.121 76.1311 199.032 76.1735 198.937 76.1887C198.842 76.2039 198.745 76.1911 198.657 76.1518C198.569 76.1126 198.494 76.0487 198.442 75.9678C198.39 75.8869 198.363 75.7926 198.363 75.6964L198.359 75.689ZM198.574 75.5928H199.129C199.106 75.5332 199.066 75.4816 199.014 75.4448C198.962 75.4079 198.9 75.3873 198.837 75.3856C198.777 75.3892 198.719 75.4126 198.674 75.4521C198.628 75.4915 198.597 75.5449 198.585 75.6039L198.574 75.5928Z" fill="black"/>
<path d="M199.627 76.0848V74.9267C199.624 74.9106 199.624 74.8942 199.629 74.8784C199.633 74.8627 199.64 74.848 199.651 74.8355C199.661 74.823 199.674 74.8129 199.689 74.806C199.704 74.7991 199.72 74.7955 199.736 74.7955C199.752 74.7955 199.768 74.7991 199.783 74.806C199.798 74.8129 199.811 74.823 199.821 74.8355C199.832 74.848 199.839 74.8627 199.843 74.8784C199.848 74.8942 199.848 74.9106 199.845 74.9267V75.6038L200.248 75.2005C200.269 75.1812 200.296 75.1705 200.324 75.1705C200.353 75.1705 200.38 75.1812 200.4 75.2005C200.411 75.2105 200.419 75.2226 200.425 75.2359C200.431 75.2493 200.434 75.2637 200.434 75.2782C200.434 75.2927 200.431 75.3071 200.425 75.3205C200.419 75.3338 200.411 75.3459 200.4 75.3559L200.108 75.6519L200.411 76.0219C200.42 76.0331 200.427 76.0459 200.431 76.0595C200.434 76.0732 200.436 76.0875 200.434 76.1017C200.432 76.1158 200.428 76.1294 200.421 76.1418C200.413 76.1541 200.404 76.165 200.393 76.1736C200.375 76.1905 200.351 76.1998 200.326 76.1995C200.31 76.1994 200.294 76.1957 200.279 76.1887C200.264 76.1817 200.251 76.1715 200.241 76.1588L199.952 75.811L199.845 75.9183V76.0922C199.84 76.1177 199.827 76.1408 199.807 76.1574C199.787 76.174 199.762 76.1831 199.736 76.1831C199.71 76.1831 199.685 76.174 199.665 76.1574C199.645 76.1408 199.632 76.1177 199.627 76.0922V76.0848Z" fill="black"/>
<path d="M202.306 75.8259C202.307 75.8401 202.305 75.8543 202.299 75.8675C202.294 75.8808 202.286 75.8928 202.276 75.9029C202.266 75.913 202.254 75.9208 202.241 75.926C202.228 75.9313 202.213 75.9337 202.199 75.9332H202.177V76.0849C202.177 76.0991 202.175 76.1133 202.17 76.1265C202.165 76.1398 202.157 76.1518 202.147 76.1619C202.137 76.172 202.125 76.1799 202.111 76.1851C202.098 76.1903 202.084 76.1927 202.07 76.1922C202.041 76.1922 202.014 76.1809 201.994 76.1607C201.974 76.1406 201.962 76.1133 201.962 76.0849V75.9332H201.344C201.332 75.9344 201.32 75.9331 201.309 75.9292C201.297 75.9254 201.287 75.9192 201.278 75.911C201.266 75.9026 201.256 75.8919 201.249 75.8796C201.242 75.8672 201.237 75.8534 201.235 75.8392C201.233 75.8249 201.235 75.8104 201.239 75.7967C201.243 75.7829 201.25 75.7702 201.259 75.7592L201.999 74.8564H202.018H202.081V74.8823V75.6926H202.103C202.112 75.6793 202.123 75.6678 202.136 75.6588C202.149 75.6498 202.164 75.6435 202.18 75.6402C202.195 75.6369 202.212 75.6368 202.227 75.6397C202.243 75.6427 202.258 75.6487 202.271 75.6575C202.285 75.6662 202.296 75.6775 202.305 75.6907C202.314 75.7039 202.32 75.7188 202.324 75.7344C202.327 75.75 202.327 75.7661 202.324 75.7818C202.321 75.7975 202.315 75.8125 202.306 75.8259ZM201.962 75.2338L201.57 75.7185H201.962V75.2338Z" fill="black"/>
<path d="M214.912 74.9785L214.431 76.1256H214.413H214.394H214.35H214.331L214.076 75.515L213.817 76.1256C213.814 76.1242 213.811 76.1235 213.808 76.1235C213.805 76.1235 213.802 76.1242 213.799 76.1256H213.751L213.266 74.9785C213.255 74.952 213.255 74.9223 213.266 74.8959C213.277 74.8695 213.298 74.8487 213.325 74.8379C213.351 74.8271 213.381 74.8272 213.408 74.8383C213.434 74.8495 213.455 74.8706 213.466 74.8971L213.836 75.8073L214.087 75.2042C214.096 75.1838 214.11 75.1665 214.129 75.1545C214.147 75.1426 214.169 75.1367 214.191 75.1376C214.213 75.1377 214.234 75.144 214.252 75.1558C214.271 75.1676 214.285 75.1844 214.294 75.2042L214.546 75.8073L214.916 74.8971C214.921 74.8839 214.929 74.8719 214.939 74.8619C214.949 74.8519 214.961 74.8441 214.974 74.8389C214.988 74.8337 215.002 74.8312 215.016 74.8317C215.03 74.8321 215.044 74.8355 215.057 74.8416C215.072 74.8611 215.08 74.8857 215.078 74.9105C215.076 74.9353 215.065 74.9585 215.047 74.9757C215.029 74.9928 215.005 75.0025 214.98 75.0031C214.955 75.0036 214.931 74.9948 214.912 74.9785Z" fill="black"/>
<path d="M215.063 75.689C215.062 75.6253 215.074 75.5622 215.098 75.5032C215.122 75.4442 215.157 75.3905 215.202 75.3451C215.247 75.2997 215.3 75.2636 215.358 75.2388C215.417 75.214 215.48 75.201 215.544 75.2005C215.666 75.1995 215.785 75.2465 215.873 75.3316C215.962 75.4166 216.013 75.533 216.017 75.6556C216.019 75.6616 216.019 75.6682 216.017 75.6741C216.016 75.6858 216.012 75.6972 216.006 75.7074C216.001 75.7177 215.993 75.7267 215.984 75.7339C215.974 75.7412 215.964 75.7465 215.952 75.7495C215.941 75.7526 215.929 75.7534 215.917 75.7519H215.292C215.301 75.8017 215.324 75.8479 215.359 75.8851C215.409 75.9349 215.476 75.9651 215.547 75.9702C215.619 75.9781 215.691 75.9611 215.751 75.9221C215.771 75.9046 215.798 75.895 215.825 75.895C215.852 75.895 215.878 75.9046 215.899 75.9221C215.916 75.9394 215.925 75.9626 215.925 75.9868C215.925 76.011 215.916 76.0343 215.899 76.0516C215.803 76.1394 215.677 76.1859 215.547 76.1811C215.483 76.1806 215.42 76.1675 215.361 76.1425C215.302 76.1175 215.248 76.0811 215.203 76.0354C215.158 75.9897 215.122 75.9356 215.098 75.8762C215.074 75.8167 215.062 75.7531 215.063 75.689ZM215.277 75.5927H215.836C215.812 75.5337 215.772 75.4827 215.72 75.4459C215.668 75.4091 215.607 75.3882 215.544 75.3855C215.481 75.3872 215.421 75.4096 215.373 75.4491C215.325 75.4886 215.291 75.5431 215.277 75.6038V75.5927Z" fill="black"/>
<path d="M216.25 75.689C216.25 75.6253 216.262 75.5622 216.285 75.5032C216.309 75.4442 216.345 75.3905 216.389 75.3451C216.434 75.2997 216.487 75.2636 216.546 75.2388C216.604 75.214 216.667 75.201 216.731 75.2005C216.854 75.1995 216.972 75.2465 217.061 75.3316C217.149 75.4166 217.201 75.533 217.205 75.6556C217.207 75.6616 217.207 75.6682 217.205 75.6741C217.2 75.6977 217.187 75.7187 217.168 75.733C217.149 75.7474 217.125 75.7541 217.101 75.7519H216.479C216.487 75.8022 216.51 75.8488 216.546 75.8851C216.597 75.9349 216.664 75.9651 216.735 75.9702C216.806 75.9781 216.878 75.9611 216.938 75.9221C216.959 75.9046 216.985 75.895 217.012 75.895C217.039 75.895 217.066 75.9046 217.086 75.9221C217.103 75.9394 217.113 75.9626 217.113 75.9868C217.113 76.011 217.103 76.0343 217.086 76.0516C216.99 76.1387 216.864 76.1852 216.735 76.1811C216.671 76.1806 216.607 76.1675 216.548 76.1425C216.489 76.1175 216.435 76.0811 216.39 76.0354C216.345 75.9897 216.31 75.9356 216.286 75.8762C216.262 75.8167 216.25 75.7531 216.25 75.689ZM216.465 75.5927H217.02C216.998 75.5334 216.958 75.482 216.907 75.4451C216.856 75.4082 216.794 75.3875 216.731 75.3855C216.668 75.3859 216.608 75.4078 216.559 75.4475C216.511 75.4873 216.477 75.5425 216.465 75.6038V75.5927Z" fill="black"/>
<path d="M217.517 76.0848V74.9267C217.515 74.9106 217.515 74.8942 217.519 74.8784C217.523 74.8627 217.531 74.848 217.541 74.8355C217.552 74.823 217.565 74.8129 217.58 74.806C217.594 74.7991 217.61 74.7955 217.627 74.7955C217.643 74.7955 217.659 74.7991 217.674 74.806C217.688 74.8129 217.702 74.823 217.712 74.8355C217.722 74.848 217.73 74.8627 217.734 74.8784C217.738 74.8942 217.739 74.9106 217.736 74.9267V75.6038L218.139 75.2005C218.16 75.1844 218.187 75.1767 218.214 75.1786C218.24 75.1805 218.265 75.1919 218.284 75.2108C218.303 75.2297 218.315 75.2548 218.316 75.2814C218.318 75.3081 218.311 75.3345 218.295 75.3559L217.999 75.6519L218.302 76.0219C218.322 76.0421 218.333 76.0693 218.333 76.0978C218.333 76.1262 218.322 76.1535 218.302 76.1736C218.284 76.1905 218.26 76.1998 218.235 76.1995C218.22 76.1997 218.204 76.1961 218.19 76.189C218.176 76.1819 218.163 76.1716 218.154 76.1588L217.862 75.811L217.754 75.9183V76.0922C217.75 76.1177 217.736 76.1408 217.716 76.1574C217.696 76.174 217.671 76.1831 217.645 76.1831C217.619 76.1831 217.594 76.174 217.574 76.1574C217.554 76.1408 217.541 76.1177 217.536 76.0922L217.517 76.0848Z" fill="black"/>
<path d="M219.878 75.3597C219.946 75.4278 219.992 75.5142 220.011 75.6083C220.029 75.7024 220.02 75.7999 219.984 75.8887C219.947 75.9775 219.886 76.0536 219.806 76.1076C219.727 76.1616 219.634 76.191 219.538 76.1922C219.474 76.1918 219.412 76.1789 219.353 76.1541C219.295 76.1293 219.242 76.0933 219.197 76.0479C219.187 76.0379 219.178 76.0259 219.173 76.0125C219.167 75.9991 219.164 75.9848 219.164 75.9702C219.164 75.9557 219.167 75.9413 219.173 75.928C219.178 75.9146 219.187 75.9025 219.197 75.8925C219.208 75.8819 219.22 75.8734 219.234 75.8677C219.247 75.8619 219.262 75.8589 219.277 75.8589C219.292 75.8589 219.306 75.8619 219.32 75.8677C219.334 75.8734 219.346 75.8819 219.356 75.8925C219.381 75.9179 219.41 75.938 219.443 75.9514C219.475 75.9648 219.51 75.9712 219.545 75.9702C219.58 75.9702 219.614 75.9634 219.646 75.95C219.677 75.9367 219.706 75.9171 219.73 75.8925C219.78 75.8422 219.808 75.7745 219.808 75.7038C219.808 75.6688 219.801 75.634 219.788 75.6016C219.775 75.5692 219.755 75.5398 219.73 75.5151C219.706 75.491 219.677 75.472 219.645 75.4593C219.613 75.4466 219.579 75.4404 219.545 75.4411C219.51 75.4399 219.476 75.4458 219.443 75.4586C219.411 75.4713 219.381 75.4905 219.356 75.5151C219.346 75.5257 219.334 75.5342 219.32 75.5399C219.306 75.5457 219.292 75.5487 219.277 75.5487C219.262 75.5487 219.247 75.5457 219.234 75.5399C219.22 75.5342 219.208 75.5257 219.197 75.5151L219.175 75.4929C219.171 75.4808 219.171 75.4679 219.175 75.4559L219.231 74.949C219.234 74.9332 219.24 74.9181 219.249 74.9048C219.257 74.8914 219.269 74.88 219.282 74.8713C219.299 74.8663 219.317 74.8663 219.334 74.8713H219.915C219.93 74.8712 219.945 74.8742 219.959 74.88C219.972 74.8859 219.985 74.8944 219.995 74.9051C220.005 74.9158 220.014 74.9284 220.019 74.9423C220.024 74.9562 220.027 74.9711 220.026 74.986C220.026 75.0004 220.023 75.0146 220.018 75.0279C220.012 75.0412 220.004 75.0532 219.994 75.0632C219.983 75.0732 219.971 75.081 219.957 75.0862C219.944 75.0914 219.93 75.0938 219.915 75.0933H219.43L219.408 75.2894C219.453 75.284 219.497 75.284 219.541 75.2894C219.659 75.2698 219.779 75.2949 219.878 75.3597Z" fill="black"/>
<path d="M127.009 73.602L126.528 74.7491V74.7676H126.443C126.441 74.7616 126.441 74.7551 126.443 74.7491L126.184 74.1385L125.929 74.7491C125.928 74.7552 125.928 74.7615 125.929 74.7676H125.844V74.7491L125.363 73.602C125.356 73.577 125.359 73.5506 125.371 73.5276C125.382 73.5046 125.402 73.4865 125.426 73.4766C125.449 73.4667 125.476 73.4657 125.5 73.4738C125.525 73.4819 125.546 73.4985 125.559 73.5206L125.929 74.4309L126.184 73.8277C126.192 73.8079 126.206 73.791 126.224 73.7791C126.242 73.7673 126.263 73.761 126.284 73.7611C126.306 73.7608 126.327 73.7669 126.346 73.7787C126.364 73.7906 126.379 73.8076 126.388 73.8277L126.639 74.4309L127.009 73.5206C127.02 73.4941 127.041 73.473 127.067 73.4619C127.094 73.4508 127.123 73.4506 127.15 73.4614C127.176 73.4722 127.197 73.4931 127.209 73.5194C127.22 73.5458 127.22 73.5755 127.209 73.602H127.009Z" fill="black"/>
<path d="M127.141 74.3235C127.14 74.1956 127.189 74.0725 127.279 73.981C127.368 73.8895 127.49 73.837 127.618 73.8351C127.741 73.8341 127.859 73.8811 127.948 73.9662C128.036 74.0512 128.088 74.1675 128.092 74.2902V74.3161C128.087 74.3397 128.074 74.3607 128.055 74.375C128.036 74.3894 128.012 74.3961 127.988 74.3938H127.363C127.373 74.4423 127.396 74.4871 127.429 74.5233C127.48 74.5746 127.546 74.6061 127.618 74.6122C127.69 74.6198 127.763 74.6028 127.825 74.564C127.845 74.5461 127.871 74.5362 127.897 74.5362C127.924 74.5362 127.95 74.5461 127.969 74.564C127.978 74.5724 127.985 74.5824 127.99 74.5935C127.995 74.6047 127.998 74.6167 127.998 74.6288C127.998 74.6409 127.995 74.6529 127.99 74.6641C127.985 74.6752 127.978 74.6853 127.969 74.6936C127.898 74.7582 127.81 74.8007 127.715 74.8159C127.62 74.831 127.522 74.8182 127.434 74.779C127.346 74.7398 127.272 74.6758 127.22 74.5949C127.168 74.5141 127.14 74.4198 127.141 74.3235ZM127.355 74.2273H127.91C127.888 74.1677 127.848 74.1162 127.796 74.0793C127.744 74.0424 127.682 74.0218 127.618 74.0201C127.557 74.0207 127.499 74.0414 127.451 74.0789C127.404 74.1164 127.37 74.1686 127.355 74.2273Z" fill="black"/>
<path d="M128.336 74.3235C128.335 74.2599 128.348 74.1967 128.371 74.1377C128.395 74.0788 128.431 74.025 128.475 73.9797C128.52 73.9343 128.573 73.8982 128.632 73.8734C128.69 73.8486 128.753 73.8356 128.817 73.8351C128.94 73.8341 129.058 73.8811 129.147 73.9662C129.235 74.0512 129.287 74.1675 129.291 74.2902C129.291 74.2902 129.291 74.2902 129.291 74.3087C129.289 74.3204 129.286 74.3317 129.28 74.342C129.274 74.3523 129.266 74.3613 129.257 74.3685C129.248 74.3757 129.237 74.381 129.226 74.3841C129.214 74.3872 129.202 74.388 129.191 74.3864H128.565C128.574 74.4354 128.597 74.4806 128.632 74.5159C128.681 74.5683 128.749 74.6001 128.821 74.6048C128.888 74.6185 128.959 74.6094 129.021 74.5789C129.041 74.5614 129.067 74.5518 129.095 74.5518C129.122 74.5518 129.148 74.5614 129.169 74.5789C129.185 74.5961 129.195 74.6194 129.195 74.6436C129.195 74.6678 129.185 74.6911 129.169 74.7084C129.097 74.7742 129.008 74.8177 128.913 74.8336C128.817 74.8494 128.719 74.8369 128.63 74.7975C128.542 74.7582 128.467 74.6937 128.414 74.6121C128.362 74.5304 128.335 74.4353 128.336 74.3383V74.3235ZM128.551 74.2273H129.109C129.086 74.1683 129.046 74.1173 128.994 74.0805C128.942 74.0437 128.881 74.0227 128.817 74.0201C128.756 74.0212 128.697 74.0419 128.649 74.0793C128.601 74.1167 128.567 74.1686 128.551 74.2273Z" fill="black"/>
<path d="M129.604 74.7084V73.5502C129.604 73.5358 129.606 73.5215 129.612 73.508C129.617 73.4946 129.625 73.4823 129.635 73.4719C129.645 73.4616 129.657 73.4533 129.67 73.4477C129.683 73.4421 129.697 73.4392 129.712 73.4392C129.741 73.4401 129.769 73.4521 129.789 73.4727C129.81 73.4934 129.822 73.5211 129.823 73.5502V74.2274L130.222 73.824C130.244 73.8045 130.271 73.7937 130.3 73.7937C130.329 73.7937 130.357 73.8045 130.378 73.824C130.388 73.8341 130.397 73.8461 130.402 73.8595C130.408 73.8728 130.411 73.8872 130.411 73.9017C130.411 73.9163 130.408 73.9307 130.402 73.944C130.397 73.9574 130.388 73.9694 130.378 73.9794L130.082 74.2718L130.385 74.6418C130.405 74.6619 130.417 74.6892 130.417 74.7176C130.417 74.7461 130.405 74.7734 130.385 74.7935C130.376 74.8039 130.364 74.8122 130.351 74.8179C130.338 74.8236 130.324 74.8265 130.309 74.8265C130.295 74.8265 130.281 74.8236 130.268 74.8179C130.255 74.8122 130.243 74.8039 130.234 74.7935L129.945 74.4457L129.838 74.553V74.7269C129.837 74.7557 129.825 74.783 129.804 74.803C129.783 74.823 129.755 74.8342 129.727 74.8342C129.709 74.8378 129.692 74.837 129.675 74.8319C129.658 74.8268 129.643 74.8176 129.631 74.805C129.619 74.7924 129.61 74.777 129.605 74.7601C129.601 74.7432 129.6 74.7254 129.604 74.7084Z" fill="black"/>
<path d="M130.659 74.5345C130.668 74.5247 130.679 74.517 130.691 74.5117C130.704 74.5064 130.717 74.5037 130.731 74.5037C130.744 74.5037 130.758 74.5064 130.77 74.5117C130.782 74.517 130.794 74.5247 130.803 74.5345C130.864 74.5872 130.941 74.6173 131.021 74.6196C131.068 74.6185 131.114 74.6058 131.154 74.5826C131.164 74.5757 131.172 74.5668 131.178 74.5566C131.183 74.5464 131.187 74.5351 131.188 74.5234C131.181 74.5129 131.172 74.504 131.162 74.4975C131.113 74.4696 131.059 74.4519 131.003 74.4457C130.945 74.4328 130.888 74.4155 130.832 74.3939C130.777 74.3685 130.73 74.3289 130.696 74.2792C130.673 74.2423 130.662 74.2 130.662 74.157C130.664 74.1143 130.675 74.0725 130.694 74.0346C130.714 73.9968 130.743 73.964 130.777 73.9387C130.849 73.8907 130.934 73.8662 131.021 73.8684C131.128 73.8719 131.23 73.9095 131.314 73.9757C131.337 73.9909 131.353 74.0143 131.359 74.0412C131.365 74.0681 131.361 74.0963 131.347 74.12C131.339 74.1316 131.33 74.1416 131.318 74.1492C131.307 74.1569 131.294 74.1621 131.28 74.1645C131.267 74.1669 131.253 74.1666 131.239 74.1634C131.226 74.1602 131.213 74.1542 131.202 74.1459C131.15 74.1052 131.087 74.0807 131.021 74.0756C130.979 74.0749 130.938 74.0865 130.903 74.1089C130.894 74.1139 130.886 74.1208 130.881 74.1291C130.875 74.1375 130.871 74.147 130.869 74.157H130.892C130.936 74.1829 130.985 74.1993 131.036 74.2051C131.1 74.217 131.162 74.2369 131.221 74.2644C131.277 74.2874 131.325 74.3275 131.358 74.3791C131.383 74.4177 131.395 74.4627 131.395 74.5086C131.394 74.5537 131.382 74.598 131.361 74.6378C131.34 74.6776 131.31 74.712 131.273 74.738C131.197 74.789 131.108 74.8161 131.017 74.8157C130.888 74.8099 130.765 74.7618 130.666 74.6788C130.646 74.6604 130.634 74.6351 130.633 74.6081C130.632 74.5812 130.641 74.5547 130.659 74.5345Z" fill="black"/>
<path d="M125.242 77.417C125.242 77.4028 125.244 77.3886 125.249 77.3753C125.255 77.3621 125.262 77.3501 125.273 77.34C125.283 77.3299 125.295 77.322 125.308 77.3168C125.321 77.3116 125.335 77.3092 125.35 77.3097V76.3032C125.349 76.2888 125.351 76.2745 125.357 76.261C125.362 76.2476 125.37 76.2353 125.38 76.225C125.39 76.2146 125.402 76.2064 125.415 76.2007C125.428 76.1951 125.442 76.1922 125.457 76.1922C125.471 76.1922 125.485 76.1951 125.498 76.2008C125.511 76.2064 125.523 76.2147 125.533 76.2251C125.543 76.2356 125.55 76.2479 125.555 76.2613C125.56 76.2748 125.561 76.289 125.56 76.3032V77.3097C125.561 77.3377 125.556 77.3655 125.545 77.3916C125.535 77.4176 125.52 77.4413 125.5 77.4612C125.48 77.4812 125.457 77.4971 125.431 77.5079C125.405 77.5187 125.378 77.5243 125.35 77.5243C125.335 77.5248 125.321 77.5224 125.308 77.5172C125.295 77.512 125.283 77.5041 125.273 77.494C125.262 77.484 125.255 77.4719 125.249 77.4587C125.244 77.4454 125.242 77.4312 125.242 77.417ZM125.353 75.9369V75.8999C125.353 75.8715 125.365 75.8442 125.385 75.824C125.405 75.8039 125.432 75.7926 125.461 75.7926C125.489 75.7926 125.516 75.8039 125.536 75.824C125.557 75.8442 125.568 75.8715 125.568 75.8999V75.9369C125.568 75.9654 125.557 75.9927 125.536 76.0128C125.516 76.0329 125.489 76.0442 125.461 76.0442C125.432 76.0442 125.405 76.0329 125.385 76.0128C125.365 75.9927 125.353 75.9654 125.353 75.9369Z" fill="black"/>
<path d="M126.012 77.0321C125.923 76.94 125.873 76.8163 125.875 76.688C125.875 76.56 125.924 76.437 126.012 76.3438C126.054 76.2964 126.106 76.2584 126.164 76.2323C126.222 76.2062 126.285 76.1925 126.349 76.1921C126.411 76.1926 126.473 76.2064 126.53 76.2325C126.586 76.2587 126.637 76.2966 126.678 76.3438C126.767 76.4361 126.816 76.5597 126.815 76.688C126.817 76.7516 126.805 76.8149 126.782 76.8741C126.758 76.9332 126.723 76.987 126.678 77.0321C126.637 77.0788 126.586 77.1162 126.529 77.1417C126.473 77.1673 126.411 77.1803 126.349 77.1801C126.285 77.1805 126.223 77.1674 126.165 77.1419C126.107 77.1164 126.055 77.079 126.012 77.0321ZM126.09 76.688C126.088 76.7631 126.113 76.8363 126.16 76.8952C126.185 76.9194 126.214 76.9384 126.247 76.9511C126.279 76.9638 126.314 76.97 126.349 76.9692C126.382 76.9696 126.416 76.9633 126.447 76.9506C126.478 76.9378 126.506 76.919 126.53 76.8952C126.58 76.8378 126.608 76.7642 126.608 76.688C126.608 76.6117 126.58 76.5381 126.53 76.4808C126.48 76.4354 126.416 76.4092 126.349 76.4068C126.279 76.4084 126.212 76.4346 126.16 76.4808C126.113 76.5397 126.088 76.6129 126.09 76.688Z" fill="black"/>
<path d="M127.367 75.9479C127.368 75.9618 127.365 75.9757 127.36 75.9887C127.355 76.0017 127.348 76.0136 127.338 76.0236C127.329 76.0336 127.317 76.0416 127.304 76.047C127.291 76.0525 127.278 76.0553 127.264 76.0552C127.25 76.0552 127.236 76.0525 127.223 76.0471C127.21 76.0417 127.198 76.0338 127.188 76.0238C127.178 76.0138 127.17 76.002 127.164 75.989C127.159 75.976 127.156 75.962 127.156 75.9479V75.9072C127.156 75.8931 127.159 75.8792 127.164 75.8662C127.17 75.8531 127.178 75.8413 127.188 75.8314C127.198 75.8214 127.21 75.8135 127.223 75.8081C127.236 75.8027 127.25 75.7999 127.264 75.7999C127.278 75.7999 127.291 75.8027 127.304 75.8082C127.317 75.8136 127.329 75.8216 127.338 75.8316C127.348 75.8416 127.355 75.8534 127.36 75.8664C127.365 75.8794 127.368 75.8933 127.367 75.9072V75.9479ZM127.367 76.318V77.0839C127.368 77.0978 127.365 77.1117 127.36 77.1247C127.355 77.1377 127.348 77.1496 127.338 77.1596C127.329 77.1696 127.317 77.1776 127.304 77.183C127.291 77.1884 127.278 77.1912 127.264 77.1912C127.235 77.1912 127.208 77.1799 127.188 77.1598C127.168 77.1397 127.156 77.1124 127.156 77.0839V76.318C127.156 76.3037 127.158 76.2895 127.163 76.2763C127.169 76.263 127.177 76.251 127.187 76.2409C127.197 76.2309 127.209 76.223 127.222 76.2178C127.235 76.2126 127.249 76.2101 127.264 76.2107C127.289 76.2105 127.314 76.2199 127.333 76.237C127.352 76.2541 127.364 76.2776 127.367 76.3032V76.318Z" fill="black"/>
<path d="M128.525 76.6029V77.0728C128.525 77.0996 128.515 77.1255 128.496 77.1448C128.477 77.1641 128.452 77.1754 128.425 77.1764C128.398 77.1755 128.371 77.1645 128.351 77.1453C128.332 77.1262 128.32 77.1003 128.318 77.0728V76.6029C128.318 76.5499 128.297 76.4991 128.259 76.4616C128.222 76.4241 128.171 76.4031 128.118 76.4031C128.065 76.4031 128.014 76.4241 127.977 76.4616C127.939 76.4991 127.918 76.5499 127.918 76.6029V77.0728C127.92 77.0789 127.92 77.0852 127.918 77.0913C127.913 77.1151 127.9 77.1366 127.881 77.152C127.862 77.1675 127.839 77.1761 127.815 77.1764C127.787 77.1764 127.761 77.1655 127.741 77.1461C127.722 77.1266 127.711 77.1003 127.711 77.0728V76.2957C127.711 76.2683 127.722 76.2419 127.741 76.2225C127.761 76.2031 127.787 76.1921 127.815 76.1921C127.835 76.1928 127.854 76.1991 127.871 76.2102C127.888 76.2213 127.902 76.2368 127.911 76.255C127.973 76.2154 128.044 76.1936 128.118 76.1921C128.226 76.1931 128.33 76.2368 128.406 76.3137C128.482 76.3907 128.525 76.4946 128.525 76.6029Z" fill="black"/>
<path d="M128.844 76.6843C128.843 76.5554 128.893 76.4313 128.983 76.3391C129.073 76.2469 129.196 76.1941 129.325 76.1921C129.447 76.192 129.565 76.2394 129.653 76.3243C129.742 76.4091 129.794 76.5249 129.798 76.6473C129.794 76.6708 129.781 76.6918 129.762 76.7062C129.742 76.7205 129.719 76.7272 129.695 76.725H129.073C129.081 76.7742 129.104 76.8197 129.14 76.8545C129.189 76.9069 129.257 76.9386 129.328 76.9433C129.4 76.9512 129.472 76.9342 129.532 76.8952C129.553 76.8777 129.579 76.8681 129.606 76.8681C129.633 76.8681 129.659 76.8777 129.68 76.8952C129.697 76.9125 129.706 76.9357 129.706 76.9599C129.706 76.9842 129.697 77.0074 129.68 77.0247C129.63 77.0701 129.572 77.105 129.508 77.1273C129.445 77.1495 129.377 77.1587 129.31 77.1542C129.188 77.1479 129.072 77.0962 128.986 77.0093C128.9 76.9225 128.849 76.8066 128.844 76.6843ZM129.058 76.5881H129.613C129.592 76.5285 129.553 76.4768 129.501 76.4398C129.45 76.4028 129.388 76.3823 129.325 76.3809C129.263 76.38 129.204 76.4001 129.155 76.4377C129.107 76.4754 129.073 76.5284 129.058 76.5881Z" fill="black"/>
<path d="M131.001 77.0691C130.999 77.0947 130.989 77.119 130.972 77.1376C130.954 77.1562 130.93 77.1679 130.905 77.1706C130.879 77.1733 130.854 77.1667 130.833 77.1522C130.812 77.1377 130.796 77.1161 130.79 77.0913C130.712 77.1459 130.619 77.1755 130.523 77.1764C130.393 77.1764 130.268 77.1246 130.175 77.0323C130.083 76.94 130.031 76.8148 130.031 76.6843C130.031 76.5538 130.083 76.4286 130.175 76.3363C130.268 76.244 130.393 76.1922 130.523 76.1922C130.618 76.1931 130.709 76.2228 130.786 76.2773V75.9072C130.786 75.8788 130.797 75.8515 130.818 75.8314C130.838 75.8112 130.865 75.7999 130.893 75.7999C130.922 75.7999 130.949 75.8112 130.969 75.8314C130.989 75.8515 131.001 75.8788 131.001 75.9072V76.6843V77.0691ZM130.523 76.4068C130.489 76.4068 130.454 76.4141 130.422 76.4281C130.391 76.4421 130.362 76.4626 130.338 76.4882C130.313 76.5147 130.293 76.546 130.279 76.5803C130.266 76.6146 130.26 76.6512 130.261 76.688C130.26 76.7598 130.288 76.8289 130.338 76.8804C130.362 76.906 130.391 76.9265 130.422 76.9405C130.454 76.9545 130.489 76.9618 130.523 76.9618C130.558 76.9613 130.592 76.9539 130.624 76.9399C130.656 76.9259 130.685 76.9057 130.708 76.8804C130.759 76.8289 130.786 76.7598 130.786 76.688C130.787 76.6512 130.781 76.6146 130.767 76.5803C130.754 76.546 130.734 76.5147 130.708 76.4882C130.685 76.4629 130.656 76.4427 130.624 76.4287C130.592 76.4147 130.558 76.4072 130.523 76.4068Z" fill="black"/>
<path d="M141.977 84.6176C144.611 84.4918 147.247 84.4918 149.884 84.6176C147.247 84.7434 144.611 84.7434 141.977 84.6176Z" fill="#263238"/>
<path d="M159.586 84.6176C162.221 84.4918 164.855 84.4918 167.49 84.6176C164.855 84.7434 162.221 84.7434 159.586 84.6176Z" fill="#263238"/>
<path d="M177.211 84.6176C179.846 84.4918 182.481 84.4918 185.118 84.6176C182.484 84.7434 179.848 84.7434 177.211 84.6176Z" fill="#263238"/>
<path d="M194.852 84.6176C197.486 84.4918 200.121 84.4918 202.755 84.6176C200.121 84.7434 197.486 84.7434 194.852 84.6176Z" fill="#263238"/>
<path d="M141.977 92.403C144.611 92.2822 147.247 92.2822 149.884 92.403C147.247 92.5288 144.611 92.5288 141.977 92.403Z" fill="#263238"/>
<path d="M159.586 92.403C162.221 92.2822 164.855 92.2822 167.49 92.403C164.855 92.5288 162.221 92.5288 159.586 92.403Z" fill="#263238"/>
<path d="M177.211 92.403C179.846 92.2822 182.481 92.2822 185.118 92.403C182.484 92.5288 179.848 92.5288 177.211 92.403Z" fill="#263238"/>
<path d="M194.852 92.403C197.486 92.2822 200.121 92.2822 202.755 92.403C200.121 92.5288 197.486 92.5288 194.852 92.403Z" fill="#263238"/>
<path d="M141.977 100.192C144.611 100.066 147.247 100.066 149.884 100.192C147.247 100.318 144.611 100.318 141.977 100.192Z" fill="#263238"/>
<path d="M159.586 100.192C162.221 100.066 164.855 100.066 167.49 100.192C164.855 100.318 162.221 100.318 159.586 100.192Z" fill="#263238"/>
<path d="M177.211 100.192C179.846 100.066 182.481 100.066 185.118 100.192C182.484 100.318 179.848 100.318 177.211 100.192Z" fill="#263238"/>
<path d="M141.977 107.977C144.611 107.857 147.247 107.857 149.884 107.977C147.247 108.103 144.611 108.103 141.977 107.977Z" fill="#263238"/>
<path d="M159.586 107.977C162.221 107.857 164.855 107.857 167.49 107.977C164.855 108.103 162.221 108.103 159.586 107.977Z" fill="#263238"/>
<path d="M177.211 107.977C179.846 107.857 182.481 107.857 185.118 107.977C182.484 108.103 179.848 108.103 177.211 107.977Z" fill="#263238"/>
<path d="M141.977 115.766C144.611 115.641 147.247 115.641 149.884 115.766C147.247 115.892 144.611 115.892 141.977 115.766Z" fill="#263238"/>
<path d="M212.477 84.6176C215.111 84.4918 217.747 84.4918 220.384 84.6176C217.749 84.7434 215.114 84.7434 212.477 84.6176Z" fill="#263238"/>
</svg>
