<svg width="347" height="200" viewBox="0 0 347 200" fill="none" xmlns="http://www.w3.org/2000/svg">
<path d="M0.25 8C0.25 3.58173 3.83172 0 8.25 0H338.25C342.668 0 346.25 3.58172 346.25 8V129H0.25V8Z" fill="#E0E5EE"/>
<mask id="mask0_2459_25703" style="mask-type:alpha" maskUnits="userSpaceOnUse" x="0" y="0" width="346" height="129">
<rect x="0.5" width="345" height="129" rx="8" fill="white"/>
</mask>
<g mask="url(#mask0_2459_25703)">
<path opacity="0.8" d="M157.642 70.0001C158.316 68.6602 158.636 67.1701 158.572 65.6715C158.507 64.173 158.06 62.716 157.273 61.439C156.486 60.1621 155.386 59.1077 154.076 58.3762C152.767 57.6448 151.292 57.2605 149.792 57.2601C148.66 57.2582 147.539 57.4791 146.492 57.9101C145.621 55.4225 143.998 53.2672 141.849 51.7425C139.699 50.2178 137.128 49.3993 134.492 49.4001H134.252C133.269 45.1195 130.954 41.2611 127.639 38.3796C124.324 35.4982 120.181 33.7422 115.805 33.3644C111.429 32.9865 107.047 34.0061 103.287 36.2766C99.5274 38.5471 96.5847 41.9515 94.8822 46.0001C92.8071 46.6445 90.8997 47.7386 89.2957 49.2043C87.6917 50.67 86.4306 52.4714 85.6022 54.4801C84.2184 54.0939 82.7692 54.0006 81.3473 54.2061C79.9254 54.4117 78.562 54.9115 77.3443 55.6738C76.1265 56.4361 75.0811 57.444 74.2749 58.6332C73.4687 59.8224 72.9195 61.1666 72.6622 62.5801C71.6988 62.202 70.6575 62.065 69.6291 62.1813C68.6006 62.2975 67.6162 62.6634 66.7614 63.247C65.9067 63.8306 65.2076 64.6143 64.7249 65.5299C64.2423 66.4455 63.9907 67.4651 63.9922 68.5001C63.9943 69.0126 64.0581 69.5229 64.1822 70.0201L157.642 70.0001Z" fill="#DADFE9"/>
<path opacity="0.8" d="M314.2 94C314.2 93.7045 314.25 93.3946 314.25 93.0919C314.25 90.9014 313.393 88.8006 311.866 87.2516C310.34 85.7027 308.27 84.8325 306.112 84.8325C305.101 84.8314 304.098 85.0246 303.158 85.4019C302.49 82.1371 300.63 79.2498 297.95 77.3204C295.271 75.3911 291.971 74.5628 288.714 75.002C287.747 70.5702 285.434 66.558 282.102 63.5303C278.769 60.5027 274.585 58.6123 270.138 58.1253C265.692 57.6382 261.207 58.5791 257.314 60.8155C253.422 63.0518 250.32 66.4709 248.443 70.5913C246.5 70.6531 244.588 71.0961 242.812 71.8958C240.413 69.9597 237.524 68.7507 234.478 68.4079C231.432 68.065 228.353 68.6024 225.595 69.9581C222.836 71.3137 220.511 73.4325 218.888 76.0705C217.264 78.7084 216.407 81.7582 216.416 84.8686C214.265 84.8628 212.198 85.7213 210.668 87.2566C209.138 88.792 208.269 90.8794 208.25 93.0631C208.251 93.3667 208.27 93.6699 208.307 93.9712L314.2 94Z" fill="#DADFE9"/>
<circle opacity="0.7" cx="-7.25" cy="98" r="15.5" transform="rotate(180 -7.25 98)" fill="#D7DCE6"/>
<circle opacity="0.7" cx="14.75" cy="67.5" r="4.5" transform="rotate(180 14.75 67.5)" fill="#D7DCE6"/>
</g>
<g clip-path="url(#clip0_2459_25703)">
<g opacity="0.2">
<path d="M200.979 42.4484H156.266V168.256H200.979V42.4484Z" stroke="#263238" stroke-width="0.344" stroke-miterlimit="10" stroke-linecap="round"/>
<path d="M156.5 46.2737H200.886L199.844 42.8131" stroke="#263238" stroke-width="0.344" stroke-miterlimit="10" stroke-linecap="round"/>
<path d="M156.5 50.464H200.886L199.844 47.0034" stroke="#263238" stroke-width="0.344" stroke-miterlimit="10" stroke-linecap="round"/>
<path d="M156.5 54.6498H200.886L199.844 51.1926" stroke="#263238" stroke-width="0.344" stroke-miterlimit="10" stroke-linecap="round"/>
<path d="M156.5 58.8402H200.886L199.844 55.3796" stroke="#263238" stroke-width="0.344" stroke-miterlimit="10" stroke-linecap="round"/>
<path d="M156.5 63.0261H200.886L199.844 59.5689" stroke="#263238" stroke-width="0.344" stroke-miterlimit="10" stroke-linecap="round"/>
<path d="M156.5 67.2164H200.886L199.844 63.7592" stroke="#263238" stroke-width="0.344" stroke-miterlimit="10" stroke-linecap="round"/>
<path d="M156.5 71.4063H200.886L199.844 67.9456" stroke="#263238" stroke-width="0.344" stroke-miterlimit="10" stroke-linecap="round"/>
<path d="M156.5 75.5926H200.886L199.844 72.1354" stroke="#263238" stroke-width="0.344" stroke-miterlimit="10" stroke-linecap="round"/>
<path d="M156.5 79.7825H200.886L199.844 76.3219" stroke="#263238" stroke-width="0.344" stroke-miterlimit="10" stroke-linecap="round"/>
<path d="M156.5 83.9693H200.886L199.844 80.5121" stroke="#263238" stroke-width="0.344" stroke-miterlimit="10" stroke-linecap="round"/>
<path d="M156.5 88.1592H200.886L199.844 84.702" stroke="#263238" stroke-width="0.344" stroke-miterlimit="10" stroke-linecap="round"/>
<path d="M156.5 92.3491H200.886L199.844 88.8884" stroke="#263238" stroke-width="0.344" stroke-miterlimit="10" stroke-linecap="round"/>
<path d="M156.5 96.5354H200.886L199.844 93.0782" stroke="#263238" stroke-width="0.344" stroke-miterlimit="10" stroke-linecap="round"/>
<path d="M156.5 100.725H200.886L199.844 97.2647" stroke="#263238" stroke-width="0.344" stroke-miterlimit="10" stroke-linecap="round"/>
<path d="M156.5 104.912H200.886L199.844 101.455" stroke="#263238" stroke-width="0.344" stroke-miterlimit="10" stroke-linecap="round"/>
<path d="M156.5 109.102H200.886L199.844 105.645" stroke="#263238" stroke-width="0.344" stroke-miterlimit="10" stroke-linecap="round"/>
<path d="M156.5 113.292H200.886L199.844 109.831" stroke="#263238" stroke-width="0.344" stroke-miterlimit="10" stroke-linecap="round"/>
<path d="M156.5 117.478H200.886L199.844 114.021" stroke="#263238" stroke-width="0.344" stroke-miterlimit="10" stroke-linecap="round"/>
<path d="M156.5 121.668H200.886L199.844 118.211" stroke="#263238" stroke-width="0.344" stroke-miterlimit="10" stroke-linecap="round"/>
<path d="M156.5 125.854H200.886L199.844 122.397" stroke="#263238" stroke-width="0.344" stroke-miterlimit="10" stroke-linecap="round"/>
<path d="M156.5 130.045H200.886L199.844 126.588" stroke="#263238" stroke-width="0.344" stroke-miterlimit="10" stroke-linecap="round"/>
<path d="M156.5 134.234H200.886L199.844 130.773" stroke="#263238" stroke-width="0.344" stroke-miterlimit="10" stroke-linecap="round"/>
<path d="M156.5 138.421H200.886L199.844 134.964" stroke="#263238" stroke-width="0.344" stroke-miterlimit="10" stroke-linecap="round"/>
<path d="M156.5 142.611H200.886L199.844 139.154" stroke="#263238" stroke-width="0.344" stroke-miterlimit="10" stroke-linecap="round"/>
<path d="M156.5 146.801H200.886L199.844 143.341" stroke="#263238" stroke-width="0.344" stroke-miterlimit="10" stroke-linecap="round"/>
<path d="M156.5 150.987H200.886L199.844 147.53" stroke="#263238" stroke-width="0.344" stroke-miterlimit="10" stroke-linecap="round"/>
<path d="M156.5 155.177H200.886L199.844 151.717" stroke="#263238" stroke-width="0.344" stroke-miterlimit="10" stroke-linecap="round"/>
<path d="M156.5 159.363H200.886L199.844 155.906" stroke="#263238" stroke-width="0.344" stroke-miterlimit="10" stroke-linecap="round"/>
<path d="M156.5 163.554H200.886L199.844 160.096" stroke="#263238" stroke-width="0.344" stroke-miterlimit="10" stroke-linecap="round"/>
</g>
<g opacity="0.2">
<path d="M249.065 42.4484H204.352V168.256H249.065V42.4484Z" stroke="#263238" stroke-width="0.344" stroke-miterlimit="10" stroke-linecap="round"/>
<path d="M204.594 46.2737H248.977L247.934 42.8131" stroke="#263238" stroke-width="0.344" stroke-miterlimit="10" stroke-linecap="round"/>
<path d="M204.594 50.464H248.977L247.934 47.0034" stroke="#263238" stroke-width="0.344" stroke-miterlimit="10" stroke-linecap="round"/>
<path d="M204.594 54.6498H248.977L247.934 51.1926" stroke="#263238" stroke-width="0.344" stroke-miterlimit="10" stroke-linecap="round"/>
<path d="M204.594 58.8402H248.977L247.934 55.3796" stroke="#263238" stroke-width="0.344" stroke-miterlimit="10" stroke-linecap="round"/>
<path d="M204.594 63.0261H248.977L247.934 59.5689" stroke="#263238" stroke-width="0.344" stroke-miterlimit="10" stroke-linecap="round"/>
<path d="M204.594 67.2164H248.977L247.934 63.7592" stroke="#263238" stroke-width="0.344" stroke-miterlimit="10" stroke-linecap="round"/>
<path d="M204.594 71.4063H248.977L247.934 67.9456" stroke="#263238" stroke-width="0.344" stroke-miterlimit="10" stroke-linecap="round"/>
<path d="M204.594 75.5926H248.977L247.934 72.1354" stroke="#263238" stroke-width="0.344" stroke-miterlimit="10" stroke-linecap="round"/>
<path d="M204.594 79.7825H248.977L247.934 76.3219" stroke="#263238" stroke-width="0.344" stroke-miterlimit="10" stroke-linecap="round"/>
<path d="M204.594 83.9693H248.977L247.934 80.5121" stroke="#263238" stroke-width="0.344" stroke-miterlimit="10" stroke-linecap="round"/>
<path d="M204.594 88.1592H248.977L247.934 84.702" stroke="#263238" stroke-width="0.344" stroke-miterlimit="10" stroke-linecap="round"/>
<path d="M204.594 92.3491H248.977L247.934 88.8884" stroke="#263238" stroke-width="0.344" stroke-miterlimit="10" stroke-linecap="round"/>
<path d="M204.594 96.5354H248.977L247.934 93.0782" stroke="#263238" stroke-width="0.344" stroke-miterlimit="10" stroke-linecap="round"/>
<path d="M204.594 100.725H248.977L247.934 97.2647" stroke="#263238" stroke-width="0.344" stroke-miterlimit="10" stroke-linecap="round"/>
<path d="M204.594 104.912H248.977L247.934 101.455" stroke="#263238" stroke-width="0.344" stroke-miterlimit="10" stroke-linecap="round"/>
<path d="M204.594 109.102H248.977L247.934 105.645" stroke="#263238" stroke-width="0.344" stroke-miterlimit="10" stroke-linecap="round"/>
<path d="M204.594 113.292H248.977L247.934 109.831" stroke="#263238" stroke-width="0.344" stroke-miterlimit="10" stroke-linecap="round"/>
<path d="M204.594 117.478H248.977L247.934 114.021" stroke="#263238" stroke-width="0.344" stroke-miterlimit="10" stroke-linecap="round"/>
<path d="M204.594 121.668H248.977L247.934 118.211" stroke="#263238" stroke-width="0.344" stroke-miterlimit="10" stroke-linecap="round"/>
<path d="M204.594 125.854H248.977L247.934 122.397" stroke="#263238" stroke-width="0.344" stroke-miterlimit="10" stroke-linecap="round"/>
<path d="M204.594 130.045H248.977L247.934 126.588" stroke="#263238" stroke-width="0.344" stroke-miterlimit="10" stroke-linecap="round"/>
<path d="M204.594 134.234H248.977L247.934 130.773" stroke="#263238" stroke-width="0.344" stroke-miterlimit="10" stroke-linecap="round"/>
<path d="M204.594 138.421H248.977L247.934 134.964" stroke="#263238" stroke-width="0.344" stroke-miterlimit="10" stroke-linecap="round"/>
<path d="M204.594 142.611H248.977L247.934 139.154" stroke="#263238" stroke-width="0.344" stroke-miterlimit="10" stroke-linecap="round"/>
<path d="M204.594 146.801H248.977L247.934 143.341" stroke="#263238" stroke-width="0.344" stroke-miterlimit="10" stroke-linecap="round"/>
<path d="M204.594 150.987H248.977L247.934 147.53" stroke="#263238" stroke-width="0.344" stroke-miterlimit="10" stroke-linecap="round"/>
<path d="M204.594 155.177H248.977L247.934 151.717" stroke="#263238" stroke-width="0.344" stroke-miterlimit="10" stroke-linecap="round"/>
<path d="M204.594 159.363H248.977L247.934 155.906" stroke="#263238" stroke-width="0.344" stroke-miterlimit="10" stroke-linecap="round"/>
<path d="M204.594 163.554H248.977L247.934 160.096" stroke="#263238" stroke-width="0.344" stroke-miterlimit="10" stroke-linecap="round"/>
</g>
<path d="M118.132 102.892C118.132 102.892 113.068 100.064 112.693 106.453C112.318 112.841 111.383 154.269 111.383 154.269" stroke="#263238" stroke-width="0.688" stroke-miterlimit="10" stroke-linecap="round"/>
<path d="M110.07 107.017C110.07 107.017 114.198 116.205 112.324 153.708" stroke="#263238" stroke-width="0.688" stroke-miterlimit="10" stroke-linecap="round"/>
<path d="M114.119 104.192C114.119 104.192 112.182 105.431 111.081 104.014C109.98 102.596 111.828 99.9922 110.197 98.8777C108.566 97.7631 105.759 99.4625 105.759 99.4625C105.759 99.4625 107.923 100.099 107.854 101.282C107.786 102.466 106.743 102.909 106.602 102.393C106.461 101.877 105.433 99.2733 103.675 100.357C103.169 100.655 102.729 101.053 102.38 101.526C102.032 101.999 101.783 102.537 101.649 103.109C101.649 103.109 105.739 102.675 105.986 104.213C106.234 105.751 104.308 103.945 102.622 103.845C100.936 103.745 99.3919 103.993 99.502 105.015C99.5414 105.919 99.4884 106.825 99.3438 107.718C99.3438 107.718 100.775 106.446 102.629 106.556C104.483 106.666 104.418 107.846 102.729 107.749C101.04 107.653 99.5949 109.246 99.5949 109.246C99.5949 109.246 101.133 111.877 103.09 113.178C105.047 114.478 105.749 114.014 105.98 113.013C106.21 112.012 105.68 109.435 106.864 109.507C108.047 109.579 104.906 113.979 106.416 114.223C107.927 114.468 109.137 114.045 109.533 113.05L109.915 112.06C109.915 112.06 109.389 109.487 109.616 108.482C109.843 107.478 110.125 108.513 110.393 109.714C110.661 110.914 110.826 113.807 111.342 113.666C111.858 113.525 113.51 111.423 113.895 110.598C114.28 109.772 111.721 107.254 111.752 106.745C111.783 106.236 113.757 107.202 114.067 107.729C114.289 108.125 114.491 108.533 114.672 108.95C114.672 108.95 115.904 108.176 115.873 105.802C115.842 103.429 114.119 104.192 114.119 104.192Z" fill="#6C9AF5"/>
<path opacity="0.3" d="M114.119 104.192C114.119 104.192 112.182 105.431 111.081 104.014C109.98 102.596 111.828 99.9922 110.197 98.8777C108.566 97.7631 105.759 99.4625 105.759 99.4625C105.759 99.4625 107.923 100.099 107.854 101.282C107.786 102.466 106.743 102.909 106.602 102.393C106.461 101.877 105.433 99.2733 103.675 100.357C103.169 100.655 102.729 101.053 102.38 101.526C102.032 101.999 101.783 102.537 101.649 103.109C101.649 103.109 105.739 102.675 105.986 104.213C106.234 105.751 104.308 103.945 102.622 103.845C100.936 103.745 99.3919 103.993 99.502 105.015C99.5414 105.919 99.4884 106.825 99.3438 107.718C99.3438 107.718 100.775 106.446 102.629 106.556C104.483 106.666 104.418 107.846 102.729 107.749C101.04 107.653 99.5949 109.246 99.5949 109.246C99.5949 109.246 101.133 111.877 103.09 113.178C105.047 114.478 105.749 114.014 105.98 113.013C106.21 112.012 105.68 109.435 106.864 109.507C108.047 109.579 104.906 113.979 106.416 114.223C107.927 114.468 109.137 114.045 109.533 113.05L109.915 112.06C109.915 112.06 109.389 109.487 109.616 108.482C109.843 107.478 110.125 108.513 110.393 109.714C110.661 110.914 110.826 113.807 111.342 113.666C111.858 113.525 113.51 111.423 113.895 110.598C114.28 109.772 111.721 107.254 111.752 106.745C111.783 106.236 113.757 107.202 114.067 107.729C114.289 108.125 114.491 108.533 114.672 108.95C114.672 108.95 115.904 108.176 115.873 105.802C115.842 103.429 114.119 104.192 114.119 104.192Z" fill="#263238"/>
<path d="M104.305 109.738C105.567 108.18 107.428 106.064 108.99 105.056" stroke="#263238" stroke-width="0.344" stroke-miterlimit="10" stroke-linecap="round"/>
<path d="M102.844 111.64C102.844 111.64 103.167 111.189 103.693 110.515" stroke="#263238" stroke-width="0.344" stroke-miterlimit="10" stroke-linecap="round"/>
<path d="M109.82 105.444C109.82 105.444 111.695 108.097 112.043 110.828" stroke="#263238" stroke-width="0.344" stroke-miterlimit="10" stroke-linecap="round"/>
<path d="M107.688 107.013C107.688 107.013 108.214 106.707 108.032 110.082" stroke="#263238" stroke-width="0.344" stroke-miterlimit="10" stroke-linecap="round"/>
<path d="M109.062 103.876C109.062 103.876 110.136 102.923 109.572 101.024" stroke="#263238" stroke-width="0.344" stroke-miterlimit="10" stroke-linecap="round"/>
<path d="M107.611 105.482L106.844 104.082" stroke="#263238" stroke-width="0.344" stroke-miterlimit="10" stroke-linecap="round"/>
<path d="M105.999 106.914C105.999 106.914 103.567 105.077 102.047 104.987" stroke="#263238" stroke-width="0.344" stroke-miterlimit="10" stroke-linecap="round"/>
<path d="M121.035 99.1701C121.035 99.1701 120.956 101.956 118.786 102.091C116.615 102.225 115.267 98.6025 113.044 99.4762C110.822 100.35 110.616 104.32 110.616 104.32C110.616 104.32 112.728 102.6 113.863 103.46C114.998 104.32 114.737 105.685 114.125 105.472C113.512 105.259 110.203 104.519 110.089 107.017C110.043 107.727 110.141 108.44 110.377 109.112C110.614 109.783 110.984 110.4 111.465 110.925C111.465 110.925 113.818 106.532 115.528 107.333C117.238 108.135 114.114 108.83 112.865 110.453C111.617 112.077 110.801 113.787 111.913 114.375C112.843 114.951 113.712 115.62 114.506 116.373C114.506 116.373 114.211 114.076 115.587 112.29C116.963 110.505 118.098 111.382 116.846 113.006C115.593 114.629 116.216 117.175 116.216 117.175C116.216 117.175 119.9 117.43 122.539 116.356C125.177 115.283 125.188 114.261 124.338 113.35C123.488 112.438 120.554 111.21 121.431 110.075C122.308 108.94 124.561 115.073 125.848 113.738C127.135 112.404 127.527 110.89 126.801 109.817L126.079 108.744C126.079 108.744 123.144 107.515 122.295 106.604C121.445 105.692 122.669 106.115 124.052 106.666C125.435 107.216 128.449 109.019 128.662 108.406C128.875 107.794 127.891 104.708 127.327 103.759C126.763 102.81 122.511 103.656 122.009 103.281C121.507 102.906 123.836 101.585 124.572 101.633C125.12 101.681 125.665 101.757 126.206 101.86C126.206 101.86 126.271 100.099 123.873 98.513C121.476 96.9272 121.035 99.1701 121.035 99.1701Z" fill="#6C9AF5"/>
<path opacity="0.2" d="M121.035 99.1701C121.035 99.1701 120.956 101.956 118.786 102.091C116.615 102.225 115.267 98.6025 113.044 99.4762C110.822 100.35 110.616 104.32 110.616 104.32C110.616 104.32 112.728 102.6 113.863 103.46C114.998 104.32 114.737 105.685 114.125 105.472C113.512 105.259 110.203 104.519 110.089 107.017C110.043 107.727 110.141 108.44 110.377 109.112C110.614 109.783 110.984 110.4 111.465 110.925C111.465 110.925 113.818 106.532 115.528 107.333C117.238 108.135 114.114 108.83 112.865 110.453C111.617 112.077 110.801 113.787 111.913 114.375C112.843 114.951 113.712 115.62 114.506 116.373C114.506 116.373 114.211 114.076 115.587 112.29C116.963 110.505 118.098 111.382 116.846 113.006C115.593 114.629 116.216 117.175 116.216 117.175C116.216 117.175 119.9 117.43 122.539 116.356C125.177 115.283 125.188 114.261 124.338 113.35C123.488 112.438 120.554 111.21 121.431 110.075C122.308 108.94 124.561 115.073 125.848 113.738C127.135 112.404 127.527 110.89 126.801 109.817L126.079 108.744C126.079 108.744 123.144 107.515 122.295 106.604C121.445 105.692 122.669 106.115 124.052 106.666C125.435 107.216 128.449 109.019 128.662 108.406C128.875 107.794 127.891 104.708 127.327 103.759C126.763 102.81 122.511 103.656 122.009 103.281C121.507 102.906 123.836 101.585 124.572 101.633C125.12 101.681 125.665 101.757 126.206 101.86C126.206 101.86 126.271 100.099 123.873 98.513C121.476 96.9272 121.035 99.1701 121.035 99.1701Z" fill="#263238"/>
<path d="M119.894 112.792C119.206 110.463 118.346 107.158 118.401 104.911" stroke="#263238" stroke-width="0.344" stroke-miterlimit="10" stroke-linecap="round"/>
<path d="M120.813 115.544C120.813 115.544 120.582 114.915 120.266 113.927" stroke="#263238" stroke-width="0.344" stroke-miterlimit="10" stroke-linecap="round"/>
<path d="M119.367 104.351C119.367 104.351 123.299 104.282 126.271 105.796" stroke="#263238" stroke-width="0.344" stroke-miterlimit="10" stroke-linecap="round"/>
<path d="M119.492 107.55C119.492 107.55 119.544 106.814 122.788 109.315" stroke="#263238" stroke-width="0.344" stroke-miterlimit="10" stroke-linecap="round"/>
<path d="M117.273 104.038C117.273 104.038 117.05 102.318 114.766 101.588" stroke="#263238" stroke-width="0.344" stroke-miterlimit="10" stroke-linecap="round"/>
<path d="M117.9 106.586L115.977 106.397" stroke="#263238" stroke-width="0.344" stroke-miterlimit="10" stroke-linecap="round"/>
<path d="M118.233 109.17C118.233 109.17 114.734 110.353 113.609 111.815" stroke="#263238" stroke-width="0.344" stroke-miterlimit="10" stroke-linecap="round"/>
<path d="M97.7031 117.705C97.7031 117.705 108.766 125.018 108.577 153.333" stroke="#263238" stroke-width="0.688" stroke-miterlimit="10" stroke-linecap="round"/>
<path d="M111.342 115.771C111.342 115.771 110.998 118.977 108.47 118.929C105.941 118.881 104.737 114.574 102.088 115.369C99.4396 116.164 98.8169 120.728 98.8169 120.728C98.8169 120.728 101.418 118.926 102.646 120.04C103.874 121.155 103.444 122.689 102.756 122.387C102.068 122.084 98.3216 120.918 97.9397 123.787C97.8198 124.603 97.8668 125.436 98.0779 126.234C98.289 127.033 98.6598 127.78 99.1678 128.431C99.1678 128.431 102.295 123.58 104.194 124.667C106.093 125.754 102.422 126.263 100.826 128.014C99.2297 129.765 98.1461 131.668 99.357 132.449C100.568 133.229 102.164 135.004 102.164 135.004C102.164 135.004 102.037 132.325 103.791 130.395C105.546 128.465 106.777 129.583 105.167 131.334C103.557 133.085 104.077 136.091 104.077 136.091C104.077 136.091 108.304 136.731 111.449 135.747C114.593 134.764 114.703 133.58 113.812 132.449C112.921 131.317 109.65 129.621 110.764 128.393C111.879 127.165 113.905 134.457 115.518 133.037C117.132 131.616 117.72 129.913 116.987 128.603L116.254 127.295C116.254 127.295 112.983 125.603 112.092 124.471C111.201 123.339 112.57 123.945 114.118 124.712C115.666 125.479 118.965 127.839 119.278 127.154C119.591 126.47 118.738 122.813 118.181 121.65C117.623 120.488 112.615 121.076 112.088 120.598C111.562 120.12 114.352 118.809 115.184 118.94C115.814 119.045 116.438 119.184 117.052 119.356C117.052 119.356 117.29 117.33 114.675 115.269C112.061 113.209 111.342 115.771 111.342 115.771Z" fill="#6C9AF5"/>
<path opacity="0.3" d="M111.342 115.771C111.342 115.771 110.998 118.977 108.47 118.929C105.941 118.881 104.737 114.574 102.088 115.369C99.4396 116.164 98.8169 120.728 98.8169 120.728C98.8169 120.728 101.418 118.926 102.646 120.04C103.874 121.155 103.444 122.689 102.756 122.387C102.068 122.084 98.3216 120.918 97.9397 123.787C97.8198 124.603 97.8668 125.436 98.0779 126.234C98.289 127.033 98.6598 127.78 99.1678 128.431C99.1678 128.431 102.295 123.58 104.194 124.667C106.093 125.754 102.422 126.263 100.826 128.014C99.2297 129.765 98.1461 131.668 99.357 132.449C100.568 133.229 102.164 135.004 102.164 135.004C102.164 135.004 102.037 132.325 103.791 130.395C105.546 128.465 106.777 129.583 105.167 131.334C103.557 133.085 104.077 136.091 104.077 136.091C104.077 136.091 108.304 136.731 111.449 135.747C114.593 134.764 114.703 133.58 113.812 132.449C112.921 131.317 109.65 129.621 110.764 128.393C111.879 127.165 113.905 134.457 115.518 133.037C117.132 131.616 117.72 129.913 116.987 128.603L116.254 127.295C116.254 127.295 112.983 125.603 112.092 124.471C111.201 123.339 112.57 123.945 114.118 124.712C115.666 125.479 118.965 127.839 119.278 127.154C119.591 126.47 118.738 122.813 118.181 121.65C117.623 120.488 112.615 121.076 112.088 120.598C111.562 120.12 114.352 118.809 115.184 118.94C115.814 119.045 116.438 119.184 117.052 119.356C117.052 119.356 117.29 117.33 114.675 115.269C112.061 113.209 111.342 115.771 111.342 115.771Z" fill="#263238"/>
<path d="M108.755 131.386C108.167 128.634 107.5 124.743 107.775 122.153" stroke="#263238" stroke-width="0.344" stroke-miterlimit="10" stroke-linecap="round"/>
<path d="M109.541 134.661C109.541 134.661 109.334 133.907 109.062 132.741" stroke="#263238" stroke-width="0.344" stroke-miterlimit="10" stroke-linecap="round"/>
<path d="M108.93 121.595C108.93 121.595 113.477 121.884 116.763 123.911" stroke="#263238" stroke-width="0.344" stroke-miterlimit="10" stroke-linecap="round"/>
<path d="M108.758 125.293C108.758 125.293 108.885 124.45 112.394 127.643" stroke="#263238" stroke-width="0.344" stroke-miterlimit="10" stroke-linecap="round"/>
<path d="M106.545 121.049C106.545 121.049 106.452 119.04 103.883 117.984" stroke="#263238" stroke-width="0.344" stroke-miterlimit="10" stroke-linecap="round"/>
<path d="M107.03 124.035L104.828 123.636" stroke="#263238" stroke-width="0.344" stroke-miterlimit="10" stroke-linecap="round"/>
<path d="M107.161 127.048C107.161 127.048 103.013 128.08 101.578 129.662" stroke="#263238" stroke-width="0.344" stroke-miterlimit="10" stroke-linecap="round"/>
<path d="M102.016 140.02C102.016 140.02 109.143 145.472 109.893 153.522L108.393 126.518" stroke="#263238" stroke-width="0.688" stroke-miterlimit="10" stroke-linecap="round"/>
<path d="M119.257 136.081C109.883 134.392 109.883 153.522 109.883 153.522" stroke="#263238" stroke-width="0.688" stroke-miterlimit="10" stroke-linecap="round"/>
<path d="M111.009 153.333C111.009 153.333 105.57 113.773 121.329 113.773" stroke="#263238" stroke-width="0.688" stroke-miterlimit="10" stroke-linecap="round"/>
<path d="M115.687 134.942C114.404 133.505 111.683 133.505 110.084 137.185C108.484 140.866 109.922 140.226 109.922 140.226C109.922 140.226 112.966 139.267 114.886 138.627C116.805 137.987 119.358 136.384 119.53 137.344C119.702 138.303 118.247 139.267 116.485 139.586C114.724 139.906 110.084 141.186 110.565 142.149C111.047 143.112 112.165 145.988 112.165 145.988C113.533 144.828 114.976 143.759 116.485 142.789C118.549 141.506 119.85 141.988 118.728 143.429C117.607 144.87 114.39 146.47 115.047 148.393C115.705 150.316 119.519 152.713 119.519 152.713C119.519 152.713 119.998 148.713 121.119 147.43C122.24 146.147 122.24 147.591 121.921 149.838C121.761 150.792 121.654 151.754 121.601 152.72L126.073 154.32C126.073 154.32 127.672 151.912 128.481 151.121L129.279 150.319C129.279 150.319 125.76 147.278 125.598 145.355C125.436 143.432 128.006 145.355 128.801 145.675C129.595 145.995 130.865 148.238 130.865 148.238C130.865 148.238 131.663 144.557 131.824 143.274L131.986 141.994C131.986 141.994 128.622 140.715 127.342 140.715C126.062 140.715 125.419 141.675 125.419 140.395C125.419 139.115 126.702 138.314 128.144 138.472C129.447 138.691 130.732 139.012 131.986 139.432C131.986 139.432 132.946 138.634 132.626 136.232C132.306 133.831 131.504 133.824 129.581 134.471C127.659 135.118 126.382 136.552 124.941 136.552C123.5 136.552 124.301 134.791 125.261 134.309C126.221 133.828 128.622 132.868 129.103 132.71C129.585 132.552 126.54 130.302 124.941 129.989C123.341 129.676 121.267 130.797 121.418 132.397C121.769 135.744 116.967 136.384 115.687 134.942Z" fill="#6C9AF5"/>
<path d="M125.992 151.427C126.04 151.909 126.075 152.394 126.095 152.876" stroke="#263238" stroke-width="0.344" stroke-miterlimit="10" stroke-linecap="round"/>
<path d="M122.773 139.934C124.177 143.107 125.189 146.438 125.787 149.855" stroke="#263238" stroke-width="0.344" stroke-miterlimit="10" stroke-linecap="round"/>
<path d="M122.204 138.651C121.409 136.931 120.828 135.899 120.828 135.899C121.696 135.483 122.416 134.812 122.892 133.976C123.266 133.218 123.814 132.56 124.492 132.056" stroke="#263238" stroke-width="0.344" stroke-miterlimit="10" stroke-linecap="round"/>
<path d="M115.211 141.344C115.211 141.344 120.973 138.936 120.973 139.421" stroke="#263238" stroke-width="0.344" stroke-miterlimit="10" stroke-linecap="round"/>
<path d="M124.172 138.307C124.172 138.307 126.735 137.024 128.988 137.024" stroke="#263238" stroke-width="0.344" stroke-miterlimit="10" stroke-linecap="round"/>
<path d="M123.214 142.149C122.103 143.061 121.084 144.08 120.173 145.19C119.236 146.292 118.479 147.534 117.93 148.871" stroke="#263238" stroke-width="0.344" stroke-miterlimit="10" stroke-linecap="round"/>
<path d="M124.977 142.789C124.977 142.789 128.337 141.83 130.099 143.429" stroke="#263238" stroke-width="0.344" stroke-miterlimit="10" stroke-linecap="round"/>
<path d="M131.064 121.159C129.319 120.127 127.393 120.103 126.45 119.016C125.508 117.929 127.359 117.378 128.353 117.788C129.347 118.197 131.641 119.384 132.078 119.642C132.515 119.9 132.212 116.133 131.39 114.712C130.568 113.291 128.373 112.469 127.262 113.629C124.933 116.074 121.301 112.868 121.548 110.956C121.796 109.043 120.014 106.989 116.186 108.204C112.357 109.418 113.778 110.075 113.778 110.075C113.778 110.075 116.499 111.743 118.25 112.775C120 113.807 122.88 114.692 122.261 115.441C121.641 116.191 119.97 115.734 118.573 114.612C117.176 113.491 113.165 110.828 112.756 111.819C112.346 112.81 110.919 115.545 110.919 115.545C112.693 115.817 114.448 116.205 116.172 116.707C118.504 117.44 118.979 118.723 117.159 118.82C115.339 118.916 112.027 117.55 110.998 119.294C109.969 121.038 110.671 125.521 110.671 125.521C110.671 125.521 114.008 123.257 115.711 123.264C117.414 123.271 116.323 124.217 114.421 125.445C113.596 125.948 112.8 126.496 112.037 127.089L113.757 131.527C113.757 131.527 116.622 131.159 117.751 131.238L118.879 131.32C118.879 131.32 118.879 126.666 120.214 125.287C121.548 123.907 121.786 127.1 122.071 127.911C122.357 128.723 121.5 131.162 121.5 131.162C121.5 131.162 124.806 129.353 125.876 128.637L126.949 127.918C126.949 127.918 125.714 124.54 124.885 123.57C124.056 122.6 122.904 122.751 123.853 121.912C124.803 121.073 126.261 121.513 127.087 122.707C127.776 123.835 128.376 125.017 128.879 126.24C128.879 126.24 130.114 126.439 131.717 124.623C133.32 122.806 132.808 122.187 131.064 121.159ZM115.928 126.281C114.648 125.641 117.689 124.361 117.689 124.361C118.796 124.2 117.193 126.921 115.914 126.281H115.928ZM118.084 120.306C117.537 120.03 119.175 119.487 119.175 119.487C121.528 119.941 118.618 120.577 118.071 120.306H118.084Z" fill="#6C9AF5"/>
<path d="M115.876 129.542C115.532 129.886 115.188 130.23 114.844 130.574" stroke="#263238" stroke-width="0.344" stroke-miterlimit="10" stroke-linecap="round"/>
<path d="M122.449 119.579C120.98 122.719 119.131 125.667 116.945 128.358" stroke="#263238" stroke-width="0.344" stroke-miterlimit="10" stroke-linecap="round"/>
<path d="M123.047 118.297C123.814 116.577 124.21 115.445 124.21 115.445C125.093 115.835 126.076 115.944 127.024 115.758C127.841 115.544 128.698 115.526 129.524 115.706" stroke="#263238" stroke-width="0.344" stroke-miterlimit="10" stroke-linecap="round"/>
<path d="M116.414 114.791C116.414 114.791 122.008 117.567 121.643 117.887" stroke="#263238" stroke-width="0.344" stroke-miterlimit="10" stroke-linecap="round"/>
<path d="M124.594 119.566C124.594 119.566 127.243 120.66 128.722 122.352" stroke="#263238" stroke-width="0.344" stroke-miterlimit="10" stroke-linecap="round"/>
<path d="M121.065 121.358C119.648 121.118 118.212 121.014 116.775 121.048C115.329 121.065 113.894 121.309 112.523 121.771" stroke="#263238" stroke-width="0.344" stroke-miterlimit="10" stroke-linecap="round"/>
<path d="M121.734 123.112C121.734 123.112 124.665 125.022 124.61 127.402" stroke="#263238" stroke-width="0.344" stroke-miterlimit="10" stroke-linecap="round"/>
<path d="M106.186 143.34C104.782 142.511 103.231 142.493 102.47 141.62C101.71 140.746 103.203 140.302 104.001 140.632C104.799 140.963 106.65 141.915 107.001 142.122C107.352 142.328 107.111 139.28 106.478 138.152C105.845 137.024 104.049 136.346 103.158 137.278C101.284 139.249 98.3631 136.666 98.5626 135.128C98.7621 133.591 97.3277 131.936 94.2454 132.906C91.1632 133.876 92.3121 134.413 92.3121 134.413C92.3121 134.413 94.5 135.754 95.9035 136.587C97.307 137.419 99.629 138.128 99.1302 138.73C98.6314 139.332 97.2864 138.967 96.1649 138.066C95.0435 137.165 91.8133 135.018 91.4831 135.816C91.1529 136.614 89.9661 138.816 89.9661 138.816C91.3947 139.034 92.8071 139.348 94.1938 139.755C96.0686 140.343 96.4539 141.375 94.9885 141.454C93.523 141.534 90.8605 140.422 90.028 141.833C89.1955 143.243 89.7734 146.848 89.7734 146.848C89.7734 146.848 92.4601 145.029 93.8292 145.035C95.1983 145.042 94.3211 145.799 92.7972 146.786C92.1335 147.194 91.4927 147.637 90.8777 148.114L92.264 151.664C93.3292 151.521 94.4022 151.445 95.4769 151.434L96.3851 151.499C96.3851 151.499 96.3851 147.753 97.4584 146.642C98.5317 145.531 98.7243 148.104 98.9513 148.758C99.1784 149.411 98.4938 151.375 98.4938 151.375C98.4938 151.375 101.153 149.917 102.016 149.339L102.88 148.761C102.88 148.761 101.882 146.043 101.208 145.266C100.534 144.489 99.6118 144.602 100.389 143.928C101.167 143.254 102.329 143.608 102.993 144.568C103.548 145.475 104.03 146.426 104.435 147.409C104.435 147.409 105.429 147.571 106.719 146.109C108.009 144.647 107.586 144.169 106.186 143.34ZM93.9909 147.468C92.9589 146.952 95.4081 145.92 95.4081 145.92C96.3129 145.789 95.0229 147.98 93.9909 147.464V147.468ZM95.7109 142.652C95.2705 142.431 96.5881 141.991 96.5881 141.991C98.511 142.376 96.1581 142.872 95.7281 142.655L95.7109 142.652Z" fill="#6C9AF5"/>
<path d="M93.9697 150.089C93.7013 150.371 93.4261 150.646 93.1406 150.911" stroke="#263238" stroke-width="0.344" stroke-miterlimit="10" stroke-linecap="round"/>
<path d="M99.2614 142.07C98.074 144.597 96.5826 146.97 94.8203 149.136" stroke="#263238" stroke-width="0.344" stroke-miterlimit="10" stroke-linecap="round"/>
<path d="M99.7344 141.041C100.354 139.665 100.67 138.75 100.67 138.75C101.381 139.063 102.171 139.15 102.934 139.002C103.591 138.827 104.282 138.813 104.946 138.96" stroke="#263238" stroke-width="0.344" stroke-miterlimit="10" stroke-linecap="round"/>
<path d="M94.4062 138.214C94.4062 138.214 98.9058 140.45 98.6134 140.704" stroke="#263238" stroke-width="0.344" stroke-miterlimit="10" stroke-linecap="round"/>
<path d="M100.969 142.06C100.969 142.06 103.098 142.94 104.281 144.303" stroke="#263238" stroke-width="0.344" stroke-miterlimit="10" stroke-linecap="round"/>
<path d="M98.1406 143.501C97.0043 143.311 95.8524 143.229 94.7006 143.257C93.5374 143.271 92.3836 143.467 91.2812 143.838" stroke="#263238" stroke-width="0.344" stroke-miterlimit="10" stroke-linecap="round"/>
<path d="M98.6797 144.912C98.6797 144.912 101.036 146.446 100.995 148.352" stroke="#263238" stroke-width="0.344" stroke-miterlimit="10" stroke-linecap="round"/>
<path d="M100.467 116.92C100.467 116.92 98.7055 118.204 97.5841 116.92C96.4626 115.637 98.0657 113.078 96.4661 112.104C94.8665 111.131 92.3037 112.906 92.3037 112.906C92.3037 112.906 94.3849 113.384 94.3849 114.506C94.3849 115.627 93.4251 116.109 93.2634 115.627C93.1017 115.145 91.9837 112.744 90.3807 113.866C89.9198 114.176 89.5263 114.576 89.2237 115.041C88.921 115.507 88.7155 116.029 88.6194 116.576C88.6194 116.576 92.4619 115.937 92.7818 117.378C93.1017 118.819 91.1822 117.216 89.5826 117.216C87.983 117.216 86.5382 117.536 86.6999 118.499C86.7859 119.35 86.7859 120.208 86.6999 121.059C87.5283 120.283 88.6069 119.829 89.7409 119.779C91.5021 119.779 91.5021 120.9 89.9025 120.9C88.3029 120.9 87.0198 122.5 87.0198 122.5C87.0198 122.5 88.6194 124.908 90.5424 126.023C92.4653 127.137 93.1017 126.662 93.2634 125.703C93.4251 124.743 92.7818 122.338 93.9033 122.338C95.0247 122.338 92.3037 126.662 93.745 126.81C95.1864 126.958 96.3044 126.487 96.6243 125.527L96.9442 124.568C96.9442 124.568 96.3044 122.16 96.4661 121.207C96.6277 120.254 96.9442 121.207 97.2641 122.325C97.5841 123.443 97.9074 126.167 98.3856 126.009C98.8637 125.851 100.309 123.8 100.632 122.989C100.955 122.177 98.389 119.944 98.389 119.466C98.389 118.988 100.312 119.786 100.632 120.268C100.864 120.631 101.076 121.007 101.268 121.392C101.268 121.392 102.39 120.594 102.228 118.351C102.066 116.109 100.467 116.92 100.467 116.92Z" fill="#6C9AF5"/>
<path d="M91.5 122.71C92.6077 121.165 94.252 119.064 95.6658 118.025" stroke="#263238" stroke-width="0.344" stroke-miterlimit="10" stroke-linecap="round"/>
<path d="M90.2188 124.588C90.2188 124.588 90.5008 124.144 90.9583 123.477" stroke="#263238" stroke-width="0.344" stroke-miterlimit="10" stroke-linecap="round"/>
<path d="M96.4688 118.345C96.4688 118.345 98.3883 120.753 98.8767 123.308" stroke="#263238" stroke-width="0.344" stroke-miterlimit="10" stroke-linecap="round"/>
<path d="M94.5469 119.944C94.5469 119.944 95.0285 119.624 95.0285 122.827" stroke="#263238" stroke-width="0.344" stroke-miterlimit="10" stroke-linecap="round"/>
<path d="M95.6641 116.921C95.6641 116.921 96.6238 115.961 95.984 114.2" stroke="#263238" stroke-width="0.344" stroke-miterlimit="10" stroke-linecap="round"/>
<path d="M94.3875 118.507L93.5859 117.224" stroke="#263238" stroke-width="0.344" stroke-miterlimit="10" stroke-linecap="round"/>
<path d="M92.944 119.944C92.944 119.944 90.536 118.345 89.1016 118.345" stroke="#263238" stroke-width="0.344" stroke-miterlimit="10" stroke-linecap="round"/>
<path d="M116.635 152.772H104.258V170.584H116.635V152.772Z" fill="#263238" stroke="#263238" stroke-width="0.688" stroke-miterlimit="10" stroke-linecap="round"/>
<path d="M228.372 37.3438H119.984V155.181H228.372V37.3438Z" fill="white" stroke="#263238" stroke-width="0.344" stroke-miterlimit="10"/>
<path d="M228.372 70.1373H119.984V97.4371H228.372V70.1373Z" fill="white" stroke="#263238" stroke-width="0.344" stroke-linecap="round" stroke-linejoin="round"/>
<path d="M228.372 37.3438H119.984V80.6946H228.372V37.3438Z" fill="#6C9AF5" stroke="#263238" stroke-width="0.344" stroke-linecap="round" stroke-linejoin="round"/>
<path d="M218.167 58.3927C218.167 58.1443 218.094 57.9014 217.956 57.6948C217.817 57.4883 217.621 57.3273 217.392 57.2324C217.162 57.1375 216.909 57.1128 216.666 57.1615C216.422 57.2103 216.198 57.3302 216.023 57.5061C215.847 57.6821 215.728 57.9061 215.68 58.1499C215.632 58.3937 215.657 58.6463 215.753 58.8756C215.848 59.105 216.01 59.3009 216.217 59.4384C216.424 59.576 216.667 59.649 216.915 59.6483C217.08 59.6483 217.243 59.6158 217.395 59.5527C217.547 59.4896 217.686 59.397 217.802 59.2804C217.918 59.1637 218.01 59.0253 218.073 58.873C218.136 58.7207 218.168 58.5575 218.167 58.3927Z" fill="white"/>
<path d="M189.441 57.2788C189.441 57.0303 189.367 56.7874 189.229 56.5809C189.091 56.3743 188.895 56.2134 188.665 56.1184C188.435 56.0235 188.183 55.9988 187.939 56.0476C187.695 56.0963 187.472 56.2162 187.296 56.3922C187.121 56.5681 187.001 56.7922 186.953 57.0359C186.905 57.2797 186.931 57.5323 187.026 57.7617C187.122 57.991 187.283 58.1869 187.49 58.3245C187.697 58.462 187.94 58.5351 188.189 58.5344C188.521 58.5335 188.84 58.4008 189.074 58.1654C189.309 57.93 189.441 57.6112 189.441 57.2788Z" fill="white"/>
<path d="M203.519 75.5378C203.519 75.2895 203.445 75.0467 203.307 74.8403C203.169 74.6338 202.973 74.4728 202.744 74.3778C202.514 74.2828 202.262 74.2579 202.018 74.3064C201.775 74.3548 201.551 74.4744 201.376 74.65C201.2 74.8256 201.08 75.0493 201.032 75.2929C200.983 75.5364 201.008 75.7889 201.103 76.0183C201.198 76.2478 201.359 76.4439 201.566 76.5818C201.772 76.7198 202.015 76.7934 202.263 76.7934C202.428 76.7934 202.592 76.761 202.744 76.6979C202.896 76.6348 203.035 76.5423 203.151 76.4257C203.268 76.3091 203.36 76.1707 203.423 76.0183C203.487 75.866 203.519 75.7027 203.519 75.5378Z" fill="white"/>
<path d="M205.193 56.305C205.887 56.305 206.449 55.7429 206.449 55.0494C206.449 54.356 205.887 53.7938 205.193 53.7938C204.5 53.7938 203.938 54.356 203.938 55.0494C203.938 55.7429 204.5 56.305 205.193 56.305Z" fill="white"/>
<path d="M167.847 72.473C167.848 72.2245 167.775 71.9815 167.637 71.7745C167.5 71.5676 167.304 71.4061 167.074 71.3106C166.845 71.215 166.592 71.1896 166.349 71.2377C166.105 71.2858 165.881 71.4051 165.705 71.5805C165.529 71.756 165.409 71.9797 165.36 72.2234C165.312 72.467 165.336 72.7197 165.431 72.9493C165.526 73.1789 165.687 73.3752 165.894 73.5133C166.1 73.6515 166.343 73.7252 166.592 73.7252C166.756 73.7256 166.919 73.6936 167.072 73.6309C167.224 73.5681 167.363 73.476 167.479 73.3597C167.596 73.2433 167.688 73.1051 167.751 72.953C167.815 72.8009 167.847 72.6378 167.847 72.473Z" fill="white"/>
<path d="M157.542 78.8302C157.542 78.5819 157.469 78.3392 157.331 78.1327C157.193 77.9262 156.997 77.7653 156.767 77.6702C156.538 77.5752 156.285 77.5503 156.042 77.5988C155.798 77.6472 155.575 77.7668 155.399 77.9424C155.223 78.118 155.104 78.3417 155.055 78.5853C155.007 78.8289 155.032 79.0813 155.127 79.3107C155.222 79.5402 155.383 79.7363 155.589 79.8742C155.796 80.0122 156.039 80.0858 156.287 80.0858C156.62 80.0849 156.938 79.9524 157.174 79.7171C157.409 79.4818 157.542 79.163 157.542 78.8302Z" fill="white"/>
<path d="M161.988 53.1127C161.988 52.8641 161.915 52.6209 161.778 52.4139C161.64 52.2069 161.444 52.0454 161.214 51.9499C160.985 51.8545 160.732 51.8293 160.488 51.8777C160.244 51.926 160.02 52.0457 159.844 52.2215C159.669 52.3973 159.549 52.6213 159.501 52.8652C159.452 53.1091 159.477 53.3618 159.573 53.5914C159.668 53.821 159.83 54.017 160.037 54.1547C160.244 54.2924 160.487 54.3656 160.736 54.3649C161.068 54.3649 161.386 54.233 161.621 53.9981C161.856 53.7633 161.988 53.4448 161.988 53.1127Z" fill="white"/>
<path d="M140.381 52.9579C141.074 52.9579 141.636 52.3958 141.636 51.7023C141.636 51.0089 141.074 50.4467 140.381 50.4467C139.687 50.4467 139.125 51.0089 139.125 51.7023C139.125 52.3958 139.687 52.9579 140.381 52.9579Z" fill="white"/>
<path d="M127.964 58.6716C127.964 58.4233 127.891 58.1805 127.753 57.974C127.615 57.7676 127.419 57.6066 127.189 57.5116C126.96 57.4166 126.707 57.3917 126.464 57.4401C126.22 57.4886 125.996 57.6082 125.821 57.7838C125.645 57.9594 125.526 58.1831 125.477 58.4267C125.429 58.6702 125.454 58.9227 125.549 59.1521C125.644 59.3815 125.805 59.5776 126.011 59.7156C126.218 59.8536 126.46 59.9272 126.709 59.9272C127.042 59.9272 127.361 59.7949 127.597 59.5595C127.832 59.324 127.964 59.0046 127.964 58.6716Z" fill="white"/>
<path d="M157.81 68.5686C158.504 68.5686 159.066 68.0065 159.066 67.313C159.066 66.6196 158.504 66.0574 157.81 66.0574C157.117 66.0574 156.555 66.6196 156.555 67.313C156.555 68.0065 157.117 68.5686 157.81 68.5686Z" fill="white"/>
<path d="M223.605 71.9158C223.606 71.6671 223.532 71.4239 223.395 71.2169C223.257 71.0099 223.061 70.8484 222.831 70.753C222.602 70.6575 222.349 70.6324 222.105 70.6807C221.861 70.729 221.637 70.8487 221.462 71.0245C221.286 71.2003 221.166 71.4243 221.118 71.6682C221.069 71.9121 221.095 72.1649 221.19 72.3944C221.285 72.624 221.447 72.8201 221.654 72.9578C221.861 73.0955 222.104 73.1686 222.353 73.1679C222.685 73.1679 223.003 73.036 223.238 72.8012C223.473 72.5664 223.605 72.2479 223.605 71.9158Z" fill="white"/>
<path d="M178.162 56.0262C178.855 56.0262 179.417 55.4641 179.417 54.7706C179.417 54.0772 178.855 53.515 178.162 53.515C177.468 53.515 176.906 54.0772 176.906 54.7706C176.906 55.4641 177.468 56.0262 178.162 56.0262Z" fill="white"/>
<path d="M205.342 55.6066L202.273 75.5379L216.911 58.393" stroke="white" stroke-width="0.344" stroke-miterlimit="10"/>
<path d="M188.609 57.2787L202.27 75.5382" stroke="white" stroke-width="0.344" stroke-miterlimit="10"/>
<path d="M140.383 51.7027L157.806 67.3134" stroke="white" stroke-width="0.344" stroke-miterlimit="10"/>
<path d="M165.995 72.3906L156.236 79.6387L128.117 67.5918" stroke="white" stroke-width="0.344" stroke-miterlimit="10"/>
<path d="M188.188 57.2786L191.572 47.2544L209.612 46.6627L205.191 55.0494L222.921 46.8106" stroke="white" stroke-width="0.344" stroke-miterlimit="10"/>
<path d="M160.734 53.0987L161.852 47.402H181.226L178.155 54.7705" stroke="white" stroke-width="0.344" stroke-miterlimit="10"/>
<path d="M126.727 58.6717V48.1418" stroke="white" stroke-width="0.344" stroke-miterlimit="10"/>
<path d="M140.851 51.9845L132.867 44.0002" stroke="white" stroke-width="0.344" stroke-miterlimit="10"/>
<path d="M228.372 37.3438H119.984V49.3149H228.372V37.3438Z" fill="#E8E8E8" stroke="#263238" stroke-width="0.344" stroke-linecap="round" stroke-linejoin="round"/>
<path d="M228.372 37.3438H119.984V42.6998H228.372V37.3438Z" fill="#263238" stroke="#263238" stroke-width="0.344" stroke-linecap="round" stroke-linejoin="round"/>
<path d="M216.948 39.6971C216.948 39.5107 216.892 39.3284 216.789 39.1734C216.685 39.0184 216.538 38.8976 216.366 38.8263C216.194 38.7549 216.004 38.7363 215.821 38.7726C215.638 38.809 215.47 38.8988 215.339 39.0306C215.207 39.1624 215.117 39.3304 215.081 39.5132C215.044 39.696 215.063 39.8855 215.134 40.0578C215.206 40.23 215.326 40.3772 215.481 40.4808C215.636 40.5844 215.819 40.6396 216.005 40.6396C216.255 40.6396 216.495 40.5403 216.672 40.3636C216.848 40.1868 216.948 39.9471 216.948 39.6971Z" fill="#E8E8E8"/>
<path d="M220.721 39.6971C220.721 39.5105 220.666 39.3281 220.562 39.1731C220.458 39.018 220.311 38.8972 220.138 38.8259C219.966 38.7547 219.776 38.7362 219.593 38.7729C219.41 38.8095 219.242 38.8996 219.111 39.0318C218.979 39.164 218.89 39.3322 218.854 39.5153C218.818 39.6984 218.837 39.888 218.909 40.0602C218.981 40.2323 219.102 40.3793 219.257 40.4825C219.413 40.5856 219.595 40.6403 219.782 40.6396C220.031 40.6387 220.27 40.539 220.446 40.3623C220.622 40.1857 220.721 39.9465 220.721 39.6971Z" fill="#E8E8E8"/>
<path d="M224.494 39.6971C224.494 39.5107 224.439 39.3284 224.336 39.1734C224.232 39.0184 224.085 38.8976 223.913 38.8263C223.74 38.7549 223.551 38.7363 223.368 38.7726C223.185 38.809 223.017 38.8988 222.885 39.0306C222.754 39.1624 222.664 39.3304 222.627 39.5132C222.591 39.696 222.61 39.8855 222.681 40.0578C222.752 40.23 222.873 40.3772 223.028 40.4808C223.183 40.5844 223.366 40.6396 223.552 40.6396C223.802 40.6396 224.042 40.5403 224.218 40.3636C224.395 40.1868 224.494 39.9471 224.494 39.6971Z" fill="#E8E8E8"/>
<path d="M142.35 88.3822C150.272 86.508 155.175 78.5665 153.301 70.6442C151.427 62.722 143.485 57.8191 135.563 59.6933C127.641 61.5675 122.738 69.5091 124.612 77.4313C126.486 85.3535 134.428 90.2564 142.35 88.3822Z" fill="white"/>
<path d="M142.35 88.3822C150.272 86.508 155.175 78.5665 153.301 70.6442C151.427 62.722 143.485 57.8191 135.563 59.6933C127.641 61.5675 122.738 69.5091 124.612 77.4313C126.486 85.3535 134.428 90.2564 142.35 88.3822Z" stroke="#263238" stroke-width="0.344" stroke-miterlimit="10"/>
<path d="M123.125 91.2452H153.624" stroke="#263238" stroke-width="0.344" stroke-miterlimit="10"/>
<path d="M123.125 93.5359H162.111" stroke="#263238" stroke-width="0.344" stroke-miterlimit="10"/>
<path d="M209.516 107.912H222.292" stroke="#263238" stroke-width="0.344" stroke-miterlimit="10"/>
<path d="M178.602 107.912H208.017" stroke="#263238" stroke-width="0.344" stroke-miterlimit="10"/>
<path d="M155.508 107.912H176.65" stroke="#263238" stroke-width="0.344" stroke-miterlimit="10"/>
<path d="M129.766 107.912H154.124" stroke="#263238" stroke-width="0.344" stroke-miterlimit="10"/>
<path d="M123.125 107.912H128.732" stroke="#263238" stroke-width="0.344" stroke-miterlimit="10"/>
<path d="M216.062 110.44H222.289" stroke="#263238" stroke-width="0.344" stroke-miterlimit="10"/>
<path d="M207.906 110.44H214.57" stroke="#263238" stroke-width="0.344" stroke-miterlimit="10"/>
<path d="M186.875 110.44H206.868" stroke="#263238" stroke-width="0.344" stroke-miterlimit="10"/>
<path d="M170.094 110.44H185.147" stroke="#263238" stroke-width="0.344" stroke-miterlimit="10"/>
<path d="M143.562 110.44H168.499" stroke="#263238" stroke-width="0.344" stroke-miterlimit="10"/>
<path d="M123.125 110.44H141.832" stroke="#263238" stroke-width="0.344" stroke-miterlimit="10"/>
<path d="M152.758 112.968H174.244" stroke="#263238" stroke-width="0.344" stroke-miterlimit="10"/>
<path d="M126.203 112.968H151.367" stroke="#263238" stroke-width="0.344" stroke-miterlimit="10"/>
<path d="M123.125 112.968H125.172" stroke="#263238" stroke-width="0.344" stroke-miterlimit="10"/>
<path d="M209.516 119.051H222.292" stroke="#263238" stroke-width="0.344" stroke-miterlimit="10"/>
<path d="M178.602 119.051H208.017" stroke="#263238" stroke-width="0.344" stroke-miterlimit="10"/>
<path d="M155.508 119.051H176.65" stroke="#263238" stroke-width="0.344" stroke-miterlimit="10"/>
<path d="M129.766 119.051H154.124" stroke="#263238" stroke-width="0.344" stroke-miterlimit="10"/>
<path d="M123.125 119.051H128.732" stroke="#263238" stroke-width="0.344" stroke-miterlimit="10"/>
<path d="M216.062 121.579H222.289" stroke="#263238" stroke-width="0.344" stroke-miterlimit="10"/>
<path d="M207.906 121.579H214.57" stroke="#263238" stroke-width="0.344" stroke-miterlimit="10"/>
<path d="M186.875 121.579H206.868" stroke="#263238" stroke-width="0.344" stroke-miterlimit="10"/>
<path d="M170.094 121.579H185.147" stroke="#263238" stroke-width="0.344" stroke-miterlimit="10"/>
<path d="M143.562 121.579H168.499" stroke="#263238" stroke-width="0.344" stroke-miterlimit="10"/>
<path d="M123.125 121.579H141.832" stroke="#263238" stroke-width="0.344" stroke-miterlimit="10"/>
<path d="M175.508 124.108H190.905" stroke="#263238" stroke-width="0.344" stroke-miterlimit="10"/>
<path d="M152.758 124.108H174.244" stroke="#263238" stroke-width="0.344" stroke-miterlimit="10"/>
<path d="M126.203 124.108H151.367" stroke="#263238" stroke-width="0.344" stroke-miterlimit="10"/>
<path d="M123.125 124.108H125.172" stroke="#263238" stroke-width="0.344" stroke-miterlimit="10"/>
<path d="M209.516 130.189H222.292" stroke="#263238" stroke-width="0.344" stroke-miterlimit="10"/>
<path d="M178.602 130.189H208.017" stroke="#263238" stroke-width="0.344" stroke-miterlimit="10"/>
<path d="M155.508 130.189H176.65" stroke="#263238" stroke-width="0.344" stroke-miterlimit="10"/>
<path d="M129.766 130.189H154.124" stroke="#263238" stroke-width="0.344" stroke-miterlimit="10"/>
<path d="M123.125 130.189H128.732" stroke="#263238" stroke-width="0.344" stroke-miterlimit="10"/>
<path d="M216.062 132.718H222.289" stroke="#263238" stroke-width="0.344" stroke-miterlimit="10"/>
<path d="M207.906 132.718H214.57" stroke="#263238" stroke-width="0.344" stroke-miterlimit="10"/>
<path d="M186.875 132.718H206.868" stroke="#263238" stroke-width="0.344" stroke-miterlimit="10"/>
<path d="M170.094 132.718H185.147" stroke="#263238" stroke-width="0.344" stroke-miterlimit="10"/>
<path d="M143.562 132.718H168.499" stroke="#263238" stroke-width="0.344" stroke-miterlimit="10"/>
<path d="M123.125 132.718H141.832" stroke="#263238" stroke-width="0.344" stroke-miterlimit="10"/>
<path d="M217.672 135.246H222.288" stroke="#263238" stroke-width="0.344" stroke-miterlimit="10"/>
<path d="M198.938 135.246H216.402" stroke="#263238" stroke-width="0.344" stroke-miterlimit="10"/>
<path d="M192.172 135.246H197.8" stroke="#263238" stroke-width="0.344" stroke-miterlimit="10"/>
<path d="M175.508 135.246H190.905" stroke="#263238" stroke-width="0.344" stroke-miterlimit="10"/>
<path d="M152.758 135.246H174.244" stroke="#263238" stroke-width="0.344" stroke-miterlimit="10"/>
<path d="M126.203 135.246H151.367" stroke="#263238" stroke-width="0.344" stroke-miterlimit="10"/>
<path d="M123.125 135.246H125.172" stroke="#263238" stroke-width="0.344" stroke-miterlimit="10"/>
<path d="M209.516 137.888H222.292" stroke="#263238" stroke-width="0.344" stroke-miterlimit="10"/>
<path d="M178.602 137.888H208.017" stroke="#263238" stroke-width="0.344" stroke-miterlimit="10"/>
<path d="M155.508 137.888H176.65" stroke="#263238" stroke-width="0.344" stroke-miterlimit="10"/>
<path d="M129.766 137.888H154.124" stroke="#263238" stroke-width="0.344" stroke-miterlimit="10"/>
<path d="M123.125 137.888H128.732" stroke="#263238" stroke-width="0.344" stroke-miterlimit="10"/>
<path d="M216.062 140.416H222.289" stroke="#263238" stroke-width="0.344" stroke-miterlimit="10"/>
<path d="M207.906 140.416H214.57" stroke="#263238" stroke-width="0.344" stroke-miterlimit="10"/>
<path d="M186.875 140.416H206.868" stroke="#263238" stroke-width="0.344" stroke-miterlimit="10"/>
<path d="M170.094 140.416H185.147" stroke="#263238" stroke-width="0.344" stroke-miterlimit="10"/>
<path d="M143.562 140.416H168.499" stroke="#263238" stroke-width="0.344" stroke-miterlimit="10"/>
<path d="M123.125 140.416H141.832" stroke="#263238" stroke-width="0.344" stroke-miterlimit="10"/>
<path d="M126.203 142.945H151.367" stroke="#263238" stroke-width="0.344" stroke-miterlimit="10"/>
<path d="M123.125 142.945H125.172" stroke="#263238" stroke-width="0.344" stroke-miterlimit="10"/>
<path d="M203.623 82.3013H190.094V86.4293H203.623V82.3013Z" fill="white" stroke="#263238" stroke-width="0.344" stroke-linecap="round" stroke-linejoin="round"/>
<path d="M219.905 82.3013H206.375V86.4293H219.905V82.3013Z" fill="white" stroke="#263238" stroke-width="0.344" stroke-linecap="round" stroke-linejoin="round"/>
<path d="M125.146 103.956L124.998 104.719H124.609L125.335 100.935H125.948L126.673 104.719H126.243L126.095 103.956H125.146ZM125.201 103.591H126.044L125.617 101.407L125.201 103.591Z" fill="#263238"/>
<path d="M127.857 100.929C128.449 100.929 128.68 101.211 128.68 101.768V101.961C128.68 102.363 128.566 102.611 128.236 102.714C128.604 102.817 128.745 103.11 128.745 103.526V103.846C128.763 103.965 128.753 104.086 128.716 104.2C128.68 104.314 128.617 104.418 128.533 104.504C128.45 104.59 128.348 104.655 128.234 104.695C128.121 104.735 128.001 104.748 127.882 104.734H127.008V100.929H127.857ZM127.754 102.539C128.098 102.539 128.263 102.429 128.263 102.033V101.813C128.263 101.469 128.15 101.314 127.847 101.314H127.431V102.539H127.754ZM127.882 104.334C128.188 104.334 128.329 104.173 128.329 103.818V103.474C128.329 103.051 128.16 102.91 127.799 102.91H127.431V104.324L127.882 104.334Z" fill="#263238"/>
<path d="M129.086 101.844C129.086 101.266 129.375 100.891 129.953 100.891C130.531 100.891 130.823 101.266 130.823 101.844V103.804C130.823 104.375 130.538 104.757 129.953 104.757C129.368 104.757 129.086 104.375 129.086 103.804V101.844ZM129.506 103.825C129.506 104.169 129.65 104.372 129.953 104.372C130.256 104.372 130.403 104.172 130.403 103.825V101.823C130.403 101.479 130.262 101.276 129.953 101.276C129.643 101.276 129.506 101.482 129.506 101.823V103.825Z" fill="#263238"/>
<path d="M131.635 103.825C131.635 104.169 131.769 104.372 132.079 104.372C132.388 104.372 132.516 104.166 132.516 103.825V100.929H132.911V103.805C132.911 104.376 132.646 104.761 132.062 104.761C131.477 104.761 131.219 104.376 131.219 103.805V100.929H131.635V103.825Z" fill="#263238"/>
<path d="M133.868 104.713V101.307H133.18V100.929H134.993V101.314H134.305V104.713H133.868Z" fill="#263238"/>
<path d="M192.877 84.8125C192.877 84.9879 192.946 85.0911 193.101 85.0911C193.256 85.0911 193.325 84.9879 193.325 84.8125V83.3436H193.527V84.8022C193.527 85.0946 193.39 85.2907 193.094 85.2907C192.798 85.2907 192.664 85.0946 192.664 84.8022V83.3436H192.877V84.8125Z" fill="#263238"/>
<path d="M193.935 85.2666H193.742V83.3436H194.017L194.461 84.7196V83.3436H194.65V85.2666H194.427L193.935 83.7289V85.2666Z" fill="#263238"/>
<path d="M195.528 84.238V84.4341H195.084V85.2666H194.867V83.3436H195.634V83.5363H195.084V84.2243L195.528 84.238Z" fill="#263238"/>
<path d="M195.797 83.8079C195.797 83.512 195.941 83.3228 196.237 83.3228C196.533 83.3228 196.678 83.512 196.678 83.8079V84.802C196.678 85.0944 196.533 85.2871 196.237 85.2871C195.941 85.2871 195.797 85.0944 195.797 84.802V83.8079ZM196.007 84.8123C196.007 84.9912 196.082 85.091 196.237 85.091C196.392 85.091 196.464 84.9912 196.464 84.8123V83.7803C196.464 83.6083 196.392 83.5051 196.237 83.5051C196.082 83.5051 196.007 83.6083 196.007 83.7803V84.8123Z" fill="#263238"/>
<path d="M196.883 85.2666V83.3436H197.113V85.0636H197.664V85.2597L196.883 85.2666Z" fill="#263238"/>
<path d="M197.805 85.2666V83.3436H198.021V85.0636H198.568V85.2597L197.805 85.2666Z" fill="#263238"/>
<path d="M198.711 83.8079C198.711 83.512 198.855 83.3228 199.151 83.3228C199.447 83.3228 199.595 83.512 199.595 83.8079V84.802C199.604 84.8643 199.6 84.9279 199.581 84.9882C199.563 85.0484 199.531 85.1038 199.489 85.1503C199.446 85.1968 199.394 85.2332 199.335 85.2568C199.277 85.2805 199.214 85.2908 199.151 85.2871C198.855 85.2871 198.711 85.0944 198.711 84.802V83.8079ZM198.924 84.8123C198.924 84.9912 198.996 85.091 199.151 85.091C199.306 85.091 199.378 84.9912 199.378 84.8123V83.7803C199.378 83.6083 199.309 83.5051 199.151 83.5051C198.993 83.5051 198.924 83.6083 198.924 83.7803V84.8123Z" fill="#263238"/>
<path d="M200.319 85.2666H200.023L199.758 83.3436H199.968L200.195 84.9811L200.408 83.3436H200.621L200.831 84.9845L201.048 83.3436H201.24L200.979 85.2666H200.697L200.511 83.9628L200.319 85.2666Z" fill="#263238"/>
<path d="M211.696 85.2666H211.49L211.17 83.7323V85.2666H210.984V83.3436H211.284L211.6 84.8813L211.906 83.3436H212.206V85.2666H212.003V83.7289L211.696 85.2666Z" fill="#263238"/>
<path d="M212.406 83.8079C212.406 83.512 212.551 83.3228 212.843 83.3228C213.136 83.3228 213.287 83.512 213.287 83.8079V84.802C213.287 85.0944 213.142 85.2871 212.843 85.2871C212.544 85.2871 212.406 85.0944 212.406 84.802V83.8079ZM212.616 84.8123C212.616 84.9912 212.692 85.091 212.843 85.091C212.994 85.091 213.074 84.9912 213.074 84.8123V83.7803C213.074 83.6083 213.001 83.5051 212.843 83.5051C212.685 83.5051 212.616 83.6083 212.616 83.7803V84.8123Z" fill="#263238"/>
<path d="M213.911 83.3436C214.214 83.3436 214.341 83.495 214.341 83.7839V83.9387C214.341 84.152 214.265 84.2827 214.1 84.3343C214.279 84.3859 214.344 84.5304 214.344 84.7368V85.0361C214.338 85.1149 214.351 85.1939 214.382 85.2666H214.165C214.134 85.1927 214.121 85.1125 214.128 85.0327V84.7299C214.128 84.5132 214.028 84.4444 213.849 84.4444H213.698V85.2666H213.484V83.3436H213.911ZM213.856 84.2483C214.028 84.2483 214.128 84.1933 214.128 83.9869V83.8011C214.128 83.6291 214.066 83.5363 213.907 83.5363H213.698V84.2483H213.856Z" fill="#263238"/>
<path d="M215.263 84.1932V84.3858H214.791V85.0738H215.369V85.2699H214.578V83.3469H215.369V83.5396H214.791V84.1966L215.263 84.1932Z" fill="#263238"/>
<path d="M215.777 85.0011V85.266H215.57V85.0011H215.777Z" fill="#263238"/>
<path d="M216.199 85.0011V85.266H215.992V85.0011H216.199Z" fill="#263238"/>
<path d="M216.62 85.0011V85.266H216.414V85.0011H216.62Z" fill="#263238"/>
<path d="M192.604 88.376H189.852V91.128H192.604V88.376Z" stroke="#263238" stroke-width="0.344" stroke-miterlimit="10"/>
<path d="M193.984 90.2128H207.287" stroke="#263238" stroke-width="0.344" stroke-miterlimit="10"/>
<path d="M192.604 92.4493H189.852V95.2013H192.604V92.4493Z" stroke="#263238" stroke-width="0.344" stroke-miterlimit="10"/>
<path d="M193.984 94.2828H207.287" stroke="#263238" stroke-width="0.344" stroke-miterlimit="10"/>
<path d="M184.573 43.8936H132.344V47.1995H184.573V43.8936Z" fill="white" stroke="#263238" stroke-width="0.344" stroke-linecap="round" stroke-linejoin="round"/>
</g>
<defs>
<clipPath id="clip0_2459_25703">
<rect width="172" height="172" fill="white" transform="translate(88.75 28)"/>
</clipPath>
</defs>
</svg>
