<svg width="347" height="176" viewBox="0 0 347 176" fill="none" xmlns="http://www.w3.org/2000/svg">
<path d="M0.25 8C0.25 3.58173 3.83172 0 8.25 0H338.25C342.668 0 346.25 3.58172 346.25 8V129H0.25V8Z" fill="#E0E5EE"/>
<mask id="mask0_2459_24137" style="mask-type:alpha" maskUnits="userSpaceOnUse" x="0" y="0" width="346" height="129">
<rect x="0.5" width="345" height="129" rx="8" fill="white"/>
</mask>
<g mask="url(#mask0_2459_24137)">
<path opacity="0.8" d="M157.642 70.0001C158.316 68.6602 158.636 67.1701 158.572 65.6715C158.507 64.173 158.06 62.716 157.273 61.439C156.486 60.1621 155.386 59.1077 154.076 58.3762C152.767 57.6448 151.292 57.2605 149.792 57.2601C148.66 57.2582 147.539 57.4791 146.492 57.9101C145.621 55.4225 143.998 53.2672 141.849 51.7425C139.699 50.2178 137.128 49.3993 134.492 49.4001H134.252C133.269 45.1195 130.954 41.2611 127.639 38.3796C124.324 35.4982 120.181 33.7422 115.805 33.3644C111.429 32.9865 107.047 34.0061 103.287 36.2766C99.5274 38.5471 96.5847 41.9515 94.8822 46.0001C92.8071 46.6445 90.8997 47.7386 89.2957 49.2043C87.6917 50.67 86.4306 52.4714 85.6022 54.4801C84.2184 54.0939 82.7692 54.0006 81.3473 54.2061C79.9254 54.4117 78.562 54.9115 77.3443 55.6738C76.1265 56.4361 75.0811 57.444 74.2749 58.6332C73.4687 59.8224 72.9195 61.1666 72.6622 62.5801C71.6988 62.202 70.6575 62.065 69.6291 62.1813C68.6006 62.2975 67.6162 62.6634 66.7614 63.247C65.9067 63.8306 65.2076 64.6143 64.7249 65.5299C64.2423 66.4455 63.9907 67.4651 63.9922 68.5001C63.9943 69.0126 64.0581 69.5229 64.1822 70.0201L157.642 70.0001Z" fill="#DADFE9"/>
<path opacity="0.8" d="M314.2 94C314.2 93.7045 314.25 93.3946 314.25 93.0919C314.25 90.9014 313.393 88.8006 311.866 87.2516C310.34 85.7027 308.27 84.8325 306.112 84.8325C305.101 84.8314 304.098 85.0246 303.158 85.4019C302.49 82.1371 300.63 79.2498 297.95 77.3204C295.271 75.3911 291.971 74.5628 288.714 75.002C287.747 70.5702 285.434 66.558 282.102 63.5303C278.769 60.5027 274.585 58.6123 270.138 58.1253C265.692 57.6382 261.207 58.5791 257.314 60.8155C253.422 63.0518 250.32 66.4709 248.443 70.5913C246.5 70.6531 244.588 71.0961 242.812 71.8958C240.413 69.9597 237.524 68.7507 234.478 68.4079C231.432 68.065 228.353 68.6024 225.595 69.9581C222.836 71.3137 220.511 73.4325 218.888 76.0705C217.264 78.7084 216.407 81.7582 216.416 84.8686C214.265 84.8628 212.198 85.7213 210.668 87.2566C209.138 88.792 208.269 90.8794 208.25 93.0631C208.251 93.3667 208.27 93.6699 208.307 93.9712L314.2 94Z" fill="#DADFE9"/>
<circle opacity="0.7" cx="-7.25" cy="98" r="15.5" transform="rotate(180 -7.25 98)" fill="#D7DCE6"/>
<circle opacity="0.7" cx="14.75" cy="67.5" r="4.5" transform="rotate(180 14.75 67.5)" fill="#D7DCE6"/>
</g>
<path d="M174.871 63.7434H129.188V116.111H174.871V63.7434Z" fill="#9BBCFE"/>
<path d="M172.812 66.5114H131.25V116.108H172.812V66.5114Z" fill="#DBDBDB"/>
<path d="M172.812 75.0256H131.25V77.797H172.812V75.0256Z" fill="#9BBCFE"/>
<path d="M165.195 38.5623H162.203V39.498H165.195V38.5623Z" fill="#9BBCFE"/>
<path d="M165.195 39.8707H162.203V40.8064H165.195V39.8707Z" fill="#9BBCFE"/>
<path d="M165.195 41.1787H162.203V42.1144H165.195V41.1787Z" fill="#9BBCFE"/>
<path d="M165.195 42.4867H162.203V43.4224H165.195V42.4867Z" fill="#9BBCFE"/>
<path d="M165.195 43.7952H162.203V44.7309H165.195V43.7952Z" fill="#9BBCFE"/>
<path d="M165.195 45.1063H162.203V46.042H165.195V45.1063Z" fill="#9BBCFE"/>
<path d="M165.195 46.4145H162.203V47.3502H165.195V46.4145Z" fill="#9BBCFE"/>
<path d="M165.195 47.723H162.203V48.6587H165.195V47.723Z" fill="#9BBCFE"/>
<path d="M165.195 49.0309H162.203V49.9667H165.195V49.0309Z" fill="#9BBCFE"/>
<path d="M165.195 50.3394H162.203V51.2751H165.195V50.3394Z" fill="#9BBCFE"/>
<path d="M165.195 51.6506H162.203V52.5863H165.195V51.6506Z" fill="#9BBCFE"/>
<path d="M165.195 52.9586H162.203V53.8943H165.195V52.9586Z" fill="#9BBCFE"/>
<path d="M165.195 54.267H162.203V55.2027H165.195V54.267Z" fill="#9BBCFE"/>
<path d="M165.195 55.5752H162.203V56.5109H165.195V55.5752Z" fill="#9BBCFE"/>
<path d="M165.195 56.8834H162.203V57.8191H165.195V56.8834Z" fill="#9BBCFE"/>
<path d="M165.195 58.1917H162.203V59.1274H165.195V58.1917Z" fill="#9BBCFE"/>
<path d="M165.195 59.5026H162.203V60.4383H165.195V59.5026Z" fill="#9BBCFE"/>
<path d="M165.195 60.8108H162.203V61.7465H165.195V60.8108Z" fill="#9BBCFE"/>
<path d="M165.195 62.1188H162.203V63.0545H165.195V62.1188Z" fill="#9BBCFE"/>
<path d="M165.195 63.4272H162.203V64.363H165.195V63.4272Z" fill="#9BBCFE"/>
<path d="M204.311 63.7434H180.969V116.111H204.311V63.7434Z" fill="#9BBCFE"/>
<path d="M202.482 66.5114H182.781V116.108H202.482V66.5114Z" fill="#DBDBDB"/>
<path d="M202.482 75.0256H182.781V77.797H202.482V75.0256Z" fill="#9BBCFE"/>
<path d="M194.64 38.5623H191.648V39.498H194.64V38.5623Z" fill="#9BBCFE"/>
<path d="M194.64 39.8707H191.648V40.8064H194.64V39.8707Z" fill="#9BBCFE"/>
<path d="M194.64 41.1787H191.648V42.1144H194.64V41.1787Z" fill="#9BBCFE"/>
<path d="M194.64 42.4867H191.648V43.4224H194.64V42.4867Z" fill="#9BBCFE"/>
<path d="M194.64 43.7952H191.648V44.7309H194.64V43.7952Z" fill="#9BBCFE"/>
<path d="M194.64 45.1063H191.648V46.042H194.64V45.1063Z" fill="#9BBCFE"/>
<path d="M194.64 46.4145H191.648V47.3502H194.64V46.4145Z" fill="#9BBCFE"/>
<path d="M194.64 47.723H191.648V48.6587H194.64V47.723Z" fill="#9BBCFE"/>
<path d="M194.64 49.0309H191.648V49.9667H194.64V49.0309Z" fill="#9BBCFE"/>
<path d="M194.64 50.3394H191.648V51.2751H194.64V50.3394Z" fill="#9BBCFE"/>
<path d="M194.64 51.6506H191.648V52.5863H194.64V51.6506Z" fill="#9BBCFE"/>
<path d="M194.64 52.9586H191.648V53.8943H194.64V52.9586Z" fill="#9BBCFE"/>
<path d="M194.64 54.267H191.648V55.2027H194.64V54.267Z" fill="#9BBCFE"/>
<path d="M194.64 55.5752H191.648V56.5109H194.64V55.5752Z" fill="#9BBCFE"/>
<path d="M194.64 56.8834H191.648V57.8191H194.64V56.8834Z" fill="#9BBCFE"/>
<path d="M194.64 58.1917H191.648V59.1274H194.64V58.1917Z" fill="#9BBCFE"/>
<path d="M194.64 59.5026H191.648V60.4383H194.64V59.5026Z" fill="#9BBCFE"/>
<path d="M194.64 60.8108H191.648V61.7465H194.64V60.8108Z" fill="#9BBCFE"/>
<path d="M194.64 62.1188H191.648V63.0545H194.64V62.1188Z" fill="#9BBCFE"/>
<path d="M194.64 63.4272H191.648V64.363H194.64V63.4272Z" fill="#9BBCFE"/>
<path d="M184.992 108.89H119.25V120.405H184.992V108.89Z" fill="#9BBCFE"/>
<path d="M124.266 111.397C124.266 111.672 124.184 111.942 124.031 112.172C123.877 112.401 123.659 112.58 123.404 112.685C123.149 112.791 122.869 112.818 122.598 112.764C122.327 112.71 122.079 112.577 121.884 112.382C121.689 112.186 121.556 111.938 121.503 111.667C121.45 111.396 121.478 111.116 121.584 110.861C121.69 110.606 121.869 110.388 122.099 110.235C122.328 110.083 122.598 110.001 122.874 110.002C123.057 110.002 123.238 110.038 123.407 110.108C123.576 110.178 123.73 110.281 123.859 110.411C123.989 110.54 124.091 110.694 124.161 110.863C124.231 111.032 124.266 111.214 124.266 111.397Z" fill="#7BA4F6"/>
<path d="M130.547 110.002H126.891V112.788H130.547V110.002Z" fill="#7BA4F6"/>
<path d="M135.063 110.002H131.406V112.788H135.063V110.002Z" fill="#808080"/>
<path d="M184.992 82.4282H119.25V108.923H184.992V82.4282Z" fill="#DBDBDB"/>
<path d="M184.992 120.423H119.25V155.918H184.992V120.423Z" fill="#DBDBDB"/>
<path d="M168.745 83.4292H135.5V107.925H168.745V83.4292Z" fill="#9BBCFE"/>
<path d="M136.666 103.914C136.537 104.351 136.513 104.812 136.593 105.261C136.674 105.709 136.858 106.133 137.131 106.498C137.404 106.863 137.759 107.159 138.166 107.363C138.574 107.567 139.023 107.674 139.479 107.674C139.935 107.674 140.385 107.567 140.792 107.363C141.2 107.159 141.554 106.863 141.827 106.498C142.1 106.133 142.284 105.709 142.365 105.261C142.446 104.812 142.421 104.351 142.292 103.914H136.666Z" fill="#7BA4F6"/>
<path d="M140.619 101.666V97.7925H138.343V101.666C137.622 101.934 137.017 102.446 136.635 103.113C136.254 103.781 136.119 104.562 136.255 105.319C136.39 106.076 136.788 106.761 137.378 107.255C137.967 107.748 138.712 108.018 139.481 108.018C140.25 108.018 140.995 107.748 141.585 107.255C142.175 106.761 142.572 106.076 142.708 105.319C142.843 104.562 142.709 103.781 142.327 103.113C141.945 102.446 141.341 101.934 140.619 101.666Z" stroke="white" stroke-width="0.298" stroke-miterlimit="10"/>
<path d="M149.947 103.914C149.819 104.351 149.794 104.812 149.875 105.261C149.955 105.709 150.139 106.133 150.413 106.498C150.686 106.863 151.04 107.159 151.448 107.363C151.855 107.567 152.305 107.674 152.76 107.674C153.216 107.674 153.666 107.567 154.073 107.363C154.481 107.159 154.835 106.863 155.108 106.498C155.381 106.133 155.566 105.709 155.646 105.261C155.727 104.812 155.702 104.351 155.574 103.914H149.947Z" fill="#7BA4F6"/>
<path d="M153.901 101.666V97.7925H151.624V101.666C150.903 101.934 150.298 102.446 149.917 103.113C149.535 103.781 149.4 104.562 149.536 105.319C149.671 106.076 150.069 106.761 150.659 107.255C151.249 107.748 151.993 108.018 152.762 108.018C153.531 108.018 154.276 107.748 154.866 107.255C155.456 106.761 155.853 106.076 155.989 105.319C156.125 104.562 155.99 103.781 155.608 103.113C155.226 102.446 154.622 101.934 153.901 101.666Z" stroke="white" stroke-width="0.298" stroke-miterlimit="10"/>
<path d="M143.758 104.98C143.697 105.179 143.666 105.386 143.666 105.594C143.655 105.886 143.703 106.178 143.807 106.451C143.912 106.724 144.07 106.974 144.273 107.184C144.476 107.395 144.719 107.562 144.988 107.677C145.258 107.791 145.547 107.85 145.839 107.85C146.132 107.85 146.421 107.791 146.691 107.677C146.96 107.562 147.203 107.395 147.406 107.184C147.609 106.974 147.767 106.724 147.872 106.451C147.976 106.178 148.024 105.886 148.013 105.594C148.013 105.386 147.983 105.18 147.924 104.98H143.758Z" fill="#7BA4F6"/>
<path d="M146.689 103.317V100.439H145.002V103.317C144.467 103.515 144.019 103.895 143.735 104.39C143.452 104.886 143.352 105.465 143.452 106.027C143.553 106.588 143.847 107.097 144.285 107.463C144.723 107.829 145.275 108.03 145.846 108.03C146.416 108.03 146.969 107.829 147.406 107.463C147.844 107.097 148.139 106.588 148.239 106.027C148.34 105.465 148.24 104.886 147.956 104.39C147.673 103.895 147.224 103.515 146.689 103.317Z" stroke="white" stroke-width="0.298" stroke-miterlimit="10"/>
<path d="M140.864 86.9843H139.383V88.8825H140.864V86.9843Z" fill="#858585"/>
<path d="M139.039 88.8884H141.214C141.363 88.8884 141.51 88.9177 141.647 88.9746C141.785 89.0315 141.91 89.115 142.015 89.2201C142.12 89.3253 142.203 89.4501 142.26 89.5875C142.317 89.7249 142.346 89.8721 142.346 90.0208V94.458H137.906V90.0208C137.906 89.8721 137.936 89.7249 137.992 89.5875C138.049 89.4501 138.133 89.3253 138.238 89.2201C138.343 89.115 138.468 89.0315 138.605 88.9746C138.743 88.9177 138.89 88.8884 139.039 88.8884Z" fill="#DBDBDB"/>
<path d="M150.231 86.9843H148.75V88.8825H150.231V86.9843Z" fill="#858585"/>
<path d="M148.396 88.8884H150.572C150.72 88.8884 150.868 88.9177 151.005 88.9746C151.142 89.0316 151.267 89.115 151.372 89.2201C151.477 89.3253 151.561 89.4501 151.618 89.5875C151.675 89.7249 151.704 89.8721 151.704 90.0208V94.4581H147.258V90.0208C147.258 89.8716 147.287 89.7239 147.345 89.5861C147.402 89.4483 147.486 89.3232 147.592 89.218C147.697 89.1128 147.823 89.0295 147.961 88.9729C148.099 88.9164 148.247 88.8877 148.396 88.8884Z" fill="#DBDBDB"/>
<path d="M158.34 86.9843H156.859V88.8825H158.34V86.9843Z" fill="#858585"/>
<path d="M156.498 88.8884H158.674C158.823 88.8884 158.97 88.9177 159.107 88.9746C159.245 89.0315 159.369 89.115 159.475 89.2201C159.58 89.3253 159.663 89.4501 159.72 89.5875C159.777 89.7249 159.806 89.8721 159.806 90.0208V94.458H155.375V90.0208C155.375 89.722 155.493 89.4354 155.704 89.2232C155.914 89.0111 156.2 88.8908 156.498 88.8884Z" fill="#DBDBDB"/>
<path d="M164.208 86.9843H162.727V88.8825H164.208V86.9843Z" fill="#858585"/>
<path d="M162.367 88.8884H164.542C164.691 88.8884 164.838 88.9177 164.976 88.9746C165.113 89.0315 165.238 89.115 165.343 89.2201C165.448 89.3253 165.531 89.4501 165.588 89.5875C165.645 89.7249 165.675 89.8721 165.675 90.0208V94.458H161.234V90.0208C161.234 89.7205 161.354 89.4325 161.566 89.2201C161.778 89.0077 162.066 88.8884 162.367 88.8884Z" fill="#DBDBDB"/>
<path d="M168.745 94.4256H135.5V96.9258H168.745V94.4256Z" fill="#DBDBDB"/>
<path d="M123.727 122.065L124.394 123.293H128.173L128.84 122.065H123.727Z" fill="#808080"/>
<path d="M141.133 122.065L141.8 123.293H145.579L146.246 122.065H141.133Z" fill="#808080"/>
<path d="M158.531 122.065L159.196 123.293H162.977L163.645 122.065H158.531Z" fill="#808080"/>
<path d="M175.93 122.065L176.594 123.293H180.376L181.043 122.065H175.93Z" fill="#808080"/>
<path d="M123.727 130.123L124.394 131.35H128.173L128.84 130.123H123.727Z" fill="#808080"/>
<path d="M141.133 130.123L141.8 131.35H145.579L146.246 130.123H141.133Z" fill="#808080"/>
<path d="M158.531 130.123L159.196 131.35H162.977L163.645 130.123H158.531Z" fill="#808080"/>
<path d="M175.93 130.123L176.594 131.35H180.376L181.043 130.123H175.93Z" fill="#808080"/>
<path d="M119.992 122.065H183.934" stroke="#808080" stroke-width="0.298" stroke-miterlimit="10"/>
<path d="M119.992 130.087H183.934" stroke="#808080" stroke-width="0.298" stroke-miterlimit="10"/>
<path d="M232.922 105.615L231.607 100.519V99.1157H229.751V100.507L228.44 105.603C228.419 105.683 228.416 105.766 228.433 105.847C228.449 105.928 228.484 106.004 228.534 106.069C228.585 106.134 228.649 106.186 228.723 106.223C228.797 106.259 228.879 106.277 228.961 106.277H232.397C232.478 106.277 232.558 106.258 232.631 106.223C232.704 106.187 232.769 106.136 232.819 106.072C232.869 106.009 232.905 105.935 232.923 105.855C232.94 105.776 232.94 105.694 232.922 105.615Z" fill="#9BBCFE"/>
<path d="M231.845 103.041H229.506L228.818 105.723C228.812 105.744 228.811 105.766 228.816 105.787C228.82 105.808 228.83 105.828 228.844 105.845C228.857 105.862 228.873 105.877 228.893 105.887C228.912 105.896 228.933 105.902 228.955 105.901H232.397C232.419 105.901 232.44 105.896 232.46 105.886C232.479 105.876 232.496 105.862 232.51 105.845C232.523 105.828 232.532 105.808 232.536 105.787C232.54 105.765 232.539 105.743 232.534 105.723L231.845 103.041Z" fill="#808080"/>
<path d="M240.856 105.615L239.545 100.519V99.1157H237.688V100.507L236.377 105.603C236.356 105.683 236.354 105.766 236.37 105.847C236.386 105.928 236.421 106.004 236.472 106.069C236.522 106.134 236.587 106.186 236.661 106.223C236.735 106.259 236.816 106.277 236.899 106.277H240.335C240.416 106.277 240.496 106.258 240.569 106.223C240.642 106.187 240.706 106.136 240.756 106.072C240.806 106.009 240.841 105.934 240.858 105.855C240.876 105.776 240.875 105.694 240.856 105.615Z" fill="#9BBCFE"/>
<path d="M239.777 103.041H237.444L236.755 105.723C236.749 105.744 236.748 105.766 236.753 105.787C236.758 105.808 236.768 105.828 236.782 105.845C236.794 105.862 236.811 105.877 236.83 105.887C236.849 105.896 236.871 105.902 236.892 105.901H240.328C240.35 105.901 240.372 105.896 240.391 105.886C240.411 105.876 240.428 105.862 240.441 105.845C240.455 105.828 240.464 105.808 240.468 105.787C240.472 105.765 240.471 105.743 240.465 105.723L239.777 103.041Z" fill="#808080"/>
<path d="M230.555 100.308V85.1099" stroke="#9BBCFE" stroke-width="0.298" stroke-miterlimit="10"/>
<path d="M249.024 106.268H198.719V135.895H249.024V106.268Z" fill="#DBDBDB"/>
<path d="M247.65 107.445H200.125V135.895H247.65V107.445Z" fill="#9BBCFE"/>
<path d="M225.5 118.912L227.213 121.263H240.474L242.295 118.912H225.5Z" fill="#808080"/>
<path d="M239.207 120.253H228.914V121.263H239.207V120.253Z" fill="#5C5C5C"/>
<path d="M223.98 115.002H215.531V117.562H223.98V115.002Z" fill="#808080"/>
<path d="M228.975 111.54H227.727V114.597H228.975V111.54Z" fill="#263238" stroke="#263238" stroke-width="0.298" stroke-miterlimit="10"/>
<path d="M227.609 113.146H229.099C229.399 113.146 229.687 113.265 229.9 113.477C230.112 113.69 230.231 113.978 230.231 114.278V117.854H226.477V114.278C226.477 113.978 226.596 113.69 226.808 113.477C227.021 113.265 227.309 113.146 227.609 113.146Z" fill="#DBDBDB"/>
<path d="M234.116 111.54H232.867V114.597H234.116V111.54Z" fill="#263238" stroke="#263238" stroke-width="0.298" stroke-miterlimit="10"/>
<path d="M232.75 113.146H234.24C234.54 113.146 234.828 113.265 235.04 113.477C235.253 113.69 235.372 113.978 235.372 114.278V117.854H231.617V114.278C231.617 113.978 231.736 113.69 231.949 113.477C232.161 113.265 232.449 113.146 232.75 113.146Z" fill="#DBDBDB"/>
<path d="M239.264 111.54H238.016V114.597H239.264V111.54Z" fill="#263238" stroke="#263238" stroke-width="0.298" stroke-miterlimit="10"/>
<path d="M237.901 113.146H239.391C239.691 113.146 239.979 113.265 240.192 113.477C240.404 113.69 240.523 113.978 240.523 114.278V117.854H236.766V114.278C236.766 114.129 236.795 113.982 236.852 113.844C236.909 113.706 236.993 113.581 237.098 113.476C237.204 113.371 237.329 113.288 237.467 113.231C237.604 113.174 237.752 113.145 237.901 113.146Z" fill="#DBDBDB"/>
<path d="M223.98 112.8H215.531V115.002H223.98V112.8Z" fill="#A3A3A3"/>
<path d="M247.65 117.389H200.125V119.314H247.65V117.389Z" fill="#DBDBDB"/>
<path d="M217.571 126.266H214.281V136.294H217.571V126.266Z" fill="#263238" stroke="#263238" stroke-width="0.298" stroke-linecap="round" stroke-linejoin="round"/>
<path d="M223.578 121.373H208.258V134.047H223.578V121.373Z" fill="#545454"/>
<path d="M222.515 122.255H209.328V133.165H222.515V122.255Z" fill="white"/>
<path d="M212.148 124.863L216.225 127.802L213.478 129.318" stroke="#828282" stroke-width="0.298" stroke-miterlimit="10"/>
<path d="M218.225 125.054L216.234 127.801L217.182 131.404" stroke="#828282" stroke-width="0.298" stroke-miterlimit="10"/>
<path d="M216.234 127.801L220.502 130.269" stroke="#828282" stroke-width="0.298" stroke-miterlimit="10"/>
<path d="M212.53 124.624C212.53 124.821 212.471 125.014 212.362 125.177C212.253 125.341 212.097 125.469 211.915 125.544C211.733 125.619 211.533 125.639 211.34 125.601C211.147 125.562 210.97 125.467 210.831 125.328C210.691 125.189 210.597 125.012 210.558 124.819C210.52 124.626 210.539 124.425 210.615 124.244C210.69 124.062 210.818 123.906 210.981 123.797C211.145 123.687 211.338 123.629 211.534 123.629C211.798 123.629 212.052 123.734 212.238 123.921C212.425 124.107 212.53 124.36 212.53 124.624Z" fill="#7BA4F6"/>
<path d="M214.483 129.318C214.483 129.515 214.424 129.708 214.315 129.871C214.206 130.035 214.05 130.163 213.868 130.238C213.687 130.313 213.486 130.333 213.293 130.295C213.1 130.256 212.923 130.161 212.784 130.022C212.645 129.883 212.55 129.706 212.511 129.513C212.473 129.319 212.493 129.119 212.568 128.937C212.643 128.756 212.771 128.6 212.935 128.491C213.098 128.381 213.291 128.323 213.488 128.323C213.751 128.323 214.005 128.428 214.191 128.615C214.378 128.801 214.483 129.054 214.483 129.318Z" fill="#7BA4F6"/>
<path d="M219.217 125.041C219.217 125.238 219.159 125.431 219.049 125.594C218.94 125.758 218.785 125.886 218.603 125.961C218.421 126.036 218.221 126.056 218.028 126.018C217.835 125.979 217.657 125.884 217.518 125.745C217.379 125.606 217.284 125.429 217.246 125.236C217.207 125.043 217.227 124.842 217.302 124.661C217.378 124.479 217.505 124.323 217.669 124.214C217.833 124.104 218.025 124.046 218.222 124.046C218.486 124.046 218.739 124.151 218.926 124.338C219.112 124.524 219.217 124.777 219.217 125.041Z" fill="#7BA4F6"/>
<path d="M221.491 130.269C221.49 130.466 221.431 130.658 221.321 130.821C221.212 130.984 221.056 131.111 220.874 131.186C220.692 131.261 220.492 131.281 220.299 131.242C220.106 131.203 219.929 131.108 219.79 130.969C219.652 130.829 219.557 130.652 219.519 130.459C219.481 130.266 219.501 130.066 219.576 129.884C219.651 129.703 219.779 129.547 219.943 129.438C220.106 129.329 220.299 129.271 220.495 129.271C220.626 129.271 220.756 129.296 220.877 129.347C220.998 129.397 221.108 129.47 221.2 129.563C221.293 129.656 221.366 129.766 221.416 129.887C221.466 130.008 221.491 130.138 221.491 130.269Z" fill="#7BA4F6"/>
<path d="M217.175 132.399C217.725 132.399 218.17 131.954 218.17 131.404C218.17 130.854 217.725 130.409 217.175 130.409C216.625 130.409 216.18 130.854 216.18 131.404C216.18 131.954 216.625 132.399 217.175 132.399Z" fill="#7BA4F6"/>
<path d="M238.261 129.798H234.25V130.68H238.261V129.798Z" fill="#263238" stroke="#263238" stroke-width="0.298" stroke-linecap="round" stroke-linejoin="round"/>
<path d="M228.836 136.214V134.238C228.836 133.952 228.897 133.669 229.016 133.409C229.134 133.148 229.306 132.916 229.521 132.727L231.962 130.6H240.866L243.188 132.73C243.391 132.918 243.554 133.146 243.665 133.4C243.776 133.654 243.834 133.928 243.834 134.205V136.536L228.836 136.214Z" fill="#C4C4C4"/>
<path d="M240.621 133.127C240.621 133.946 238.702 134.617 236.33 134.617C233.958 134.617 232.039 133.952 232.039 133.127C232.039 132.301 233.961 131.637 236.33 131.637C238.699 131.637 240.621 132.307 240.621 133.127Z" fill="#DBDBDB"/>
<path d="M249.224 135.892H198.719V155.914H249.224V135.892Z" fill="#DBDBDB"/>
<path d="M198.719 146.322H249.012" stroke="#808080" stroke-width="0.298" stroke-miterlimit="10"/>
<path d="M249.239 135.892H233.531V155.914H249.239V135.892Z" fill="#9BBCFE"/>
<path d="M250.21 135.892H197.75V137.817H250.21V135.892Z" fill="#808080"/>
<path d="M223.422 137.835L224.215 139.298H228.72L229.516 137.835H223.422Z" fill="#808080"/>
<path d="M223.422 146.259L224.215 147.722H228.72L229.516 146.259H223.422Z" fill="#808080"/>
<path d="M206.5 137.835L207.293 139.298H211.801L212.597 137.835H206.5Z" fill="#808080"/>
<path d="M206.5 146.259L207.293 147.722H211.801L212.597 146.259H206.5Z" fill="#808080"/>
<path d="M229.555 90.3246H243.516" stroke="#9BBCFE" stroke-width="0.298" stroke-miterlimit="10"/>
<path d="M228.312 90.3246H229.549" stroke="#9BBCFE" stroke-width="0.894" stroke-miterlimit="10"/>
<path d="M238.594 90.4742V99.8612" stroke="#9BBCFE" stroke-width="0.298" stroke-miterlimit="10"/>
<path d="M130.998 118.567H128.539V121.347H130.998V118.567Z" fill="#263238" stroke="#263238" stroke-width="0.298" stroke-miterlimit="10"/>
<path d="M131.971 117.497H127.266V119.208H131.971V117.497Z" fill="#263238" stroke="#263238" stroke-width="0.298" stroke-miterlimit="10"/>
<path d="M134.963 120.492H124.375V148.727H134.963V120.492Z" fill="white" stroke="#263238" stroke-width="0.298" stroke-miterlimit="10"/>
<path d="M128.492 131.616C129.998 131.616 131.219 130.395 131.219 128.889C131.219 127.384 129.998 126.163 128.492 126.163C126.986 126.163 125.766 127.384 125.766 128.889C125.766 130.395 126.986 131.616 128.492 131.616Z" fill="#263238" stroke="#263238" stroke-width="0.298" stroke-miterlimit="10"/>
<path d="M150.727 155.918L145.87 149.821H131.858L127.039 155.918H150.727Z" fill="white" stroke="#263238" stroke-width="0.298" stroke-miterlimit="10"/>
<path d="M129.719 148.086H152.286V148.214C152.286 148.662 152.108 149.092 151.791 149.409C151.475 149.726 151.045 149.904 150.597 149.904H131.408C130.96 149.904 130.531 149.726 130.214 149.409C129.897 149.092 129.719 148.662 129.719 148.214V148.086Z" fill="white" stroke="#263238" stroke-width="0.298" stroke-miterlimit="10"/>
<path d="M143.182 110.882L138.93 113.653L139.484 114.504L143.736 111.733L143.182 110.882Z" fill="white" stroke="#263238" stroke-width="0.298" stroke-miterlimit="10"/>
<path d="M145.584 107.969L141.617 110.554L143.28 113.106L147.247 110.52L145.584 107.969Z" fill="#263238" stroke="#263238" stroke-width="0.298" stroke-miterlimit="10"/>
<path d="M130.15 104.128H129.188V107.231H130.15V104.128Z" fill="#263238" stroke="#263238" stroke-width="0.298" stroke-miterlimit="10"/>
<path d="M130.574 107.016H128.648V113.113H130.574V107.016Z" fill="white" stroke="#263238" stroke-width="0.298" stroke-miterlimit="10"/>
<path d="M131.866 112.47H127.375V115.998H131.866V112.47Z" fill="white" stroke="#263238" stroke-width="0.298" stroke-miterlimit="10"/>
<path d="M139.122 110.783L134.005 115.104L122.648 116.105L122.905 119.026L136.61 117.819L141.241 114.362L139.122 110.783Z" fill="white" stroke="#263238" stroke-width="0.298" stroke-miterlimit="10"/>
<path d="M107.727 155.917H252.844" stroke="#263238" stroke-width="0.298" stroke-miterlimit="10"/>
<path d="M115.273 141.938H117.86V154.052C117.86 154.368 117.734 154.672 117.511 154.895C117.287 155.119 116.984 155.244 116.668 155.244H116.483C116.167 155.244 115.864 155.119 115.64 154.895C115.417 154.672 115.291 154.368 115.291 154.052V141.938H115.273Z" fill="white" stroke="#263238" stroke-width="0.298" stroke-linecap="round" stroke-linejoin="round"/>
<path d="M115.273 146.846V153.948C115.273 154.291 115.41 154.619 115.652 154.862C115.895 155.105 116.224 155.241 116.567 155.241C116.91 155.241 117.239 155.105 117.481 154.862C117.724 154.619 117.86 154.291 117.86 153.948V146.846H115.273Z" fill="#7BA4F6" stroke="#263238" stroke-width="0.298" stroke-linecap="round" stroke-linejoin="round"/>
<path d="M118.314 141.557H114.812V143.992H118.314V141.557Z" fill="white" stroke="#263238" stroke-width="0.298" stroke-linecap="round" stroke-linejoin="round"/>
<path d="M121.601 155.25C121.43 155.251 121.261 155.217 121.103 155.152C120.945 155.086 120.802 154.99 120.681 154.869C120.561 154.748 120.466 154.604 120.401 154.446C120.336 154.288 120.304 154.119 120.305 153.948V141.938H122.894V153.948C122.896 154.118 122.863 154.288 122.798 154.446C122.734 154.604 122.639 154.747 122.519 154.868C122.398 154.989 122.256 155.085 122.098 155.151C121.941 155.216 121.772 155.25 121.601 155.25Z" fill="white" stroke="#263238" stroke-width="0.298" stroke-linecap="round" stroke-linejoin="round"/>
<path d="M120.305 146.846V153.948C120.321 154.28 120.464 154.594 120.705 154.824C120.946 155.054 121.266 155.182 121.599 155.182C121.933 155.182 122.253 155.054 122.494 154.824C122.735 154.594 122.878 154.28 122.894 153.948V146.846H120.305Z" fill="#7BA4F6" stroke="#263238" stroke-width="0.298" stroke-linecap="round" stroke-linejoin="round"/>
<path d="M123.345 141.557H119.844V143.992H123.345V141.557Z" fill="white" stroke="#263238" stroke-width="0.298" stroke-linecap="round" stroke-linejoin="round"/>
<path d="M126.621 155.25C126.451 155.25 126.282 155.216 126.124 155.151C125.967 155.085 125.824 154.989 125.704 154.868C125.584 154.747 125.488 154.604 125.424 154.446C125.36 154.288 125.327 154.118 125.328 153.948V141.938H127.918V153.948C127.919 154.119 127.886 154.288 127.822 154.446C127.757 154.604 127.662 154.748 127.541 154.869C127.421 154.99 127.277 155.086 127.119 155.152C126.962 155.217 126.792 155.251 126.621 155.25Z" fill="white" stroke="#263238" stroke-width="0.298" stroke-linecap="round" stroke-linejoin="round"/>
<path d="M125.328 146.846V153.948C125.328 154.291 125.464 154.619 125.707 154.862C125.949 155.105 126.278 155.241 126.621 155.241C126.792 155.241 126.96 155.208 127.117 155.143C127.275 155.078 127.417 154.983 127.538 154.863C127.658 154.743 127.754 154.6 127.819 154.443C127.884 154.286 127.918 154.118 127.918 153.948V146.846H125.328Z" fill="#7BA4F6" stroke="#263238" stroke-width="0.298" stroke-linecap="round" stroke-linejoin="round"/>
<path d="M128.377 141.557H124.875V143.992H128.377V141.557Z" fill="white" stroke="#263238" stroke-width="0.298" stroke-linecap="round" stroke-linejoin="round"/>
<path d="M131.653 155.25C131.482 155.25 131.313 155.216 131.156 155.151C130.998 155.085 130.855 154.989 130.735 154.868C130.615 154.747 130.52 154.604 130.455 154.446C130.391 154.288 130.358 154.118 130.359 153.948V141.938H132.961V153.948C132.962 154.12 132.929 154.29 132.864 154.449C132.798 154.608 132.702 154.752 132.58 154.874C132.458 154.995 132.314 155.09 132.154 155.155C131.995 155.22 131.825 155.252 131.653 155.25Z" fill="white" stroke="#263238" stroke-width="0.298" stroke-linecap="round" stroke-linejoin="round"/>
<path d="M130.359 146.846V153.948C130.359 154.293 130.496 154.623 130.74 154.867C130.984 155.111 131.315 155.248 131.66 155.248C132.005 155.248 132.336 155.111 132.58 154.867C132.824 154.623 132.961 154.293 132.961 153.948V146.846H130.359Z" fill="#7BA4F6" stroke="#263238" stroke-width="0.298" stroke-linecap="round" stroke-linejoin="round"/>
<path d="M133.416 141.557H129.914V143.992H133.416V141.557Z" fill="white" stroke="#263238" stroke-width="0.298" stroke-linecap="round" stroke-linejoin="round"/>
<path d="M135.6 145.306H113.062V146.072H135.6V154.058H111.969V155.918H137.132V155.48V154.058V146.072V145.306H135.6Z" fill="white" stroke="#263238" stroke-width="0.298" stroke-linecap="round" stroke-linejoin="round"/>
<path d="M220.09 154.401L217.142 142.954V139.825H212.97V142.954L210.023 154.401C209.977 154.58 209.972 154.768 210.009 154.949C210.047 155.131 210.125 155.302 210.239 155.448C210.353 155.595 210.498 155.713 210.665 155.794C210.832 155.876 211.015 155.918 211.2 155.917H218.912C219.098 155.918 219.281 155.876 219.448 155.794C219.614 155.713 219.76 155.595 219.874 155.448C219.987 155.302 220.066 155.131 220.103 154.949C220.141 154.768 220.136 154.58 220.09 154.401Z" fill="white" stroke="#263238" stroke-width="0.298" stroke-miterlimit="10"/>
<path d="M217.673 148.617H212.434L210.887 154.624C210.873 154.671 210.871 154.721 210.881 154.768C210.891 154.816 210.913 154.861 210.944 154.898C210.972 154.938 211.01 154.97 211.053 154.992C211.097 155.014 211.145 155.025 211.194 155.024H218.909C218.958 155.025 219.007 155.015 219.052 154.993C219.096 154.971 219.134 154.939 219.163 154.898C219.194 154.861 219.215 154.816 219.225 154.768C219.235 154.721 219.233 154.671 219.219 154.624L217.673 148.617Z" fill="#7BA4F6"/>
<path d="M228.571 145.094V138.485H224.697V145.094C223.467 145.549 222.437 146.422 221.785 147.56C221.134 148.698 220.903 150.028 221.134 151.319C221.365 152.61 222.043 153.778 223.048 154.62C224.054 155.462 225.323 155.923 226.634 155.923C227.946 155.923 229.215 155.462 230.221 154.62C231.226 153.778 231.904 152.61 232.135 151.319C232.365 150.028 232.135 148.698 231.484 147.56C230.832 146.422 229.801 145.549 228.571 145.094Z" fill="white" stroke="#263238" stroke-width="0.298" stroke-miterlimit="10"/>
<path d="M221.848 148.915C221.626 149.659 221.582 150.446 221.718 151.211C221.854 151.976 222.166 152.699 222.631 153.322C223.096 153.945 223.699 154.451 224.394 154.799C225.089 155.148 225.855 155.329 226.632 155.329C227.409 155.329 228.176 155.148 228.87 154.799C229.565 154.451 230.169 153.945 230.633 153.322C231.098 152.699 231.411 151.976 231.547 151.211C231.683 150.446 231.638 149.659 231.417 148.915H221.848Z" fill="#7BA4F6"/>
<path d="M240.061 148.775V136.664H237.505V148.775C236.692 149.075 236.012 149.651 235.581 150.402C235.151 151.153 234.999 152.032 235.151 152.885C235.304 153.737 235.751 154.508 236.415 155.064C237.079 155.62 237.917 155.924 238.783 155.924C239.649 155.924 240.487 155.62 241.151 155.064C241.815 154.508 242.262 153.737 242.415 152.885C242.567 152.032 242.415 151.153 241.985 150.402C241.554 149.651 240.874 149.075 240.061 148.775Z" fill="white" stroke="#263238" stroke-width="0.298" stroke-miterlimit="10"/>
<path d="M235.623 151.296C235.532 151.598 235.485 151.912 235.486 152.228C235.473 152.669 235.548 153.108 235.708 153.52C235.867 153.931 236.108 154.306 236.415 154.623C236.722 154.939 237.09 155.191 237.496 155.363C237.902 155.535 238.339 155.623 238.78 155.623C239.221 155.623 239.658 155.535 240.064 155.363C240.471 155.191 240.838 154.939 241.146 154.623C241.453 154.306 241.693 153.931 241.853 153.52C242.013 153.108 242.088 152.669 242.075 152.228C242.075 151.912 242.029 151.598 241.938 151.296H235.623Z" fill="#7BA4F6"/>
</svg>
