<svg width="347" height="187" viewBox="0 0 347 187" fill="none" xmlns="http://www.w3.org/2000/svg">
<path d="M0.75 8C0.75 3.58173 4.33172 0 8.75 0H338.75C343.168 0 346.75 3.58172 346.75 8V129H0.75V8Z" fill="#E0E5EE"/>
<mask id="mask0_2459_23555" style="mask-type:alpha" maskUnits="userSpaceOnUse" x="1" y="0" width="345" height="129">
<rect x="1" width="345" height="129" rx="8" fill="white"/>
</mask>
<g mask="url(#mask0_2459_23555)">
<path opacity="0.8" d="M158.142 70.0001C158.816 68.6602 159.136 67.1701 159.072 65.6715C159.007 64.173 158.56 62.716 157.773 61.439C156.986 60.1621 155.886 59.1077 154.576 58.3762C153.267 57.6448 151.792 57.2605 150.292 57.2601C149.16 57.2582 148.039 57.4791 146.992 57.9101C146.121 55.4225 144.498 53.2672 142.349 51.7425C140.199 50.2178 137.628 49.3993 134.992 49.4001H134.752C133.769 45.1195 131.454 41.2611 128.139 38.3796C124.824 35.4982 120.681 33.7422 116.305 33.3644C111.929 32.9865 107.547 34.0061 103.787 36.2766C100.027 38.5471 97.0847 41.9515 95.3822 46.0001C93.3071 46.6445 91.3997 47.7386 89.7957 49.2043C88.1917 50.67 86.9306 52.4714 86.1022 54.4801C84.7184 54.0939 83.2692 54.0006 81.8473 54.2061C80.4254 54.4117 79.062 54.9115 77.8443 55.6738C76.6265 56.4361 75.5811 57.444 74.7749 58.6332C73.9687 59.8224 73.4195 61.1666 73.1622 62.5801C72.1988 62.202 71.1575 62.065 70.1291 62.1813C69.1006 62.2975 68.1162 62.6634 67.2614 63.247C66.4067 63.8306 65.7076 64.6143 65.2249 65.5299C64.7423 66.4455 64.4907 67.4651 64.4922 68.5001C64.4943 69.0126 64.5581 69.5229 64.6822 70.0201L158.142 70.0001Z" fill="#DADFE9"/>
<path opacity="0.8" d="M314.7 94C314.7 93.7045 314.75 93.3946 314.75 93.0919C314.75 90.9014 313.893 88.8006 312.366 87.2516C310.84 85.7027 308.77 84.8325 306.612 84.8325C305.601 84.8314 304.598 85.0246 303.658 85.4019C302.99 82.1371 301.13 79.2498 298.45 77.3204C295.771 75.3911 292.471 74.5628 289.214 75.002C288.247 70.5702 285.934 66.558 282.602 63.5303C279.269 60.5027 275.085 58.6123 270.638 58.1253C266.192 57.6382 261.707 58.5791 257.814 60.8155C253.922 63.0518 250.82 66.4709 248.943 70.5913C247 70.6531 245.088 71.0961 243.312 71.8958C240.913 69.9597 238.024 68.7507 234.978 68.4079C231.932 68.065 228.853 68.6024 226.095 69.9581C223.336 71.3137 221.011 73.4325 219.388 76.0705C217.764 78.7084 216.907 81.7582 216.916 84.8686C214.765 84.8628 212.698 85.7213 211.168 87.2566C209.638 88.792 208.769 90.8794 208.75 93.0631C208.751 93.3667 208.77 93.6699 208.807 93.9712L314.7 94Z" fill="#DADFE9"/>
<circle opacity="0.7" cx="-6.75" cy="98" r="15.5" transform="rotate(180 -6.75 98)" fill="#D7DCE6"/>
<circle opacity="0.7" cx="15.25" cy="67.5" r="4.5" transform="rotate(180 15.25 67.5)" fill="#D7DCE6"/>
</g>
<g clip-path="url(#clip0_2459_23555)">
<path d="M154.187 72.923C154.015 72.7173 144.059 68.0995 135.041 74.9802C126.751 81.3067 123.874 93.1974 124.975 93.483C126.323 93.8315 130.016 88.1584 137.105 85.0387C139.62 83.9327 143.62 85.0387 143.62 85.0387L154.187 72.923Z" fill="#6C9AF5"/>
<path opacity="0.1" d="M143.63 85.0362C142.443 84.7342 141.225 84.5717 140 84.5521C141.563 81.2799 144.482 75.1761 146.377 71.2214C150.838 71.2626 154.105 72.8091 154.204 72.9156L143.63 85.0362Z" fill="black"/>
<path d="M170.587 92.2684C170.761 92.4717 173.69 103.051 165.424 110.82C157.827 117.964 145.627 118.857 145.525 117.724C145.402 116.338 151.605 113.622 155.84 107.138C157.341 104.839 156.908 100.71 156.908 100.71L170.587 92.2684Z" fill="#6C9AF5"/>
<path opacity="0.1" d="M170.971 100.323L156.773 104.454C156.963 103.216 157.005 101.959 156.897 100.71L170.576 92.2684C170.685 92.3845 171.697 95.8915 170.971 100.323Z" fill="black"/>
<path d="M147.404 105.2L137.68 93.73C137.68 93.73 142.762 80.1307 154.805 70.9967C160.824 66.4394 167.875 63.0293 174.208 60.7737C182.933 57.6467 190.233 56.7464 191.363 58.0727C192.493 59.399 190.395 66.4612 185.898 74.5618C182.633 80.4212 178.112 86.8299 172.633 92.0238C161.65 102.421 147.404 105.2 147.404 105.2Z" fill="#C7C7C7"/>
<path d="M171.033 87.113C169.725 88.2231 168.117 88.9203 166.413 89.1164C164.709 89.3125 162.984 88.9987 161.459 88.2147C159.933 87.4306 158.674 86.2116 157.841 84.7118C157.008 83.2121 156.638 81.4989 156.779 79.7892C156.92 78.0795 157.565 76.4499 158.632 75.1068C159.7 73.7636 161.141 72.7672 162.775 72.2436C164.409 71.72 166.161 71.6927 167.81 72.1652C169.459 72.6377 170.931 73.5888 172.04 74.8981C173.524 76.6522 174.252 78.9237 174.063 81.2138C173.874 83.504 172.785 85.6256 171.033 87.113Z" fill="#A6A6A6"/>
<path d="M171.506 86.307C170.198 87.4162 168.59 88.1124 166.886 88.3078C165.182 88.5032 163.459 88.1889 161.933 87.4047C160.408 86.6205 159.149 85.4015 158.317 83.9021C157.484 82.4026 157.115 80.6899 157.256 78.9806C157.397 77.2713 158.041 75.6421 159.108 74.2991C160.175 72.9561 161.616 71.9595 163.249 71.4355C164.882 70.9115 166.634 70.8835 168.283 71.355C169.932 71.8266 171.404 72.7766 172.513 74.0848C173.999 75.8394 174.729 78.1125 174.54 80.4044C174.351 82.6963 173.26 84.8194 171.506 86.307Z" fill="#6C9AF5"/>
<path d="M169.793 84.2764C168.886 85.0471 167.772 85.5317 166.59 85.6687C165.408 85.8056 164.211 85.5889 163.153 85.046C162.094 84.503 161.22 83.6581 160.641 82.6183C160.063 81.5785 159.806 80.3905 159.903 79.2045C160 78.0186 160.446 76.888 161.186 75.9559C161.925 75.0238 162.925 74.3321 164.058 73.9682C165.191 73.6043 166.406 73.5846 167.55 73.9117C168.694 74.2388 169.716 74.8978 170.485 75.8055C171.515 77.0211 172.021 78.5959 171.891 80.1842C171.762 81.7724 171.007 83.2442 169.793 84.2764Z" fill="white"/>
<path d="M169.794 84.2767C169.227 84.7599 168.574 85.1333 167.87 85.3779L163.03 84.9834C162.375 84.6283 161.792 84.1539 161.311 83.5845C160.958 83.1711 160.664 82.7109 160.438 82.217L170.869 83.0665C170.568 83.5172 170.206 83.9243 169.794 84.2767Z" fill="#EBEBEB"/>
<path d="M171.003 76.5149L161.375 75.7308C161.569 75.5079 161.779 75.3 162.004 75.1088C163.22 74.0778 164.795 73.5716 166.383 73.7014C167.971 73.8312 169.443 74.5864 170.475 75.801C170.669 76.0252 170.845 76.2639 171.003 76.5149Z" fill="#EBEBEB"/>
<path d="M171.527 81.82L160.007 80.8785C159.968 80.7019 159.94 80.5234 159.922 80.3436L171.694 81.3117C171.648 81.4763 171.59 81.6481 171.527 81.82Z" fill="#EBEBEB"/>
<path d="M185.901 74.5615L174.211 60.7662C182.936 57.6465 190.235 56.7461 191.366 58.0724C192.496 59.3987 190.407 66.461 185.901 74.5615Z" fill="#6C9AF5"/>
<path d="M177.654 61.9378C177.578 62.0028 177.484 62.0437 177.385 62.0553C177.285 62.0669 177.185 62.0488 177.096 62.0031C177.007 61.9575 176.933 61.8865 176.884 61.799C176.836 61.7115 176.814 61.6115 176.822 61.5117C176.83 61.4119 176.868 61.3168 176.93 61.2384C176.992 61.16 177.076 61.1018 177.172 61.0712C177.267 61.0406 177.369 61.0391 177.466 61.0667C177.562 61.0943 177.648 61.1498 177.712 61.2263C177.799 61.3284 177.841 61.4607 177.83 61.594C177.819 61.7274 177.756 61.851 177.654 61.9378Z" fill="white"/>
<path d="M179.731 64.3918C179.68 64.4362 179.621 64.4701 179.557 64.4915C179.494 64.5129 179.426 64.5214 179.359 64.5165C179.292 64.5115 179.227 64.4933 179.167 64.4628C179.107 64.4323 179.054 64.3901 179.01 64.3388C178.967 64.2875 178.934 64.228 178.914 64.1639C178.894 64.0997 178.887 64.0322 178.893 63.9653C178.899 63.8983 178.918 63.8333 178.95 63.774C178.982 63.7146 179.025 63.6622 179.077 63.6198C179.18 63.5361 179.311 63.4961 179.443 63.5083C179.575 63.5206 179.697 63.5841 179.783 63.6852C179.868 63.7863 179.911 63.917 179.901 64.0491C179.891 64.1813 179.83 64.3043 179.731 64.3918Z" fill="white"/>
<path d="M181.81 66.8436C181.733 66.9063 181.639 66.945 181.54 66.9548C181.442 66.9646 181.342 66.9452 181.254 66.8989C181.167 66.8526 181.094 66.7815 181.047 66.6945C180.999 66.6075 180.978 66.5083 180.986 66.4094C180.994 66.3105 181.032 66.2163 181.093 66.1383C181.154 66.0604 181.237 66.0022 181.332 65.9711C181.426 65.94 181.527 65.9373 181.623 65.9633C181.719 65.9894 181.805 66.043 181.87 66.1176C181.915 66.1685 181.95 66.2281 181.971 66.2927C181.993 66.3573 182.001 66.4257 181.995 66.4935C181.99 66.5614 181.97 66.6275 181.938 66.6876C181.906 66.7478 181.863 66.8009 181.81 66.8436Z" fill="white"/>
<path d="M183.889 69.2976C183.812 69.3606 183.719 69.3996 183.62 69.4098C183.521 69.4199 183.422 69.4008 183.334 69.3549C183.246 69.3089 183.174 69.238 183.126 69.1511C183.078 69.0643 183.056 68.9652 183.064 68.8662C183.072 68.7673 183.109 68.6729 183.17 68.5947C183.231 68.5166 183.314 68.4582 183.408 68.4268C183.502 68.3953 183.604 68.3923 183.7 68.4181C183.795 68.4438 183.882 68.4972 183.947 68.5715C183.992 68.6225 184.027 68.682 184.048 68.7465C184.07 68.811 184.078 68.8791 184.073 68.9469C184.067 69.0147 184.048 69.0807 184.017 69.1409C183.985 69.2012 183.942 69.2545 183.889 69.2976Z" fill="white"/>
<path d="M185.981 71.7516C185.905 71.8163 185.811 71.8568 185.712 71.8682C185.613 71.8796 185.512 71.8613 185.423 71.8156C185.334 71.7699 185.261 71.6989 185.212 71.6115C185.164 71.5242 185.142 71.4243 185.15 71.3247C185.158 71.225 185.196 71.13 185.258 71.0516C185.32 70.9732 185.404 70.915 185.499 70.8843C185.594 70.8536 185.696 70.8518 185.792 70.8791C185.889 70.9064 185.974 70.9616 186.039 71.0377C186.082 71.0883 186.115 71.147 186.136 71.2103C186.156 71.2736 186.164 71.3404 186.158 71.4067C186.153 71.473 186.135 71.5376 186.104 71.5968C186.074 71.656 186.032 71.7086 185.981 71.7516Z" fill="white"/>
<path d="M140.481 93.4613C140.379 93.545 140.247 93.585 140.115 93.5727C139.983 93.5605 139.862 93.497 139.776 93.3959C139.69 93.2947 139.648 93.164 139.658 93.0319C139.667 92.8998 139.729 92.7767 139.828 92.6892C139.879 92.6448 139.937 92.6109 140.001 92.5895C140.065 92.5681 140.132 92.5597 140.199 92.5646C140.266 92.5695 140.332 92.5878 140.392 92.6183C140.452 92.6488 140.505 92.6909 140.548 92.7423C140.592 92.7936 140.624 92.8531 140.645 92.9172C140.665 92.9813 140.672 93.0488 140.666 93.1158C140.66 93.1827 140.64 93.2478 140.608 93.3071C140.577 93.3664 140.534 93.4188 140.481 93.4613Z" fill="#A6A6A6"/>
<path d="M142.569 95.9152C142.492 95.9782 142.399 96.0172 142.3 96.0274C142.201 96.0375 142.102 96.0185 142.014 95.9725C141.926 95.9265 141.853 95.8556 141.805 95.7688C141.757 95.6819 141.736 95.5828 141.744 95.4839C141.752 95.3849 141.789 95.2905 141.85 95.2124C141.911 95.1342 141.994 95.0758 142.088 95.0444C142.182 95.013 142.283 95.0099 142.379 95.0357C142.475 95.0614 142.561 95.1148 142.627 95.1892C142.672 95.2401 142.706 95.2996 142.728 95.3641C142.749 95.4286 142.758 95.4968 142.752 95.5645C142.747 95.6323 142.728 95.6983 142.696 95.7586C142.665 95.8188 142.621 95.8721 142.569 95.9152Z" fill="#A6A6A6"/>
<path d="M144.645 98.3743C144.569 98.439 144.475 98.4795 144.376 98.4909C144.277 98.5023 144.176 98.484 144.087 98.4383C143.998 98.3926 143.925 98.3216 143.876 98.2342C143.828 98.1468 143.806 98.047 143.814 97.9474C143.822 97.8477 143.86 97.7527 143.922 97.6743C143.984 97.5959 144.068 97.5377 144.163 97.507C144.258 97.4763 144.36 97.4745 144.456 97.5018C144.553 97.5291 144.639 97.5842 144.703 97.6604C144.747 97.711 144.779 97.7697 144.8 97.833C144.82 97.8963 144.828 97.9631 144.822 98.0294C144.817 98.0957 144.799 98.1603 144.768 98.2195C144.738 98.2787 144.696 98.3313 144.645 98.3743Z" fill="#A6A6A6"/>
<path d="M146.733 100.821C146.656 100.884 146.563 100.923 146.464 100.933C146.365 100.943 146.266 100.924 146.178 100.878C146.09 100.832 146.017 100.762 145.969 100.675C145.921 100.588 145.9 100.489 145.908 100.39C145.916 100.291 145.953 100.196 146.014 100.118C146.075 100.04 146.158 99.9817 146.252 99.9503C146.346 99.9189 146.447 99.9159 146.543 99.9416C146.639 99.9674 146.725 100.021 146.791 100.095C146.836 100.146 146.87 100.206 146.892 100.27C146.913 100.335 146.922 100.403 146.916 100.47C146.911 100.538 146.892 100.604 146.86 100.665C146.829 100.725 146.786 100.778 146.733 100.821Z" fill="#A6A6A6"/>
<path d="M148.81 103.273C148.733 103.336 148.639 103.374 148.54 103.384C148.442 103.394 148.342 103.375 148.254 103.328C148.167 103.282 148.094 103.211 148.047 103.124C147.999 103.037 147.978 102.938 147.986 102.839C147.994 102.74 148.032 102.646 148.093 102.568C148.154 102.49 148.237 102.432 148.332 102.401C148.426 102.37 148.527 102.367 148.623 102.393C148.719 102.419 148.805 102.473 148.87 102.547C148.915 102.598 148.95 102.658 148.971 102.722C148.993 102.787 149.001 102.855 148.995 102.923C148.99 102.991 148.97 103.057 148.938 103.117C148.906 103.177 148.863 103.23 148.81 103.273Z" fill="#A6A6A6"/>
<path opacity="0.2" d="M190.816 57.7313C184.083 58.2153 172.422 62.291 160.154 71.9139C151.088 79.0221 144.473 91.4621 141.39 98.1057L137.68 93.7299C137.68 93.7299 142.762 80.1306 154.805 70.9966C160.824 66.4393 167.875 63.0292 174.208 60.7735C182.028 57.9684 188.701 56.9519 190.816 57.7313Z" fill="white"/>
<path d="M143.063 107.068L135.156 97.7403L138.232 94.3785L146.882 104.582L143.063 107.068Z" fill="#6C9AF5"/>
<path opacity="0.1" d="M146.889 104.582L145.028 105.793L137.062 95.6639L138.239 94.3812L146.889 104.582Z" fill="black"/>
<path opacity="0.6" d="M141.327 104.987C137.661 107.458 134.425 110.611 132.063 114.379C129.639 118.167 128.27 122.532 128.096 127.025C128.038 129.303 128.316 131.576 128.921 133.773C129.544 136.01 130.486 138.146 131.719 140.114C132.981 142.117 134.495 143.95 136.223 145.569C137.982 147.215 139.906 148.674 141.964 149.926C139.744 148.911 137.635 147.669 135.671 146.22C133.684 144.747 131.894 143.024 130.347 141.094C127.139 137.1 125.184 132.246 124.727 127.144C124.272 121.986 125.361 116.693 127.617 111.971C129.872 107.249 133.244 103.055 137.227 99.6281L141.327 104.987Z" fill="#6C9AF5"/>
<path d="M135.052 110.609L133.61 110.875L133.288 112.395L132.966 110.875L131.523 110.606L132.961 110.255L133.288 108.82L133.617 110.255L135.052 110.609Z" fill="white"/>
<path d="M129.754 139.078L128.948 139.228L128.769 140.077L128.587 139.228L127.781 139.078L128.585 138.882L128.769 138.081L128.953 138.882L129.754 139.078Z" fill="white"/>
<path d="M129.308 131.703L128.502 131.851L128.323 132.703L128.144 131.851L127.336 131.703L128.139 131.507L128.323 130.704L128.507 131.507L129.308 131.703Z" fill="white"/>
<path d="M133.988 105.868L133.182 106.018L133.001 106.867L132.822 106.018L132.016 105.868L132.819 105.672L133.001 104.87L133.185 105.672L133.988 105.868Z" fill="white"/>
<path d="M131.655 140.917C131.604 140.931 131.559 140.962 131.526 141.004C131.494 141.046 131.477 141.098 131.477 141.151C131.477 141.204 131.494 141.256 131.526 141.298C131.559 141.34 131.604 141.37 131.655 141.384C131.706 141.37 131.752 141.34 131.784 141.298C131.816 141.256 131.834 141.204 131.834 141.151C131.834 141.098 131.816 141.046 131.784 141.004C131.752 140.962 131.706 140.931 131.655 140.917Z" fill="white"/>
<path d="M138.327 104.73C138.276 104.744 138.23 104.774 138.198 104.817C138.166 104.859 138.148 104.91 138.148 104.964C138.148 105.017 138.166 105.068 138.198 105.111C138.23 105.153 138.276 105.183 138.327 105.197C138.378 105.183 138.424 105.153 138.456 105.111C138.488 105.068 138.506 105.017 138.506 104.964C138.506 104.91 138.488 104.859 138.456 104.817C138.424 104.774 138.378 104.744 138.327 104.73Z" fill="white"/>
<path d="M125.749 125.571C125.698 125.585 125.652 125.615 125.62 125.657C125.588 125.699 125.57 125.751 125.57 125.804C125.57 125.857 125.588 125.909 125.62 125.951C125.652 125.993 125.698 126.024 125.749 126.038C125.8 126.024 125.845 125.993 125.878 125.951C125.91 125.909 125.927 125.857 125.927 125.804C125.927 125.751 125.91 125.699 125.878 125.657C125.845 125.615 125.8 125.585 125.749 125.571Z" fill="white"/>
<path d="M131.241 139.7C131.2 139.705 131.163 139.725 131.136 139.755C131.109 139.786 131.094 139.825 131.094 139.866C131.094 139.907 131.109 139.946 131.136 139.977C131.163 140.007 131.2 140.027 131.241 140.032C131.281 140.027 131.319 140.007 131.346 139.977C131.373 139.946 131.388 139.907 131.388 139.866C131.388 139.825 131.373 139.786 131.346 139.755C131.319 139.725 131.281 139.705 131.241 139.7Z" fill="white"/>
<path d="M125.665 117.405C125.621 117.405 125.579 117.422 125.548 117.453C125.517 117.484 125.5 117.526 125.5 117.569C125.5 117.613 125.517 117.655 125.548 117.686C125.579 117.717 125.621 117.734 125.665 117.734C125.708 117.734 125.75 117.717 125.781 117.686C125.812 117.655 125.829 117.613 125.829 117.569C125.829 117.526 125.812 117.484 125.781 117.453C125.75 117.422 125.708 117.405 125.665 117.405Z" fill="white"/>
<path d="M127.347 134.313C127.233 134.321 127.127 134.372 127.05 134.455C126.973 134.538 126.93 134.648 126.93 134.762C126.93 134.875 126.973 134.985 127.05 135.068C127.127 135.151 127.233 135.202 127.347 135.211C127.46 135.202 127.566 135.151 127.644 135.068C127.721 134.985 127.764 134.875 127.764 134.762C127.764 134.648 127.721 134.538 127.644 134.455C127.566 134.372 127.46 134.321 127.347 134.313Z" fill="white"/>
<path d="M127.776 115.885C127.657 115.885 127.543 115.932 127.459 116.016C127.375 116.1 127.328 116.214 127.328 116.333C127.328 116.451 127.375 116.565 127.459 116.649C127.543 116.733 127.657 116.78 127.776 116.78C127.895 116.78 128.009 116.733 128.092 116.649C128.176 116.565 128.224 116.451 128.224 116.333C128.224 116.214 128.176 116.1 128.092 116.016C128.009 115.932 127.895 115.885 127.776 115.885Z" fill="white"/>
<path d="M173.751 141.633C207.803 141.633 235.408 140.021 235.408 138.033C235.408 136.045 207.803 134.433 173.751 134.433C139.699 134.433 112.094 136.045 112.094 138.033C112.094 140.021 139.699 141.633 173.751 141.633Z" fill="#F5F5F5"/>
<path d="M168.077 148.235C168.125 148.382 168.137 148.538 168.111 148.69C168.085 148.842 168.023 148.986 167.929 149.109C167.836 149.231 167.714 149.33 167.573 149.395C167.433 149.46 167.28 149.489 167.125 149.482H100.834C98.7637 149.482 98.7637 136 100.834 136H167.145C167.298 135.992 167.451 136.022 167.591 136.087C167.73 136.152 167.852 136.249 167.946 136.372C168.039 136.494 168.102 136.637 168.128 136.788C168.154 136.94 168.143 137.095 168.096 137.242C167.268 139.812 167.268 145.67 168.077 148.235Z" fill="#6C9AF5"/>
<path opacity="0.8" d="M167.986 137.575H127.759C126.174 137.575 126.174 147.907 127.759 147.907H167.986C167.305 145.313 167.305 140.164 167.986 137.575Z" fill="white"/>
<path opacity="0.2" d="M125.752 148.235C125.8 148.382 125.811 148.538 125.785 148.69C125.76 148.842 125.697 148.986 125.604 149.109C125.51 149.231 125.388 149.33 125.248 149.395C125.108 149.46 124.954 149.489 124.8 149.482H100.834C98.7637 149.482 98.7637 136 100.834 136H124.819C124.972 135.992 125.126 136.022 125.265 136.087C125.405 136.152 125.526 136.249 125.62 136.372C125.714 136.494 125.776 136.637 125.802 136.788C125.829 136.94 125.818 137.095 125.771 137.242C124.942 139.812 124.942 145.67 125.752 148.235Z" fill="black"/>
<path d="M111.061 136H105.584C103.514 136 103.514 149.482 105.584 149.482H111.061C109.01 149.482 109.01 136 111.061 136Z" fill="#6C9AF5"/>
<path d="M115.383 136H113.232C111.162 136 111.162 149.482 113.232 149.482H115.383C113.299 149.482 113.299 136 115.383 136Z" fill="#6C9AF5"/>
<path d="M96.9781 134.881C96.7497 135.433 97.3112 136 98.0727 136H157.692C160.124 136 160.124 123.879 157.692 123.879H98.0679C97.3065 123.879 96.7449 124.44 96.9734 124.997C97.9251 127.305 97.9251 132.573 96.9781 134.881Z" fill="#263238"/>
<path opacity="0.2" d="M96.9781 134.881C96.7497 135.433 97.3112 136 98.0727 136H127.307C129.738 136 129.738 123.879 127.307 123.879H98.0679C97.3065 123.879 96.7449 124.44 96.9734 124.997C97.9251 127.305 97.9251 132.573 96.9781 134.881Z" fill="black"/>
<path opacity="0.8" d="M97.0781 125.292H126.107C127.968 125.292 127.968 134.581 126.107 134.581H97.0781C97.8776 132.235 97.8776 127.624 97.0781 125.292Z" fill="white"/>
<path opacity="0.2" d="M135.763 126.582C135.582 126.044 136.105 125.52 136.829 125.52H153.518C155.288 125.52 155.288 134.353 153.518 134.353H136.829C136.105 134.353 135.582 133.834 135.763 133.296C136.334 131.095 136.334 128.783 135.763 126.582Z" fill="white"/>
<path d="M256.405 129.47C256.457 129.631 256.472 129.802 256.449 129.97C256.425 130.138 256.363 130.298 256.268 130.438C256.173 130.578 256.047 130.694 255.9 130.778C255.753 130.862 255.589 130.911 255.42 130.922H185.368C183.179 130.922 183.179 115.217 185.368 115.217H255.42C255.586 115.229 255.747 115.278 255.892 115.36C256.037 115.443 256.161 115.557 256.256 115.694C256.351 115.831 256.413 115.988 256.439 116.153C256.465 116.317 256.453 116.486 256.405 116.645C255.553 119.667 255.553 126.487 256.405 129.47Z" fill="#6C9AF5"/>
<path opacity="0.5" d="M256.405 129.47C256.457 129.631 256.472 129.802 256.449 129.97C256.425 130.138 256.363 130.298 256.268 130.438C256.173 130.578 256.047 130.694 255.9 130.778C255.753 130.862 255.589 130.911 255.42 130.922H185.368C183.179 130.922 183.179 115.217 185.368 115.217H255.42C255.586 115.229 255.747 115.278 255.892 115.36C256.037 115.443 256.161 115.557 256.256 115.694C256.351 115.831 256.413 115.988 256.439 116.153C256.465 116.317 256.453 116.486 256.405 116.645C255.553 119.667 255.553 126.487 256.405 129.47Z" fill="white"/>
<path opacity="0.8" d="M256.305 117.064H213.803C212.128 117.064 212.128 129.085 213.803 129.085H256.305C255.577 126.072 255.577 120.081 256.305 117.064Z" fill="white"/>
<path opacity="0.6" d="M211.69 129.47C211.743 129.631 211.758 129.802 211.734 129.97C211.71 130.138 211.649 130.298 211.554 130.438C211.458 130.578 211.333 130.694 211.185 130.778C211.038 130.862 210.874 130.911 210.705 130.922H185.368C183.179 130.922 183.179 115.217 185.368 115.217H210.705C210.871 115.229 211.033 115.278 211.178 115.36C211.322 115.443 211.447 115.557 211.541 115.694C211.636 115.831 211.699 115.988 211.724 116.153C211.75 116.317 211.738 116.486 211.69 116.645C210.848 119.667 210.848 126.487 211.69 129.47Z" fill="#6C9AF5"/>
<path opacity="0.5" d="M201.415 116.393C201.464 116.27 201.484 116.137 201.473 116.005C201.462 115.873 201.42 115.745 201.351 115.632C201.281 115.519 201.186 115.424 201.074 115.355C200.961 115.285 200.833 115.243 200.701 115.232H191.04C188.851 115.232 188.851 130.936 191.04 130.936H200.701C200.833 130.924 200.961 130.882 201.074 130.811C201.186 130.741 201.281 130.646 201.351 130.533C201.42 130.419 201.462 130.291 201.473 130.159C201.484 130.027 201.464 129.894 201.415 129.77C200.439 126.853 200.439 119.301 201.415 116.393Z" fill="white"/>
<path d="M251.389 147.754C251.446 147.963 251.452 148.182 251.406 148.393C251.361 148.605 251.266 148.802 251.13 148.97C250.993 149.137 250.818 149.27 250.62 149.356C250.422 149.443 250.206 149.481 249.99 149.467H177.207C174.1 149.467 174.095 130.907 177.207 130.907H250.019C250.235 130.894 250.45 130.932 250.649 131.019C250.847 131.105 251.021 131.237 251.158 131.405C251.295 131.572 251.39 131.77 251.435 131.981C251.48 132.193 251.474 132.412 251.418 132.621C250.176 136.157 250.181 144.223 251.389 147.754Z" fill="#6C9AF5"/>
<path opacity="0.2" d="M251.389 147.754C251.446 147.963 251.452 148.182 251.406 148.393C251.361 148.605 251.266 148.802 251.13 148.97C250.993 149.137 250.818 149.27 250.62 149.356C250.422 149.443 250.206 149.481 249.99 149.467H177.207C174.1 149.467 174.095 130.907 177.207 130.907H250.019C250.235 130.894 250.45 130.932 250.649 131.019C250.847 131.105 251.021 131.237 251.158 131.405C251.295 131.572 251.39 131.77 251.435 131.981C251.48 132.193 251.474 132.412 251.418 132.621C250.176 136.157 250.181 144.223 251.389 147.754Z" fill="white"/>
<path opacity="0.8" d="M251.236 133.078H207.23C204.85 133.078 204.85 147.297 207.23 147.297H251.24C250.222 143.733 250.222 136.647 251.236 133.078Z" fill="white"/>
<path opacity="0.6" d="M204.233 147.764C204.291 147.972 204.297 148.191 204.253 148.403C204.208 148.614 204.114 148.812 203.978 148.979C203.841 149.147 203.667 149.28 203.469 149.366C203.271 149.453 203.055 149.491 202.839 149.477H177.207C174.1 149.477 174.095 130.917 177.207 130.917H202.839C203.055 130.904 203.271 130.942 203.469 131.028C203.667 131.115 203.842 131.247 203.978 131.415C204.115 131.582 204.21 131.78 204.255 131.991C204.3 132.202 204.294 132.422 204.238 132.63C203.025 136.166 203.025 144.228 204.233 147.764Z" fill="#6C9AF5"/>
<path opacity="0.5" d="M188.872 131.564C188.912 131.496 188.932 131.418 188.93 131.34C188.929 131.261 188.906 131.184 188.863 131.118C188.821 131.051 188.761 130.998 188.691 130.963C188.62 130.929 188.541 130.914 188.463 130.921H184.108C181.006 130.921 181.006 149.481 184.108 149.481H188.482C188.56 149.488 188.639 149.474 188.71 149.439C188.78 149.405 188.84 149.351 188.882 149.285C188.925 149.218 188.948 149.142 188.949 149.063C188.951 148.984 188.931 148.907 188.891 148.839C187.002 145.969 187.002 134.429 188.872 131.564Z" fill="white"/>
<path opacity="0.5" d="M195.669 131.564C195.708 131.496 195.728 131.418 195.726 131.339C195.725 131.261 195.701 131.184 195.659 131.117C195.617 131.051 195.558 130.997 195.487 130.962C195.417 130.926 195.338 130.911 195.26 130.917H190.905C187.802 130.917 187.802 149.477 190.905 149.477H195.26C195.338 149.483 195.416 149.468 195.486 149.433C195.556 149.398 195.615 149.344 195.656 149.278C195.698 149.212 195.721 149.135 195.722 149.057C195.724 148.979 195.704 148.902 195.664 148.834C193.799 145.969 193.799 134.424 195.669 131.564Z" fill="white"/>
<path d="M250.668 105.357C250.584 104.035 250.273 102.738 249.75 101.521L250.178 101.312C250.722 102.58 251.044 103.932 251.13 105.309L250.668 105.357Z" fill="#6C9AF5"/>
<path d="M247.681 99.4606H235.859V99.9365H247.681V99.4606Z" fill="#6C9AF5"/>
<path d="M170.649 113.933C170.406 114.58 171.001 115.232 171.805 115.232H247.691C250.256 115.232 250.256 101.127 247.691 101.127H171.805C171.001 101.127 170.406 101.783 170.649 102.43C171.648 105.11 171.648 111.244 170.649 113.933Z" fill="#6C9AF5"/>
<path opacity="0.2" d="M170.649 113.933C170.406 114.58 171.001 115.232 171.805 115.232H215.587C218.157 115.232 218.157 101.127 215.587 101.127H171.805C171.001 101.127 170.406 101.783 170.649 102.43C171.648 105.11 171.648 111.244 170.649 113.933Z" fill="black"/>
<path opacity="0.8" d="M170.758 102.778H214.311C216.282 102.778 216.282 113.585 214.311 113.585H170.758C171.6 110.873 171.6 105.49 170.758 102.778Z" fill="white"/>
<path opacity="0.2" d="M224.514 104.271C224.324 103.648 224.876 103.044 225.637 103.044H243.274C245.144 103.044 245.144 113.318 243.274 113.318H225.637C224.876 113.318 224.324 112.714 224.514 112.086C225.138 110.111 225.138 106.251 224.514 104.271Z" fill="white"/>
</g>
<defs>
<clipPath id="clip0_2459_23555">
<rect width="159" height="159" fill="white" transform="translate(94.25 28)"/>
</clipPath>
</defs>
</svg>
