<svg width="347" height="199" viewBox="0 0 347 199" fill="none" xmlns="http://www.w3.org/2000/svg">
<path d="M0.25 8C0.25 3.58173 3.83172 0 8.25 0H338.25C342.668 0 346.25 3.58172 346.25 8V129H0.25V8Z" fill="#E0E5EE"/>
<mask id="mask0_2459_23749" style="mask-type:alpha" maskUnits="userSpaceOnUse" x="0" y="0" width="346" height="129">
<rect x="0.5" width="345" height="129" rx="8" fill="white"/>
</mask>
<g mask="url(#mask0_2459_23749)">
<path opacity="0.8" d="M157.642 70.0001C158.316 68.6602 158.636 67.1701 158.572 65.6715C158.507 64.173 158.06 62.716 157.273 61.439C156.486 60.1621 155.386 59.1077 154.076 58.3762C152.767 57.6448 151.292 57.2605 149.792 57.2601C148.66 57.2582 147.539 57.4791 146.492 57.9101C145.621 55.4225 143.998 53.2672 141.849 51.7425C139.699 50.2178 137.128 49.3993 134.492 49.4001H134.252C133.269 45.1195 130.954 41.2611 127.639 38.3796C124.324 35.4982 120.181 33.7422 115.805 33.3644C111.429 32.9865 107.047 34.0061 103.287 36.2766C99.5274 38.5471 96.5847 41.9515 94.8822 46.0001C92.8071 46.6445 90.8997 47.7386 89.2957 49.2043C87.6917 50.67 86.4306 52.4714 85.6022 54.4801C84.2184 54.0939 82.7692 54.0006 81.3473 54.2061C79.9254 54.4117 78.562 54.9115 77.3443 55.6738C76.1265 56.4361 75.0811 57.444 74.2749 58.6332C73.4687 59.8224 72.9195 61.1666 72.6622 62.5801C71.6988 62.202 70.6575 62.065 69.6291 62.1813C68.6006 62.2975 67.6162 62.6634 66.7614 63.247C65.9067 63.8306 65.2076 64.6143 64.7249 65.5299C64.2423 66.4455 63.9907 67.4651 63.9922 68.5001C63.9943 69.0126 64.0581 69.5229 64.1822 70.0201L157.642 70.0001Z" fill="#DADFE9"/>
<path opacity="0.8" d="M314.2 94C314.2 93.7045 314.25 93.3946 314.25 93.0919C314.25 90.9014 313.393 88.8006 311.866 87.2516C310.34 85.7027 308.27 84.8325 306.112 84.8325C305.101 84.8314 304.098 85.0246 303.158 85.4019C302.49 82.1371 300.63 79.2498 297.95 77.3204C295.271 75.3911 291.971 74.5628 288.714 75.002C287.747 70.5702 285.434 66.558 282.102 63.5303C278.769 60.5027 274.585 58.6123 270.138 58.1253C265.692 57.6382 261.207 58.5791 257.314 60.8155C253.422 63.0518 250.32 66.4709 248.443 70.5913C246.5 70.6531 244.588 71.0961 242.812 71.8958C240.413 69.9597 237.524 68.7507 234.478 68.4079C231.432 68.065 228.353 68.6024 225.595 69.9581C222.836 71.3137 220.511 73.4325 218.888 76.0705C217.264 78.7084 216.407 81.7582 216.416 84.8686C214.265 84.8628 212.198 85.7213 210.668 87.2566C209.138 88.792 208.269 90.8794 208.25 93.0631C208.251 93.3667 208.27 93.6699 208.307 93.9712L314.2 94Z" fill="#DADFE9"/>
<circle opacity="0.7" cx="-7.25" cy="98" r="15.5" transform="rotate(180 -7.25 98)" fill="#D7DCE6"/>
<circle opacity="0.7" cx="14.75" cy="67.5" r="4.5" transform="rotate(180 14.75 67.5)" fill="#D7DCE6"/>
</g>
<path d="M94.913 126.225H85.5391V130.186H94.913V126.225Z" fill="#CCCCCC"/>
<path d="M89.6942 131.219H80.3203V135.181H89.6942V131.219Z" fill="#CCCCCC"/>
<path d="M100.147 131.219H90.7734V135.181H100.147V131.219Z" fill="#CCCCCC"/>
<path d="M220.96 131.219H211.586V135.181H220.96V131.219Z" fill="#CCCCCC"/>
<path d="M220.96 37.073H211.586V41.0343H220.96V37.073Z" fill="#CCCCCC"/>
<path d="M226.194 42.0678H216.82V46.0291H226.194V42.0678Z" fill="#CCCCCC"/>
<path d="M89.6942 37.0769H80.3203V41.0382H89.6942V37.0769Z" fill="#CCCCCC"/>
<path d="M180.65 69.4429H190.023V65.4817H180.65V69.4429Z" fill="#CCCCCC"/>
<path d="M185.884 64.4513H195.258V60.49H185.884V64.4513Z" fill="#CCCCCC"/>
<path d="M80 46.0286H138.378V122.312H80V46.0286ZM136.831 47.5649H81.5399V120.765H136.831V47.5649Z" fill="#CCCCCC"/>
<path d="M110.563 47.9689H109.023V121.544H110.563V47.9689Z" fill="#CCCCCC"/>
<path d="M78.6129 51.2827L139.773 51.2827V49.141L78.6129 49.141V51.2827Z" fill="#CCCCCC"/>
<path d="M78.6129 53.6932L139.773 53.6932V51.5515L78.6129 51.5515V53.6932Z" fill="#CCCCCC"/>
<path d="M78.6129 56.1038L139.773 56.1038V53.9621L78.6129 53.9621V56.1038Z" fill="#CCCCCC"/>
<path d="M78.6129 58.5144L139.773 58.5144V56.3727L78.6129 56.3727V58.5144Z" fill="#CCCCCC"/>
<path d="M78.6129 60.9257L139.773 60.9257V58.784L78.6129 58.784V60.9257Z" fill="#CCCCCC"/>
<path d="M78.6129 63.3394L139.773 63.3394V61.1977L78.6129 61.1977V63.3394Z" fill="#CCCCCC"/>
<path d="M78.6129 65.7508L139.773 65.7508V63.6091L78.6129 63.6091V65.7508Z" fill="#CCCCCC"/>
<path d="M78.6129 68.1614L139.773 68.1614V66.0197L78.6129 66.0197V68.1614Z" fill="#CCCCCC"/>
<path d="M78.6129 70.572L139.773 70.572V68.4303L78.6129 68.4303V70.572Z" fill="#CCCCCC"/>
<path d="M83.5577 48.7054H83.1719V98.1061H83.5577V48.7054Z" fill="#263238"/>
<path d="M82.6875 99.8974H84.0539L83.7106 97.9362H83.0309L82.6875 99.8974Z" fill="#263238"/>
<path d="M82.1749 48.7054H81.7891V120.171H82.1749V48.7054Z" fill="#263238"/>
<path d="M81.3047 121.611H82.6711L82.3277 119.65H81.6481L81.3047 121.611Z" fill="#263238"/>
<path d="M76.228 50.2097L142.164 50.2097V45.7245L76.228 45.7245V50.2097Z" fill="#DBDBDB"/>
<path d="M212.347 94.5694C212.347 94.5694 203.776 93.3693 205.78 83.0219C205.78 83.029 215.356 85.1813 212.347 94.5694Z" fill="#DBDBDB"/>
<path d="M211.914 92.4175C211.744 91.8935 211.549 91.3791 211.33 90.874C211.33 90.8068 211.312 90.743 211.309 90.6793C211.309 90.5377 211.284 90.3926 211.273 90.251C211.249 89.943 211.227 89.635 211.21 89.3235C211.174 88.7075 211.135 88.088 211.125 87.4685C211.125 87.4367 211.072 87.4367 211.072 87.4685C211.072 88.088 211.072 88.704 211.072 89.3235C211.072 89.635 211.1 89.943 211.121 90.251C211.121 90.3218 211.121 90.389 211.121 90.4563C210.64 89.4262 210.066 88.4426 209.404 87.5181C209.11 87.1075 208.799 86.711 208.466 86.3322C208.133 85.9534 207.758 85.5676 207.404 85.1817C207.383 85.1569 207.344 85.1817 207.369 85.2171C207.983 85.8991 208.535 86.6348 209.018 87.4154C209.28 87.8084 209.525 88.2119 209.762 88.6226L209.68 88.5943L209.376 88.4704C209.14 88.3783 208.904 88.2898 208.668 88.2049L207.291 87.6916C207.263 87.6916 207.245 87.7305 207.27 87.7411C207.726 87.9217 208.176 88.1128 208.629 88.3075L209.291 88.5943L209.627 88.7323C209.7 88.7667 209.776 88.7929 209.854 88.8102C210.027 89.1217 210.208 89.4332 210.356 89.7518C210.754 90.556 211.103 91.3835 211.401 92.2298L211.465 92.4068C211.238 92.2708 211.001 92.1524 210.757 92.0528C210.463 91.9148 210.165 91.7838 209.872 91.6493C209.27 91.3732 208.671 91.0935 208.102 90.7678C208.098 90.7662 208.095 90.7652 208.092 90.7648C208.088 90.7645 208.085 90.7648 208.082 90.7658C208.078 90.7668 208.075 90.7684 208.073 90.7706C208.07 90.7728 208.068 90.7754 208.066 90.7784C208.064 90.7815 208.063 90.7848 208.063 90.7882C208.063 90.7916 208.063 90.7951 208.064 90.7983C208.065 90.8016 208.067 90.8047 208.069 90.8074C208.071 90.81 208.074 90.8122 208.077 90.8138C208.664 91.1324 209.241 91.4758 209.847 91.798C210.141 91.9573 210.438 92.113 210.739 92.2582C210.988 92.4064 211.26 92.5151 211.542 92.5803C211.83 93.3645 212.019 94.1814 212.105 95.0123C212.201 96.1805 212.19 97.3593 212.219 98.5346C212.219 98.5523 212.247 98.5523 212.25 98.5346C212.335 97.4726 212.381 96.4106 212.388 95.3309C212.386 94.3407 212.226 93.3573 211.914 92.4175Z" fill="#A6A6A6"/>
<path d="M210.602 86.3327C210.519 86.9377 210.491 87.5491 210.517 88.1593H210.542C210.578 87.554 210.585 86.9522 210.652 86.3504C210.641 86.3114 210.602 86.3008 210.602 86.3327Z" fill="#A6A6A6"/>
<path d="M208.118 86.8489C207.735 86.7041 207.366 86.524 207.017 86.3108C206.988 86.2896 206.96 86.3356 206.988 86.3533C207.336 86.5862 207.717 86.7663 208.118 86.8879C208.139 86.8914 208.153 86.8596 208.118 86.8489Z" fill="#A6A6A6"/>
<path d="M212.609 110.999C212.609 110.054 212.584 109.105 212.573 108.167C212.556 105.02 212.531 101.876 212.474 98.7329C212.43 96.2336 212.372 93.7367 212.301 91.2422C212.3 91.2355 212.298 91.2291 212.294 91.2235C212.291 91.2179 212.286 91.2134 212.28 91.2104C212.28 90.5271 212.28 89.8475 212.28 89.1642C212.28 89.1465 212.28 89.1395 212.241 89.1395C212.202 89.1395 212.198 89.1395 212.198 89.1678V91.2139C212.198 91.2139 212.177 91.2316 212.177 91.2458C212.053 95.6885 211.94 100.131 211.912 104.577C211.912 105.48 211.912 106.383 211.912 107.286C211.878 110.184 211.868 113.082 211.88 115.98C211.88 116.44 211.88 116.904 211.88 117.364C211.88 120.015 211.904 122.674 211.908 125.315C211.908 125.46 212.064 125.531 212.234 125.538C212.404 125.545 212.63 125.467 212.63 125.304C212.63 122.38 212.651 119.46 212.651 116.536C212.616 114.684 212.623 112.843 212.609 110.999Z" fill="#A6A6A6"/>
<path d="M209.033 108.121C209.033 108.121 204.912 105.069 201.001 107.133C197.089 109.197 196.477 117.151 196.477 117.151C196.477 117.151 202.218 117.973 205.836 114.528C209.323 111.208 209.033 108.121 209.033 108.121Z" fill="#CCCCCC"/>
<path d="M210.156 108.312C209.398 108.011 208.576 107.904 207.766 108.001C207.6 107.97 207.432 107.954 207.264 107.951L206.679 107.905C206.279 107.877 205.879 107.852 205.479 107.82C204.665 107.76 203.851 107.711 203.04 107.629C203.008 107.629 203.005 107.679 203.04 107.682C203.844 107.785 204.644 107.898 205.448 107.98C205.862 108.022 206.276 108.065 206.694 108.093L206.995 108.125C206.871 108.15 206.75 108.181 206.641 108.213C205.993 108.401 205.366 108.657 204.771 108.974C204.446 109.031 204.124 109.123 203.805 109.197C203.295 109.318 202.789 109.449 202.279 109.583C201.281 109.845 200.29 110.139 199.295 110.429C199.263 110.429 199.295 110.486 199.313 110.479C200.304 110.235 201.302 110.012 202.297 109.771C202.778 109.658 203.263 109.544 203.745 109.417L204.124 109.328C203.017 110.015 202.028 110.875 201.196 111.877C200.391 112.862 199.708 113.94 199.16 115.088C199.143 115.116 199.185 115.145 199.203 115.116C199.884 113.934 200.717 112.847 201.681 111.881L201.628 112.047C201.55 112.288 201.476 112.532 201.398 112.776C201.246 113.261 201.09 113.746 200.945 114.231C200.947 114.237 200.95 114.241 200.955 114.245C200.96 114.248 200.965 114.25 200.971 114.25C200.977 114.25 200.983 114.248 200.987 114.245C200.992 114.241 200.996 114.237 200.998 114.231C201.171 113.76 201.334 113.286 201.5 112.815L201.745 112.107C201.787 111.987 201.83 111.867 201.869 111.753L201.911 111.644C202.368 111.195 202.855 110.779 203.37 110.397C204.05 109.897 204.785 109.476 205.561 109.141C205.547 109.214 205.532 109.285 205.518 109.353C205.476 109.541 205.433 109.728 205.398 109.916C205.317 110.305 205.239 110.698 205.164 111.088C205.009 111.888 204.913 112.695 204.764 113.491C204.764 113.495 204.765 113.498 204.766 113.501C204.767 113.504 204.769 113.507 204.772 113.509C204.774 113.511 204.777 113.513 204.78 113.514C204.783 113.516 204.786 113.516 204.789 113.516C204.792 113.516 204.796 113.516 204.799 113.514C204.802 113.513 204.804 113.511 204.807 113.509C204.809 113.507 204.811 113.504 204.812 113.501C204.813 113.498 204.814 113.495 204.814 113.491C204.998 112.688 205.235 111.898 205.416 111.095C205.504 110.695 205.596 110.291 205.678 109.888L205.794 109.321C205.819 109.217 205.838 109.112 205.851 109.006L206.074 108.914C207.157 108.514 208.35 108.224 209.504 108.447C210.049 108.548 210.561 108.782 210.993 109.128C211.426 109.475 211.765 109.923 211.982 110.433C212.018 110.521 212.159 110.468 212.142 110.376C211.995 109.901 211.739 109.467 211.394 109.109C211.049 108.75 210.625 108.477 210.156 108.312Z" fill="#A6A6A6"/>
<path d="M203.844 111.707C203.727 112.231 203.614 112.769 203.49 113.275C203.359 113.775 203.263 114.284 203.203 114.797C203.203 114.819 203.228 114.819 203.235 114.797C203.388 114.295 203.507 113.783 203.589 113.265C203.692 112.748 203.791 112.231 203.893 111.718C203.901 111.689 203.851 111.675 203.844 111.707Z" fill="#A6A6A6"/>
<path d="M199.869 113.035C199.345 113.3 198.836 113.605 198.287 113.824C198.255 113.824 198.287 113.888 198.308 113.87C198.847 113.627 199.373 113.355 199.883 113.056C199.883 113.056 199.883 113.028 199.869 113.035Z" fill="#A6A6A6"/>
<path d="M209.959 102.513C209.959 102.513 204.921 102.835 202.578 99.5149C200.234 96.1944 200.762 91.4473 200.762 91.4473C200.762 91.4473 206.072 92.0916 208.153 94.4775C210.235 96.8635 209.959 102.513 209.959 102.513Z" fill="#CCCCCC"/>
<path d="M212.324 107.483C212.151 106.945 211.935 106.421 211.73 105.883C211.524 105.345 211.326 104.871 211.103 104.375C210.652 103.36 210.149 102.368 209.595 101.405C209.241 100.793 208.859 100.202 208.466 99.614C208.466 99.5255 208.441 99.437 208.427 99.345C208.402 99.1892 208.381 99.0334 208.356 98.8777C208.306 98.5591 208.25 98.2405 208.197 97.9219C208.08 97.2139 207.938 96.5377 207.843 95.8403C207.843 95.8085 207.786 95.8085 207.793 95.8403C207.892 96.5271 207.963 97.2209 208.059 97.9077C208.105 98.2617 208.151 98.5838 208.2 98.9201C208.222 99.044 208.239 99.1644 208.26 99.2741C207.495 98.1517 206.668 97.0727 205.782 96.0421C205.662 95.9005 205.535 95.766 205.428 95.628C205.428 95.589 205.397 95.5536 205.382 95.5147C205.344 95.4191 205.308 95.3235 205.273 95.2244C205.198 95.0262 205.124 94.8244 205.053 94.6261C204.912 94.2297 204.784 93.8332 204.678 93.4261C204.678 93.3942 204.621 93.4084 204.628 93.4261C204.731 93.8403 204.837 94.2544 204.958 94.6615C205.018 94.8598 205.082 95.0545 205.149 95.2492L205.188 95.3448C204.543 94.6368 203.871 93.9677 203.191 93.2986C203.17 93.2739 203.131 93.2986 203.156 93.3376C204.445 94.7153 205.624 96.1925 206.682 97.7555C206.558 97.717 206.433 97.6851 206.306 97.6599C205.921 97.5856 205.528 97.5289 205.135 97.4794C204.317 97.3767 203.496 97.2705 202.678 97.1431C202.646 97.1431 202.632 97.1891 202.678 97.1926C203.457 97.3484 204.232 97.5219 205.007 97.7024C205.361 97.7874 205.74 97.8582 206.108 97.929C206.408 97.9944 206.704 98.0783 206.993 98.1803C207.075 98.2971 207.16 98.4139 207.237 98.5343C207.591 99.0724 207.945 99.6211 208.299 100.173L207.786 100.074C207.397 99.9999 207.007 99.9291 206.614 99.8653C205.846 99.7379 205.078 99.6034 204.317 99.4299C204.285 99.4299 204.274 99.4724 204.317 99.483C205.085 99.6636 205.85 99.8724 206.614 100.078C206.968 100.177 207.354 100.265 207.729 100.347C207.914 100.389 208.101 100.432 208.289 100.467C208.363 100.488 208.439 100.501 208.515 100.506C209.252 101.703 209.94 102.924 210.579 104.17C210.862 104.715 211.131 105.271 211.393 105.827C211.655 106.382 211.892 106.984 212.144 107.565C212.183 107.667 212.37 107.611 212.324 107.483Z" fill="#A6A6A6"/>
<path d="M207.175 95.9078C207.076 95.4263 206.977 94.9484 206.87 94.467C206.87 94.4351 206.814 94.4493 206.821 94.467C206.917 94.9378 207.005 95.4122 207.09 95.883C207.175 96.3538 207.246 96.8317 207.377 97.299C207.343 96.831 207.275 96.3661 207.175 95.9078Z" fill="#A6A6A6"/>
<path d="M204.221 95.766C203.988 95.6491 203.744 95.5571 203.513 95.4615L203.131 95.3128L202.936 95.235C202.862 95.2119 202.791 95.1798 202.724 95.1394C202.685 95.111 202.66 95.1783 202.699 95.1854C202.775 95.2044 202.848 95.2342 202.915 95.2739L203.106 95.3588L203.46 95.5217C203.702 95.6357 203.95 95.7339 204.204 95.8155C204.221 95.8261 204.25 95.7801 204.221 95.766Z" fill="#A6A6A6"/>
<path d="M215.117 98.552C215.117 98.552 218.165 92.8562 222.803 91.9747C227.44 91.0933 230.283 95.8687 230.283 95.8687C230.283 95.8687 226.884 100.188 222.636 100.942C218.388 101.696 215.117 98.552 215.117 98.552Z" fill="#CCCCCC"/>
<path d="M225.916 94.5275C224.71 94.3653 223.488 94.3796 222.287 94.5699L222.492 94.4567C222.846 94.2832 223.179 94.1027 223.523 93.9257C224.231 93.5717 224.939 93.161 225.7 92.8637C225.706 92.8608 225.711 92.8557 225.713 92.8494C225.715 92.8431 225.715 92.8361 225.712 92.83C225.709 92.8239 225.704 92.8192 225.698 92.8169C225.692 92.8145 225.685 92.8148 225.678 92.8176C224.953 93.1539 224.202 93.4371 223.473 93.7734C223.119 93.9398 222.765 94.1274 222.411 94.3009C222.184 94.4248 221.93 94.5381 221.703 94.6832C220.681 94.8886 219.688 95.2191 218.747 95.6673C218.938 95.4549 219.133 95.2461 219.328 95.0337C219.76 94.5593 220.184 94.0637 220.659 93.6177C220.684 93.5964 220.659 93.561 220.62 93.5823C220.135 94.0248 219.622 94.4319 219.151 94.8885C218.915 95.1104 218.695 95.3405 218.492 95.5788C218.386 95.6992 218.28 95.8196 218.177 95.9328C216.584 96.7856 215.201 97.981 214.126 99.433C213.051 100.885 212.312 102.557 211.961 104.33C211.961 104.362 212 104.379 212.011 104.33C212.663 102.159 213.833 100.178 215.42 98.5595C217.124 96.8169 219.272 95.5732 221.632 94.9629C223.033 94.6074 224.481 94.476 225.923 94.5735C225.972 94.623 225.976 94.5381 225.916 94.5275Z" fill="#A6A6A6"/>
<path d="M230.281 95.8653C230.281 95.8653 226.882 100.188 222.634 100.942C219.388 101.519 216.719 99.8231 215.632 98.9912L215.398 98.6053C215.398 98.6053 217.593 96.7539 221.749 95.6848C225.905 94.6157 230.281 95.8653 230.281 95.8653Z" fill="#DBDBDB"/>
<path d="M223.227 92.4992C222.87 92.7055 222.526 92.9325 222.197 93.1789C221.873 93.4232 221.574 93.697 221.301 93.9967C221.298 94.0021 221.296 94.0085 221.297 94.0148C221.298 94.0211 221.301 94.027 221.305 94.0315C221.31 94.036 221.316 94.0388 221.322 94.0396C221.328 94.0403 221.335 94.0389 221.34 94.0356C221.648 93.7666 221.956 93.501 222.278 93.2462C222.588 92.9908 222.913 92.7544 223.252 92.5382C223.256 92.5374 223.259 92.5357 223.262 92.5331C223.266 92.5306 223.268 92.5273 223.27 92.5236C223.271 92.5199 223.272 92.5159 223.272 92.5119C223.271 92.5078 223.27 92.504 223.268 92.5005C223.266 92.4971 223.263 92.4943 223.259 92.4923C223.256 92.4903 223.252 92.4892 223.248 92.4891C223.244 92.489 223.24 92.4898 223.236 92.4916C223.232 92.4933 223.229 92.496 223.227 92.4992Z" fill="#A6A6A6"/>
<path d="M225.769 93.4614C225.595 93.5322 225.415 93.5959 225.248 93.6667L224.731 93.8791C224.696 93.8791 224.714 93.957 224.731 93.9393L225.248 93.7304L225.765 93.5109C225.825 93.5074 225.797 93.4472 225.769 93.4614Z" fill="#A6A6A6"/>
<path d="M214.492 105.721C214.492 105.721 215.306 111.385 219.554 113.346C223.802 115.307 229.006 113.332 229.006 113.332C229.006 113.332 226.96 101.122 214.492 105.721Z" fill="#CCCCCC"/>
<path d="M226.063 109.671C225.674 109.625 225.284 109.558 224.895 109.487C224.704 109.455 224.513 109.416 224.325 109.381L224.028 109.321C223.911 109.214 223.797 109.105 223.674 109.002C222.869 108.294 221.999 107.663 221.075 107.119C220.574 106.821 220.055 106.554 219.521 106.319H219.599L221.015 106.379C221.95 106.421 222.881 106.443 223.812 106.503C223.847 106.503 223.843 106.453 223.812 106.45C222.877 106.39 221.946 106.283 221.011 106.205L219.652 106.085L218.944 106.021L218.767 106.004C218.523 105.912 218.279 105.827 218.034 105.752C216.876 105.355 215.63 105.286 214.434 105.554C213.372 105.827 212.31 106.528 212.023 107.653C212.023 107.692 212.073 107.721 212.091 107.682C212.491 106.74 213.535 106.266 214.477 106.067C215.112 105.946 215.763 105.934 216.402 106.032C216.445 106.323 216.516 106.608 216.615 106.885C216.732 107.282 216.848 107.682 216.969 108.078C217.21 108.871 217.475 109.657 217.712 110.453C217.712 110.485 217.769 110.453 217.762 110.453C217.564 109.66 217.408 108.86 217.206 108.067C217.11 107.678 217.015 107.289 216.916 106.899C216.862 106.627 216.791 106.359 216.703 106.096C217.075 106.16 217.443 106.246 217.804 106.354C218.461 106.548 219.104 106.785 219.73 107.062C219.794 107.462 219.882 107.862 219.974 108.259C220.091 108.758 220.222 109.253 220.378 109.738C220.378 109.745 220.38 109.751 220.385 109.756C220.39 109.761 220.396 109.763 220.403 109.763C220.409 109.763 220.415 109.761 220.42 109.756C220.425 109.751 220.427 109.745 220.427 109.738L220.406 109.646C220.311 109.183 220.208 108.722 220.112 108.262C220.034 107.908 219.96 107.515 219.882 107.144C220.411 107.38 220.927 107.641 221.429 107.929C221.429 108.043 221.468 108.163 221.482 108.283C221.514 108.478 221.55 108.673 221.585 108.864C221.666 109.299 221.751 109.735 221.858 110.167C222.048 111 222.291 111.821 222.587 112.623C222.583 112.628 222.581 112.634 222.581 112.639C222.581 112.645 222.583 112.651 222.587 112.655L222.612 112.684C222.629 112.705 222.661 112.684 222.654 112.655C222.459 111.82 222.233 110.988 222.049 110.149C221.957 109.728 221.865 109.31 221.78 108.889C221.737 108.68 221.702 108.467 221.659 108.255C221.659 108.198 221.642 108.131 221.631 108.067C222.203 108.403 222.755 108.772 223.284 109.172C224.201 109.859 225.05 110.633 225.819 111.484C225.847 111.515 225.907 111.484 225.879 111.43C225.563 111.001 225.225 110.589 224.867 110.195C224.654 109.968 224.431 109.745 224.205 109.529H224.275C224.474 109.565 224.675 109.593 224.874 109.622C225.267 109.675 225.663 109.714 226.056 109.756C226.084 109.724 226.098 109.675 226.063 109.671Z" fill="#A6A6A6"/>
<path d="M223.077 111.586C223.077 111.537 223.077 111.487 223.052 111.441C223.027 111.395 223.01 111.317 223.003 111.254C222.914 110.875 222.843 110.496 222.773 110.114C222.773 110.085 222.727 110.114 222.727 110.114C222.755 110.619 222.865 111.116 223.052 111.586C223.052 111.586 223.084 111.586 223.081 111.586H223.077Z" fill="#A6A6A6"/>
<path d="M219.533 111.495C219.531 111.488 219.527 111.483 219.522 111.479C219.517 111.475 219.511 111.473 219.504 111.473C219.388 110.971 219.271 110.471 219.168 109.969C219.115 109.703 219.058 109.438 219.009 109.172C218.98 109.031 218.956 108.886 218.931 108.744C218.915 108.623 218.884 108.504 218.839 108.39C218.839 108.372 218.793 108.39 218.789 108.39C218.786 108.646 218.822 108.902 218.895 109.148C218.949 109.424 219.002 109.7 219.062 109.972C219.186 110.532 219.327 111.087 219.483 111.636C219.483 111.664 219.543 111.657 219.54 111.636C219.536 111.615 219.533 111.537 219.533 111.495Z" fill="#A6A6A6"/>
<path d="M225.687 108.043C224.912 107.937 224.136 107.824 223.358 107.732C223.326 107.732 223.312 107.778 223.358 107.781C224.129 107.895 224.908 107.994 225.683 108.097C225.708 108.1 225.719 108.047 225.687 108.043Z" fill="#A6A6A6"/>
<path d="M212.332 92.4705C212.332 92.4705 209.734 81.0646 221.986 76.452C221.986 76.452 225.38 91.4616 212.332 92.4705Z" fill="#CCCCCC"/>
<path d="M214.977 86.003L215.111 85.9216L215.802 85.5357L217.218 84.7392C218.152 84.2189 219.076 83.6772 220.018 83.1604C220.046 83.1604 220.018 83.1002 219.989 83.1179C219.044 83.6312 218.085 84.1091 217.136 84.6118L215.72 85.3552L215.147 85.6561C215.557 84.8808 215.993 84.1233 216.474 83.3905C217.115 82.4135 217.816 81.4824 218.545 80.5585C218.55 80.555 218.555 80.5503 218.558 80.5448C218.562 80.5393 218.564 80.5331 218.564 80.5267C218.565 80.5203 218.564 80.5139 218.561 80.5079C218.559 80.5019 218.556 80.4965 218.551 80.4921C218.546 80.4877 218.541 80.4844 218.534 80.4825C218.528 80.4806 218.522 80.48 218.516 80.481C218.509 80.4819 218.503 80.4843 218.498 80.4879C218.493 80.4915 218.488 80.4963 218.485 80.5019C217.41 81.546 216.459 82.7114 215.653 83.9746C215.653 83.9357 215.653 83.8932 215.653 83.8542C215.653 83.571 215.674 83.2878 215.678 83.0046C215.678 82.4489 215.678 81.8895 215.678 81.3338C215.678 81.3019 215.628 81.3019 215.628 81.3338C215.603 81.8825 215.54 82.4276 215.508 82.9763C215.49 83.2489 215.479 83.525 215.472 83.7976C215.472 83.9463 215.455 84.1127 215.472 84.2755C215.221 84.6755 214.977 85.0826 214.764 85.4968C214.353 86.2398 213.986 87.007 213.667 87.7943C213.667 87.5111 213.639 87.2243 213.621 86.9411C213.586 86.3181 213.508 85.695 213.483 85.072C213.483 85.0366 213.43 85.0401 213.43 85.072C213.43 85.6986 213.43 86.3216 213.43 86.9482C213.43 87.2597 213.451 87.5712 213.469 87.8828L213.49 88.2368C213.1 89.2562 212.791 90.3049 212.566 91.3732C212.356 92.5117 212.203 93.6601 212.109 94.8141C212.239 93.7746 212.455 92.7479 212.757 91.7449C212.909 91.2068 213.069 90.6829 213.242 90.1413C213.752 89.9006 214.24 89.5997 214.733 89.3271L216.272 88.4846C217.292 87.9252 218.315 87.3553 219.37 86.8597C219.398 86.8597 219.37 86.7995 219.342 86.8137C218.28 87.2987 217.196 87.7589 216.156 88.2863C215.632 88.5483 215.118 88.8279 214.609 89.1147C214.184 89.3554 213.745 89.5961 213.341 89.8687C213.458 89.5147 213.582 89.1607 213.72 88.8067C214.091 87.8515 214.511 86.9158 214.977 86.003Z" fill="#A6A6A6"/>
<path d="M213.944 83.3939C213.944 83.362 213.887 83.362 213.891 83.3939C213.933 84.0453 213.955 84.6931 214.025 85.3444C214.025 85.3798 214.085 85.3798 214.082 85.3444C214.061 84.6931 213.99 84.0453 213.944 83.3939Z" fill="#A6A6A6"/>
<path d="M219.806 85.5744C219.038 85.8824 218.266 86.1762 217.502 86.4948C217.48 86.4948 217.502 86.5373 217.502 86.5302C218.277 86.2399 219.042 85.9249 219.81 85.624C219.866 85.6098 219.852 85.5603 219.806 85.5744Z" fill="#A6A6A6"/>
<path d="M220.983 80.3136C220.234 80.658 219.507 81.0481 218.806 81.4818C218.798 81.4861 218.793 81.4931 218.79 81.5014C218.788 81.5097 218.789 81.5186 218.793 81.5261C218.797 81.5336 218.805 81.5391 218.813 81.5415C218.821 81.5438 218.83 81.5427 218.837 81.5385C219.545 81.1208 220.271 80.7243 221.011 80.3561C221.039 80.342 221.015 80.2995 220.983 80.3136Z" fill="#A6A6A6"/>
<path d="M220.789 117.13H203.117V135.757H220.789V117.13Z" fill="#C7C7C7"/>
<path d="M202.809 123.721H201.906V155.627H202.809V123.721Z" fill="#A6A6A6"/>
<path d="M221.926 123.721H221.023V155.627H221.926V123.721Z" fill="#A6A6A6"/>
<path d="M212.856 123.721H211.953V155.627H212.856V123.721Z" fill="#A6A6A6"/>
<path d="M221.473 134.564H202.367V137.145H221.473V134.564Z" fill="#A6A6A6"/>
<path d="M171.383 93.4127C171.383 94.7225 173.468 95.8235 173.468 98.3121C173.468 99.5865 172.501 102.068 169.606 102.068C166.71 102.068 165.744 99.59 165.744 98.3121C165.744 95.8341 167.829 94.7225 167.829 93.4127C167.829 92.2729 166.395 91.2356 166.395 91.2356H153.297V76.8491C153.297 76.8491 154.334 75.4331 155.474 75.4331C156.784 75.4331 157.885 77.5181 160.373 77.5181C161.648 77.5181 164.129 76.5517 164.129 73.656C164.129 70.7603 161.651 69.7939 160.373 69.7939C157.895 69.7939 156.784 71.8789 155.474 71.8789C154.334 71.8789 153.297 70.4629 153.297 70.4629V56.3135C172.477 56.3135 187.447 71.7763 187.447 88.4213C187.447 89.3795 187.405 90.3235 187.32 91.2533H172.806C172.806 91.2533 171.383 92.2729 171.383 93.4127Z" fill="#7BA4F6"/>
<path d="M142.473 105.452C142.473 108.348 144.951 109.314 146.232 109.314C148.71 109.314 149.822 107.229 151.131 107.229C152.271 107.229 153.305 108.645 153.305 108.645V142.006H140.207C140.207 142.006 141.726 130.204 135.789 121.474C132.337 116.391 120.62 106.334 119.289 91.2533H134.826C134.826 91.2533 136.242 90.2196 136.242 89.0797C136.242 87.7699 134.157 86.669 134.157 84.1804C134.157 82.906 135.123 80.4209 138.019 80.4209C140.915 80.4209 141.881 82.8989 141.881 84.1804C141.881 86.6584 139.796 87.7699 139.796 89.0797C139.796 90.2196 141.212 91.2533 141.212 91.2533H153.284V102.263C153.284 102.263 152.25 103.679 151.11 103.679C149.8 103.679 148.699 101.594 146.211 101.594C144.958 101.59 142.473 102.557 142.473 105.452Z" fill="#7BA4F6"/>
<path d="M164.131 73.6418C164.131 76.5375 161.653 77.5039 160.375 77.5039C157.897 77.5039 156.786 75.4189 155.476 75.4189C154.336 75.4189 153.299 76.8349 153.299 76.8349V91.2214H141.227C141.227 91.2214 139.811 90.1877 139.811 89.0479C139.811 87.7381 141.896 86.6371 141.896 84.1485C141.896 82.8741 140.93 80.389 138.034 80.389C135.139 80.389 134.172 82.867 134.172 84.1485C134.172 86.6265 136.257 87.7381 136.257 89.0479C136.257 90.1877 134.841 91.2214 134.841 91.2214H119.276C119.191 90.3034 119.148 89.3594 119.148 88.3894C119.148 71.7514 134.119 56.2816 153.299 56.2816V70.4027C153.299 70.4027 154.336 71.8187 155.476 71.8187C156.786 71.8187 157.887 69.7336 160.375 69.7336C161.65 69.7903 164.131 70.7461 164.131 73.6418Z" fill="#7BA4F6"/>
<path opacity="0.1" d="M164.131 73.6418C164.131 76.5375 161.653 77.5039 160.375 77.5039C157.897 77.5039 156.786 75.4189 155.476 75.4189C154.336 75.4189 153.299 76.8349 153.299 76.8349V91.2214H141.227C141.227 91.2214 139.811 90.1877 139.811 89.0479C139.811 87.7381 141.896 86.6371 141.896 84.1485C141.896 82.8741 140.93 80.389 138.034 80.389C135.139 80.389 134.172 82.867 134.172 84.1485C134.172 86.6265 136.257 87.7381 136.257 89.0479C136.257 90.1877 134.841 91.2214 134.841 91.2214H119.276C119.191 90.3034 119.148 89.3594 119.148 88.3894C119.148 71.7514 134.119 56.2816 153.299 56.2816V70.4027C153.299 70.4027 154.336 71.8187 155.476 71.8187C156.786 71.8187 157.887 69.7336 160.375 69.7336C161.65 69.7903 164.131 70.7461 164.131 73.6418Z" fill="black"/>
<path d="M169.493 142.003H137.102V147.033H169.493V142.003Z" fill="#455A64"/>
<path d="M169.493 147.926H137.102V152.956H169.493V147.926Z" fill="#455A64"/>
<path d="M164.441 153.851H142.156V158.881H164.441V153.851Z" fill="#455A64"/>
</svg>
