<svg width="346" height="210" viewBox="0 0 346 210" fill="none" xmlns="http://www.w3.org/2000/svg">
<path d="M0 8C0 3.58173 3.58172 0 8 0H338C342.418 0 346 3.58172 346 8V129H0V8Z" fill="#E0E5EE"/>
<mask id="mask0_2459_23360" style="mask-type:alpha" maskUnits="userSpaceOnUse" x="0" y="0" width="346" height="129">
<rect x="0.25" width="345" height="129" rx="8" fill="white"/>
</mask>
<g mask="url(#mask0_2459_23360)">
<path opacity="0.8" d="M157.392 70.0001C158.066 68.6602 158.386 67.1701 158.322 65.6715C158.257 64.173 157.81 62.716 157.023 61.439C156.236 60.1621 155.136 59.1077 153.826 58.3762C152.517 57.6448 151.042 57.2605 149.542 57.2601C148.41 57.2582 147.289 57.4791 146.242 57.9101C145.371 55.4225 143.748 53.2672 141.599 51.7425C139.449 50.2178 136.878 49.3993 134.242 49.4001H134.002C133.019 45.1195 130.704 41.2611 127.389 38.3796C124.074 35.4982 119.931 33.7422 115.555 33.3644C111.179 32.9865 106.797 34.0061 103.037 36.2766C99.2774 38.5471 96.3347 41.9515 94.6322 46.0001C92.5571 46.6445 90.6497 47.7386 89.0457 49.2043C87.4417 50.67 86.1806 52.4714 85.3522 54.4801C83.9684 54.0939 82.5192 54.0006 81.0973 54.2061C79.6754 54.4117 78.312 54.9115 77.0943 55.6738C75.8765 56.4361 74.8311 57.444 74.0249 58.6332C73.2187 59.8224 72.6695 61.1666 72.4122 62.5801C71.4488 62.202 70.4075 62.065 69.3791 62.1813C68.3506 62.2975 67.3662 62.6634 66.5114 63.247C65.6567 63.8306 64.9576 64.6143 64.4749 65.5299C63.9923 66.4454 63.7407 67.4651 63.7422 68.5001C63.7443 69.0126 63.8081 69.5229 63.9322 70.0201L157.392 70.0001Z" fill="#DADFE9"/>
<path opacity="0.8" d="M313.95 94C313.95 93.7045 314 93.3946 314 93.0919C314 90.9014 313.143 88.8006 311.616 87.2516C310.09 85.7027 308.02 84.8325 305.862 84.8325C304.851 84.8314 303.848 85.0246 302.908 85.4019C302.24 82.1371 300.38 79.2498 297.7 77.3204C295.021 75.3911 291.721 74.5628 288.464 75.002C287.497 70.5702 285.184 66.558 281.852 63.5303C278.519 60.5027 274.335 58.6123 269.888 58.1253C265.442 57.6382 260.957 58.5791 257.064 60.8155C253.172 63.0518 250.07 66.4709 248.193 70.5913C246.25 70.6531 244.338 71.0961 242.562 71.8958C240.163 69.9597 237.274 68.7507 234.228 68.4079C231.182 68.065 228.103 68.6024 225.345 69.9581C222.586 71.3137 220.261 73.4325 218.638 76.0705C217.014 78.7084 216.157 81.7582 216.166 84.8686C214.015 84.8628 211.948 85.7213 210.418 87.2566C208.888 88.792 208.019 90.8794 208 93.0631C208.001 93.3667 208.02 93.6699 208.057 93.9712L313.95 94Z" fill="#DADFE9"/>
<circle opacity="0.7" cx="-7.5" cy="98" r="15.5" transform="rotate(180 -7.5 98)" fill="#D7DCE6"/>
<circle opacity="0.7" cx="14.5" cy="67.5" r="4.5" transform="rotate(180 14.5 67.5)" fill="#D7DCE6"/>
</g>
<path d="M202.359 51.2996C202.408 55.8316 205.489 58.9312 205.489 58.9312C206.403 55.2683 202.359 51.2996 202.359 51.2996Z" fill="#E0E0E0"/>
<path d="M206.047 60.9006C211.399 61.8853 215.764 58.9983 215.764 58.9983C211.657 57.0848 206.047 60.9006 206.047 60.9006Z" fill="#E0E0E0"/>
<path d="M98.9099 87.8697L97.2969 103.479L116.82 105.496L118.433 89.8872L98.9099 87.8697Z" fill="#F5F5F5"/>
<path d="M99.4801 88.9197L98.0703 102.562L116.221 104.438L117.631 90.7954L99.4801 88.9197Z" fill="#EBEBEB"/>
<path d="M98.0703 102.565L105.288 94.7392L108.667 100.45L111.621 97.8873L116.22 104.441L98.0703 102.565Z" fill="#D1D5DE"/>
<path d="M110.99 94.2768C110.961 94.5595 110.849 94.8273 110.668 95.0463C110.487 95.2652 110.245 95.4256 109.972 95.5069C109.7 95.5883 109.41 95.587 109.138 95.5034C108.867 95.4197 108.626 95.2573 108.447 95.0368C108.267 94.8162 108.158 94.5475 108.131 94.2646C108.105 93.9816 108.163 93.6972 108.298 93.4473C108.433 93.1974 108.64 92.9933 108.891 92.8607C109.143 92.7282 109.428 92.6732 109.71 92.7027C110.088 92.7422 110.436 92.9302 110.675 93.2252C110.915 93.5203 111.028 93.8985 110.99 94.2768Z" fill="#D1D5DE"/>
<path d="M218.252 92.3107C217.764 91.2103 217.656 89.9869 217.331 88.8306C217.16 88.2077 216.869 87.5437 216.283 87.2677C215.872 87.1457 215.453 87.0509 215.03 86.9842C213.538 86.5441 213.165 84.4888 211.762 83.8473C211.312 83.6821 210.839 83.5841 210.36 83.5563C208.495 83.3363 206.559 82.691 205.384 81.2251C205.051 80.7143 204.666 80.2393 204.235 79.8077C203.754 79.4347 203.015 79.2557 202.549 79.6473L203.717 82.0047C204.023 82.736 204.466 83.402 205.022 83.9666C205.623 84.4963 206.514 84.7723 207.223 84.4404C207.442 84.2854 207.701 84.195 207.969 84.1793C208.163 84.2181 208.334 84.3287 208.45 84.4888C209.468 85.6078 209.136 87.4728 208.144 88.6329C207.152 89.7929 205.694 90.3748 204.284 90.9343C203.795 91.1774 203.25 91.2831 202.706 91.2401C201.729 91.0574 201.214 89.9943 200.927 89.0432C200.285 86.9283 199.979 84.638 198.67 82.8551C198.252 82.2956 197.734 81.7846 197.48 81.1318C197.212 80.4194 197.275 79.5951 196.85 78.9722C196.425 78.3493 195.473 77.939 195.41 77.1519C195.369 76.5999 195.828 76.1113 196.331 75.8725C196.835 75.6338 197.402 75.5592 197.924 75.3466C198.129 75.2608 198.357 75.1079 198.364 74.8878C198.364 74.5596 197.905 74.4253 197.79 74.1157C197.674 73.8061 198.017 73.448 198.163 73.1086C198.487 72.3365 197.682 71.5569 196.902 71.2436C196.122 70.9303 195.194 70.699 194.828 69.9456C194.698 69.5846 194.614 69.2086 194.578 68.8266C194.395 67.8754 193.694 66.9616 192.736 66.7937C191.777 66.6259 190.692 67.495 190.852 68.4573C190.945 68.987 191.341 69.3973 191.553 69.8859C191.766 70.3745 191.71 71.0981 191.206 71.2548C190.378 71.5084 189.58 69.9941 188.89 70.5088C189.173 71.4749 189.446 72.4447 189.733 73.4219C188.644 73.974 187.342 72.9743 186.879 71.8404C186.417 70.7065 186.398 69.4196 185.846 68.3305C185.294 67.2413 183.806 66.4245 182.862 67.2115C182.817 68.614 184.668 69.1809 185.473 70.3186C186.063 71.1354 185.977 72.4671 185.1 72.9893C184.224 73.5115 182.862 72.6163 183.183 71.6502C183.302 71.3182 183.578 71.0422 183.608 70.6878C183.642 70.2477 183.269 69.8934 182.933 69.6061L181.348 68.2745C181.026 67.9663 180.645 67.7254 180.229 67.5658C179.14 67.2525 178.054 68.1328 177.476 69.1026C176.898 70.0724 176.581 71.225 175.783 72.0344C174.641 73.2168 172.474 73.2877 171.404 72.0344C170.333 70.7811 170.874 68.4834 172.459 68.0321C173.056 67.868 173.813 67.8829 174.13 67.357C174.679 66.417 173.105 65.2197 173.649 64.2722C174.067 63.5486 175.167 63.8992 175.973 63.6344C176.779 63.3696 177.219 62.5863 177.692 61.8925C178.166 61.1987 178.89 60.5161 179.707 60.6952C179.597 60.2192 179.628 59.7215 179.796 59.2629C180.009 58.8227 180.606 58.5169 181.001 58.8227C180.598 59.4829 181.079 60.4042 181.781 60.7362C182.482 61.0682 183.302 60.9861 184.074 60.9003C184.847 60.8145 185.816 60.5273 185.88 59.7515C185.853 59.503 185.86 59.2519 185.902 59.0055C186.242 58.0842 187.943 59.3524 188.595 58.6101C188.968 58.2371 188.558 57.5396 188.028 57.4128C187.499 57.286 186.965 57.4762 186.428 57.4911C185.891 57.506 185.238 57.2337 185.216 56.6966C185.193 56.1595 185.783 55.7902 185.846 55.2717C185.951 54.3877 184.451 54.1528 183.925 54.8764C183.399 55.6 183.586 56.5773 183.743 57.4538C183.899 58.3304 183.989 59.3598 183.34 59.9753C183.064 60.393 182.348 60.173 182.113 59.7291C181.878 59.2852 181.922 58.7518 181.881 58.2371C181.84 57.7224 181.624 57.1666 181.135 57.0323C180.781 57.0021 180.425 57.0427 180.087 57.1517C178.714 57.3158 177.763 55.544 178.196 54.2348C178.629 52.9256 179.867 52.0751 181.072 51.4075C181.952 50.9188 183.049 50.46 183.925 50.9561C184.332 51.1837 184.619 51.5791 185.018 51.814C185.712 52.2243 186.57 52.0751 187.368 52.0901C188.63 52.1276 189.84 52.5978 190.796 53.4217C191.15 53.7462 191.482 54.2833 191.206 54.6675C190.93 55.0517 190.046 55.1636 190.195 55.6447C190.427 55.7092 190.671 55.7239 190.909 55.6878C191.147 55.6517 191.375 55.5657 191.577 55.4354C191.78 55.305 191.952 55.1334 192.084 54.9316C192.215 54.7298 192.303 54.5026 192.34 54.2647C192.571 54.3715 192.77 54.5375 192.916 54.7458C193.062 54.9541 193.15 55.1973 193.172 55.4508C193.431 55.2137 193.737 55.0327 194.069 54.9192C194.402 54.8057 194.754 54.7621 195.105 54.7912C195.455 54.8202 195.795 54.9213 196.104 55.0881C196.414 55.2549 196.685 55.4838 196.902 55.7604C197.084 56.0883 197.321 56.3823 197.603 56.6295C197.92 56.8346 198.472 56.7339 198.51 56.3609C198.516 56.2419 198.495 56.1229 198.446 56.014C198.26 55.4806 198.073 54.951 197.872 54.425C198.618 54.0297 199.472 54.6451 199.968 55.3053C201.811 57.7746 203.127 56.29 205.727 56.6929C207.484 56.9614 208.26 58.0879 209.252 59.4531C212.292 63.6456 216.313 67.0809 219.077 71.46C219.368 71.9187 219.636 72.3813 219.89 72.855C219.841 72.7393 219.804 72.62 219.756 72.5006C218.674 69.6566 217.328 66.9204 215.735 64.3282C215.399 63.7762 215.052 63.2353 214.698 62.6982C214.474 62.3662 214.246 62.0268 214.019 61.706C213.728 61.2808 213.418 60.8705 213.113 60.4602C212.866 60.1282 212.624 59.8074 212.367 59.4904C212.195 59.2703 211.994 59.0502 211.833 58.8302C211.673 58.6101 211.438 58.3341 211.218 58.0842L210.554 57.3382C210.489 57.2544 210.418 57.1758 210.341 57.1032C210.114 56.8346 209.871 56.5735 209.625 56.3162C209.609 56.283 209.585 56.2547 209.554 56.2341C209.491 56.1632 209.42 56.0924 209.349 56.0215C209.151 55.8014 208.939 55.5888 208.734 55.3762C208.398 55.0293 208.051 54.6824 207.697 54.3504C207.402 54.0595 207.104 53.7835 206.798 53.5075C206.492 53.2314 206.261 53.0188 205.985 52.7838C205.708 52.5489 205.447 52.3176 205.171 52.0901C204.843 51.8066 204.504 51.5306 204.157 51.2545C203.202 50.4886 202.22 49.7663 201.21 49.0874C200.956 48.9158 200.714 48.748 200.464 48.5839C200.214 48.4197 199.953 48.2519 199.699 48.0952C199.446 47.9386 199.188 47.7707 198.927 47.6215C198.666 47.4723 198.409 47.3082 198.148 47.159C197.887 47.0098 197.73 46.9128 197.517 46.786C197.413 46.7195 197.304 46.6584 197.193 46.6032C196.745 46.3496 196.287 46.1071 195.831 45.8796C195.604 45.7603 195.373 45.6409 195.138 45.5327C194.903 45.4246 194.545 45.2381 194.246 45.1075C194.205 45.0797 194.16 45.0584 194.112 45.0441C193.843 44.9173 193.579 44.7904 193.303 44.6711L192.142 44.1825C191.702 44.0034 191.258 43.8095 190.811 43.6565C190.363 43.5036 189.819 43.2835 189.319 43.1194C188.819 42.9553 188.301 42.78 187.79 42.6233C187.279 42.4667 186.764 42.3249 186.245 42.1832C185.22 41.9072 184.179 41.661 183.131 41.4372H183.075C182.676 41.3589 182.273 41.2805 181.87 41.2171C181.844 41.2144 181.818 41.2144 181.792 41.2171C181.62 41.1835 181.437 41.1537 181.255 41.1276C180.509 41.0033 179.753 40.8988 178.987 40.8143C178.901 40.8143 178.804 40.7919 178.711 40.7807C178.491 40.7509 178.271 40.7359 178.039 40.7098C177.536 40.6651 177.032 40.624 176.521 40.5942C176.01 40.5644 175.454 40.5308 174.921 40.5159C174.388 40.5009 173.802 40.4823 173.243 40.4823C171.751 40.4823 170.285 40.5482 168.845 40.68C168.498 40.7024 168.159 40.7359 167.819 40.7732L166.756 40.9001L165.701 41.0493C165.346 41.1052 164.999 41.1612 164.645 41.2246C164.291 41.288 164.037 41.3253 163.739 41.3887C162.993 41.5304 162.265 41.6871 161.538 41.8624C161.202 41.9407 160.863 42.0265 160.523 42.1235C160.184 42.2205 159.844 42.3025 159.516 42.3995C158.953 42.5562 158.397 42.7278 157.868 42.9031L156.543 43.3507H156.51C156.062 43.5111 155.63 43.6752 155.189 43.8505L155.119 43.8729C154.716 44.0295 154.313 44.1937 153.917 44.3615C153.421 44.5667 152.933 44.7867 152.452 45.0068C152.045 45.197 151.642 45.3798 151.247 45.5812C150.851 45.7826 150.396 46.0064 149.979 46.2302L149.93 46.2526C149.531 46.4652 149.128 46.6853 148.733 46.9128C148.337 47.1404 147.923 47.3791 147.52 47.6327C147.147 47.8602 146.774 48.0878 146.401 48.3265C146.26 48.4123 146.125 48.5055 145.984 48.5988C145.588 48.8524 145.212 49.1135 144.824 49.3821C144.354 49.7029 143.895 50.0423 143.436 50.3817C143.037 50.6801 142.642 50.9897 142.257 51.2956C140.026 53.0708 137.952 55.0351 136.058 57.1666C135.387 57.9126 134.756 58.6586 134.145 59.4344C133.623 60.0984 133.119 60.766 132.653 61.4598C132.78 61.4598 132.906 61.43 133.026 61.4225C133.734 61.3666 134.48 61.389 135.118 61.0831C135.756 60.7772 136.129 60.2625 136.666 59.8858C138.035 58.9085 140.281 58.7257 140.654 57.0883C140.777 56.5362 140.627 55.9357 140.833 55.4098C141.206 54.425 142.533 54.2908 143.593 54.2908C144.04 54.2908 144.57 54.3542 144.775 54.7458C144.831 54.8938 144.855 55.0518 144.847 55.2097C144.839 55.3676 144.798 55.5221 144.727 55.6634C144.067 57.5161 142.79 59.085 141.109 60.1058C139.736 60.9414 137.949 61.5978 137.573 63.1495C137.759 63.6754 138.721 63.6381 138.8 64.1865C138.856 64.6303 138.289 64.8579 138.084 65.2532C137.785 65.8277 138.457 66.5289 139.124 66.4953C139.792 66.4618 140.322 65.9918 140.803 65.5516C142.235 64.22 143.742 62.784 144.26 60.8929C144.481 60.1133 144.559 59.1994 145.189 58.681C145.384 58.5434 145.608 58.4528 145.843 58.4164C146.078 58.3799 146.319 58.3986 146.546 58.4709C146.773 58.5432 146.98 58.6672 147.151 58.8331C147.322 58.999 147.453 59.2023 147.532 59.427C148.155 59.0801 149.124 58.8227 149.445 59.468C149.519 59.7106 149.564 59.961 149.579 60.214C149.785 61.2211 151.165 61.6762 151.306 62.6945C151.471 63.8694 149.967 64.4737 148.792 64.6564L145.573 65.1488C145.105 65.1843 144.651 65.33 144.249 65.574C144.053 65.705 143.907 65.8991 143.836 66.1243C143.764 66.3495 143.772 66.5922 143.858 66.8124C144.017 67.0237 144.203 67.2141 144.41 67.3793C145.29 68.2633 144.566 70.0836 143.321 70.1209C142.895 70.1209 142.478 69.9791 142.052 69.9642C140.792 69.9083 139.792 71.0198 139.191 72.1314C138.591 73.2429 138.143 74.5111 137.136 75.2683C135.51 76.488 132.712 76.2045 131.914 78.0807C131.601 78.8267 131.765 79.6883 131.892 80.5015C132.019 81.3146 132.071 82.2024 131.601 82.8738C131.131 83.5452 129.922 83.6757 129.575 82.9372C129.457 82.6001 129.44 82.2356 129.527 81.889C129.717 80.7215 129.9 79.5541 130.079 78.3903C130.213 77.5212 130.333 76.5514 129.818 75.8427C129.102 74.8505 127.494 74.9438 126.565 75.742C125.637 76.5402 125.256 77.7823 124.995 78.9722C124.82 80.0495 124.518 81.1024 124.096 82.1091C123.932 83.0864 123.798 84.0785 123.697 85.0931C123.596 86.1077 123.522 87.1334 123.484 88.1741C123.625 88.058 123.758 87.9334 123.883 87.8011C124.38 87.2901 125.375 85.1229 126.282 86.186C126.391 86.327 126.45 86.5002 126.45 86.6784C126.45 86.8565 126.391 87.0297 126.282 87.1707C126.006 87.5251 125.454 87.6034 125.241 87.9913C124.98 88.4464 125.342 89.0133 125.771 89.3117C126.2 89.6101 126.715 89.8116 127.013 90.2442C127.591 91.0723 127.039 92.3256 127.599 93.1686C128.08 93.8922 129.091 93.9407 129.978 94.0339L130.277 94.0824C130.519 92.348 131.332 90.938 133.697 90.4009C136.957 89.6549 141.247 92.3629 143.082 94.8209C145.13 97.5737 146.099 101.464 149.236 102.844C151.474 103.829 154.675 103.475 155.768 105.672C156.745 107.645 155.044 109.857 154.783 112.039C154.619 113.482 155.092 114.918 155.201 116.358C155.309 117.798 154.88 119.495 153.563 120.088C152.817 120.416 151.907 120.379 151.325 120.931C150.277 121.923 151.135 123.971 150.087 124.963C149.714 125.31 149.203 125.437 148.755 125.664C146.398 126.854 146.461 130.323 147.558 132.725C147.595 132.815 147.636 132.893 147.677 132.979C155.396 137.595 164.222 140.033 173.216 140.032C181.364 140.044 189.389 138.046 196.581 134.217C198.094 133.407 199.564 132.521 200.986 131.561C203.177 130.091 205.245 128.445 207.171 126.642C208.507 125.4 209.769 124.083 210.953 122.695C211.788 121.733 212.579 120.733 213.333 119.711C213.706 119.185 214.097 118.656 214.452 118.111C215.547 116.516 216.544 114.856 217.436 113.139C220.061 108.071 221.793 102.588 222.557 96.9321C222.706 95.8131 222.825 94.6941 222.904 93.5341C222.382 94.0842 221.663 94.4048 220.905 94.4256C219.718 94.4181 218.734 93.4147 218.252 92.3107Z" fill="#FAFAFA"/>
<path d="M161.336 53.5C160.351 54.0894 159.844 55.2009 159.064 56.0626C158.285 56.9242 156.938 57.5546 156.039 56.8086C155.835 56.6213 155.67 56.3953 155.554 56.1436C155.438 55.8919 155.374 55.6196 155.364 55.3427C155.293 54.5438 155.481 53.7433 155.901 53.0599C156.33 52.3624 156.983 51.8103 157.345 51.0755C157.707 50.3407 157.636 49.2628 156.89 48.9196C156.487 48.7331 155.983 48.804 155.625 48.5466C154.984 48.0729 155.442 46.9539 156.188 46.6816C156.934 46.4093 157.762 46.6182 158.557 46.6816C161.444 46.8681 163.566 44.977 165.737 43.4067C167.423 42.187 171.019 40.7434 172.97 41.993C173.749 42.4891 174.055 43.7685 173.32 44.3317C172.992 44.5816 172.541 44.6376 172.235 44.9173C171.862 45.2493 171.813 45.8013 171.605 46.2489C171.06 47.4164 169.482 47.8416 168.994 49.0278C168.688 49.7402 168.826 50.6279 168.356 51.2658C167.983 51.7544 167.337 51.9297 166.737 52.0715L162.973 52.9666C162.403 53.0584 161.851 53.2384 161.336 53.5Z" fill="#EBEBEB"/>
<path d="M194.991 114.791C193.741 116.656 193.518 119.025 193.171 121.255C192.824 123.486 192.227 125.858 190.515 127.328C188.803 128.798 185.666 128.712 184.707 126.66C184.193 125.541 184.457 124.232 184.178 123.038C183.805 121.483 182.574 120.286 181.988 118.797C181.488 117.533 181.485 116.134 181.444 114.773C181.22 107.331 179.407 99.5655 174.357 94.1085C173.734 93.4371 173.025 92.7844 172.141 92.5494C171.611 92.4195 171.056 92.445 170.54 92.623C170.025 92.801 169.572 93.1238 169.235 93.5527C168.829 94.0936 168.62 94.7799 168.116 95.235C167.035 96.2234 165.132 95.5147 164.42 94.2391C163.707 92.9634 163.797 91.4005 163.92 89.9384L164.368 84.5038C164.446 83.5563 164.554 82.5418 165.177 81.8219C166.061 80.7999 167.646 80.7514 168.728 79.9569C170.145 78.8938 170.336 76.8685 171.231 75.3392C172.126 73.8099 174.923 73.1608 175.334 74.8841C178.295 68.5431 184.842 77.9613 188.732 77.2564C189.851 77.0475 190.97 76.5104 192.089 76.667C194.099 76.9468 195.136 79.1587 195.819 81.0684C196.958 84.2389 198.093 87.4094 199.224 90.5799C199.657 91.7885 200.213 93.1313 201.41 93.5938C202.328 93.9481 203.391 93.6796 204.316 94.0153C206.759 94.903 205.965 98.7449 203.999 100.446C202.033 102.147 199.284 103.195 198.348 105.627C197.643 107.454 198.206 109.595 197.449 111.401C196.908 112.691 195.767 113.639 194.991 114.791Z" fill="#EBEBEB"/>
<path d="M204.26 116.858C203.458 116.97 202.511 116.574 201.899 117.108C201.545 117.421 201.467 117.932 201.325 118.383C201.145 119.021 200.741 119.572 200.187 119.935C199.906 120.111 199.581 120.201 199.25 120.195C198.919 120.189 198.596 120.087 198.322 119.901C198.061 119.702 197.889 119.409 197.841 119.084C197.794 118.759 197.875 118.429 198.068 118.163C198.289 117.961 198.52 117.772 198.762 117.596C199.825 116.589 199.098 114.724 199.907 113.527C200.385 112.822 201.135 112.106 201.66 111.39C202.063 110.838 202.213 110.405 202.955 110.271C206.207 109.618 207.669 116.38 204.26 116.858Z" fill="#EBEBEB"/>
<g opacity="0.6">
<path d="M146.78 132.438C147.078 132.628 147.377 132.811 147.686 132.99C147.377 132.807 147.078 132.617 146.78 132.438Z" fill="#263238"/>
</g>
<g opacity="0.6">
<path d="M123.502 88.1816C123.502 88.2786 123.502 88.3644 123.502 88.4577C123.484 88.3644 123.495 88.2749 123.502 88.1816Z" fill="#263238"/>
</g>
<path d="M129.948 103.344C129.791 101.919 130.261 100.491 130.287 99.0508C130.287 98.0586 130.231 97.0105 130.216 96.0071C129.364 95.9696 128.517 95.851 127.687 95.6528C127.509 95.6332 127.343 95.5497 127.221 95.4178C127.135 95.2552 127.099 95.0711 127.117 94.8881C127.057 93.7691 125.975 93.0231 125.006 92.4711C124.521 92.1686 124.006 91.9186 123.469 91.7251C123.469 91.8445 123.469 91.9526 123.469 92.072C123.657 97.4763 124.728 102.814 126.639 107.872C127.489 110.117 128.508 112.294 129.687 114.385C130.175 115.291 130.712 116.183 131.272 117.056C131.966 118.137 132.689 119.193 133.469 120.207C134.248 121.222 134.961 122.14 135.778 123.053C136.89 124.326 138.067 125.541 139.303 126.694C140.397 127.716 141.539 128.687 142.73 129.607C140.011 122.311 137.449 114.866 132.801 108.656C131.582 107.018 130.175 105.362 129.948 103.344Z" fill="#EBEBEB"/>
<path d="M130.292 94.0788L129.994 94.0303C129.117 93.937 128.095 93.8886 127.614 93.1649C127.055 92.322 127.614 91.0687 127.029 90.2406C126.73 89.8079 126.212 89.6177 125.786 89.3081C125.361 88.9985 124.996 88.4428 125.257 87.9877C125.469 87.6147 126.021 87.5214 126.297 87.1671C126.406 87.0261 126.465 86.8529 126.465 86.6747C126.465 86.4966 126.406 86.3234 126.297 86.1824C125.399 85.1193 124.395 87.3014 123.899 87.7975C123.774 87.9298 123.641 88.0544 123.5 88.1705C123.5 88.2675 123.5 88.3532 123.5 88.4465C123.5 88.7449 123.5 89.047 123.5 89.3454C123.5 89.6438 123.5 89.9459 123.5 90.2443C123.5 90.4868 123.5 90.4756 123.5 90.7181C123.5 90.9605 123.5 91.4641 123.522 91.7028C124.06 91.8962 124.575 92.1463 125.059 92.4488C126.029 93.0083 127.111 93.7468 127.17 94.8658C127.153 95.0488 127.189 95.2329 127.275 95.3955C127.397 95.5274 127.562 95.6109 127.741 95.6305C128.571 95.8287 129.418 95.9473 130.27 95.9848" fill="#EBEBEB"/>
<path d="M130.215 96.0071C130.215 97.0105 130.3 98.0586 130.285 99.0508C130.259 100.491 129.789 101.919 129.946 103.344C130.173 105.362 131.576 107.018 132.799 108.641C137.447 114.851 140.009 122.296 142.729 129.592C143.232 129.995 143.743 130.375 144.265 130.745C144.676 131.039 145.086 131.33 145.508 131.614C145.929 131.897 146.35 132.169 146.779 132.438C147.078 132.628 147.376 132.811 147.686 132.99C147.645 132.904 147.604 132.826 147.566 132.736C146.47 130.334 146.406 126.865 148.764 125.676C149.211 125.448 149.726 125.321 150.095 124.974C151.144 123.982 150.286 121.934 151.334 120.942C151.923 120.39 152.844 120.427 153.572 120.099C154.888 119.491 155.314 117.805 155.209 116.369C155.105 114.933 154.627 113.493 154.791 112.05C155.053 109.868 156.753 107.656 155.776 105.683C154.683 103.486 151.49 103.84 149.245 102.855C146.108 101.475 145.142 97.5849 143.09 94.8321C141.278 92.3778 136.981 89.6549 133.721 90.3972C131.356 90.9343 130.543 92.3442 130.3 94.0787" fill="#EBEBEB"/>
<path d="M126.571 75.757C127.5 74.9588 129.108 74.8656 129.824 75.8577C130.338 76.5664 130.219 77.5362 130.085 78.4053C129.902 79.5691 129.712 80.7366 129.533 81.9041C129.446 82.2506 129.463 82.6152 129.581 82.9522C129.928 83.6982 131.14 83.549 131.607 82.8888C132.073 82.2286 132.024 81.3185 131.898 80.5165C131.771 79.7146 131.607 78.8529 131.92 78.0957C132.707 76.2307 135.505 76.503 137.142 75.2833C138.149 74.5373 138.6 73.2579 139.197 72.1464C139.794 71.0349 140.797 69.9084 142.058 69.9793C142.483 69.9793 142.901 70.1546 143.326 70.1359C144.572 70.0986 145.296 68.2709 144.415 67.3944C144.209 67.2292 144.023 67.0387 143.863 66.8274C143.778 66.6073 143.77 66.3645 143.841 66.1393C143.913 65.9141 144.059 65.72 144.255 65.5891C144.657 65.345 145.111 65.1993 145.579 65.1638L148.772 64.6603C149.947 64.4775 151.45 63.8733 151.286 62.6983C151.144 61.68 149.764 61.2063 149.559 60.2179C149.544 59.9648 149.499 59.7145 149.425 59.4719C149.104 58.8266 148.134 59.0989 147.511 59.4308C147.432 59.2061 147.302 59.0028 147.131 58.8369C146.96 58.671 146.753 58.547 146.526 58.4748C146.299 58.4025 146.058 58.3838 145.823 58.4202C145.587 58.4567 145.363 58.5473 145.169 58.6848C144.539 59.2033 144.46 60.1171 144.24 60.8967C143.722 62.7878 142.215 64.2239 140.782 65.5555C140.301 65.9956 139.757 66.4693 139.104 66.4992C138.451 66.529 137.765 65.8315 138.063 65.2571C138.268 64.8617 138.835 64.6342 138.779 64.1903C138.701 63.642 137.739 63.6793 137.552 63.1534C137.925 61.5905 139.716 60.9452 141.088 60.1097C142.769 59.0889 144.047 57.52 144.706 55.6673C144.777 55.5259 144.818 55.3715 144.827 55.2135C144.835 55.0556 144.811 54.8977 144.755 54.7497C144.55 54.3767 144.009 54.2946 143.573 54.2946C142.513 54.2946 141.2 54.4214 140.812 55.4136C140.607 55.9395 140.756 56.5326 140.633 57.0921C140.26 58.7296 138.022 58.9124 136.646 59.8896C136.109 60.2626 135.691 60.796 135.098 61.0869C134.505 61.3779 133.714 61.3704 133.005 61.4264C132.879 61.4264 132.752 61.4488 132.632 61.4637C132.2 62.0679 131.782 62.6821 131.379 63.3063C130.976 63.9304 130.588 64.5646 130.215 65.2086C128.427 68.2559 126.972 71.4874 125.877 74.8469C125.504 76.0219 125.131 77.2229 124.855 78.4352C124.579 79.6474 124.307 80.8858 124.109 82.1353C124.531 81.1286 124.833 80.0757 125.008 78.9984C125.262 77.7973 125.646 76.5515 126.571 75.757Z" fill="#EBEBEB"/>
<path d="M222.915 93.5343C222.915 93.5343 221.662 94.4481 220.916 94.4332C219.715 94.4332 218.73 93.4149 218.249 92.3108C217.768 91.2067 217.652 89.987 217.327 88.8307C217.156 88.2078 216.865 87.5439 216.279 87.2679C215.868 87.1458 215.45 87.0511 215.026 86.9844C213.534 86.5442 213.161 84.489 211.759 83.8474C211.308 83.6823 210.835 83.5842 210.356 83.5565C208.491 83.3364 206.555 82.6911 205.38 81.2253C205.047 80.7144 204.662 80.2394 204.231 79.8079C203.75 79.4349 203.012 79.2558 202.546 79.6475L203.713 82.0048C204.019 82.7362 204.462 83.4022 205.018 83.9668C205.619 84.4965 206.51 84.7725 207.219 84.4405C207.439 84.2856 207.697 84.1952 207.965 84.1794C208.159 84.2182 208.331 84.3288 208.446 84.489C209.465 85.608 209.133 87.473 208.141 88.633C207.148 89.7931 205.69 90.3749 204.28 90.9344C203.791 91.1775 203.246 91.2832 202.702 91.2403C201.725 91.0575 201.21 89.9945 200.923 89.0433C200.281 86.9284 199.976 84.6382 198.666 82.8553C198.249 82.2958 197.73 81.7848 197.476 81.132C197.208 80.4196 197.271 79.5952 196.846 78.9723C196.421 78.3494 195.47 77.9391 195.406 77.1521C195.365 76.6 195.824 76.1114 196.328 75.8727C196.831 75.634 197.398 75.5594 197.92 75.3468C198.125 75.261 198.353 75.1081 198.36 74.888C198.36 74.5597 197.902 74.4255 197.786 74.1159C197.67 73.8063 198.014 73.4482 198.159 73.1088C198.484 72.3367 197.678 71.5571 196.898 71.2438C196.119 70.9304 195.19 70.6992 194.824 69.9457C194.694 69.5847 194.61 69.2088 194.574 68.8267C194.392 67.8756 193.69 66.9617 192.732 66.7939C191.773 66.626 190.688 67.4951 190.848 68.4575C190.941 68.9871 191.337 69.3974 191.549 69.886C191.762 70.3747 191.706 71.0983 191.203 71.255C190.375 71.5086 189.576 69.9942 188.886 70.509C189.17 71.475 189.442 72.4448 189.729 73.4221C188.64 73.9741 187.338 72.9745 186.876 71.8406C186.413 70.7067 186.395 69.4198 185.843 68.3306C185.291 67.2415 183.802 66.4246 182.859 67.2116C182.814 68.6141 184.664 69.1811 185.47 70.3187C186.059 71.1356 185.973 72.4672 185.097 72.9894C184.22 73.5116 182.859 72.6164 183.179 71.6503C183.299 71.3184 183.575 71.0423 183.605 70.688C183.638 70.2479 183.265 69.8935 182.929 69.6063L181.344 68.2747C181.022 67.9665 180.642 67.7256 180.225 67.566C179.136 67.2527 178.051 68.1329 177.472 69.1027C176.894 70.0725 176.577 71.2251 175.779 72.0345C174.638 73.2169 172.471 73.2878 171.4 72.0345C170.329 70.7813 170.87 68.4836 172.456 68.0322C173.052 67.8681 173.81 67.883 174.127 67.3571C174.675 66.4171 173.101 65.2198 173.645 64.2724C174.063 63.5488 175.164 63.8994 175.969 63.6346C176.775 63.3697 177.215 62.5864 177.689 61.8927C178.162 61.1989 178.886 60.5163 179.703 60.6953C179.593 60.2193 179.624 59.7217 179.793 59.263C180.005 58.8229 180.602 58.517 180.997 58.8229C180.594 59.4831 181.076 60.4044 181.777 60.7364C182.478 61.0683 183.299 60.9863 184.071 60.9005C184.843 60.8147 185.813 60.5275 185.876 59.7516C185.849 59.5031 185.856 59.2521 185.899 59.0056C186.238 58.0843 187.939 59.3525 188.592 58.6103C188.965 58.2373 188.554 57.5398 188.025 57.4129C187.495 57.2861 186.962 57.4763 186.424 57.4913C185.887 57.5062 185.235 57.2339 185.212 56.6968C185.19 56.1596 185.779 55.7904 185.843 55.2719C185.947 54.3879 184.448 54.1529 183.922 54.8765C183.396 55.6002 183.582 56.5774 183.739 57.454C183.895 58.3305 183.985 59.36 183.336 59.9754C183.06 60.3932 182.344 60.1731 182.109 59.7293C181.874 59.2854 181.919 58.752 181.878 58.2373C181.837 57.7225 181.62 57.1667 181.132 57.0325C180.778 57.0023 180.421 57.0428 180.083 57.1518C178.711 57.3159 177.76 55.5442 178.192 54.235C178.625 52.9257 179.863 52.0753 181.068 51.4076C181.948 50.919 183.045 50.4602 183.922 50.9563C184.328 51.1838 184.615 51.5792 185.015 51.8142C185.708 52.2245 186.566 52.0753 187.364 52.0902C188.626 52.1278 189.836 52.5979 190.792 53.4218C191.147 53.7463 191.479 54.2835 191.203 54.6677C190.927 55.0518 190.043 55.1637 190.192 55.6449C190.424 55.7094 190.667 55.724 190.905 55.6879C191.143 55.6519 191.371 55.5658 191.573 55.4355C191.776 55.3052 191.949 55.1335 192.08 54.9318C192.212 54.73 192.299 54.5027 192.336 54.2648C192.567 54.3717 192.766 54.5377 192.912 54.746C193.058 54.9543 193.146 55.1975 193.168 55.451C193.428 55.2138 193.733 55.0329 194.066 54.9193C194.398 54.8058 194.751 54.7622 195.101 54.7913C195.451 54.8204 195.791 54.9215 196.101 55.0883C196.41 55.255 196.682 55.4839 196.898 55.7605C197.08 56.0885 197.317 56.3825 197.6 56.6296C197.917 56.8348 198.469 56.7341 198.506 56.3611C198.513 56.242 198.491 56.1231 198.443 56.0142C198.256 55.4808 198.069 54.9511 197.868 54.4252C198.614 54.0298 199.468 54.6453 199.964 55.3055C201.807 57.7747 203.124 56.2902 205.723 56.693C207.48 56.9616 208.256 58.0881 209.248 59.4532C212.288 63.6458 216.309 67.0811 219.073 71.4601C219.364 71.9189 219.633 72.3814 219.886 72.8551C220.12 73.4843 220.343 74.1196 220.554 74.7612C220.765 75.4027 220.963 76.0468 221.147 76.6933C221.639 78.299 222.037 79.9317 222.341 81.5833C222.341 81.5833 222.688 84.3995 222.77 85.3133C222.833 86.0183 222.896 86.7195 222.934 87.4282C222.971 88.1369 222.993 88.8456 222.997 89.5618L222.915 93.5343Z" fill="#EBEBEB"/>
<path d="M223.217 90.2555C223.217 90.2555 223.217 89.9795 223.187 89.4461C223.187 89.1775 223.168 88.8418 223.157 88.4465C223.146 88.0511 223.157 87.5886 223.086 87.0664L222.948 85.3207C222.885 84.6792 222.78 83.9779 222.687 83.2207C222.475 81.7063 222.143 79.9719 221.673 78.0435C221.128 75.9079 220.443 73.8107 219.621 71.7659C218.656 69.3289 217.494 66.9749 216.145 64.7274C212.855 59.2349 208.551 54.4174 203.463 50.531C197.278 45.826 190.079 42.6326 182.441 41.206C175.968 40.0086 169.324 40.0846 162.88 41.4298C160.613 41.9167 158.381 42.5509 156.196 43.3284C151.678 44.9772 147.42 47.2659 143.552 50.1244C141.567 51.6123 139.685 53.2323 137.919 54.9734C136.143 56.7732 134.496 58.6951 132.988 60.7251C131.464 62.7989 130.105 64.9889 128.922 67.275C128.635 67.8569 128.311 68.4238 128.05 69.0206C127.789 69.6174 127.516 70.2105 127.244 70.8036C126.763 72.0195 126.267 73.2355 125.868 74.4925C125.025 77.01 124.39 79.5923 123.969 82.2136C123.55 84.8703 123.33 87.5548 123.313 90.2443C123.331 92.9349 123.549 95.6205 123.965 98.2787C124.388 100.9 125.023 103.482 125.864 106L126.181 106.936L126.341 107.402L126.52 107.861C126.769 108.473 127.009 109.082 127.24 109.689C127.472 110.296 127.741 110.891 128.05 111.475C128.307 112.072 128.632 112.639 128.919 113.221C130.1 115.509 131.461 117.699 132.988 119.771C134.494 121.804 136.142 123.729 137.919 125.53C139.685 127.273 141.568 128.893 143.555 130.379C145.51 131.82 147.564 133.121 149.702 134.273C151.799 135.389 153.968 136.361 156.196 137.183C158.377 137.961 160.606 138.596 162.869 139.085C169.314 140.43 175.959 140.506 182.433 139.309C190.07 137.881 197.268 134.687 203.452 129.984C208.54 126.098 212.844 121.28 216.134 115.787C217.482 113.539 218.644 111.186 219.61 108.749C220.435 106.696 221.124 104.592 221.673 102.449C222.143 100.52 222.475 98.786 222.687 97.2754C222.78 96.5294 222.885 95.8169 222.948 95.1754C223.012 94.5338 223.045 93.9482 223.086 93.426C223.127 92.9038 223.15 92.445 223.157 92.0496C223.165 91.6543 223.18 91.3036 223.187 91.05C223.187 90.5166 223.217 90.2406 223.217 90.2406C223.217 90.2406 223.217 90.5166 223.217 91.05C223.217 91.3186 223.217 91.6543 223.195 92.0496C223.172 92.445 223.195 92.9075 223.135 93.4297C223.075 93.9519 223.053 94.5487 223.004 95.1791C222.956 95.8095 222.844 96.5219 222.751 97.2828C222.507 99.0271 222.173 100.758 221.751 102.468C220.573 107.166 218.719 111.669 216.249 115.836C212.965 121.347 208.661 126.183 203.567 130.084C197.372 134.815 190.154 138.028 182.493 139.465C175.997 140.67 169.33 140.599 162.862 139.257C158.248 138.29 153.796 136.667 149.643 134.437C147.497 133.281 145.434 131.976 143.469 130.532C141.476 129.04 139.587 127.414 137.815 125.664C136.03 123.858 134.375 121.929 132.861 119.89C131.33 117.807 129.965 115.607 128.777 113.311C128.49 112.729 128.162 112.162 127.904 111.561L127.095 109.771C126.846 109.159 126.605 108.547 126.371 107.936L126.188 107.473L126.028 107.003L125.711 106.067C124.865 103.538 124.228 100.945 123.805 98.3123C123.385 95.6443 123.166 92.9487 123.148 90.248C123.166 87.5486 123.385 84.8542 123.805 82.1875C124.228 79.556 124.867 76.9636 125.715 74.4366C126.114 73.1721 126.614 71.9524 127.099 70.7327L127.908 68.9423C128.165 68.3418 128.494 67.7748 128.781 67.1929C129.968 64.8976 131.334 62.6989 132.865 60.6169C134.379 58.5786 136.034 56.6491 137.819 54.8429C139.59 53.0946 141.478 51.4683 143.469 49.9752C147.346 47.1047 151.618 44.8094 156.151 43.1605C158.345 42.3791 160.588 41.7424 162.865 41.2545C169.332 39.9124 175.999 39.8414 182.493 41.0456C190.153 42.4836 197.371 45.695 203.567 50.4228C208.66 54.325 212.964 59.1605 216.249 64.6714C217.598 66.9258 218.758 69.2874 219.718 71.7323C220.537 73.7819 221.217 75.8841 221.755 78.0248C222.177 79.7359 222.511 81.4677 222.754 83.2133C222.848 83.9593 222.948 84.6717 223.008 85.317C223.068 85.9623 223.098 86.5442 223.139 87.0664C223.18 87.5886 223.191 88.0473 223.198 88.4465C223.206 88.8456 223.198 89.1925 223.221 89.4461C223.217 89.9795 223.217 90.2555 223.217 90.2555Z" fill="#263238"/>
<path d="M139.847 99.4128C139.848 98.8464 139.719 98.2873 139.468 97.7792C139.218 97.2711 138.854 96.8277 138.404 96.4833C137.954 96.139 137.431 95.9031 136.875 95.794C136.319 95.6849 135.746 95.7056 135.199 95.8543C134.652 96.0031 134.148 96.276 133.724 96.6517C133.3 97.0275 132.968 97.496 132.755 98.0208C132.542 98.5456 132.453 99.1125 132.494 99.6774C132.536 100.242 132.707 100.79 132.995 101.278C133.137 101.517 133.312 101.684 133.491 101.934L135.629 104.765C135.691 104.847 135.771 104.914 135.863 104.959C135.955 105.005 136.056 105.029 136.158 105.029C136.261 105.029 136.362 105.005 136.454 104.959C136.546 104.914 136.626 104.847 136.688 104.765L138.792 101.983C138.982 101.756 139.16 101.52 139.325 101.274C139.663 100.712 139.844 100.069 139.847 99.4128ZM136.166 101.013C135.846 101.013 135.533 100.918 135.267 100.74C135 100.562 134.793 100.309 134.67 100.014C134.548 99.7179 134.516 99.3924 134.578 99.0783C134.641 98.7643 134.795 98.4759 135.021 98.2495C135.248 98.0231 135.536 97.8689 135.85 97.8064C136.164 97.744 136.49 97.776 136.785 97.8986C137.081 98.0211 137.334 98.2286 137.512 98.4948C137.69 98.761 137.785 99.074 137.785 99.3942C137.785 99.8235 137.614 100.235 137.311 100.539C137.007 100.842 136.595 101.013 136.166 101.013Z" fill="#1F3E7C"/>
<path d="M222.782 67.0588C222.784 65.8021 222.496 64.562 221.94 63.4347C221.385 62.3075 220.577 61.3236 219.579 60.5595C218.582 59.7953 217.421 59.2716 216.188 59.0289C214.955 58.7862 213.683 58.8312 212.47 59.1602C211.257 59.4893 210.137 60.0936 209.195 60.9262C208.254 61.7589 207.517 62.7973 207.043 63.9609C206.568 65.1245 206.368 66.3819 206.459 67.6353C206.549 68.8887 206.927 70.1044 207.564 71.1879L207.59 71.2177C207.903 71.7474 208.295 72.1241 208.69 72.6799L213.431 78.95C213.571 79.1297 213.749 79.2751 213.954 79.3752C214.158 79.4752 214.382 79.5273 214.61 79.5273C214.837 79.5273 215.062 79.4752 215.266 79.3752C215.47 79.2751 215.649 79.1297 215.789 78.95L220.455 72.7657C220.879 72.2645 221.275 71.7402 221.641 71.1953L221.66 71.173C222.394 69.926 222.781 68.5057 222.782 67.0588ZM214.61 70.6172C213.898 70.6179 213.202 70.4074 212.609 70.0124C212.017 69.6173 211.555 69.0554 211.282 68.3978C211.009 67.7401 210.937 67.0163 211.075 66.3178C211.214 65.6193 211.556 64.9776 212.06 64.4739C212.563 63.9701 213.204 63.6269 213.903 63.4877C214.601 63.3485 215.325 63.4196 215.983 63.6919C216.641 63.9642 217.203 64.4256 217.599 65.0176C217.994 65.6096 218.206 66.3057 218.206 67.0177C218.206 67.9717 217.827 68.8867 217.153 69.5616C216.478 70.2365 215.564 70.6162 214.61 70.6172Z" fill="#1F3E7C"/>
<path d="M111.492 131.603L116.162 140.939L136.841 158.321L141.929 151.7L121.623 134.751L111.492 131.603Z" fill="#1F3E7C"/>
<g opacity="0.7">
<path d="M121.623 134.751C121.623 134.845 121.601 134.938 121.559 135.023C121.517 135.108 121.456 135.182 121.381 135.239C121.306 135.297 121.219 135.337 121.127 135.355C121.034 135.374 120.938 135.371 120.847 135.348C121.071 135.662 121.192 136.039 121.193 136.425C121.194 136.812 121.075 137.189 120.852 137.505C120.629 137.82 120.314 138.059 119.949 138.188C119.585 138.317 119.19 138.329 118.818 138.223C118.917 138.594 118.916 138.984 118.816 139.354C118.715 139.724 118.518 140.061 118.244 140.33C117.971 140.598 117.631 140.79 117.259 140.885C116.887 140.979 116.497 140.973 116.129 140.868L111.492 131.603L121.623 134.751Z" fill="white"/>
</g>
<path d="M113.372 135.359C113.372 135.359 115.342 135.694 115.644 132.893L111.492 131.603L113.372 135.359Z" fill="#1F3E7C"/>
<g opacity="0.3">
<path d="M118.822 138.224L139.188 155.079L136.849 158.321L116.166 140.939L116.133 140.868C116.442 140.958 116.767 140.976 117.084 140.92C117.501 140.847 117.889 140.657 118.203 140.372C118.585 140.023 118.827 139.547 118.886 139.033C118.915 138.762 118.894 138.487 118.822 138.224Z" fill="black"/>
</g>
<g opacity="0.3">
<path d="M120.852 135.348L141.285 152.55L141.937 151.7L121.627 134.751C121.619 134.914 121.55 135.068 121.435 135.183C121.319 135.299 121.164 135.366 121.001 135.374C120.95 135.37 120.9 135.361 120.852 135.348Z" fill="black"/>
</g>
<path d="M116.578 137.757C116.578 137.757 116.578 137.802 116.671 137.821C116.726 137.832 116.783 137.823 116.832 137.796C116.88 137.768 116.917 137.724 116.936 137.671C116.981 137.497 116.971 137.314 116.91 137.145C116.878 137.04 116.814 136.948 116.727 136.881C116.679 136.844 116.622 136.82 116.563 136.81C116.503 136.8 116.442 136.805 116.384 136.825C116.324 136.853 116.271 136.895 116.228 136.945C116.185 136.996 116.153 137.055 116.134 137.119C116.088 137.262 116.062 137.41 116.056 137.559C116.034 137.89 116.083 138.222 116.198 138.533C116.224 138.616 116.268 138.692 116.327 138.757C116.385 138.821 116.457 138.872 116.537 138.906C116.624 138.931 116.715 138.934 116.803 138.914C116.891 138.895 116.973 138.853 117.041 138.794C117.174 138.653 117.277 138.486 117.344 138.304C117.411 138.122 117.441 137.929 117.432 137.735C117.441 137.355 117.345 136.981 117.156 136.652C116.967 136.323 116.691 136.053 116.358 135.87C116.284 135.834 116.203 135.815 116.121 135.815C116.039 135.815 115.958 135.834 115.884 135.87C115.745 135.949 115.628 136.06 115.541 136.194C115.377 136.436 115.251 136.701 115.168 136.981C115.053 137.385 115.019 137.807 115.067 138.223C115.081 138.338 115.101 138.451 115.127 138.563C115.137 138.601 115.145 138.639 115.149 138.678C115.1 138.532 115.065 138.381 115.045 138.227C114.986 137.807 115.016 137.379 115.131 136.97C115.211 136.684 115.337 136.414 115.504 136.168C115.593 136.027 115.714 135.909 115.858 135.825C115.94 135.785 116.029 135.765 116.119 135.765C116.21 135.765 116.299 135.785 116.38 135.825C116.725 136.01 117.012 136.286 117.21 136.624C117.407 136.962 117.507 137.347 117.499 137.738C117.496 137.943 117.462 138.145 117.399 138.339C117.344 138.534 117.234 138.709 117.082 138.843C117.006 138.907 116.916 138.952 116.819 138.973C116.722 138.994 116.621 138.99 116.526 138.962C116.439 138.926 116.36 138.872 116.296 138.803C116.231 138.734 116.183 138.652 116.153 138.563C116.039 138.242 115.992 137.902 116.015 137.563C116.022 137.409 116.051 137.257 116.101 137.112C116.122 137.042 116.157 136.978 116.205 136.922C116.252 136.867 116.311 136.822 116.377 136.791C116.439 136.77 116.507 136.765 116.572 136.777C116.637 136.789 116.698 136.817 116.75 136.858C116.844 136.929 116.913 137.029 116.947 137.142C117.003 137.319 117.003 137.509 116.947 137.686C116.927 137.743 116.886 137.79 116.833 137.818C116.78 137.846 116.718 137.854 116.66 137.839C116.641 137.833 116.624 137.822 116.609 137.808C116.595 137.794 116.584 137.776 116.578 137.757Z" fill="white"/>
<path d="M117.417 133.535C117.417 133.535 117.372 133.643 117.331 133.852C117.283 134.148 117.293 134.451 117.361 134.743C117.467 135.176 117.624 135.594 117.827 135.989C118.088 136.476 118.265 137.003 118.35 137.548C118.407 138.101 118.299 138.658 118.04 139.149C117.827 139.549 117.52 139.891 117.145 140.144C116.892 140.312 116.613 140.438 116.32 140.517C116.213 140.549 116.103 140.569 115.992 140.577L116.078 140.558L116.298 140.495C116.584 140.413 116.856 140.287 117.104 140.122C117.47 139.869 117.77 139.531 117.977 139.137C118.228 138.653 118.333 138.106 118.279 137.563C118.2 137.026 118.035 136.504 117.79 136.019C117.587 135.619 117.433 135.195 117.331 134.758C117.27 134.461 117.27 134.153 117.331 133.856C117.346 133.745 117.374 133.638 117.417 133.535Z" fill="white"/>
<path d="M119.754 134.132C119.576 134.241 119.444 134.411 119.381 134.609C119.26 135.097 119.216 135.6 119.25 136.101C119.267 136.609 119.33 137.115 119.441 137.612C119.482 137.802 119.523 137.955 119.549 138.063C119.567 138.117 119.581 138.171 119.59 138.227C119.564 138.176 119.543 138.122 119.526 138.067C119.493 137.962 119.448 137.813 119.399 137.623C119.28 137.125 119.21 136.617 119.191 136.105C119.183 135.824 119.19 135.542 119.213 135.262C119.223 135.031 119.266 134.802 119.34 134.583C119.395 134.436 119.489 134.307 119.612 134.21C119.655 134.176 119.702 134.149 119.754 134.132Z" fill="white"/>
<path d="M120.643 137.761C120.582 137.664 120.532 137.56 120.494 137.451C120.381 137.194 120.327 136.915 120.337 136.634C120.339 136.49 120.374 136.348 120.439 136.219C120.503 136.09 120.596 135.977 120.71 135.888C120.78 135.837 120.858 135.799 120.941 135.776C120.972 135.772 121.004 135.772 121.035 135.776C120.928 135.813 120.827 135.866 120.736 135.933C120.633 136.02 120.548 136.127 120.489 136.249C120.43 136.37 120.397 136.503 120.393 136.638C120.388 136.911 120.435 137.181 120.531 137.436C120.575 137.542 120.612 137.651 120.643 137.761Z" fill="white"/>
<path d="M116.066 133.001C116.066 133.001 116.066 133.001 116.089 133.046C116.11 133.089 116.127 133.134 116.141 133.18C116.17 133.251 116.185 133.327 116.186 133.404C116.179 133.507 116.148 133.606 116.096 133.695C115.97 133.921 115.831 134.14 115.682 134.352C115.515 134.619 115.37 134.9 115.25 135.191C115.039 135.724 114.87 136.273 114.746 136.832C114.701 137.018 114.664 137.186 114.627 137.343C114.589 137.5 114.582 137.529 114.578 137.529C114.578 137.465 114.587 137.401 114.604 137.339C114.627 137.216 114.66 137.041 114.709 136.825C114.82 136.259 114.983 135.704 115.197 135.168C115.318 134.873 115.466 134.59 115.637 134.322C115.798 134.076 115.962 133.87 116.063 133.676C116.109 133.605 116.138 133.523 116.148 133.439C116.158 133.354 116.148 133.268 116.119 133.188C116.085 133.068 116.063 133.005 116.066 133.001Z" fill="white"/>
<path d="M230.963 154.855L230.116 156.982C230.116 156.982 217.758 147.582 208.254 148.365C208.016 148.541 207.741 148.661 207.449 148.714C207.158 148.768 206.858 148.754 206.572 148.675L203.029 147.795C202.671 147.715 202.343 147.538 202.079 147.283C201.816 147.028 201.628 146.706 201.537 146.351C201.537 146.351 194.353 140.413 184.614 141.334L180.984 141.487L196.337 116.052L238.24 122.807L230.963 154.855Z" fill="#455A64"/>
<path d="M234.195 152.543L232.781 156.407C232.781 156.407 221.218 145.061 205.086 147.56L214.769 129.965C214.769 129.965 234.445 148.227 234.195 152.543Z" fill="#EBEBEB"/>
<path d="M246.078 125.15C246.078 125.15 232.979 109.189 215.641 119.782L205.078 147.56C205.078 147.56 224.381 139.816 235.448 153.901L246.078 125.15Z" fill="white"/>
<path d="M246.075 125.15C246.075 125.15 246.019 125.329 245.892 125.676C245.765 126.023 245.583 126.541 245.34 127.209L243.21 133.035C241.345 138.074 238.716 145.266 235.538 153.923L235.489 154.061L235.396 153.945C232.188 149.826 227.587 147.02 222.457 146.053C219.66 145.519 216.8 145.393 213.967 145.68C212.501 145.816 211.045 146.044 209.607 146.362C208.137 146.675 206.69 147.086 205.276 147.593L205.123 147.653L204.922 147.731L204.996 147.53C208.835 137.433 212.456 127.932 215.556 119.756V119.73H215.582C217.647 118.443 219.887 117.46 222.233 116.813C226.24 115.727 230.481 115.869 234.408 117.22C235.962 117.751 237.461 118.432 238.884 119.253C240.876 120.399 242.726 121.777 244.396 123.356C244.975 123.904 245.396 124.352 245.672 124.658C245.81 124.81 245.911 124.93 245.978 125.012C246.013 125.051 246.045 125.092 246.075 125.135L245.967 125.019L245.65 124.676C245.37 124.378 244.945 123.93 244.363 123.397C242.68 121.832 240.825 120.466 238.831 119.324C237.413 118.516 235.92 117.846 234.374 117.324C230.47 115.993 226.256 115.863 222.278 116.951C219.952 117.593 217.731 118.566 215.683 119.842L215.716 119.801C212.617 127.977 209.002 137.481 205.179 147.578L205.052 147.455L205.209 147.396C206.627 146.889 208.078 146.479 209.551 146.168C210.997 145.85 212.462 145.622 213.937 145.486C216.788 145.196 219.665 145.322 222.479 145.859C227.651 146.834 232.287 149.67 235.512 153.83L235.37 153.852L243.121 133.035L245.295 127.209C245.549 126.537 245.743 126.023 245.877 125.672C246.012 125.321 246.075 125.15 246.075 125.15Z" fill="#263238"/>
<path d="M204.917 147.507C204.917 147.507 193.276 135.348 180.352 139.939L191.78 115.168L215.279 120.741L204.917 147.507Z" fill="#F5F5F5"/>
<path d="M204.991 147.851L204.79 147.638C204.674 147.519 193.085 135.616 180.418 140.115L180 140.264L191.679 114.948L191.828 114.986L215.517 120.611L215.439 120.808L204.991 147.851ZM186.341 138.727C195.759 138.727 203.521 145.863 204.868 147.176L215.036 120.872L191.91 115.385L180.72 139.63C182.529 139.033 184.421 138.728 186.326 138.727H186.341Z" fill="#263238"/>
<path d="M215.627 119.782C215.627 119.782 213.269 108.936 202.523 106.388L195.582 104.941L183.508 129.644C183.508 129.644 200.856 133.408 205.097 147.392L215.627 119.782Z" fill="white"/>
<path d="M215.636 119.782C215.623 119.827 215.608 119.87 215.591 119.913L215.453 120.286C215.326 120.629 215.143 121.125 214.901 121.778L212.782 127.406C210.94 132.255 208.306 139.163 205.188 147.422L205.099 147.653L205.024 147.414C204.419 145.455 203.53 143.595 202.387 141.894C202.103 141.446 201.764 141.032 201.447 140.592C201.13 140.152 200.775 139.745 200.395 139.35C199.651 138.523 198.853 137.746 198.008 137.022C194.576 134.094 190.287 131.838 185.632 130.335C184.919 130.111 184.203 129.902 183.494 129.738L183.375 129.712L183.427 129.6C187.873 120.525 192.006 112.069 195.516 104.907L195.546 104.847H195.609L201.264 106.03C202.983 106.326 204.652 106.863 206.221 107.626C208.756 108.909 210.935 110.799 212.562 113.128C213.61 114.611 214.459 116.225 215.087 117.929C215.304 118.518 215.438 118.98 215.524 119.29C215.61 119.6 215.636 119.767 215.636 119.767C215.636 119.767 215.636 119.73 215.598 119.652C215.561 119.573 215.543 119.45 215.498 119.279C215.408 118.969 215.263 118.533 215.039 117.929C214.396 116.238 213.537 114.637 212.484 113.165C210.854 110.862 208.683 108.995 206.162 107.727C204.601 106.976 202.942 106.449 201.234 106.16L195.576 104.989L195.665 104.944L183.603 129.678L183.535 129.54C184.255 129.708 184.971 129.913 185.691 130.144C187.999 130.879 190.234 131.824 192.368 132.968C194.423 134.06 196.355 135.369 198.131 136.873C198.981 137.603 199.784 138.386 200.533 139.219C200.906 139.618 201.242 140.059 201.592 140.473C201.943 140.887 202.249 141.334 202.536 141.786C203.686 143.505 204.579 145.382 205.188 147.358H205.028C208.187 139.122 210.828 132.229 212.682 127.392C213.614 124.978 214.345 123.076 214.849 121.774C215.099 121.129 215.293 120.633 215.427 120.282L215.58 119.909C215.613 119.827 215.636 119.782 215.636 119.782Z" fill="#263238"/>
<path d="M198.18 110.524C198.18 110.61 199.276 110.793 200.962 111.375C203.138 112.131 205.181 113.224 207.016 114.616C208.775 115.951 210.289 117.58 211.492 119.432C212.369 120.816 212.719 121.744 212.82 121.726C212.857 121.726 212.798 121.483 212.656 121.058C212.445 120.446 212.175 119.857 211.85 119.297C210.707 117.338 209.186 115.626 207.374 114.262C205.481 112.822 203.345 111.733 201.067 111.047C200.379 110.836 199.675 110.679 198.963 110.577C198.707 110.516 198.442 110.498 198.18 110.524Z" fill="#E0E0E0"/>
<path d="M196.344 113.169C196.344 113.255 197.437 113.438 199.126 114.02C201.302 114.775 203.345 115.869 205.18 117.261C206.939 118.596 208.453 120.225 209.656 122.076C210.533 123.46 210.883 124.393 210.984 124.37C211.021 124.37 210.962 124.128 210.82 123.703C210.609 123.092 210.339 122.504 210.014 121.946C208.873 119.985 207.351 118.271 205.538 116.907C203.646 115.466 201.509 114.378 199.231 113.695C198.544 113.481 197.84 113.324 197.127 113.225C196.871 113.162 196.606 113.143 196.344 113.169Z" fill="#E0E0E0"/>
<path d="M195.086 116.299C195.086 116.388 196.179 116.571 197.869 117.153C200.044 117.908 202.087 119.002 203.922 120.394C205.681 121.729 207.195 123.358 208.398 125.209C209.275 126.593 209.625 127.522 209.722 127.503C209.819 127.485 209.704 127.261 209.562 126.836C209.352 126.224 209.082 125.634 208.756 125.075C207.614 123.116 206.093 121.404 204.28 120.04C202.389 118.599 200.254 117.51 197.977 116.824C197.288 116.615 196.585 116.458 195.873 116.354C195.615 116.293 195.35 116.275 195.086 116.299Z" fill="#E0E0E0"/>
<path d="M193.375 119.029C193.375 119.118 194.468 119.301 196.158 119.883C198.334 120.637 200.377 121.731 202.211 123.124C203.97 124.459 205.484 126.088 206.687 127.94C207.564 129.324 207.915 130.252 208.012 130.234C208.053 130.234 207.993 129.991 207.851 129.566C207.641 128.954 207.371 128.365 207.045 127.806C205.903 125.846 204.382 124.134 202.569 122.77C200.679 121.328 198.543 120.239 196.266 119.555C195.577 119.345 194.874 119.188 194.162 119.085C193.904 119.024 193.639 119.005 193.375 119.029Z" fill="#E0E0E0"/>
<path d="M191.5 121.886C191.5 121.972 192.593 122.155 194.283 122.736C196.458 123.492 198.501 124.586 200.336 125.978C202.094 127.314 203.608 128.943 204.812 130.793C205.689 132.177 206.04 133.11 206.137 133.087C206.234 133.065 206.118 132.845 205.976 132.42C205.765 131.809 205.496 131.221 205.17 130.663C204.03 128.701 202.508 126.988 200.694 125.623C198.804 124.182 196.668 123.094 194.391 122.412C193.703 122.199 193 122.041 192.287 121.942C192.03 121.879 191.764 121.86 191.5 121.886Z" fill="#E0E0E0"/>
<path d="M189.242 125.03C189.242 125.12 190.432 125.314 192.263 125.974C193.33 126.36 194.37 126.813 195.378 127.332C196.594 127.974 197.768 128.694 198.892 129.488C199.98 130.285 201.01 131.158 201.976 132.099C202.733 132.856 203.425 133.674 204.047 134.546C205.087 136.015 205.453 137.03 205.557 137.007C205.595 137.007 205.524 136.746 205.36 136.284C205.26 135.999 205.135 135.723 204.987 135.459C204.811 135.091 204.609 134.736 204.382 134.396C203.792 133.476 203.113 132.616 202.353 131.83C201.385 130.845 200.337 129.941 199.22 129.13C198.07 128.312 196.859 127.583 195.598 126.951C194.562 126.436 193.489 126.001 192.387 125.65C191.963 125.509 191.532 125.391 191.096 125.295C190.771 125.21 190.441 125.145 190.108 125.101C189.824 125.033 189.533 125.009 189.242 125.03Z" fill="#E0E0E0"/>
<path d="M188.156 127.787C188.156 127.876 189.354 128.067 191.178 128.757C192.24 129.163 193.274 129.641 194.273 130.185C195.474 130.86 196.627 131.614 197.727 132.442C198.792 133.269 199.797 134.169 200.738 135.135C201.474 135.912 202.15 136.745 202.759 137.627C203.781 139.119 204.154 140.133 204.251 140.115C204.288 140.115 204.218 139.85 204.057 139.369C203.958 139.081 203.833 138.802 203.684 138.537C203.516 138.165 203.319 137.807 203.095 137.466C202.519 136.537 201.858 135.663 201.122 134.855C200.179 133.847 199.157 132.915 198.067 132.069C196.938 131.219 195.746 130.456 194.501 129.786C193.466 129.246 192.389 128.788 191.282 128.417C190.858 128.268 190.426 128.144 189.988 128.044C189.662 127.954 189.331 127.886 188.995 127.843C188.72 127.782 188.437 127.763 188.156 127.787Z" fill="#E0E0E0"/>
<path d="M212.275 141.886C212.335 141.961 213.312 141.394 215.11 140.861C217.531 140.162 220.071 139.969 222.57 140.294C225.15 140.646 227.638 141.491 229.899 142.782C231.63 143.774 232.544 144.587 232.611 144.527C232.678 144.468 232.432 144.281 232.018 143.916C231.42 143.394 230.782 142.921 230.108 142.502C227.825 141.081 225.265 140.162 222.6 139.805C220.019 139.461 217.393 139.716 214.927 140.551C214.228 140.787 213.552 141.088 212.909 141.45C212.469 141.689 212.253 141.86 212.275 141.886Z" fill="#E0E0E0"/>
<path d="M213.736 138.354C213.796 138.429 214.773 137.862 216.571 137.328C218.992 136.63 221.532 136.437 224.031 136.761C226.611 137.114 229.099 137.958 231.36 139.249C233.091 140.238 234.005 141.055 234.068 140.995C234.132 140.935 233.893 140.749 233.479 140.379C232.882 139.858 232.243 139.386 231.569 138.97C229.284 137.546 226.722 136.627 224.053 136.273C221.474 135.924 218.849 136.171 216.381 136.996C215.682 137.235 215.006 137.537 214.363 137.899C213.93 138.156 213.714 138.328 213.736 138.354Z" fill="#E0E0E0"/>
<path d="M215.181 134.822C215.241 134.896 216.218 134.326 218.02 133.796C220.441 133.095 222.981 132.902 225.48 133.229C228.061 133.579 230.551 134.424 232.813 135.717C234.54 136.705 235.454 137.522 235.521 137.459C235.588 137.395 235.346 137.216 234.932 136.847C234.334 136.325 233.694 135.853 233.018 135.437C230.735 134.011 228.172 133.091 225.502 132.74C222.924 132.391 220.3 132.639 217.833 133.464C217.134 133.702 216.459 134.004 215.815 134.367C215.379 134.624 215.159 134.796 215.181 134.822Z" fill="#E0E0E0"/>
<path d="M216.633 131.286C216.692 131.364 217.67 130.793 219.471 130.26C221.893 129.562 224.432 129.371 226.931 129.697C229.513 130.046 232.002 130.889 234.265 132.181C235.992 133.173 236.905 133.986 236.973 133.926C237.04 133.867 236.797 133.684 236.383 133.315C235.784 132.794 235.144 132.321 234.47 131.901C232.184 130.479 229.622 129.559 226.954 129.204C224.375 128.858 221.752 129.107 219.285 129.932C218.584 130.169 217.908 130.471 217.263 130.834C216.845 131.092 216.633 131.26 216.633 131.286Z" fill="#E0E0E0"/>
<path d="M218.13 127.753C218.19 127.832 219.167 127.261 220.965 126.728C223.386 126.029 225.926 125.837 228.425 126.164C231.006 126.514 233.496 127.357 235.758 128.649C237.485 129.641 238.399 130.454 238.466 130.394C238.533 130.335 238.291 130.148 237.876 129.783C237.277 129.262 236.637 128.789 235.963 128.369C233.677 126.947 231.115 126.028 228.447 125.672C225.868 125.322 223.242 125.571 220.774 126.399C220.076 126.637 219.4 126.937 218.756 127.298C218.309 127.556 218.089 127.727 218.13 127.753Z" fill="#E0E0E0"/>
<path d="M219.564 124.221C219.624 124.296 220.601 123.729 222.399 123.195C224.82 122.497 227.36 122.304 229.859 122.628C232.439 122.98 234.927 123.825 237.188 125.116C238.919 126.105 239.833 126.922 239.9 126.862C239.967 126.802 239.721 126.616 239.311 126.246C238.714 125.726 238.078 125.252 237.408 124.829C235.123 123.406 232.561 122.486 229.892 122.132C227.315 121.786 224.692 122.037 222.227 122.867C221.528 123.103 220.852 123.404 220.209 123.766C219.758 124.023 219.542 124.195 219.564 124.221Z" fill="#E0E0E0"/>
<path d="M99.977 156.024L105.328 166.407L118.315 159.714L112.964 149.33L99.977 156.024Z" fill="#F5F5F5"/>
<path d="M100.76 156.445L105.438 165.52L117.511 159.297L112.834 150.222L100.76 156.445Z" fill="#EBEBEB"/>
<path d="M105.437 165.522L106.747 157.706L111.179 159.889L111.976 157.089L117.51 159.3L105.437 165.522Z" fill="#D1D5DE"/>
<path d="M110.117 155.097C110.214 155.285 110.253 155.498 110.229 155.708C110.206 155.918 110.12 156.117 109.984 156.278C109.847 156.44 109.666 156.557 109.462 156.616C109.259 156.674 109.043 156.671 108.842 156.606C108.64 156.542 108.462 156.419 108.331 156.254C108.199 156.088 108.119 155.887 108.102 155.676C108.084 155.466 108.13 155.254 108.232 155.069C108.335 154.885 108.49 154.734 108.678 154.637C108.93 154.508 109.223 154.484 109.493 154.57C109.762 154.656 109.987 154.846 110.117 155.097Z" fill="#D1D5DE"/>
<path d="M214.569 165.133L213 176.708L227.478 178.671L229.047 167.096L214.569 165.133Z" fill="#F5F5F5"/>
<path d="M214.965 165.928L213.594 176.045L227.053 177.87L228.425 167.753L214.965 165.928Z" fill="#EBEBEB"/>
<path d="M213.596 176.047L219.151 170.395L221.53 174.724L223.789 172.887L227.056 177.872L213.596 176.047Z" fill="#D1D5DE"/>
<path d="M223.399 170.186C223.37 170.395 223.281 170.592 223.141 170.751C223.001 170.909 222.817 171.023 222.613 171.077C222.408 171.131 222.192 171.123 221.992 171.055C221.792 170.986 221.617 170.859 221.489 170.691C221.361 170.523 221.285 170.32 221.272 170.109C221.259 169.898 221.309 169.688 221.416 169.505C221.522 169.322 221.681 169.175 221.871 169.083C222.061 168.99 222.274 168.956 222.484 168.984C222.764 169.023 223.018 169.171 223.19 169.396C223.361 169.621 223.436 169.905 223.399 170.186Z" fill="#D1D5DE"/>
</svg>
