<svg width="347" height="178" viewBox="0 0 347 178" fill="none" xmlns="http://www.w3.org/2000/svg">
<path d="M0.75 8C0.75 3.58173 4.33172 0 8.75 0H338.75C343.168 0 346.75 3.58172 346.75 8V129H0.75V8Z" fill="#E0E5EE"/>
<mask id="mask0_2459_23943" style="mask-type:alpha" maskUnits="userSpaceOnUse" x="1" y="0" width="345" height="129">
<rect x="1" width="345" height="129" rx="8" fill="white"/>
</mask>
<g mask="url(#mask0_2459_23943)">
<path opacity="0.8" d="M158.142 70.0001C158.816 68.6602 159.136 67.1701 159.072 65.6715C159.007 64.173 158.56 62.716 157.773 61.439C156.986 60.1621 155.886 59.1077 154.576 58.3762C153.267 57.6448 151.792 57.2605 150.292 57.2601C149.16 57.2582 148.039 57.4791 146.992 57.9101C146.121 55.4225 144.498 53.2672 142.349 51.7425C140.199 50.2178 137.628 49.3993 134.992 49.4001H134.752C133.769 45.1195 131.454 41.2611 128.139 38.3796C124.824 35.4982 120.681 33.7422 116.305 33.3644C111.929 32.9865 107.547 34.0061 103.787 36.2766C100.027 38.5471 97.0847 41.9515 95.3822 46.0001C93.3071 46.6445 91.3997 47.7386 89.7957 49.2043C88.1917 50.67 86.9306 52.4714 86.1022 54.4801C84.7184 54.0939 83.2692 54.0006 81.8473 54.2061C80.4254 54.4117 79.062 54.9115 77.8443 55.6738C76.6265 56.4361 75.5811 57.444 74.7749 58.6332C73.9687 59.8224 73.4195 61.1666 73.1622 62.5801C72.1988 62.202 71.1575 62.065 70.1291 62.1813C69.1006 62.2975 68.1162 62.6634 67.2614 63.247C66.4067 63.8306 65.7076 64.6143 65.2249 65.5299C64.7423 66.4455 64.4907 67.4651 64.4922 68.5001C64.4943 69.0126 64.5581 69.5229 64.6822 70.0201L158.142 70.0001Z" fill="#DADFE9"/>
<path opacity="0.8" d="M314.7 94C314.7 93.7045 314.75 93.3946 314.75 93.0919C314.75 90.9014 313.893 88.8006 312.366 87.2516C310.84 85.7027 308.77 84.8325 306.612 84.8325C305.601 84.8314 304.598 85.0246 303.658 85.4019C302.99 82.1371 301.13 79.2498 298.45 77.3204C295.771 75.3911 292.471 74.5628 289.214 75.002C288.247 70.5702 285.934 66.558 282.602 63.5303C279.269 60.5027 275.085 58.6123 270.638 58.1253C266.192 57.6382 261.707 58.5791 257.814 60.8155C253.922 63.0518 250.82 66.4709 248.943 70.5913C247 70.6531 245.088 71.0961 243.312 71.8958C240.913 69.9597 238.024 68.7507 234.978 68.4079C231.932 68.065 228.853 68.6024 226.095 69.9581C223.336 71.3137 221.011 73.4325 219.388 76.0705C217.764 78.7084 216.907 81.7582 216.916 84.8686C214.765 84.8628 212.698 85.7213 211.168 87.2566C209.638 88.792 208.769 90.8794 208.75 93.0631C208.751 93.3667 208.77 93.6699 208.807 93.9712L314.7 94Z" fill="#DADFE9"/>
<circle opacity="0.7" cx="-6.75" cy="98" r="15.5" transform="rotate(180 -6.75 98)" fill="#D7DCE6"/>
<circle opacity="0.7" cx="15.25" cy="67.5" r="4.5" transform="rotate(180 15.25 67.5)" fill="#D7DCE6"/>
</g>
<path d="M173.974 62.6007H128.117V130.311H173.974V62.6007Z" fill="#3D5589" stroke="#3D5589" stroke-width="0.5" stroke-linecap="round" stroke-linejoin="round"/>
<path d="M171.027 65.8834H131.07V127.103H171.027V65.8834Z" fill="white" stroke="#3D5589" stroke-width="0.5" stroke-linecap="round" stroke-linejoin="round"/>
<path d="M143.173 60.5074H158.911C159.502 60.5074 160.069 60.7421 160.487 61.1599C160.904 61.5777 161.139 62.1443 161.139 62.7351V67.4761H140.945V62.7519C140.943 62.458 140.999 62.1665 141.11 61.8943C141.221 61.622 141.385 61.3745 141.592 61.1658C141.799 60.9572 142.045 60.7916 142.317 60.6786C142.588 60.5656 142.879 60.5074 143.173 60.5074Z" fill="#7D7D7D" stroke="#3D5589" stroke-width="0.5" stroke-linecap="round" stroke-linejoin="round"/>
<path d="M149.687 57.6582H152.375C152.693 57.6546 153.008 57.7143 153.302 57.8338C153.596 57.9532 153.864 58.1301 154.089 58.354C154.314 58.5779 154.492 58.8445 154.613 59.138C154.735 59.4316 154.796 59.7464 154.794 60.0639V60.5007H147.305V60.0639C147.303 59.7495 147.363 59.4378 147.482 59.1466C147.601 58.8555 147.776 58.5906 147.997 58.3672C148.218 58.1437 148.481 57.9661 148.771 57.8444C149.061 57.7228 149.373 57.6595 149.687 57.6582Z" fill="#7D7D7D" stroke="#3D5589" stroke-width="0.5" stroke-linecap="round" stroke-linejoin="round"/>
<path d="M161.137 82.0417C164.707 82.0417 167.601 79.1474 167.601 75.5771C167.601 72.0067 164.707 69.1124 161.137 69.1124C157.566 69.1124 154.672 72.0067 154.672 75.5771C154.672 79.1474 157.566 82.0417 161.137 82.0417Z" fill="#3D5589" stroke="#3D5589" stroke-width="0.5" stroke-linecap="round" stroke-linejoin="round"/>
<path d="M165.605 73.9609H162.847V71.2057H159.615V73.9609H156.859V77.1932H159.615V79.9518H162.847V77.1932H165.605V73.9609Z" fill="#A7C2F9" stroke="#3D5589" stroke-width="0.5" stroke-linecap="round" stroke-linejoin="round"/>
<path d="M134.523 75.3889H150.114" stroke="#3D5589" stroke-width="0.5" stroke-linecap="round" stroke-linejoin="round"/>
<path d="M134.523 78.6212H150.114" stroke="#3D5589" stroke-width="0.5" stroke-linecap="round" stroke-linejoin="round"/>
<path d="M134.523 89.269H167.414" stroke="#3D5589" stroke-width="0.5" stroke-linecap="round" stroke-linejoin="round"/>
<path d="M138.514 92.3098H134.711V96.3015H138.514V92.3098Z" stroke="#3D5589" stroke-width="0.5" stroke-linecap="round" stroke-linejoin="round"/>
<path d="M156.194 92.3098H152.391V96.3015H156.194V92.3098Z" stroke="#3D5589" stroke-width="0.5" stroke-linecap="round" stroke-linejoin="round"/>
<path d="M140.031 96.3015H149.349" stroke="#3D5589" stroke-width="0.5" stroke-linecap="round" stroke-linejoin="round"/>
<path d="M157.719 96.3015H167.036" stroke="#3D5589" stroke-width="0.5" stroke-linecap="round" stroke-linejoin="round"/>
<path d="M138.514 100.105H134.711V104.097H138.514V100.105Z" stroke="#3D5589" stroke-width="0.5" stroke-linecap="round" stroke-linejoin="round"/>
<path d="M156.194 100.105H152.391V104.097H156.194V100.105Z" stroke="#3D5589" stroke-width="0.5" stroke-linecap="round" stroke-linejoin="round"/>
<path d="M140.031 104.097H149.349" stroke="#3D5589" stroke-width="0.5" stroke-linecap="round" stroke-linejoin="round"/>
<path d="M157.719 104.097H167.036" stroke="#3D5589" stroke-width="0.5" stroke-linecap="round" stroke-linejoin="round"/>
<path d="M138.514 107.9H134.711V111.892H138.514V107.9Z" stroke="#3D5589" stroke-width="0.5" stroke-linecap="round" stroke-linejoin="round"/>
<path d="M156.194 107.9H152.391V111.892H156.194V107.9Z" stroke="#3D5589" stroke-width="0.5" stroke-linecap="round" stroke-linejoin="round"/>
<path d="M140.031 111.892H149.349" stroke="#3D5589" stroke-width="0.5" stroke-linecap="round" stroke-linejoin="round"/>
<path d="M157.719 111.892H167.036" stroke="#3D5589" stroke-width="0.5" stroke-linecap="round" stroke-linejoin="round"/>
<path d="M138.514 115.695H134.711V119.687H138.514V115.695Z" stroke="#3D5589" stroke-width="0.5" stroke-linecap="round" stroke-linejoin="round"/>
<path d="M156.194 115.695H152.391V119.687H156.194V115.695Z" stroke="#3D5589" stroke-width="0.5" stroke-linecap="round" stroke-linejoin="round"/>
<path d="M140.031 119.687H149.349" stroke="#3D5589" stroke-width="0.5" stroke-linecap="round" stroke-linejoin="round"/>
<path d="M157.719 119.687H167.036" stroke="#3D5589" stroke-width="0.5" stroke-linecap="round" stroke-linejoin="round"/>
<path d="M188.263 113.606C200.321 113.606 210.096 103.83 210.096 91.7723C210.096 79.7141 200.321 69.939 188.263 69.939C176.205 69.939 166.43 79.7141 166.43 91.7723C166.43 103.83 176.205 113.606 188.263 113.606Z" fill="white" stroke="#3D5589" stroke-width="0.5" stroke-linecap="round" stroke-linejoin="round"/>
<path d="M170.844 78.8263H173.192" stroke="#3D5589" stroke-width="0.5" stroke-linecap="round" stroke-linejoin="round"/>
<path d="M171.945 77.3983H174.143" stroke="#3D5589" stroke-width="0.5" stroke-linecap="round" stroke-linejoin="round"/>
<path d="M172.992 76.2895H175.173" stroke="#3D5589" stroke-width="0.5" stroke-linecap="round" stroke-linejoin="round"/>
<path d="M174.344 75.1135H176.266" stroke="#3D5589" stroke-width="0.5" stroke-linecap="round" stroke-linejoin="round"/>
<path d="M169.406 80.9667H171.6" stroke="#3D5589" stroke-width="0.5" stroke-linecap="round" stroke-linejoin="round"/>
<path d="M167.812 84.3737H170.017" stroke="#3D5589" stroke-width="0.5" stroke-linecap="round" stroke-linejoin="round"/>
<path d="M166.719 88.4964H169.067" stroke="#3D5589" stroke-width="0.5" stroke-linecap="round" stroke-linejoin="round"/>
<path d="M166.562 93.0962H168.911" stroke="#3D5589" stroke-width="0.5" stroke-linecap="round" stroke-linejoin="round"/>
<path d="M190.325 113.606C202.384 113.606 212.159 103.831 212.159 91.7724C212.159 79.7142 202.384 69.9391 190.325 69.9391C178.267 69.9391 168.492 79.7142 168.492 91.7724C168.492 103.831 178.267 113.606 190.325 113.606Z" fill="white" stroke="#3D5589" stroke-width="0.5" stroke-linecap="round" stroke-linejoin="round"/>
<path d="M207.271 95.6796C209.43 86.3222 203.594 76.9866 194.237 74.828C184.879 72.6694 175.544 78.5052 173.385 87.8626C171.226 97.22 177.062 106.555 186.42 108.714C195.777 110.873 205.113 105.037 207.271 95.6796Z" fill="white" stroke="#3D5589" stroke-width="0.5" stroke-linecap="round" stroke-linejoin="round"/>
<path d="M190.336 74.3844H190C194.568 74.4479 198.926 76.3069 202.134 79.5593C205.341 82.8117 207.14 87.196 207.14 91.764C207.14 96.3319 205.341 100.716 202.134 103.969C198.926 107.221 194.568 109.08 190 109.144H190.336C192.64 109.176 194.926 108.75 197.064 107.89C199.201 107.031 201.147 105.755 202.787 104.138C204.427 102.52 205.73 100.592 206.619 98.4671C207.508 96.3418 207.966 94.061 207.966 91.7573C207.966 89.4535 207.508 87.1727 206.619 85.0474C205.73 82.9221 204.427 80.9946 202.787 79.3769C201.147 77.7593 199.201 76.4837 197.064 75.6243C194.926 74.765 192.64 74.3389 190.336 74.3709V74.3844Z" fill="white" stroke="#3D5589" stroke-width="0.5" stroke-linecap="round" stroke-linejoin="round"/>
<path d="M191.141 102.615C191.091 102.626 191.045 102.653 191.011 102.692C190.978 102.732 190.959 102.782 190.957 102.833L190.987 104.241C190.998 104.314 190.993 104.388 190.97 104.457C190.947 104.527 190.909 104.59 190.857 104.642C190.805 104.694 190.742 104.733 190.672 104.755C190.602 104.778 190.528 104.784 190.456 104.772H188.611C188.539 104.784 188.465 104.778 188.395 104.755C188.326 104.733 188.262 104.694 188.211 104.642C188.159 104.59 188.12 104.527 188.097 104.457C188.075 104.388 188.069 104.314 188.081 104.241L188.141 102.803C188.14 102.751 188.121 102.7 188.086 102.66C188.052 102.62 188.005 102.593 187.953 102.585C184.391 102.148 182.325 99.9909 182.325 96.9904V95.6464C182.317 95.5744 182.325 95.5016 182.349 95.4332C182.373 95.3649 182.412 95.3029 182.464 95.2518C182.515 95.2008 182.577 95.162 182.646 95.1384C182.714 95.1148 182.787 95.107 182.859 95.1155H186.108C186.444 95.1155 186.642 95.2734 186.642 95.5221V95.9589C186.642 97.5549 187.674 98.9291 189.797 98.9291C191.813 98.9291 192.643 97.7095 192.643 96.4595C192.643 94.2419 188.578 93.8958 185.587 91.9571C183.649 90.771 182.305 89.2389 182.305 86.5811C182.305 83.2984 184.337 80.9834 187.933 80.4525C187.984 80.4432 188.031 80.4165 188.066 80.3767C188.1 80.3369 188.119 80.2866 188.121 80.2341L188.057 78.5541C188.046 78.4816 188.051 78.4075 188.074 78.3377C188.097 78.268 188.135 78.2045 188.187 78.1525C188.239 78.1005 188.302 78.0613 188.372 78.0383C188.441 78.0153 188.515 78.0089 188.588 78.0198H190.372C190.444 78.0117 190.517 78.02 190.585 78.044C190.654 78.0681 190.716 78.1073 190.767 78.1586C190.818 78.21 190.856 78.2723 190.88 78.3407C190.904 78.4092 190.911 78.4822 190.903 78.5541L190.873 80.2106C190.874 80.2632 190.893 80.3139 190.927 80.3538C190.962 80.3937 191.009 80.4203 191.061 80.429C194.811 80.8355 196.937 83.117 196.937 86.3392V87.3707C196.946 87.4425 196.938 87.5154 196.915 87.5837C196.891 87.6521 196.852 87.7142 196.801 87.7653C196.75 87.8164 196.688 87.8553 196.62 87.8789C196.551 87.9025 196.478 87.9103 196.407 87.9016H193.124C192.788 87.9016 192.59 87.7773 192.59 87.5891V87.28C192.59 85.6235 191.652 84.1216 189.465 84.1216C187.714 84.1216 186.653 85.0288 186.653 86.4333C186.653 88.4661 189.495 88.7853 192.435 90.0621C195.654 91.5002 197.062 93.4994 197.062 96.2512C197.062 99.6784 194.958 102.114 191.141 102.615Z" fill="white" stroke="#3D5589" stroke-width="0.5" stroke-linecap="round" stroke-linejoin="round"/>
<path d="M191.806 102.615C191.754 102.625 191.708 102.653 191.674 102.692C191.64 102.732 191.62 102.781 191.617 102.833L191.648 104.241C191.659 104.314 191.653 104.388 191.631 104.457C191.608 104.527 191.569 104.59 191.518 104.642C191.466 104.694 191.402 104.733 191.333 104.755C191.263 104.778 191.189 104.784 191.117 104.772H189.272C189.2 104.784 189.126 104.778 189.056 104.755C188.986 104.733 188.923 104.694 188.871 104.642C188.819 104.59 188.781 104.527 188.758 104.457C188.735 104.388 188.73 104.314 188.741 104.241L188.805 102.803C188.804 102.751 188.784 102.7 188.75 102.661C188.716 102.621 188.669 102.594 188.617 102.585C185.052 102.148 182.989 99.9909 182.989 96.9904V95.6464C182.98 95.5746 182.988 95.5018 183.012 95.4334C183.035 95.3651 183.074 95.303 183.125 95.2518C183.176 95.2007 183.238 95.1619 183.307 95.1382C183.375 95.1146 183.448 95.1069 183.52 95.1155H186.772C187.108 95.1155 187.303 95.2734 187.303 95.5221V95.9589C187.303 97.5549 188.335 98.9291 190.462 98.9291C192.461 98.9291 193.307 97.7095 193.307 96.4595C193.307 94.2419 189.242 93.8958 186.251 91.9571C184.313 90.771 182.969 89.2389 182.969 86.5811C182.969 83.2984 184.985 80.9834 188.593 80.4525C188.645 80.4438 188.693 80.4173 188.727 80.3774C188.761 80.3374 188.781 80.2868 188.782 80.2341L188.721 78.5541C188.71 78.4816 188.716 78.4075 188.738 78.3377C188.761 78.268 188.799 78.2045 188.851 78.1525C188.903 78.1005 188.966 78.0613 189.036 78.0383C189.105 78.0153 189.179 78.0089 189.252 78.0198H191.009C191.081 78.0111 191.155 78.0189 191.223 78.0427C191.292 78.0665 191.354 78.1056 191.405 78.1572C191.457 78.2087 191.495 78.2712 191.519 78.34C191.542 78.4088 191.549 78.482 191.54 78.5541L191.51 80.2106C191.511 80.263 191.531 80.3134 191.565 80.3532C191.599 80.393 191.646 80.4197 191.698 80.429C195.448 80.8355 197.575 83.117 197.575 86.3392V87.3707C197.583 87.4425 197.576 87.5154 197.552 87.5837C197.528 87.6521 197.49 87.7142 197.438 87.7653C197.387 87.8164 197.325 87.8553 197.257 87.8789C197.188 87.9025 197.116 87.9103 197.044 87.9016H193.761C193.425 87.9016 193.23 87.7773 193.23 87.5891V87.28C193.23 85.6235 192.293 84.1216 190.102 84.1216C188.351 84.1216 187.29 85.0288 187.29 86.4333C187.29 88.4661 190.136 88.7853 193.072 90.0621C196.295 91.5002 197.702 93.4994 197.702 96.2512C197.729 99.6784 195.619 102.114 191.806 102.615Z" fill="#3D5589"/>
<path d="M135.597 159.765H114.93V137.324L124.64 127.277L135.597 137.324V159.765Z" fill="#999999" stroke="#3D5589" stroke-width="0.5" stroke-linecap="round" stroke-linejoin="round"/>
<path d="M203.378 159.765H153.852V111.788L182.435 99.8531L203.378 111.788V159.765Z" fill="#999999" stroke="#3D5589" stroke-width="0.5" stroke-linecap="round" stroke-linejoin="round"/>
<path d="M160.461 133.094H134.68V159.796H160.461V133.094Z" fill="white" stroke="#3D5589" stroke-width="0.5" stroke-linecap="round" stroke-linejoin="round"/>
<path d="M190.217 137.324H176.055V159.795H190.217V137.324Z" fill="#C2C2C2" stroke="#3D5589" stroke-width="0.5" stroke-linecap="round" stroke-linejoin="round"/>
<path d="M185.725 140.496H179.227V159.796H185.725V140.496Z" fill="white" stroke="#3D5589" stroke-width="0.5" stroke-linecap="round" stroke-linejoin="round"/>
<path d="M184.699 140.496H180.25V159.796H184.699V140.496Z" fill="#3D5589" stroke="#3D5589" stroke-width="0.5" stroke-linecap="round" stroke-linejoin="round"/>
<path d="M184.7 157.746H172.523V158.986H184.7V157.746Z" fill="white" stroke="#3D5589" stroke-width="0.5" stroke-linecap="round" stroke-linejoin="round"/>
<path d="M185.725 140.496H179.227V142.082H185.725V140.496Z" fill="white" stroke="#3D5589" stroke-width="0.5" stroke-linecap="round" stroke-linejoin="round"/>
<path d="M130.712 140.496H120.289V159.796H130.712V140.496Z" fill="white" stroke="#3D5589" stroke-width="0.5" stroke-linecap="round" stroke-linejoin="round"/>
<path d="M129.066 140.496H121.93V159.796H129.066V140.496Z" fill="#3D5589" stroke="#3D5589" stroke-width="0.5" stroke-linecap="round" stroke-linejoin="round"/>
<path d="M130.712 140.496H120.289V142.082H130.712V140.496Z" fill="white" stroke="#3D5589" stroke-width="0.5" stroke-linecap="round" stroke-linejoin="round"/>
<path d="M167.681 136.87H159.398V151.863H167.681V136.87Z" fill="#C2C2C2" stroke="#3D5589" stroke-width="0.5" stroke-linecap="round" stroke-linejoin="round"/>
<path d="M229.459 159.765H193.859V111.788L211.449 99.8531L229.459 111.788V159.765Z" fill="white" stroke="#3D5589" stroke-width="0.5" stroke-linecap="round" stroke-linejoin="round"/>
<path d="M229.905 111.946L211.415 99.9506L193.711 112.05V113.219L211.542 101.12L229.905 113.115V111.946Z" fill="white" stroke="#3D5589" stroke-width="0.5" stroke-linecap="round" stroke-linejoin="round"/>
<path d="M206.899 102.938L191.789 127.099L193.855 127.365L209.584 101.584L229.455 130.9L230.513 130.856L210.689 100.367L206.899 102.938Z" fill="#3D5589" stroke="#3D5589" stroke-width="0.5" stroke-linecap="round" stroke-linejoin="round"/>
<path d="M193.859 111.788H151.734L168.387 99.8531L211.415 100.095L193.859 111.788Z" fill="#3D5589" stroke="#3D5589" stroke-width="0.5" stroke-linecap="round" stroke-linejoin="round"/>
<path d="M220.058 132.489H200.086V159.765H220.058V132.489Z" fill="#BABABA" stroke="#3D5589" stroke-width="0.5" stroke-linecap="round" stroke-linejoin="round"/>
<path d="M221.644 132.489H201.672V159.765H221.644V132.489Z" fill="white" stroke="#3D5589" stroke-width="0.5" stroke-linecap="round" stroke-linejoin="round"/>
<path d="M218.61 136.628H204.703V150.996H218.61V136.628Z" fill="white" stroke="#3D5589" stroke-linecap="round" stroke-linejoin="round"/>
<path d="M214.581 136.628H208.734V150.996H214.581V136.628Z" fill="white" stroke="#3D5589" stroke-linecap="round" stroke-linejoin="round"/>
<path d="M222.252 131.269H197.898V133.705H222.252V131.269Z" fill="#BABABA" stroke="#3D5589" stroke-width="0.5" stroke-linecap="round" stroke-linejoin="round"/>
<path d="M223.838 131.269H199.484V133.705H223.838V131.269Z" fill="white" stroke="#3D5589" stroke-width="0.5" stroke-linecap="round" stroke-linejoin="round"/>
<path d="M186.369 136.87H185.133V150.021H186.369V136.87Z" fill="white" stroke="#3D5589" stroke-width="0.5" stroke-linecap="round" stroke-linejoin="round"/>
<path d="M189.815 136.87H188.578V150.021H189.815V136.87Z" fill="white" stroke="#3D5589" stroke-width="0.5" stroke-linecap="round" stroke-linejoin="round"/>
<path d="M186.749 149.84H184.703V151.315H186.749V149.84Z" fill="white" stroke="#3D5589" stroke-width="0.5" stroke-linecap="round" stroke-linejoin="round"/>
<path d="M190.218 149.84H188.172V151.315H190.218V149.84Z" fill="white" stroke="#3D5589" stroke-width="0.5" stroke-linecap="round" stroke-linejoin="round"/>
<path d="M186.749 138.184H184.703V139.014H186.749V138.184Z" fill="white" stroke="#3D5589" stroke-width="0.5" stroke-linecap="round" stroke-linejoin="round"/>
<path d="M190.218 138.184H188.172V139.014H190.218V138.184Z" fill="white" stroke="#3D5589" stroke-width="0.5" stroke-linecap="round" stroke-linejoin="round"/>
<path d="M190.953 151.191H183.719V159.765H190.953V151.191Z" fill="white" stroke="#3D5589" stroke-width="0.5" stroke-linecap="round" stroke-linejoin="round"/>
<path d="M168.916 136.87H167.68V150.021H168.916V136.87Z" fill="white" stroke="#3D5589" stroke-width="0.5" stroke-linecap="round" stroke-linejoin="round"/>
<path d="M172.361 136.87H171.125V150.021H172.361V136.87Z" fill="white" stroke="#3D5589" stroke-width="0.5" stroke-linecap="round" stroke-linejoin="round"/>
<path d="M169.304 149.84H167.258V151.315H169.304V149.84Z" fill="white" stroke="#3D5589" stroke-width="0.5" stroke-linecap="round" stroke-linejoin="round"/>
<path d="M172.765 149.84H170.719V151.315H172.765V149.84Z" fill="white" stroke="#3D5589" stroke-width="0.5" stroke-linecap="round" stroke-linejoin="round"/>
<path d="M169.304 138.184H167.258V139.014H169.304V138.184Z" fill="white" stroke="#3D5589" stroke-width="0.5" stroke-linecap="round" stroke-linejoin="round"/>
<path d="M172.765 138.184H170.719V139.014H172.765V138.184Z" fill="white" stroke="#3D5589" stroke-width="0.5" stroke-linecap="round" stroke-linejoin="round"/>
<path d="M173.508 151.191H166.273V159.765H173.508V151.191Z" fill="white" stroke="#3D5589" stroke-width="0.5" stroke-linecap="round" stroke-linejoin="round"/>
<path d="M166.453 151.191H157.633V159.765H166.453V151.191Z" fill="#999999" stroke="#3D5589" stroke-width="0.5" stroke-linecap="round" stroke-linejoin="round"/>
<path d="M190.956 138.09H163.68L168.306 135.654H190.956V138.09Z" fill="white" stroke="#3D5589" stroke-width="0.5" stroke-linecap="round" stroke-linejoin="round"/>
<path d="M204.836 140.281H218.474" stroke="#3D5589" stroke-width="0.5" stroke-linecap="round" stroke-linejoin="round"/>
<path d="M204.836 143.691H218.474" stroke="#3D5589" stroke-width="0.5" stroke-linecap="round" stroke-linejoin="round"/>
<path d="M204.836 147.101H218.474" stroke="#3D5589" stroke-width="0.5" stroke-linecap="round" stroke-linejoin="round"/>
<path d="M123.432 126.814L113.547 137.536H114.373L124.08 127.277L123.432 126.814Z" fill="#3D5589" stroke="#3D5589" stroke-width="0.5" stroke-linecap="round" stroke-linejoin="round"/>
<path d="M133.883 137.058H160.984L181.289 126.814H123.43L133.883 137.058Z" fill="#3D5589" stroke="#3D5589" stroke-width="0.5" stroke-linecap="round" stroke-linejoin="round"/>
<path d="M195.401 126.814H179.706L151.734 137.058H165.746L195.401 126.814Z" fill="#3D5589" stroke="#3D5589" stroke-width="0.5" stroke-linecap="round" stroke-linejoin="round"/>
<path d="M230.517 127.953L212.081 99.665C212.008 99.5514 211.908 99.4582 211.789 99.3943C211.671 99.3304 211.538 99.2979 211.403 99.3C211.268 99.302 211.136 99.3384 211.02 99.4058C210.903 99.4733 210.806 99.5694 210.737 99.6851L194.148 127.083L162.047 137.411V139.068L194.901 128.514C195.086 128.46 195.245 128.34 195.348 128.178L211.439 101.594L230.517 130.866V127.953Z" fill="white" stroke="#3D5589" stroke-width="0.5" stroke-linecap="round" stroke-linejoin="round"/>
<path d="M188.929 113.572H183.328V122.825H188.929V113.572Z" stroke="#3D5589" stroke-linecap="round" stroke-linejoin="round"/>
<path d="M186.125 113.817V122.583" stroke="#3D5589" stroke-width="0.5" stroke-linecap="round" stroke-linejoin="round"/>
<path d="M188.801 118.199H183.445" stroke="#3D5589" stroke-width="0.5" stroke-linecap="round" stroke-linejoin="round"/>
<path d="M149.515 140.627H143.914V149.88H149.515V140.627Z" stroke="#3D5589" stroke-linecap="round" stroke-linejoin="round"/>
<path d="M146.711 140.869V149.638" stroke="#3D5589" stroke-width="0.5" stroke-linecap="round" stroke-linejoin="round"/>
<path d="M149.39 145.253H144.031" stroke="#3D5589" stroke-width="0.5" stroke-linecap="round" stroke-linejoin="round"/>
<path d="M214.015 113.397H208.414V122.651H214.015V113.397Z" stroke="#3D5589" stroke-linecap="round" stroke-linejoin="round"/>
<path d="M211.219 113.639V122.409" stroke="#3D5589" stroke-width="0.5" stroke-linecap="round" stroke-linejoin="round"/>
<path d="M213.895 118.024H208.539" stroke="#3D5589" stroke-width="0.5" stroke-linecap="round" stroke-linejoin="round"/>
<path d="M176.953 113.572H171.352V122.825H176.953V113.572Z" stroke="#3D5589" stroke-linecap="round" stroke-linejoin="round"/>
<path d="M174.148 113.817V122.583" stroke="#3D5589" stroke-width="0.5" stroke-linecap="round" stroke-linejoin="round"/>
<path d="M176.836 118.199H171.477" stroke="#3D5589" stroke-width="0.5" stroke-linecap="round" stroke-linejoin="round"/>
<path d="M164.976 113.572H159.375V122.825H164.976V113.572Z" stroke="#3D5589" stroke-linecap="round" stroke-linejoin="round"/>
<path d="M162.18 113.817V122.583" stroke="#3D5589" stroke-width="0.5" stroke-linecap="round" stroke-linejoin="round"/>
<path d="M164.859 118.199H159.5" stroke="#3D5589" stroke-width="0.5" stroke-linecap="round" stroke-linejoin="round"/>
<path d="M140.098 133.359H136.926L133.227 129.656H136.398L140.098 133.359Z" fill="#6E6E6E"/>
<path d="M149.879 133.359H146.707L143.008 129.656H146.18L149.879 133.359Z" fill="#6E6E6E"/>
<path d="M123.446 143.402H122.297V147.105H123.446V143.402Z" fill="#B5B5B5" stroke="#3D5589" stroke-width="0.5" stroke-linecap="round" stroke-linejoin="round"/>
<path d="M124.719 143.402H123.57V147.105H124.719V143.402Z" fill="#B5B5B5" stroke="#3D5589" stroke-width="0.5" stroke-linecap="round" stroke-linejoin="round"/>
<path d="M125.996 143.402H124.844V147.105H125.996V143.402Z" fill="#B5B5B5" stroke="#3D5589" stroke-width="0.5" stroke-linecap="round" stroke-linejoin="round"/>
<path d="M127.277 143.402H126.125V147.105H127.277V143.402Z" fill="#B5B5B5" stroke="#3D5589" stroke-width="0.5" stroke-linecap="round" stroke-linejoin="round"/>
<path d="M128.555 143.402H127.406V147.105H128.555V143.402Z" fill="#B5B5B5" stroke="#3D5589" stroke-width="0.5" stroke-linecap="round" stroke-linejoin="round"/>
<path d="M162.043 137.203H133.617V139.068H162.043V137.203Z" fill="white" stroke="#3D5589" stroke-width="0.5" stroke-linecap="round" stroke-linejoin="round"/>
<path d="M162.043 137.203H151.375V139.068H162.043V137.203Z" fill="#BABABA" stroke="#3D5589" stroke-width="0.5" stroke-linecap="round" stroke-linejoin="round"/>
<path d="M133.62 137.203L123.432 126.814L113.547 137.536H114.928L123.469 128.43L133.62 139.068V137.203Z" fill="#BABABA" stroke="#3D5589" stroke-width="0.5" stroke-linecap="round" stroke-linejoin="round"/>
<path d="M184.7 158.636H172.523V159.796H184.7V158.636Z" fill="white" stroke="#3D5589" stroke-width="0.5" stroke-linecap="round" stroke-linejoin="round"/>
<path d="M193.708 112.05H151.57V113.216H193.708V112.05Z" fill="#BABABA" stroke="#3D5589" stroke-width="0.5" stroke-linecap="round" stroke-linejoin="round"/>
</svg>
