<svg width="346" height="181" viewBox="0 0 346 181" fill="none" xmlns="http://www.w3.org/2000/svg">
<path d="M0 8C0 3.58173 3.58172 0 8 0H338C342.418 0 346 3.58172 346 8V129H0V8Z" fill="#E0E5EE"/>
<mask id="mask0_2459_24040" style="mask-type:alpha" maskUnits="userSpaceOnUse" x="0" y="0" width="346" height="129">
<rect x="0.25" width="345" height="129" rx="8" fill="white"/>
</mask>
<g mask="url(#mask0_2459_24040)">
<path opacity="0.8" d="M157.392 70.0001C158.066 68.6602 158.386 67.1701 158.322 65.6715C158.257 64.173 157.81 62.716 157.023 61.439C156.236 60.1621 155.136 59.1077 153.826 58.3762C152.517 57.6448 151.042 57.2605 149.542 57.2601C148.41 57.2582 147.289 57.4791 146.242 57.9101C145.371 55.4225 143.748 53.2672 141.599 51.7425C139.449 50.2178 136.878 49.3993 134.242 49.4001H134.002C133.019 45.1195 130.704 41.2611 127.389 38.3796C124.074 35.4982 119.931 33.7422 115.555 33.3644C111.179 32.9865 106.797 34.0061 103.037 36.2766C99.2774 38.5471 96.3347 41.9515 94.6322 46.0001C92.5571 46.6445 90.6497 47.7386 89.0457 49.2043C87.4417 50.67 86.1806 52.4714 85.3522 54.4801C83.9684 54.0939 82.5192 54.0006 81.0973 54.2061C79.6754 54.4117 78.312 54.9115 77.0943 55.6738C75.8765 56.4361 74.8311 57.444 74.0249 58.6332C73.2187 59.8224 72.6695 61.1666 72.4122 62.5801C71.4488 62.202 70.4075 62.065 69.3791 62.1813C68.3506 62.2975 67.3662 62.6634 66.5114 63.247C65.6567 63.8306 64.9576 64.6143 64.4749 65.5299C63.9923 66.4455 63.7407 67.4651 63.7422 68.5001C63.7443 69.0126 63.8081 69.5229 63.9322 70.0201L157.392 70.0001Z" fill="#DADFE9"/>
<path opacity="0.8" d="M313.95 94C313.95 93.7045 314 93.3946 314 93.0919C314 90.9014 313.143 88.8006 311.616 87.2516C310.09 85.7027 308.02 84.8325 305.862 84.8325C304.851 84.8314 303.848 85.0246 302.908 85.4019C302.24 82.1371 300.38 79.2498 297.7 77.3204C295.021 75.3911 291.721 74.5628 288.464 75.002C287.497 70.5702 285.184 66.558 281.852 63.5303C278.519 60.5027 274.335 58.6123 269.888 58.1253C265.442 57.6382 260.957 58.5791 257.064 60.8155C253.172 63.0518 250.07 66.4709 248.193 70.5913C246.25 70.6531 244.338 71.0961 242.562 71.8958C240.163 69.9597 237.274 68.7507 234.228 68.4079C231.182 68.065 228.103 68.6024 225.345 69.9581C222.586 71.3137 220.261 73.4325 218.638 76.0705C217.014 78.7084 216.157 81.7582 216.166 84.8686C214.015 84.8628 211.948 85.7213 210.418 87.2566C208.888 88.792 208.019 90.8794 208 93.0631C208.001 93.3667 208.02 93.6699 208.057 93.9712L313.95 94Z" fill="#DADFE9"/>
<circle opacity="0.7" cx="-7.5" cy="98" r="15.5" transform="rotate(180 -7.5 98)" fill="#D7DCE6"/>
<circle opacity="0.7" cx="14.5" cy="67.5" r="4.5" transform="rotate(180 14.5 67.5)" fill="#D7DCE6"/>
</g>
<path d="M234.184 82.6717H227.867V76.7183H234.184V70.2953H240.039V76.7183H246.355V82.6717H240.039V89.0946H234.184V82.6717ZM239.207 81.8229H245.524V77.564H239.207V71.1411H235.019V77.564H228.702V81.8229H235.019V88.2458H239.207V81.8229Z" fill="#EBEBEB"/>
<path d="M116.774 71.7043H113.781V68.8841H116.774V65.8412H119.547V68.8841H122.54V71.7043H119.547V74.7472H116.774V71.7043ZM119.154 71.304H122.146V69.2844H119.154V66.2415H117.167V69.2844H114.175V71.304H117.167V74.3469H119.154V71.304Z" fill="#EBEBEB"/>
<path d="M233.61 101.633V105.673H229.324V110.031H225.349V105.673H221.062V101.633H225.349V97.2722H229.324V101.633H233.61Z" fill="#EBEBEB"/>
<path d="M120.875 46.3224V51.8454H126.736V57.8048H132.164V51.8454H138.025V46.3224H132.164V40.366H126.736V46.3224H120.875Z" fill="#EBEBEB"/>
<path d="M209.854 55.7137H124.352V171.194H209.854V55.7137Z" fill="#A2C1FF"/>
<g opacity="0.4">
<path d="M209.854 55.7139H124.352V171.194H209.854V55.7139Z" fill="black"/>
</g>
<path d="M212.182 55.7136H126.68V171.194H212.182V55.7136Z" fill="#A2C1FF"/>
<g opacity="0.2">
<path d="M212.182 55.7137H126.68V171.194H212.182V55.7137Z" fill="black"/>
</g>
<path d="M206.521 60.3242L131.047 61.302L132.35 165.334L207.824 164.356L206.521 60.3242Z" fill="#EBEBEB"/>
<path d="M131.652 59.9988L129.438 164.014L204.9 165.675L207.114 61.6597L131.652 59.9988Z" fill="#DBDBDB"/>
<path d="M206.003 60.8082H130.523V164.848H206.003V60.8082Z" fill="white"/>
<path d="M145.557 130.431H139.148V136.947H145.557V130.431Z" fill="#EBEBEB"/>
<path d="M169.788 130.43H149.023V131.385H169.788V130.43Z" fill="#C7C7C7"/>
<path d="M197.399 132.284H149.023V133.239H197.399V132.284Z" fill="#EBEBEB"/>
<path d="M197.399 134.139H149.023V135.093H197.399V134.139Z" fill="#EBEBEB"/>
<path d="M197.399 135.993H149.023V136.947H197.399V135.993Z" fill="#EBEBEB"/>
<path d="M139.617 133.353C139.854 133.555 140.079 133.762 140.301 133.973C140.526 134.184 140.739 134.403 140.958 134.617C141.39 135.05 141.805 135.499 142.216 135.95L141.482 135.999C142.062 134.762 142.737 133.579 143.477 132.438C143.85 131.869 144.241 131.312 144.661 130.774C145.084 130.235 145.525 129.711 146.029 129.22C145.836 129.901 145.585 130.545 145.315 131.174C145.043 131.803 144.741 132.417 144.418 133.016C143.77 134.214 143.057 135.369 142.249 136.468L141.846 137.016L141.512 136.516C141.171 136.008 140.84 135.493 140.523 134.969C140.369 134.704 140.206 134.442 140.055 134.172C139.904 133.904 139.753 133.633 139.617 133.353Z" fill="#6C9AF5"/>
<path d="M145.557 141.214H139.148V147.73H145.557V141.214Z" fill="#EBEBEB"/>
<path d="M169.788 141.214H149.023V142.168H169.788V141.214Z" fill="#C7C7C7"/>
<path d="M197.399 143.068H149.023V144.022H197.399V143.068Z" fill="#EBEBEB"/>
<path d="M197.399 144.922H149.023V145.876H197.399V144.922Z" fill="#EBEBEB"/>
<path d="M197.399 146.776H149.023V147.73H197.399V146.776Z" fill="#EBEBEB"/>
<path d="M176.8 86.9365H159.227V87.8906H176.8V86.9365Z" fill="#C7C7C7"/>
<path d="M197.387 88.7905H159.227V89.7446H197.387V88.7905Z" fill="#EBEBEB"/>
<path d="M197.387 90.6446H159.227V91.5987H197.387V90.6446Z" fill="#EBEBEB"/>
<path d="M197.387 94.3522H159.227V95.3063H197.387V94.3522Z" fill="#EBEBEB"/>
<path d="M175.82 96.2068H159.227V97.161H175.82V96.2068Z" fill="#EBEBEB"/>
<path d="M206.003 71.2854H130.523V80.357H206.003V71.2854Z" fill="#6C9AF5"/>
<path d="M144.344 73.4189C144.344 73.157 144.542 72.9554 144.8 72.9554C145.057 72.9554 145.264 73.157 145.264 73.4189V78.3881C145.264 78.6499 145.048 78.8516 144.8 78.8516C144.551 78.8516 144.344 78.6499 144.344 78.3881V73.4189Z" fill="white"/>
<path d="M147.716 78.3884C147.716 78.6412 147.509 78.8519 147.269 78.8519C147.012 78.8519 146.813 78.6412 146.813 78.3884V73.4854C146.804 73.341 146.872 73.1905 146.997 73.0972C147.204 72.9527 147.485 72.9948 147.627 73.1995L150.303 76.9648V73.4945C150.303 73.2507 150.501 73.04 150.75 73.04C150.999 73.04 151.206 73.2507 151.206 73.4945V78.3884C151.206 78.6412 150.999 78.8519 150.75 78.8519C150.617 78.8519 150.493 78.7857 150.41 78.6834C150.392 78.6653 150.377 78.6503 150.368 78.6322L147.716 74.891V78.3884Z" fill="white"/>
<path d="M153.014 77.3859C153.162 77.1993 153.437 77.1752 153.618 77.3257C153.982 77.6297 154.612 77.9819 155.201 77.9759C155.616 77.9759 155.988 77.8494 156.237 77.6628C156.486 77.4762 156.592 77.2655 156.592 77.0549C156.592 76.9465 156.569 76.8682 156.518 76.784C156.468 76.6997 156.394 76.6154 156.27 76.5312C156.03 76.3716 155.624 76.2272 155.136 76.1339H155.118C154.728 76.0586 154.363 75.9563 154.05 75.8058C153.736 75.6553 153.461 75.4446 153.28 75.1496C153.156 74.948 153.091 74.7102 153.091 74.4604C153.091 73.9548 153.372 73.5153 153.754 73.2294C154.144 72.9435 154.648 72.7839 155.186 72.7839C155.983 72.7839 156.569 73.1812 156.992 73.4581C157.181 73.5936 157.241 73.8615 157.107 74.0571C156.983 74.2587 156.717 74.3189 156.518 74.1835C156.095 73.8976 155.69 73.6447 155.183 73.6447C154.81 73.6447 154.479 73.7621 154.254 73.9307C154.029 74.0992 153.94 74.2858 153.94 74.4604C153.94 74.5627 153.958 74.6289 153.999 74.6952C154.041 74.7614 154.115 74.8396 154.224 74.9149C154.44 75.0654 154.813 75.2008 155.26 75.2851H155.278C155.701 75.3694 156.089 75.4777 156.421 75.6402C156.761 75.8088 157.06 76.0285 157.249 76.3385C157.374 76.5402 157.448 76.793 157.448 77.0549C157.448 77.5936 157.149 78.0571 156.734 78.3611C156.329 78.6651 155.79 78.8427 155.201 78.8427C154.307 78.8337 153.552 78.3792 153.079 77.9999C152.895 77.8494 152.872 77.5695 153.014 77.3859Z" fill="white"/>
<path d="M161.129 78.8516C159.794 78.8516 158.734 77.756 158.734 76.4167V73.4189C158.734 73.157 158.933 72.9554 159.19 72.9554C159.448 72.9554 159.655 73.157 159.655 73.4189V76.4167C159.655 77.2413 160.318 77.9155 161.129 77.9155C161.94 77.9155 162.603 77.2413 162.603 76.4167V73.4189C162.603 73.157 162.81 72.9554 163.068 72.9554C163.325 72.9554 163.524 73.157 163.524 73.4189V76.4167C163.524 77.756 162.455 78.8516 161.129 78.8516Z" fill="white"/>
<path d="M169.098 78.1533C169.181 78.3971 169.048 78.659 168.808 78.7432C168.776 78.7523 168.707 78.7673 168.625 78.7673H168.616C168.533 78.7673 168.408 78.7493 168.293 78.674C168.186 78.6078 168.095 78.4964 168.027 78.3791C167.911 78.1353 167.852 77.8313 167.852 77.3678C167.843 77.2082 167.811 77.0969 167.751 77.0066C167.701 76.9133 167.603 76.829 167.503 76.7628C167.328 76.6454 167.112 76.5762 167.038 76.5611H166.061V78.3881C166.061 78.6409 165.854 78.8516 165.596 78.8516C165.339 78.8516 165.141 78.6409 165.141 78.3881V73.4189C165.141 73.157 165.339 72.9554 165.596 72.9554H167.079C168.065 72.9554 168.852 73.765 168.852 74.7673C168.852 75.3241 168.604 75.8117 168.207 76.1488C168.314 76.2331 168.414 76.3354 168.497 76.4618C168.663 76.7056 168.77 77.0186 168.77 77.3708C168.761 77.6236 168.787 77.7831 168.802 77.8674C168.935 77.9095 169.042 78.0119 169.092 78.1533H169.098ZM167.938 74.7673C167.938 74.2797 167.556 73.8914 167.085 73.8914H166.067V75.6281H167.085C167.559 75.6281 167.938 75.2398 167.938 74.7673Z" fill="white"/>
<path d="M173.4 77.4641H171.387L170.982 78.5596C170.908 78.7463 170.733 78.8546 170.55 78.8546C170.49 78.8546 170.443 78.8456 170.393 78.8305C170.153 78.7372 170.038 78.4694 170.12 78.2225L171.95 73.2594C172.024 73.0728 172.207 72.9554 172.388 72.9644C172.577 72.9554 172.752 73.0728 172.826 73.2594L174.655 78.2225C174.738 78.4663 174.623 78.7372 174.383 78.8305C174.341 78.8486 174.282 78.8546 174.226 78.8546C174.042 78.8546 173.871 78.7463 173.803 78.5596L173.397 77.4641H173.4ZM173.06 76.5371L172.388 74.7252L171.716 76.5371H173.057H173.06Z" fill="white"/>
<path d="M176.7 78.3884C176.7 78.6412 176.493 78.8519 176.253 78.8519C175.996 78.8519 175.798 78.6412 175.798 78.3884V73.4854C175.789 73.341 175.857 73.1905 175.981 73.0972C176.188 72.9527 176.47 72.9948 176.612 73.1995L179.287 76.9648V73.4945C179.287 73.2507 179.486 73.04 179.734 73.04C179.983 73.04 180.19 73.2507 180.19 73.4945V78.3884C180.19 78.6412 179.983 78.8519 179.734 78.8519C179.601 78.8519 179.477 78.7857 179.394 78.6834C179.376 78.6653 179.361 78.6503 179.353 78.6322L176.7 74.891V78.3884Z" fill="white"/>
<path d="M181.922 75.8204C181.931 74.153 183.304 72.7956 184.962 72.7866C185.69 72.7866 186.353 73.0304 186.877 73.4427C187.075 73.6112 187.108 73.9062 186.96 74.1169C186.794 74.3276 186.486 74.3607 186.297 74.2102C185.933 73.9062 185.477 73.7467 184.962 73.7467C184.391 73.7467 183.861 73.9815 183.47 74.3547C183.097 74.7429 182.866 75.2486 182.866 75.8204C182.866 76.3923 183.097 76.916 183.47 77.2862C183.861 77.6564 184.391 77.8942 184.962 77.8942C185.477 77.8942 185.924 77.7347 186.297 77.4307C186.486 77.2862 186.794 77.3223 186.96 77.524C187.108 77.7347 187.075 78.0387 186.877 78.1982C186.356 78.6105 185.693 78.8543 184.962 78.8543C183.304 78.8543 181.931 77.4969 181.922 75.8204Z" fill="white"/>
<path d="M188.565 78.3881V73.4189C188.565 73.157 188.764 72.9554 189.021 72.9554H191.73C191.969 72.9554 192.186 73.157 192.186 73.4189C192.186 73.6807 191.969 73.8914 191.73 73.8914H189.483V75.4325H191.413C191.662 75.4325 191.869 75.6522 191.869 75.896C191.869 76.1578 191.662 76.3685 191.413 76.3685H189.483V77.9186H191.73C191.969 77.9186 192.186 78.1292 192.186 78.3911C192.186 78.6529 191.969 78.8546 191.73 78.8546H189.045C189.027 78.8546 189.027 78.8456 189.027 78.8456L189.018 78.8546C188.761 78.8546 188.562 78.6439 188.562 78.3911L188.565 78.3881Z" fill="white"/>
<path d="M197.556 124.487H138.992V110.097H197.556V124.487ZM139.312 124.12H197.236V110.464H139.312V124.12Z" fill="#EBEBEB"/>
<path d="M197.392 118.576H139.148V118.943H197.392V118.576Z" fill="#EBEBEB"/>
<path d="M197.392 113.046H139.148V113.414H197.392V113.046Z" fill="#EBEBEB"/>
<path d="M158.32 110.281H158V124.303H158.32V110.281Z" fill="#EBEBEB"/>
<path d="M178.538 110.281H178.219V124.303H178.538V110.281Z" fill="#EBEBEB"/>
<path d="M142.477 111.782C143.507 111.707 144.537 111.671 145.567 111.641C146.597 111.608 147.627 111.602 148.657 111.599C149.687 111.602 150.717 111.608 151.747 111.641L153.292 111.692C153.807 111.722 154.322 111.74 154.838 111.782C154.322 111.824 153.807 111.842 153.292 111.872L151.747 111.924C150.717 111.957 149.687 111.963 148.657 111.966C147.627 111.96 146.597 111.957 145.567 111.924C144.537 111.893 143.507 111.857 142.477 111.782Z" fill="#C7C7C7"/>
<path d="M162.094 111.782C163.124 111.707 164.154 111.671 165.184 111.641C166.214 111.608 167.244 111.602 168.274 111.599C169.304 111.602 170.334 111.608 171.364 111.641L172.91 111.692C173.425 111.722 173.94 111.74 174.455 111.782C173.94 111.824 173.425 111.842 172.91 111.872L171.364 111.924C170.334 111.957 169.304 111.963 168.274 111.966C167.244 111.96 166.214 111.957 165.184 111.924C164.154 111.893 163.124 111.857 162.094 111.782Z" fill="#C7C7C7"/>
<path d="M181.82 111.782C182.85 111.707 183.88 111.671 184.911 111.641C185.941 111.608 186.971 111.602 188.001 111.599C189.031 111.602 190.061 111.608 191.091 111.641L192.636 111.692C193.151 111.722 193.666 111.74 194.181 111.782C193.666 111.824 193.151 111.842 192.636 111.872L191.091 111.924C190.061 111.957 189.031 111.963 188.001 111.966C186.971 111.96 185.941 111.957 184.911 111.924C183.88 111.893 182.85 111.857 181.82 111.782Z" fill="#C7C7C7"/>
<path d="M142.477 115.319C143.507 115.244 144.537 115.207 145.567 115.177C146.597 115.144 147.627 115.138 148.657 115.135C149.687 115.138 150.717 115.144 151.747 115.177L153.292 115.229C153.807 115.259 154.322 115.277 154.838 115.319C154.322 115.361 153.807 115.379 153.292 115.409L151.747 115.46C150.717 115.493 149.687 115.499 148.657 115.502C147.627 115.496 146.597 115.493 145.567 115.46C144.537 115.43 143.507 115.394 142.477 115.319Z" fill="#EBEBEB"/>
<path d="M162.094 115.319C163.124 115.244 164.154 115.207 165.184 115.177C166.214 115.144 167.244 115.138 168.274 115.135C169.304 115.138 170.334 115.144 171.364 115.177L172.91 115.229C173.425 115.259 173.94 115.277 174.455 115.319C173.94 115.361 173.425 115.379 172.91 115.409L171.364 115.46C170.334 115.493 169.304 115.499 168.274 115.502C167.244 115.496 166.214 115.493 165.184 115.46C164.154 115.43 163.124 115.394 162.094 115.319Z" fill="#EBEBEB"/>
<path d="M181.82 115.319C182.85 115.244 183.88 115.207 184.911 115.177C185.941 115.144 186.971 115.138 188.001 115.135C189.031 115.138 190.061 115.144 191.091 115.177L192.636 115.229C193.151 115.259 193.666 115.277 194.181 115.319C193.666 115.361 193.151 115.379 192.636 115.409L191.091 115.46C190.061 115.493 189.031 115.499 188.001 115.502C186.971 115.496 185.941 115.493 184.911 115.46C183.88 115.43 182.85 115.394 181.82 115.319Z" fill="#EBEBEB"/>
<path d="M142.477 116.743C143.507 116.667 144.537 116.631 145.567 116.601C146.597 116.568 147.627 116.562 148.657 116.559C149.687 116.562 150.717 116.568 151.747 116.601L153.292 116.652C153.807 116.682 154.322 116.7 154.838 116.743C154.322 116.785 153.807 116.803 153.292 116.833L151.747 116.884C150.717 116.917 149.687 116.923 148.657 116.926C147.627 116.92 146.597 116.917 145.567 116.884C144.537 116.854 143.507 116.818 142.477 116.743Z" fill="#EBEBEB"/>
<path d="M162.094 116.743C163.124 116.667 164.154 116.631 165.184 116.601C166.214 116.568 167.244 116.562 168.274 116.559C169.304 116.562 170.334 116.568 171.364 116.601L172.91 116.652C173.425 116.682 173.94 116.7 174.455 116.743C173.94 116.785 173.425 116.803 172.91 116.833L171.364 116.884C170.334 116.917 169.304 116.923 168.274 116.926C167.244 116.92 166.214 116.917 165.184 116.884C164.154 116.854 163.124 116.818 162.094 116.743Z" fill="#EBEBEB"/>
<path d="M181.82 116.743C182.85 116.667 183.88 116.631 184.911 116.601C185.941 116.568 186.971 116.562 188.001 116.559C189.031 116.562 190.061 116.568 191.091 116.601L192.636 116.652C193.151 116.682 193.666 116.7 194.181 116.743C193.666 116.785 193.151 116.803 192.636 116.833L191.091 116.884C190.061 116.917 189.031 116.923 188.001 116.926C186.971 116.92 185.941 116.917 184.911 116.884C183.88 116.854 182.85 116.818 181.82 116.743Z" fill="#EBEBEB"/>
<path d="M142.477 120.541C143.507 120.466 144.537 120.43 145.567 120.4C146.597 120.367 147.627 120.361 148.657 120.358C149.687 120.361 150.717 120.367 151.747 120.4L153.292 120.451C153.807 120.481 154.322 120.499 154.838 120.541C154.322 120.583 153.807 120.602 153.292 120.632L151.747 120.683C150.717 120.716 149.687 120.722 148.657 120.725C147.627 120.719 146.597 120.716 145.567 120.683C144.537 120.653 143.507 120.617 142.477 120.541Z" fill="#EBEBEB"/>
<path d="M162.094 120.541C163.124 120.466 164.154 120.43 165.184 120.4C166.214 120.367 167.244 120.361 168.274 120.358C169.304 120.361 170.334 120.367 171.364 120.4L172.91 120.451C173.425 120.481 173.94 120.499 174.455 120.541C173.94 120.583 173.425 120.602 172.91 120.632L171.364 120.683C170.334 120.716 169.304 120.722 168.274 120.725C167.244 120.719 166.214 120.716 165.184 120.683C164.154 120.653 163.124 120.617 162.094 120.541Z" fill="#EBEBEB"/>
<path d="M181.82 120.541C182.85 120.466 183.88 120.43 184.911 120.4C185.941 120.367 186.971 120.361 188.001 120.358C189.031 120.361 190.061 120.367 191.091 120.4L192.636 120.451C193.151 120.481 193.666 120.499 194.181 120.541C193.666 120.583 193.151 120.602 192.636 120.632L191.091 120.683C190.061 120.716 189.031 120.722 188.001 120.725C186.971 120.719 185.941 120.716 184.911 120.683C183.88 120.653 182.85 120.617 181.82 120.541Z" fill="#EBEBEB"/>
<path d="M142.477 121.961C143.507 121.886 144.537 121.85 145.567 121.82C146.597 121.787 147.627 121.781 148.657 121.778C149.687 121.781 150.717 121.787 151.747 121.82L153.292 121.871C153.807 121.901 154.322 121.919 154.838 121.961C154.322 122.004 153.807 122.022 153.292 122.052L151.747 122.103C150.717 122.136 149.687 122.142 148.657 122.145C147.627 122.139 146.597 122.136 145.567 122.103C144.537 122.073 143.507 122.037 142.477 121.961Z" fill="#EBEBEB"/>
<path d="M162.094 121.961C163.124 121.886 164.154 121.85 165.184 121.82C166.214 121.787 167.244 121.781 168.274 121.778C169.304 121.781 170.334 121.787 171.364 121.82L172.91 121.871C173.425 121.901 173.94 121.919 174.455 121.961C173.94 122.004 173.425 122.022 172.91 122.052L171.364 122.103C170.334 122.136 169.304 122.142 168.274 122.145C167.244 122.139 166.214 122.136 165.184 122.103C164.154 122.073 163.124 122.037 162.094 121.961Z" fill="#EBEBEB"/>
<path d="M181.82 121.961C182.85 121.886 183.88 121.85 184.911 121.82C185.941 121.787 186.971 121.781 188.001 121.778C189.031 121.781 190.061 121.787 191.091 121.82L192.636 121.871C193.151 121.901 193.666 121.919 194.181 121.961C193.666 122.004 193.151 122.022 192.636 122.052L191.091 122.103C190.061 122.136 189.031 122.142 188.001 122.145C186.971 122.139 185.941 122.136 184.911 122.103C183.88 122.073 182.85 122.037 181.82 121.961Z" fill="#EBEBEB"/>
<path d="M193.381 63.3072H143.18C143.18 57.9497 147.451 53.6066 152.72 53.6066H183.841C189.11 53.6066 193.381 57.9497 193.381 63.3072Z" fill="#C7C7C7"/>
<path d="M179.615 47.3218H156.607L155.586 53.6063H180.974L179.615 47.3218ZM168.278 51.8425C167.53 51.8425 166.923 51.2285 166.923 50.464C166.923 49.7025 167.533 49.0855 168.278 49.0855C169.024 49.0855 169.634 49.7055 169.634 50.464C169.634 51.2225 169.03 51.8425 168.278 51.8425Z" fill="#C7C7C7"/>
<path d="M180.974 53.6064H155.586L155.814 52.2009H180.669L180.974 53.6064Z" fill="#A6A6A6"/>
<path d="M153.412 89.7331C153.412 89.7331 152.091 100.478 149.922 102.895C147.317 105.796 145.428 105.372 144.378 106.865C143.327 105.366 141.435 105.793 138.831 102.892C136.661 100.475 135.344 89.7301 135.344 89.7301C141.06 86.9099 144.378 83.7466 144.378 83.7466C144.478 83.8459 147.785 86.952 153.412 89.7301V89.7331Z" fill="#6C9AF5"/>
<path opacity="0.1" d="M144.378 83.7526V106.865C143.327 105.366 141.435 105.793 138.831 102.892C136.661 100.475 135.344 89.7301 135.344 89.7301C141.06 86.9099 144.378 83.7466 144.378 83.7466V83.7526Z" fill="black"/>
<path d="M136.745 90.5972C136.745 90.5972 137.861 99.6718 139.69 101.715C141.893 104.168 143.488 103.807 144.376 105.071C145.264 103.807 146.862 104.168 149.062 101.715C150.894 99.6718 152.007 90.5972 152.007 90.5972C147.179 88.2135 144.376 85.5438 144.376 85.5438C144.376 85.5438 141.57 88.2135 136.742 90.5972H136.745Z" fill="#6C9AF5"/>
<path opacity="0.2" d="M152.009 90.5972C152.009 90.5972 150.893 99.6718 149.061 101.715C146.861 104.165 145.266 103.81 144.375 105.068V85.5438C144.461 85.625 147.252 88.2496 152.006 90.5972H152.009Z" fill="white"/>
<path d="M143.713 98.9548L141.164 96.258L142.108 95.334L143.514 96.8208L146.542 92.0954L147.641 92.8238L143.713 98.9548Z" fill="white"/>
<path d="M208.747 91.6668H210.008V41.5625H208.747V91.6668Z" fill="#DBDBDB"/>
<path d="M208.469 38.8929H210.301L209.934 33.8996H208.839L208.469 38.8929Z" fill="#DBDBDB"/>
<path d="M213.625 98.7607C210.239 98.7607 208.469 96.082 208.469 93.4394V87.6274H210.31V93.4394C210.31 94.7216 211.008 96.8916 213.628 96.8916C215.946 96.8916 216.698 94.544 216.698 93.4093V90.2038H218.539V93.4093C218.539 94.2851 218.255 95.6245 217.455 96.7592C216.535 98.0685 215.212 98.7637 213.631 98.7637L213.625 98.7607Z" fill="#263238"/>
<path d="M170.906 62.6279C170.906 62.6279 176.717 59.9612 180.319 60.0576C183.915 60.1629 190.463 62.6279 190.463 62.6279C190.463 62.6279 196.413 60.2622 200.098 60.1659C203.783 60.0606 209.371 62.6279 209.371 62.6279C209.371 62.6279 214.96 60.0576 218.645 60.1659C222.33 60.2622 228.271 62.6279 228.271 62.6279C228.271 62.6279 234.819 60.1659 238.424 60.0576C242.026 59.9582 247.837 62.6279 247.837 62.6279C241.857 50.5014 227.703 38.2846 209.371 38.2846C191.04 38.2846 176.88 50.5014 170.906 62.6279Z" fill="#6C9AF5"/>
<path opacity="0.4" d="M170.906 62.6279C170.906 62.6279 176.717 59.9612 180.319 60.0576C183.915 60.1629 190.463 62.6279 190.463 62.6279C190.463 62.6279 196.413 60.2622 200.098 60.1659C203.783 60.0606 209.371 62.6279 209.371 62.6279C209.371 62.6279 214.96 60.0576 218.645 60.1659C222.33 60.2622 228.271 62.6279 228.271 62.6279C228.271 62.6279 234.819 60.1659 238.424 60.0576C242.026 59.9582 247.837 62.6279 247.837 62.6279C241.857 50.5014 227.703 38.2846 209.371 38.2846C191.04 38.2846 176.88 50.5014 170.906 62.6279Z" fill="white"/>
<g opacity="0.1">
<path d="M170.906 62.6275C172.167 61.1166 173.452 59.6238 174.772 58.167C176.083 56.7012 177.418 55.2595 178.795 53.86C181.544 51.0639 184.383 48.334 187.538 46.0435C189.107 44.8907 190.756 43.8433 192.55 43.127C194.344 42.3685 196.185 41.7335 198.035 41.1164C199.885 40.5115 201.761 39.9757 203.653 39.5092C205.541 39.0276 207.447 38.6153 209.371 38.2872C205.494 38.7387 201.667 39.6085 197.916 40.7282C196.04 41.285 194.19 41.9441 192.375 42.6815C190.531 43.4039 188.832 44.4603 187.24 45.6161C185.65 46.7869 184.149 48.0691 182.702 49.4085C181.257 50.7478 179.851 52.1323 178.513 53.5801C175.823 56.4574 173.271 59.4703 170.909 62.6275H170.906Z" fill="black"/>
<path d="M190.472 62.6279C190.818 61.3277 191.203 60.0395 191.644 58.7724C192.07 57.4992 192.538 56.2441 193.059 55.0131C194.113 52.5661 195.285 50.1222 196.907 48.0514C198.547 45.9777 200.604 44.2621 202.714 42.6639C203.774 41.8633 204.866 41.1078 205.979 40.3824C207.086 39.645 208.22 38.9528 209.371 38.2846C206.971 39.4313 204.674 40.8008 202.483 42.3358C200.302 43.8798 198.227 45.6165 196.504 47.7204C196.084 48.2501 195.684 48.8129 195.35 49.3998C194.992 49.9747 194.669 50.5676 194.352 51.1666C193.74 52.3705 193.168 53.5955 192.689 54.8596C191.73 57.3818 190.954 59.9763 190.469 62.6279H190.472Z" fill="black"/>
<path d="M209.367 62.6279C209.473 60.5993 209.524 58.5707 209.565 56.5421C209.607 54.5135 209.604 52.4849 209.624 50.4563C209.604 48.4277 209.607 46.399 209.565 44.3704L209.494 41.3275C209.45 40.3132 209.426 39.2989 209.367 38.2846C209.308 39.2989 209.284 40.3132 209.24 41.3275L209.169 44.3704C209.127 46.399 209.13 48.4277 209.109 50.4563C209.13 52.4849 209.127 54.5135 209.169 56.5421C209.21 58.5707 209.26 60.5993 209.367 62.6279Z" fill="black"/>
<path d="M247.837 62.6275C245.475 59.4703 242.924 56.4574 240.233 53.5801C238.895 52.1323 237.489 50.7508 236.045 49.4085C234.597 48.0691 233.096 46.7869 231.507 45.6161C229.914 44.4573 228.215 43.4009 226.371 42.6815C224.554 41.9411 222.707 41.285 220.83 40.7282C217.08 39.6085 213.253 38.7387 209.375 38.2872C211.299 38.6153 213.205 39.0246 215.094 39.5092C216.985 39.9757 218.862 40.5115 220.712 41.1164C222.559 41.7335 224.4 42.3685 226.197 43.127C227.993 43.8433 229.639 44.8907 231.208 46.0435C234.363 48.334 237.202 51.0669 239.952 53.86C241.328 55.2595 242.663 56.7012 243.974 58.167C245.295 59.6238 246.579 61.1166 247.84 62.6275H247.837Z" fill="black"/>
<path d="M228.27 62.6279C227.784 59.9763 227.009 57.3818 226.05 54.8596C225.57 53.5955 224.999 52.3705 224.386 51.1666C224.07 50.5706 223.747 49.9747 223.389 49.3998C223.051 48.8129 222.652 48.2531 222.234 47.7204C220.515 45.6165 218.437 43.8798 216.255 42.3358C214.065 40.8008 211.768 39.4313 209.367 38.2846C210.519 38.9528 211.652 39.645 212.759 40.3824C213.872 41.1078 214.968 41.8603 216.024 42.6639C218.135 44.2621 220.192 45.9777 221.832 48.0514C223.454 50.1222 224.626 52.5661 225.68 55.0131C226.201 56.2441 226.668 57.5022 227.095 58.7724C227.536 60.0395 227.92 61.3277 228.267 62.6279H228.27Z" fill="black"/>
</g>
<path opacity="0.1" d="M247.826 62.6248C247.651 62.5465 241.962 59.9641 238.416 60.0604C234.811 60.1657 228.263 62.6278 228.263 62.6278C228.263 62.6278 222.32 60.2651 218.638 60.1657C214.952 60.0574 209.364 62.6278 209.364 62.6278C209.364 62.6278 203.775 60.0574 200.09 60.1657C196.636 60.256 191.189 62.3418 190.523 62.6007C191.142 62.2997 196.58 59.7082 199.913 59.3832C203.456 59.0401 209.364 61.4449 209.364 61.4449C209.364 61.4449 214.63 58.8414 218.815 58.5495C222.998 58.2545 227.506 60.7587 227.834 60.5841C228.16 60.4125 232.949 56.7556 236.078 56.5871C243.309 56.1928 233.269 44.8579 224.205 41.0836C235.237 45.3816 243.587 54.0227 247.826 62.6187V62.6248Z" fill="black"/>
<g opacity="0.2">
<path d="M189.289 46.2008C191.361 45.5446 193.771 45.8185 195.618 46.9863C193.54 46.6282 191.391 46.3723 189.289 46.2008Z" fill="white"/>
<path d="M229.453 46.2008C227.349 46.3753 225.203 46.6282 223.125 46.9863C224.975 45.8185 227.381 45.5446 229.453 46.2008Z" fill="white"/>
<path d="M199.273 47.6248C202.053 46.4931 205.327 46.4841 208.103 47.6248C205.149 47.3118 202.228 47.3148 199.273 47.6248Z" fill="white"/>
<path d="M219.931 47.6248C216.977 47.3148 214.053 47.3118 211.102 47.6248C213.878 46.4841 217.155 46.4931 219.931 47.6248Z" fill="white"/>
</g>
</svg>
