<svg width="20" height="20" viewBox="0 0 16 16" fill="none" xmlns="http://www.w3.org/2000/svg">
<path d="M11.3333 6.66667C8.76 6.66667 6.66667 8.76 6.66667 11.3333C6.66667 13.9067 8.76 16 11.3333 16C13.9067 16 16 13.9067 16 11.3333C16 8.76 13.9067 6.66667 11.3333 6.66667ZM11.3333 14.6667C9.49533 14.6667 8 13.1713 8 11.3333C8 9.49533 9.49533 8 11.3333 8C13.1713 8 14.6667 9.49533 14.6667 11.3333C14.6667 13.1713 13.1713 14.6667 11.3333 14.6667ZM12 12V13.3333C12 13.7013 11.7013 14 11.3333 14C10.9653 14 10.6667 13.7013 10.6667 13.3333V12C10.6667 11.632 10.9653 11.3333 11.3333 11.3333C11.7013 11.3333 12 11.632 12 12ZM12.3333 9.66667C12.3333 10.2187 11.8853 10.6667 11.3333 10.6667C10.7813 10.6667 10.3333 10.2187 10.3333 9.66667C10.3333 9.11467 10.7813 8.66667 11.3333 8.66667C11.8853 8.66667 12.3333 9.11467 12.3333 9.66667ZM6 14.6667H2.66667C1.93133 14.6667 1.33333 14.0687 1.33333 13.3333C1.33333 12.598 1.93133 12 2.66667 12H4.66667C5.03467 12 5.33333 11.7013 5.33333 11.3333C5.33333 10.9653 5.03467 10.6667 4.66667 10.6667H4V1.33333H10C11.1027 1.33333 12 2.23067 12 3.33333V4.66667C12 5.03467 12.2987 5.33333 12.6667 5.33333C13.0347 5.33333 13.3333 5.03467 13.3333 4.66667V3.33333C13.3333 1.49533 11.838 0 10 0H3.33333C1.496 0 0 1.49533 0 3.33333V13.3333C0 14.804 1.19667 16 2.66667 16H6C6.368 16 6.66667 15.7013 6.66667 15.3333C6.66667 14.9653 6.368 14.6667 6 14.6667ZM1.33333 3.33333C1.33333 2.46533 1.89267 1.732 2.66667 1.456V10.6667C2.17867 10.6667 1.72733 10.808 1.33333 11.0373V3.33333Z" fill="#1F3E7C"/>
</svg>
