<svg width="346" height="196" viewBox="0 0 346 196" fill="none" xmlns="http://www.w3.org/2000/svg">
<path d="M0 8C0 3.58173 3.58172 0 8 0H338C342.418 0 346 3.58172 346 8V129H0V8Z" fill="#E0E5EE"/>
<mask id="mask0_2459_23652" style="mask-type:alpha" maskUnits="userSpaceOnUse" x="0" y="0" width="346" height="129">
<rect x="0.25" width="345" height="129" rx="8" fill="white"/>
</mask>
<g mask="url(#mask0_2459_23652)">
<path opacity="0.8" d="M157.392 70.0001C158.066 68.6602 158.386 67.1701 158.322 65.6715C158.257 64.173 157.81 62.716 157.023 61.439C156.236 60.1621 155.136 59.1077 153.826 58.3762C152.517 57.6448 151.042 57.2605 149.542 57.2601C148.41 57.2582 147.289 57.4791 146.242 57.9101C145.371 55.4225 143.748 53.2672 141.599 51.7425C139.449 50.2178 136.878 49.3993 134.242 49.4001H134.002C133.019 45.1195 130.704 41.2611 127.389 38.3796C124.074 35.4982 119.931 33.7422 115.555 33.3644C111.179 32.9865 106.797 34.0061 103.037 36.2766C99.2774 38.5471 96.3347 41.9515 94.6322 46.0001C92.5571 46.6445 90.6497 47.7386 89.0457 49.2043C87.4417 50.67 86.1806 52.4714 85.3522 54.4801C83.9684 54.0939 82.5192 54.0006 81.0973 54.2061C79.6754 54.4117 78.312 54.9115 77.0943 55.6738C75.8765 56.4361 74.8311 57.444 74.0249 58.6332C73.2187 59.8224 72.6695 61.1666 72.4122 62.5801C71.4488 62.202 70.4075 62.065 69.3791 62.1813C68.3506 62.2975 67.3662 62.6634 66.5114 63.247C65.6567 63.8306 64.9576 64.6143 64.4749 65.5299C63.9923 66.4455 63.7407 67.4651 63.7422 68.5001C63.7443 69.0126 63.8081 69.5229 63.9322 70.0201L157.392 70.0001Z" fill="#DADFE9"/>
<path opacity="0.8" d="M313.95 94C313.95 93.7045 314 93.3946 314 93.0919C314 90.9014 313.143 88.8006 311.616 87.2516C310.09 85.7027 308.02 84.8325 305.862 84.8325C304.851 84.8314 303.848 85.0246 302.908 85.4019C302.24 82.1371 300.38 79.2498 297.7 77.3204C295.021 75.3911 291.721 74.5628 288.464 75.002C287.497 70.5702 285.184 66.558 281.852 63.5303C278.519 60.5027 274.335 58.6123 269.888 58.1253C265.442 57.6382 260.957 58.5791 257.064 60.8155C253.172 63.0518 250.07 66.4709 248.193 70.5913C246.25 70.6531 244.338 71.0961 242.562 71.8958C240.163 69.9597 237.274 68.7507 234.228 68.4079C231.182 68.065 228.103 68.6024 225.345 69.9581C222.586 71.3137 220.261 73.4325 218.638 76.0705C217.014 78.7084 216.157 81.7582 216.166 84.8686C214.015 84.8628 211.948 85.7213 210.418 87.2566C208.888 88.792 208.019 90.8794 208 93.0631C208.001 93.3667 208.02 93.6699 208.057 93.9712L313.95 94Z" fill="#DADFE9"/>
<circle opacity="0.7" cx="-7.5" cy="98" r="15.5" transform="rotate(180 -7.5 98)" fill="#D7DCE6"/>
<circle opacity="0.7" cx="14.5" cy="67.5" r="4.5" transform="rotate(180 14.5 67.5)" fill="#D7DCE6"/>
</g>
<g clip-path="url(#clip0_2459_23652)">
<path d="M254.25 156.016H84.25V156.101H254.25V156.016Z" fill="#CECECE"/>
<path d="M237.214 161.487H225.953V161.572H237.214V161.487Z" fill="#CECECE"/>
<path d="M196.861 162.411H193.906V162.496H196.861V162.411Z" fill="#CECECE"/>
<path d="M225.618 158.331H219.094V158.416H225.618V158.331Z" fill="#CECECE"/>
<path d="M116.778 158.903H102.094V158.988H116.778V158.903Z" fill="#CECECE"/>
<path d="M121.949 158.903H119.797V158.988H121.949V158.903Z" fill="#CECECE"/>
<path d="M160.797 160.337H128.945V160.422H160.797V160.337Z" fill="#CECECE"/>
<path d="M164.831 140.852H99.1802C98.6659 140.851 98.173 140.646 97.8096 140.282C97.4463 139.918 97.2422 139.425 97.2422 138.911V46.6244C97.2467 46.1131 97.4527 45.6241 97.8156 45.2638C98.1784 44.9035 98.6688 44.7009 99.1802 44.7H164.831C165.346 44.7 165.839 44.9046 166.204 45.2686C166.568 45.6327 166.772 46.1265 166.772 46.6414V138.911C166.772 139.426 166.568 139.919 166.204 140.283C165.839 140.647 165.346 140.852 164.831 140.852ZM99.1802 44.768C98.6884 44.7689 98.2171 44.9649 97.8697 45.3129C97.5223 45.661 97.3272 46.1327 97.3272 46.6244V138.911C97.3272 139.402 97.5223 139.874 97.8697 140.222C98.2171 140.57 98.6884 140.766 99.1802 140.767H164.831C165.323 140.766 165.795 140.57 166.142 140.222C166.49 139.874 166.686 139.403 166.687 138.911V46.6244C166.686 46.1323 166.49 45.6607 166.142 45.3127C165.795 44.9648 165.323 44.7689 164.831 44.768H99.1802Z" fill="#CECECE"/>
<path d="M238.377 140.852H172.723C172.208 140.851 171.715 140.646 171.351 140.282C170.987 139.919 170.782 139.425 170.781 138.911V46.6244C170.787 46.1128 170.993 45.6238 171.357 45.2636C171.72 44.9034 172.211 44.7009 172.723 44.7H238.377C238.887 44.7018 239.377 44.9048 239.739 45.265C240.101 45.6252 240.307 46.1136 240.311 46.6244V138.911C240.311 139.424 240.108 139.917 239.745 140.281C239.382 140.645 238.89 140.85 238.377 140.852ZM172.723 44.768C172.231 44.7689 171.759 44.9648 171.411 45.3127C171.063 45.6607 170.867 46.1323 170.866 46.6244V138.911C170.867 139.403 171.063 139.874 171.411 140.222C171.759 140.57 172.231 140.766 172.723 140.767H238.377C238.869 140.766 239.34 140.57 239.688 140.222C240.036 139.874 240.232 139.403 240.233 138.911V46.6244C240.232 46.1323 240.036 45.6607 239.688 45.3127C239.34 44.9648 238.869 44.7689 238.377 44.768H172.723Z" fill="#CECECE"/>
<path d="M224.764 55.3998H208.195V75.7964H224.764V55.3998Z" fill="#F5F5F5"/>
<path d="M223.784 56.3722H209.164V74.8172H223.784V56.3722Z" fill="#CECECE"/>
<path d="M222.011 70.1626V74.8172H210.938V70.1626C210.935 68.9552 211.358 67.7855 212.133 66.8595C212.908 65.9335 213.985 65.3105 215.174 65.1C214.399 64.7969 213.754 64.2327 213.351 63.5049C212.948 62.777 212.812 61.9312 212.966 61.1136C213.12 60.296 213.555 59.5579 214.196 59.0269C214.837 58.4959 215.642 58.2053 216.474 58.2053C217.306 58.2053 218.112 58.4959 218.753 59.0269C219.393 59.5579 219.828 60.296 219.983 61.1136C220.137 61.9312 220.001 62.777 219.597 63.5049C219.194 64.2327 218.55 64.7969 217.775 65.1C218.964 65.3105 220.041 65.9335 220.815 66.8595C221.59 67.7855 222.014 68.9552 222.011 70.1626Z" fill="#E0E0E0"/>
<path d="M127.263 60.1496H113.469V69.4112H127.263V60.1496Z" fill="#E0E0E0"/>
<path d="M120.367 57.2155L109.297 60.1497L120.367 63.0839L131.438 60.1497L120.367 57.2155Z" fill="#CECECE"/>
<path d="M126.073 67.2454V61.6354C126.073 61.582 126.055 61.5302 126.022 61.4878C125.99 61.4455 125.944 61.4149 125.893 61.4008L120.426 59.915C120.363 59.8983 120.297 59.9068 120.241 59.9386C120.185 59.9704 120.144 60.023 120.126 60.085C120.118 60.1158 120.115 60.1481 120.119 60.1799C120.123 60.2117 120.133 60.2424 120.149 60.2702C120.165 60.2981 120.186 60.3225 120.211 60.3421C120.236 60.3616 120.265 60.376 120.296 60.3842L125.587 61.8224V67.2386C125.445 67.2951 125.327 67.3993 125.254 67.5331C125.181 67.6669 125.157 67.8221 125.185 67.9719C125.214 68.1217 125.294 68.2568 125.412 68.354C125.53 68.4512 125.677 68.5043 125.83 68.5043C125.982 68.5043 126.13 68.4512 126.248 68.354C126.365 68.2568 126.446 68.1217 126.474 67.9719C126.503 67.8221 126.479 67.6669 126.406 67.5331C126.332 67.3993 126.215 67.2951 126.073 67.2386V67.2454Z" fill="#F5F5F5"/>
<path d="M155.852 47.8586L153.57 61.1798H165.596L155.852 47.8586Z" fill="#E0E0E0"/>
<path d="M174.235 61.1798H157.844L155.852 47.8586H172.243L174.235 61.1798Z" fill="#F5F5F5"/>
<path d="M172.607 50.2998H156.215L155.852 47.8586H172.243L172.607 50.2998Z" fill="#CECECE"/>
<path d="M161.188 52.8123H159.773L159.562 51.3843H160.974L161.188 52.8123Z" fill="#E0E0E0"/>
<path d="M163.344 52.8123H161.93L161.719 51.3843H163.13L163.344 52.8123Z" fill="#E0E0E0"/>
<path d="M165.5 52.8123H164.086L163.875 51.3843H165.286L165.5 52.8123Z" fill="#E0E0E0"/>
<path d="M167.641 52.8123H166.226L166.016 51.3843H167.427L167.641 52.8123Z" fill="#E0E0E0"/>
<path d="M169.797 52.8123H168.383L168.172 51.3843H169.583L169.797 52.8123Z" fill="#E0E0E0"/>
<path d="M171.946 52.8123H170.531L170.32 51.3843H171.731L171.946 52.8123Z" fill="#E0E0E0"/>
<path d="M159.336 54.849H157.925L157.711 53.4244H159.125L159.336 54.849Z" fill="#E0E0E0"/>
<path d="M161.496 54.849H160.081L159.867 53.4244H161.282L161.496 54.849Z" fill="#E0E0E0"/>
<path d="M163.641 54.849H162.23L162.016 53.4244H163.43L163.641 54.849Z" fill="#E0E0E0"/>
<path d="M165.797 54.849H164.386L164.172 53.4244H165.586L165.797 54.849Z" fill="#E0E0E0"/>
<path d="M167.946 54.849H166.535L166.32 53.4244H167.735L167.946 54.849Z" fill="#E0E0E0"/>
<path d="M170.102 54.849H168.691L168.477 53.4244H169.891L170.102 54.849Z" fill="#E0E0E0"/>
<path d="M172.258 54.849H170.847L170.633 53.4244H172.047L172.258 54.849Z" fill="#E0E0E0"/>
<path d="M159.649 56.889H158.238L158.023 55.461H159.434L159.649 56.889Z" fill="#E0E0E0"/>
<path d="M161.797 56.889H160.386L160.172 55.461H161.583L161.797 56.889Z" fill="#E0E0E0"/>
<path d="M163.946 56.889H162.535L162.32 55.461H163.731L163.946 56.889Z" fill="#E0E0E0"/>
<path d="M166.102 56.889H164.691L164.477 55.461H165.888L166.102 56.889Z" fill="#E0E0E0"/>
<path d="M168.258 56.889H166.847L166.633 55.461H168.044L168.258 56.889Z" fill="#E0E0E0"/>
<path d="M170.406 56.889H168.995L168.781 55.461H170.192L170.406 56.889Z" fill="#E0E0E0"/>
<path d="M172.555 56.889H171.144L170.93 55.461H172.341L172.555 56.889Z" fill="#E0E0E0"/>
<path d="M159.946 58.9256H158.535L158.32 57.501H159.731L159.946 58.9256Z" fill="#E0E0E0"/>
<path d="M162.11 58.9256H160.695L160.484 57.501H161.895L162.11 58.9256Z" fill="#E0E0E0"/>
<path d="M164.258 58.9256H162.844L162.633 57.501H164.044L164.258 58.9256Z" fill="#E0E0E0"/>
<path d="M166.414 58.9256H165L164.789 57.501H166.2L166.414 58.9256Z" fill="#E0E0E0"/>
<path d="M168.555 58.9256H167.14L166.93 57.501H168.341L168.555 58.9256Z" fill="#E0E0E0"/>
<path d="M170.715 58.9256H169.3L169.086 57.501H170.5L170.715 58.9256Z" fill="#E0E0E0"/>
<path d="M236.715 103.432H224.315C223.904 103.432 223.57 103.765 223.57 104.176V121.894C223.57 122.305 223.904 122.638 224.315 122.638H236.715C237.126 122.638 237.459 122.305 237.459 121.894V104.176C237.459 103.765 237.126 103.432 236.715 103.432Z" fill="#E0E0E0"/>
<path d="M234.754 101.541H222.354C221.943 101.541 221.609 101.875 221.609 102.286V120.003C221.609 120.414 221.943 120.748 222.354 120.748H234.754C235.165 120.748 235.498 120.414 235.498 120.003V102.286C235.498 101.875 235.165 101.541 234.754 101.541Z" fill="#F5F5F5"/>
<path d="M233.07 104.564H224.023C223.963 104.564 223.904 104.553 223.849 104.53C223.794 104.508 223.744 104.474 223.702 104.432C223.66 104.39 223.626 104.34 223.604 104.285C223.581 104.23 223.57 104.171 223.57 104.112C223.57 103.992 223.618 103.877 223.703 103.792C223.788 103.707 223.903 103.659 224.023 103.659H233.07C233.19 103.659 233.305 103.707 233.39 103.792C233.474 103.877 233.522 103.992 233.522 104.112C233.523 104.171 233.511 104.23 233.489 104.285C233.466 104.34 233.433 104.39 233.391 104.432C233.349 104.474 233.299 104.508 233.244 104.53C233.188 104.553 233.129 104.564 233.07 104.564Z" fill="#CECECE"/>
<path d="M233.07 106.92H224.023C223.903 106.92 223.788 106.872 223.703 106.788C223.618 106.703 223.57 106.588 223.57 106.468C223.57 106.408 223.581 106.349 223.604 106.294C223.626 106.238 223.66 106.188 223.702 106.146C223.744 106.104 223.794 106.07 223.849 106.047C223.904 106.024 223.963 106.012 224.023 106.012H233.07C233.13 106.012 233.189 106.024 233.244 106.047C233.299 106.07 233.349 106.104 233.391 106.146C233.433 106.188 233.466 106.238 233.489 106.294C233.511 106.349 233.523 106.408 233.522 106.468C233.522 106.588 233.474 106.703 233.39 106.788C233.305 106.872 233.19 106.92 233.07 106.92Z" fill="#CECECE"/>
<path d="M233.07 109.252H224.023C223.963 109.253 223.904 109.241 223.849 109.219C223.794 109.196 223.744 109.163 223.702 109.121C223.66 109.079 223.626 109.029 223.604 108.974C223.581 108.919 223.57 108.86 223.57 108.8C223.57 108.68 223.618 108.565 223.703 108.48C223.788 108.396 223.903 108.348 224.023 108.348H233.07C233.19 108.348 233.305 108.396 233.39 108.48C233.474 108.565 233.522 108.68 233.522 108.8C233.523 108.86 233.511 108.919 233.489 108.974C233.466 109.029 233.433 109.079 233.391 109.121C233.349 109.163 233.299 109.196 233.244 109.219C233.188 109.241 233.129 109.253 233.07 109.252Z" fill="#CECECE"/>
<path d="M233.07 111.598H224.023C223.963 111.598 223.904 111.587 223.849 111.564C223.795 111.541 223.745 111.508 223.703 111.466C223.661 111.424 223.627 111.374 223.605 111.319C223.582 111.264 223.57 111.206 223.57 111.146C223.57 111.087 223.581 111.027 223.604 110.972C223.626 110.917 223.66 110.867 223.702 110.824C223.744 110.782 223.794 110.748 223.849 110.725C223.904 110.702 223.963 110.691 224.023 110.691H233.07C233.13 110.691 233.189 110.702 233.244 110.725C233.299 110.748 233.349 110.782 233.391 110.824C233.433 110.867 233.466 110.917 233.489 110.972C233.511 111.027 233.523 111.087 233.522 111.146C233.522 111.206 233.51 111.264 233.488 111.319C233.465 111.374 233.432 111.424 233.39 111.466C233.348 111.508 233.298 111.541 233.243 111.564C233.188 111.587 233.129 111.598 233.07 111.598Z" fill="#CECECE"/>
<path d="M233.07 113.941H224.023C223.963 113.941 223.904 113.93 223.849 113.907C223.794 113.885 223.744 113.852 223.702 113.81C223.66 113.767 223.626 113.717 223.604 113.662C223.581 113.607 223.57 113.548 223.57 113.489C223.57 113.429 223.581 113.37 223.604 113.315C223.626 113.26 223.66 113.21 223.702 113.168C223.744 113.126 223.794 113.093 223.849 113.07C223.904 113.048 223.963 113.036 224.023 113.037H233.07C233.129 113.036 233.188 113.048 233.244 113.07C233.299 113.093 233.349 113.126 233.391 113.168C233.433 113.21 233.466 113.26 233.489 113.315C233.511 113.37 233.523 113.429 233.522 113.489C233.523 113.548 233.511 113.607 233.489 113.662C233.466 113.717 233.433 113.767 233.391 113.81C233.349 113.852 233.299 113.885 233.244 113.907C233.188 113.93 233.129 113.941 233.07 113.941Z" fill="#CECECE"/>
<path d="M233.07 116.287H224.023C223.963 116.287 223.904 116.275 223.849 116.252C223.794 116.229 223.744 116.196 223.702 116.153C223.66 116.111 223.626 116.061 223.604 116.006C223.581 115.95 223.57 115.891 223.57 115.831C223.57 115.712 223.618 115.597 223.703 115.512C223.788 115.427 223.903 115.379 224.023 115.379H233.07C233.19 115.379 233.305 115.427 233.39 115.512C233.474 115.597 233.522 115.712 233.522 115.831C233.523 115.891 233.511 115.95 233.489 116.006C233.466 116.061 233.433 116.111 233.391 116.153C233.349 116.196 233.299 116.229 233.244 116.252C233.189 116.275 233.13 116.287 233.07 116.287Z" fill="#CECECE"/>
<path d="M231.03 118.63H224.023C223.903 118.63 223.788 118.582 223.703 118.497C223.618 118.412 223.57 118.297 223.57 118.177C223.57 118.118 223.581 118.059 223.604 118.004C223.626 117.949 223.66 117.899 223.702 117.857C223.744 117.815 223.794 117.781 223.849 117.759C223.904 117.736 223.963 117.725 224.023 117.725H231.03C231.089 117.725 231.148 117.736 231.204 117.759C231.259 117.781 231.309 117.815 231.351 117.857C231.393 117.899 231.426 117.949 231.449 118.004C231.471 118.059 231.483 118.118 231.482 118.177C231.482 118.297 231.434 118.412 231.35 118.497C231.265 118.582 231.15 118.63 231.03 118.63Z" fill="#CECECE"/>
<path d="M216.328 76.6872V77.5372" stroke="#CECECE" stroke-width="0.68" stroke-linecap="round" stroke-linejoin="round"/>
<path d="M216.328 79.193V91.6132" stroke="#CECECE" stroke-width="0.68" stroke-linecap="round" stroke-linejoin="round" stroke-dasharray="1.66 1.66"/>
<path d="M216.327 92.4428V93.2928H215.477" stroke="#CECECE" stroke-width="0.68" stroke-linecap="round" stroke-linejoin="round"/>
<path d="M213.785 93.2928H184.164" stroke="#CECECE" stroke-width="0.68" stroke-linecap="round" stroke-linejoin="round" stroke-dasharray="1.69 1.69"/>
<path d="M183.319 93.2928H182.469V94.1428" stroke="#CECECE" stroke-width="0.68" stroke-linecap="round" stroke-linejoin="round"/>
<path d="M182.469 95.9482V98.658" stroke="#CECECE" stroke-width="0.68" stroke-linecap="round" stroke-linejoin="round" stroke-dasharray="1.81 1.81"/>
<path d="M182.459 99.5624V100.412H181.609" stroke="#CECECE" stroke-width="0.68" stroke-linecap="round" stroke-linejoin="round"/>
<path d="M179.732 100.412H176.906" stroke="#CECECE" stroke-width="0.68" stroke-linecap="round" stroke-linejoin="round" stroke-dasharray="1.88 1.88"/>
<path d="M175.967 100.412H175.117" stroke="#CECECE" stroke-width="0.68" stroke-linecap="round" stroke-linejoin="round"/>
<path d="M229.812 124.423V130.751H182.464V110.691H175.742" stroke="#CECECE" stroke-width="0.68" stroke-linecap="round" stroke-linejoin="round" stroke-dasharray="1.7 1.7"/>
<path d="M175.74 54.8489H184.879V90.3109H168.172" stroke="#CECECE" stroke-width="0.68" stroke-linecap="round" stroke-linejoin="round" stroke-dasharray="1.7 1.7"/>
<path d="M129.258 65.6066H137.673V100.827H150.368" stroke="#CECECE" stroke-width="0.68" stroke-linecap="round" stroke-linejoin="round" stroke-dasharray="1.7 1.7"/>
<path d="M110.519 132.984L106.749 130.604L102.883 132.984V120.275H110.519V132.984Z" fill="#E0E0E0"/>
<path d="M110.896 123.324C113.218 121.002 113.218 117.236 110.896 114.914C108.574 112.592 104.808 112.592 102.486 114.914C100.164 117.236 100.164 121.002 102.486 123.324C104.808 125.646 108.574 125.646 110.896 123.324Z" fill="#F5F5F5"/>
<path d="M110.273 122.689C112.245 120.717 112.245 117.521 110.273 115.549C108.301 113.577 105.104 113.577 103.133 115.549C101.161 117.521 101.161 120.717 103.133 122.689C105.104 124.661 108.301 124.661 110.273 122.689Z" fill="#CECECE"/>
<path d="M114.672 119.286H140.903V110.691H150.368" stroke="#CECECE" stroke-width="0.68" stroke-linecap="round" stroke-linejoin="round" stroke-dasharray="1.7 1.7"/>
<path d="M177.55 66.7252C176.931 66.7252 176.326 66.9086 175.812 67.2523C175.298 67.596 174.897 68.0846 174.66 68.6561C174.423 69.2277 174.361 69.8566 174.482 70.4634C174.603 71.0702 174.901 71.6275 175.338 72.065C175.775 72.5024 176.333 72.8004 176.94 72.9211C177.546 73.0417 178.175 72.9798 178.747 72.7431C179.318 72.5063 179.807 72.1054 180.151 71.591C180.494 71.0766 180.678 70.4718 180.678 69.8532C180.678 69.0236 180.348 68.2279 179.762 67.6413C179.175 67.0547 178.379 66.7252 177.55 66.7252ZM177.55 69.5506C177.37 69.5506 177.195 69.4973 177.046 69.3976C176.896 69.2978 176.78 69.156 176.711 68.9902C176.642 68.8243 176.624 68.6418 176.66 68.4657C176.695 68.2896 176.781 68.1278 176.908 68.0008C177.035 67.8739 177.197 67.7874 177.373 67.7524C177.549 67.7174 177.731 67.7354 177.897 67.8041C178.063 67.8728 178.205 67.9891 178.305 68.1384C178.404 68.2877 178.458 68.4632 178.458 68.6428C178.458 68.762 178.434 68.88 178.389 68.9902C178.343 69.1003 178.276 69.2004 178.192 69.2847C178.107 69.369 178.007 69.4358 177.897 69.4815C177.787 69.5271 177.669 69.5506 177.55 69.5506Z" fill="#407BFF"/>
<path opacity="0.6" d="M177.55 66.7252C176.931 66.7252 176.326 66.9086 175.812 67.2523C175.298 67.596 174.897 68.0846 174.66 68.6561C174.423 69.2277 174.361 69.8566 174.482 70.4634C174.603 71.0702 174.901 71.6275 175.338 72.065C175.775 72.5024 176.333 72.8004 176.94 72.9211C177.546 73.0417 178.175 72.9798 178.747 72.7431C179.318 72.5063 179.807 72.1054 180.151 71.591C180.494 71.0766 180.678 70.4718 180.678 69.8532C180.678 69.0236 180.348 68.2279 179.762 67.6413C179.175 67.0547 178.379 66.7252 177.55 66.7252ZM177.55 69.5506C177.37 69.5506 177.195 69.4973 177.046 69.3976C176.896 69.2978 176.78 69.156 176.711 68.9902C176.642 68.8243 176.624 68.6418 176.66 68.4657C176.695 68.2896 176.781 68.1278 176.908 68.0008C177.035 67.8739 177.197 67.7874 177.373 67.7524C177.549 67.7174 177.731 67.7354 177.897 67.8041C178.063 67.8728 178.205 67.9891 178.305 68.1384C178.404 68.2877 178.458 68.4632 178.458 68.6428C178.458 68.762 178.434 68.88 178.389 68.9902C178.343 69.1003 178.276 69.2004 178.192 69.2847C178.107 69.369 178.007 69.4358 177.897 69.4815C177.787 69.5271 177.669 69.5506 177.55 69.5506Z" fill="white"/>
<path d="M208.505 70.8324H146.601C145.195 70.8324 144.055 71.9726 144.055 73.379V165.628C144.055 167.034 145.195 168.174 146.601 168.174H208.505C209.912 168.174 211.052 167.034 211.052 165.628V73.379C211.052 71.9726 209.912 70.8324 208.505 70.8324Z" fill="#407BFF"/>
<path opacity="0.8" d="M207.506 76.49H147.602V163.544H207.506V76.49Z" fill="white"/>
<path d="M193.49 70.0027H161.625C161.263 70.0027 160.969 70.2965 160.969 70.6589V74.7457C160.969 75.1082 161.263 75.4019 161.625 75.4019H193.49C193.852 75.4019 194.146 75.1082 194.146 74.7457V70.6589C194.146 70.2965 193.852 70.0027 193.49 70.0027Z" fill="#407BFF"/>
<path opacity="0.4" d="M193.49 70.0027H161.625C161.263 70.0027 160.969 70.2965 160.969 70.6589V74.7457C160.969 75.1082 161.263 75.4019 161.625 75.4019H193.49C193.852 75.4019 194.146 75.1082 194.146 74.7457V70.6589C194.146 70.2965 193.852 70.0027 193.49 70.0027Z" fill="white"/>
<path d="M189.817 80.417H180.215C180.02 80.4204 179.827 80.3702 179.658 80.2719C179.489 80.1736 179.35 80.031 179.256 79.8594C179.092 79.5516 178.847 79.2942 178.547 79.1148C178.248 78.9354 177.905 78.8406 177.556 78.8406C177.207 78.8406 176.865 78.9354 176.565 79.1148C176.266 79.2942 176.021 79.5516 175.856 79.8594C175.762 80.0307 175.623 80.1732 175.454 80.2714C175.285 80.3697 175.093 80.42 174.897 80.417H165.286C165.015 80.417 164.756 80.3095 164.564 80.1182C164.373 79.9269 164.266 79.6675 164.266 79.397V73.6679C164.266 73.3974 164.373 73.138 164.564 72.9467C164.756 72.7554 165.015 72.6479 165.286 72.6479H189.817C190.087 72.6479 190.347 72.7554 190.538 72.9467C190.729 73.138 190.837 73.3974 190.837 73.6679V79.38C190.839 79.5153 190.814 79.6498 190.764 79.7755C190.714 79.9012 190.639 80.0157 190.544 80.1122C190.449 80.2087 190.336 80.2854 190.211 80.3377C190.086 80.39 189.952 80.417 189.817 80.417ZM177.553 78.1559C178.026 78.155 178.491 78.2834 178.896 78.5273C179.302 78.7712 179.633 79.1213 179.855 79.5398C179.892 79.6018 179.945 79.6528 180.008 79.6875C180.071 79.7222 180.143 79.7393 180.215 79.737H189.817C189.907 79.737 189.993 79.7011 190.057 79.6374C190.121 79.5736 190.157 79.4871 190.157 79.397V73.6679C190.157 73.5778 190.121 73.4913 190.057 73.4275C189.993 73.3638 189.907 73.3279 189.817 73.3279H165.286C165.195 73.3279 165.109 73.3638 165.045 73.4275C164.981 73.4913 164.946 73.5778 164.946 73.6679V79.38C164.946 79.4701 164.981 79.5566 165.045 79.6204C165.109 79.6841 165.195 79.72 165.286 79.72H174.894C174.966 79.722 175.037 79.7048 175.099 79.6701C175.162 79.6354 175.215 79.5845 175.251 79.5228C175.475 79.1077 175.807 78.7612 176.213 78.5205C176.618 78.2797 177.081 78.1537 177.553 78.1559Z" fill="#263238"/>
<g opacity="0.2">
<path d="M189.824 80.417H180.223C180.027 80.4204 179.835 80.3702 179.666 80.2719C179.497 80.1736 179.358 80.031 179.264 79.8594C179.099 79.5516 178.854 79.2942 178.555 79.1148C178.256 78.9354 177.913 78.8406 177.564 78.8406C177.215 78.8406 176.872 78.9354 176.573 79.1148C176.274 79.2942 176.029 79.5516 175.864 79.8594C175.77 80.0307 175.631 80.1732 175.462 80.2714C175.293 80.3697 175.101 80.42 174.905 80.417H165.293C165.023 80.417 164.763 80.3095 164.572 80.1182C164.381 79.9269 164.273 79.6675 164.273 79.397V73.6679C164.273 73.3974 164.381 73.138 164.572 72.9467C164.763 72.7554 165.023 72.6479 165.293 72.6479H189.824C190.095 72.6479 190.354 72.7554 190.546 72.9467C190.737 73.138 190.844 73.3974 190.844 73.6679V79.38C190.847 79.5153 190.822 79.6498 190.772 79.7755C190.721 79.9012 190.647 80.0157 190.552 80.1122C190.457 80.2087 190.344 80.2854 190.219 80.3377C190.094 80.39 189.96 80.417 189.824 80.417ZM177.561 78.1559C178.034 78.155 178.499 78.2834 178.904 78.5273C179.31 78.7712 179.641 79.1213 179.862 79.5398C179.899 79.6018 179.952 79.6528 180.016 79.6875C180.079 79.7222 180.151 79.7393 180.223 79.737H189.824C189.915 79.737 190.001 79.7011 190.065 79.6374C190.129 79.5736 190.164 79.4871 190.164 79.397V73.6679C190.164 73.5778 190.129 73.4913 190.065 73.4275C190.001 73.3638 189.915 73.3279 189.824 73.3279H165.293C165.203 73.3279 165.117 73.3638 165.053 73.4275C164.989 73.4913 164.953 73.5778 164.953 73.6679V79.38C164.953 79.4701 164.989 79.5566 165.053 79.6204C165.117 79.6841 165.203 79.72 165.293 79.72H174.902C174.974 79.722 175.044 79.7048 175.107 79.6701C175.17 79.6354 175.222 79.5845 175.259 79.5228C175.483 79.1077 175.815 78.7612 176.22 78.5205C176.626 78.2797 177.089 78.1537 177.561 78.1559Z" fill="white"/>
</g>
<path d="M188.361 71.6517H166.754C166.536 71.6517 166.359 71.8283 166.359 72.0461V73.5761C166.359 73.794 166.536 73.9705 166.754 73.9705H188.361C188.579 73.9705 188.755 73.794 188.755 73.5761V72.0461C188.755 71.8283 188.579 71.6517 188.361 71.6517Z" fill="#407BFF"/>
<path opacity="0.6" d="M188.353 71.6517H166.746C166.528 71.6517 166.352 71.8283 166.352 72.0461V73.5761C166.352 73.794 166.528 73.9705 166.746 73.9705H188.353C188.571 73.9705 188.747 73.794 188.747 73.5761V72.0461C188.747 71.8283 188.571 71.6517 188.353 71.6517Z" fill="white"/>
<path opacity="0.3" d="M183.114 124.036H177.062V130.088H183.114V124.036Z" fill="black"/>
<path opacity="0.3" d="M182.407 132.522H177.77C177.582 132.522 177.402 132.447 177.27 132.315C177.137 132.182 177.062 132.002 177.062 131.815C177.063 131.628 177.138 131.449 177.271 131.317C177.403 131.185 177.583 131.111 177.77 131.111H182.407C182.594 131.111 182.774 131.185 182.906 131.317C183.039 131.449 183.114 131.628 183.114 131.815C183.114 132.002 183.04 132.182 182.907 132.315C182.775 132.447 182.595 132.522 182.407 132.522Z" fill="black"/>
<path opacity="0.3" d="M201.891 124.036H186.326C185.969 124.036 185.68 124.325 185.68 124.682V124.685C185.68 125.042 185.969 125.331 186.326 125.331H201.891C202.248 125.331 202.537 125.042 202.537 124.685V124.682C202.537 124.325 202.248 124.036 201.891 124.036Z" fill="black"/>
<path opacity="0.3" d="M198.491 127.436H186.326C185.969 127.436 185.68 127.725 185.68 128.082V128.085C185.68 128.442 185.969 128.731 186.326 128.731H198.491C198.848 128.731 199.137 128.442 199.137 128.085V128.082C199.137 127.725 198.848 127.436 198.491 127.436Z" fill="black"/>
<path opacity="0.3" d="M201.891 130.836H186.326C185.969 130.836 185.68 131.125 185.68 131.482V131.485C185.68 131.842 185.969 132.131 186.326 132.131H201.891C202.248 132.131 202.537 131.842 202.537 131.485V131.482C202.537 131.125 202.248 130.836 201.891 130.836Z" fill="black"/>
<path opacity="0.3" d="M193.051 134.236H186.326C185.969 134.236 185.68 134.525 185.68 134.882V134.885C185.68 135.242 185.969 135.531 186.326 135.531H193.051C193.408 135.531 193.697 135.242 193.697 134.885V134.882C193.697 134.525 193.408 134.236 193.051 134.236Z" fill="black"/>
<path opacity="0.3" d="M195.446 85.4557H159.501C159.19 85.4548 158.892 85.331 158.673 85.1112C158.453 84.8914 158.329 84.5936 158.328 84.2827C158.328 83.9716 158.452 83.6733 158.672 83.4533C158.892 83.2333 159.19 83.1097 159.501 83.1097H195.446C195.757 83.1097 196.055 83.2333 196.275 83.4533C196.495 83.6733 196.619 83.9716 196.619 84.2827C196.618 84.5936 196.494 84.8914 196.274 85.1112C196.055 85.331 195.757 85.4548 195.446 85.4557Z" fill="black"/>
<path opacity="0.3" d="M201.434 92.3985H177.708C177.537 92.3976 177.373 92.3288 177.251 92.2071C177.13 92.0855 177.062 91.9208 177.063 91.7492C177.063 91.5778 177.131 91.4135 177.252 91.2924C177.373 91.1712 177.537 91.1031 177.708 91.1031H201.434C201.605 91.1031 201.769 91.1712 201.89 91.2924C202.012 91.4135 202.08 91.5778 202.08 91.7492C202.08 91.9208 202.012 92.0855 201.891 92.2071C201.77 92.3288 201.605 92.3976 201.434 92.3985Z" fill="black"/>
<path opacity="0.3" d="M198.034 95.7986H177.708C177.537 95.7977 177.373 95.7289 177.251 95.6072C177.13 95.4855 177.062 95.3208 177.063 95.1492C177.063 94.9778 177.131 94.8135 177.252 94.6924C177.373 94.5712 177.537 94.5032 177.708 94.5032H198.034C198.205 94.5032 198.369 94.5712 198.49 94.6924C198.612 94.8135 198.68 94.9778 198.68 95.1492C198.68 95.3208 198.612 95.4855 198.491 95.6072C198.37 95.7289 198.205 95.7977 198.034 95.7986Z" fill="black"/>
<path opacity="0.3" d="M201.434 99.1986H177.708C177.537 99.1977 177.373 99.1289 177.251 99.0072C177.13 98.8855 177.062 98.7208 177.063 98.5492C177.063 98.3779 177.131 98.2136 177.252 98.0924C177.373 97.9713 177.537 97.9032 177.708 97.9032H201.434C201.605 97.9032 201.769 97.9713 201.89 98.0924C202.012 98.2136 202.08 98.3779 202.08 98.5492C202.08 98.7208 202.012 98.8855 201.891 99.0072C201.77 99.1289 201.605 99.1977 201.434 99.1986Z" fill="black"/>
<path opacity="0.3" d="M194.634 102.599H177.708C177.537 102.598 177.373 102.529 177.251 102.407C177.13 102.285 177.062 102.121 177.063 101.949C177.063 101.778 177.131 101.614 177.252 101.492C177.373 101.371 177.537 101.303 177.708 101.303H194.634C194.805 101.303 194.969 101.371 195.09 101.492C195.212 101.614 195.28 101.778 195.28 101.949C195.28 102.121 195.212 102.285 195.091 102.407C194.97 102.529 194.805 102.598 194.634 102.599Z" fill="black"/>
<path opacity="0.3" d="M178.769 106.651L179.143 107.406L179.98 107.529L179.375 108.117L179.518 108.95L178.769 108.555L178.025 108.95L178.168 108.117L177.562 107.529L178.395 107.406L178.769 106.651Z" fill="black"/>
<path opacity="0.3" d="M182.984 106.651L183.358 107.406L184.191 107.529L183.586 108.117L183.728 108.95L182.984 108.555L182.236 108.95L182.379 108.117L181.773 107.529L182.61 107.406L182.984 106.651Z" fill="black"/>
<path opacity="0.3" d="M187.199 106.651L187.573 107.406L188.41 107.529L187.804 108.117L187.947 108.95L187.199 108.555L186.451 108.95L186.594 108.117L185.992 107.529L186.825 107.406L187.199 106.651Z" fill="black"/>
<path opacity="0.3" d="M191.421 106.651L191.792 107.406L192.628 107.529L192.023 108.117L192.166 108.95L191.421 108.555L190.673 108.95L190.816 108.117L190.211 107.529L191.047 107.406L191.421 106.651Z" fill="black"/>
<path opacity="0.3" d="M195.645 106.651L196.019 107.406L196.852 107.529L196.25 108.117L196.392 108.95L195.645 108.555L194.897 108.95L195.039 108.117L194.438 107.529L195.271 107.406L195.645 106.651Z" fill="black"/>
<path opacity="0.3" d="M178.769 110.983L179.143 111.738L179.98 111.86L179.375 112.448L179.518 113.281L178.769 112.887L178.025 113.281L178.168 112.448L177.562 111.86L178.395 111.738L178.769 110.983Z" fill="black"/>
<path opacity="0.3" d="M182.984 110.983L183.358 111.738L184.191 111.86L183.586 112.448L183.728 113.281L182.984 112.887L182.236 113.281L182.379 112.448L181.773 111.86L182.61 111.738L182.984 110.983Z" fill="black"/>
<path opacity="0.3" d="M187.199 110.983L187.573 111.738L188.41 111.86L187.804 112.448L187.947 113.281L187.199 112.887L186.451 113.281L186.594 112.448L185.992 111.86L186.825 111.738L187.199 110.983Z" fill="black"/>
<path opacity="0.1" d="M191.421 110.983L191.792 111.738L192.628 111.86L192.023 112.448L192.166 113.281L191.421 112.887L190.673 113.281L190.816 112.448L190.211 111.86L191.047 111.738L191.421 110.983Z" fill="black"/>
<path opacity="0.1" d="M195.645 110.983L196.019 111.738L196.852 111.86L196.25 112.448L196.392 113.281L195.645 112.887L194.897 113.281L195.039 112.448L194.438 111.86L195.271 111.738L195.645 110.983Z" fill="black"/>
<path opacity="0.3" d="M178.769 115.315L179.143 116.069L179.98 116.192L179.375 116.78L179.518 117.613L178.769 117.219L178.025 117.613L178.168 116.78L177.562 116.192L178.395 116.069L178.769 115.315Z" fill="black"/>
<path opacity="0.3" d="M182.984 115.315L183.358 116.069L184.191 116.192L183.586 116.78L183.728 117.613L182.984 117.219L182.236 117.613L182.379 116.78L181.773 116.192L182.61 116.069L182.984 115.315Z" fill="black"/>
<path opacity="0.3" d="M187.199 115.315L187.573 116.069L188.41 116.192L187.804 116.78L187.947 117.613L187.199 117.219L186.451 117.613L186.594 116.78L185.992 116.192L186.825 116.069L187.199 115.315Z" fill="black"/>
<path opacity="0.3" d="M191.421 115.315L191.792 116.069L192.628 116.192L192.023 116.78L192.166 117.613L191.421 117.219L190.673 117.613L190.816 116.78L190.211 116.192L191.047 116.069L191.421 115.315Z" fill="black"/>
<path opacity="0.1" d="M195.645 115.315L196.019 116.069L196.852 116.192L196.25 116.78L196.392 117.613L195.645 117.219L194.897 117.613L195.039 116.78L194.438 116.192L195.271 116.069L195.645 115.315Z" fill="black"/>
<path opacity="0.3" d="M183.114 141.036H177.062V147.088H183.114V141.036Z" fill="black"/>
<path opacity="0.3" d="M182.407 149.522H177.77C177.582 149.522 177.402 149.447 177.27 149.315C177.137 149.182 177.062 149.002 177.062 148.815C177.063 148.628 177.138 148.449 177.271 148.317C177.403 148.185 177.583 148.111 177.77 148.111H182.407C182.594 148.111 182.774 148.185 182.906 148.317C183.039 148.449 183.114 148.628 183.114 148.815C183.114 149.002 183.04 149.182 182.907 149.315C182.775 149.447 182.595 149.522 182.407 149.522Z" fill="black"/>
<path opacity="0.3" d="M201.891 141.036H186.326C185.969 141.036 185.68 141.325 185.68 141.682V141.685C185.68 142.042 185.969 142.331 186.326 142.331H201.891C202.248 142.331 202.537 142.042 202.537 141.685V141.682C202.537 141.325 202.248 141.036 201.891 141.036Z" fill="black"/>
<path opacity="0.3" d="M198.491 144.436H186.326C185.969 144.436 185.68 144.725 185.68 145.082V145.085C185.68 145.442 185.969 145.731 186.326 145.731H198.491C198.848 145.731 199.137 145.442 199.137 145.085V145.082C199.137 144.725 198.848 144.436 198.491 144.436Z" fill="black"/>
<path opacity="0.3" d="M201.891 147.836H186.326C185.969 147.836 185.68 148.125 185.68 148.482V148.485C185.68 148.842 185.969 149.131 186.326 149.131H201.891C202.248 149.131 202.537 148.842 202.537 148.485V148.482C202.537 148.125 202.248 147.836 201.891 147.836Z" fill="black"/>
<path opacity="0.3" d="M193.051 151.236H186.326C185.969 151.236 185.68 151.525 185.68 151.882V151.885C185.68 152.242 185.969 152.531 186.326 152.531H193.051C193.408 152.531 193.697 152.242 193.697 151.885V151.882C193.697 151.525 193.408 151.236 193.051 151.236Z" fill="black"/>
<path d="M173.204 91.1031H151.383V120.078H173.204V91.1031Z" fill="white"/>
<path d="M172.18 92.1231H152.398V119.058H172.18V92.1231Z" fill="#407BFF"/>
<path opacity="0.4" d="M172.18 92.1231H152.398V119.058H172.18V92.1231Z" fill="white"/>
<path opacity="0.3" d="M173.204 123.454H151.383V152.388H173.204V123.454Z" fill="black"/>
<path opacity="0.3" d="M169.536 127.939H154.654C154.482 127.938 154.318 127.869 154.197 127.747C154.076 127.626 154.008 127.461 154.008 127.289C154.008 127.118 154.076 126.954 154.197 126.833C154.318 126.711 154.482 126.643 154.654 126.643H169.536C169.621 126.643 169.705 126.659 169.784 126.692C169.863 126.724 169.934 126.771 169.995 126.831C170.055 126.891 170.103 126.963 170.136 127.041C170.168 127.12 170.185 127.204 170.185 127.289C170.185 127.375 170.168 127.459 170.136 127.538C170.103 127.617 170.055 127.688 169.995 127.749C169.935 127.809 169.863 127.857 169.784 127.889C169.705 127.922 169.621 127.939 169.536 127.939Z" fill="white"/>
<path opacity="0.3" d="M169.539 130.261H154.654C154.297 130.261 154.008 130.55 154.008 130.907V130.91C154.008 131.267 154.297 131.556 154.654 131.556H169.539C169.896 131.556 170.185 131.267 170.185 130.91V130.907C170.185 130.55 169.896 130.261 169.539 130.261Z" fill="white"/>
<path opacity="0.3" d="M162.736 135.177H154.654C154.482 135.176 154.318 135.108 154.197 134.986C154.076 134.864 154.008 134.7 154.008 134.528C154.008 134.357 154.076 134.192 154.197 134.071C154.318 133.95 154.482 133.882 154.654 133.882H162.736C162.821 133.882 162.905 133.898 162.984 133.93C163.063 133.962 163.134 134.01 163.195 134.07C163.255 134.13 163.303 134.201 163.336 134.28C163.368 134.359 163.385 134.443 163.385 134.528C163.385 134.7 163.317 134.865 163.195 134.987C163.073 135.109 162.908 135.177 162.736 135.177Z" fill="white"/>
<path opacity="0.3" d="M169.536 138.795H154.654C154.482 138.795 154.318 138.727 154.197 138.606C154.076 138.485 154.008 138.32 154.008 138.149C154.008 137.977 154.076 137.813 154.197 137.691C154.318 137.569 154.482 137.5 154.654 137.5H169.536C169.708 137.5 169.873 137.568 169.995 137.69C170.117 137.812 170.185 137.977 170.185 138.149C170.185 138.234 170.168 138.318 170.136 138.397C170.103 138.476 170.055 138.547 169.995 138.607C169.934 138.667 169.863 138.715 169.784 138.747C169.705 138.779 169.621 138.795 169.536 138.795Z" fill="white"/>
<path opacity="0.3" d="M169.536 142.412H154.654C154.482 142.412 154.318 142.344 154.197 142.223C154.076 142.102 154.008 141.938 154.008 141.766C154.008 141.595 154.076 141.431 154.197 141.31C154.318 141.189 154.482 141.12 154.654 141.12H169.536C169.621 141.12 169.705 141.136 169.784 141.169C169.863 141.201 169.934 141.248 169.995 141.308C170.055 141.369 170.103 141.44 170.136 141.518C170.168 141.597 170.185 141.681 170.185 141.766C170.185 141.852 170.168 141.936 170.136 142.014C170.103 142.093 170.055 142.164 169.995 142.224C169.934 142.285 169.863 142.332 169.784 142.364C169.705 142.397 169.621 142.413 169.536 142.412Z" fill="white"/>
<path opacity="0.3" d="M159.336 146.02H154.654C154.482 146.02 154.318 145.952 154.197 145.831C154.076 145.71 154.008 145.545 154.008 145.374C154.007 145.289 154.024 145.204 154.056 145.126C154.088 145.047 154.136 144.975 154.196 144.915C154.256 144.855 154.327 144.807 154.406 144.774C154.484 144.741 154.569 144.725 154.654 144.725H159.336C159.421 144.724 159.506 144.741 159.585 144.773C159.664 144.806 159.735 144.853 159.796 144.914C159.856 144.974 159.904 145.046 159.937 145.125C159.969 145.204 159.985 145.289 159.985 145.374C159.985 145.459 159.968 145.543 159.936 145.622C159.903 145.701 159.855 145.772 159.795 145.832C159.734 145.892 159.663 145.939 159.584 145.972C159.505 146.004 159.421 146.02 159.336 146.02Z" fill="white"/>
<path opacity="0.3" d="M166.136 149.651H154.654C154.482 149.651 154.318 149.583 154.197 149.462C154.076 149.341 154.008 149.176 154.008 149.005C154.008 148.834 154.076 148.669 154.197 148.548C154.318 148.427 154.482 148.359 154.654 148.359H166.136C166.221 148.359 166.305 148.375 166.384 148.407C166.463 148.44 166.534 148.487 166.595 148.547C166.655 148.607 166.703 148.679 166.736 148.757C166.768 148.836 166.785 148.92 166.785 149.005C166.785 149.09 166.768 149.175 166.736 149.253C166.703 149.332 166.655 149.403 166.595 149.463C166.534 149.523 166.463 149.571 166.384 149.603C166.305 149.635 166.221 149.652 166.136 149.651Z" fill="white"/>
<path d="M221.791 147.003C221.503 146.887 221.191 146.843 220.881 146.873C220.572 146.903 220.274 147.007 220.013 147.176C218.364 148.118 217.674 151.987 217.385 154.996C217.49 150.729 218.191 144.827 220.989 141.614L220.734 141.393C218.391 144.079 217.48 148.485 217.164 152.351C217.12 150.705 217.018 148.924 216.8 147.227C216.875 143.586 217.191 140.281 218.024 139.155L217.749 138.951C217.014 139.944 216.661 142.467 216.518 145.411C216.1 143.205 215.433 141.331 214.39 140.369L214.162 140.617C215.406 141.763 216.093 144.378 216.453 147.268C216.453 147.676 216.453 148.091 216.436 148.505C216.113 146.805 215.678 145.408 215.104 144.847C213.166 142.963 210.888 144.82 210.867 144.847L211.085 145.105C211.166 145.037 213.149 143.429 214.866 145.105C215.62 145.836 216.12 148.227 216.447 150.749C216.491 153.772 216.64 156.614 216.742 158.267C216.742 158.529 216.719 158.678 216.719 158.692H216.77C216.807 159.263 216.834 159.63 216.841 159.712L217.14 159.688C217.14 159.895 217.171 160.028 217.174 160.079L217.514 160.048C217.514 160.021 217.463 159.518 217.426 158.688H217.531C217.531 158.593 217.643 148.93 220.2 147.468C220.416 147.325 220.663 147.237 220.921 147.21C221.178 147.184 221.439 147.22 221.679 147.315C223.175 147.934 223.974 150.797 223.981 150.828L224.321 150.736C224.256 150.613 223.444 147.686 221.791 147.003Z" fill="#263238"/>
<path d="M212.944 147.312C211.458 147.417 210.309 149.427 210.258 149.512L210.557 149.678C210.557 149.658 211.665 147.744 212.968 147.638C213.515 147.604 214.035 147.9 214.518 148.526C216.524 151.147 216.119 158.593 216.116 158.668L216.456 158.688C216.456 158.376 216.871 151.038 214.787 148.322C214.232 147.608 213.61 147.264 212.944 147.312Z" fill="#263238"/>
<g opacity="0.2">
<path d="M221.791 147.003C221.503 146.887 221.191 146.843 220.881 146.873C220.572 146.903 220.274 147.007 220.013 147.176C218.364 148.118 217.674 151.987 217.385 154.996C217.49 150.729 218.191 144.827 220.989 141.614L220.734 141.393C218.391 144.079 217.48 148.485 217.164 152.351C217.12 150.705 217.018 148.924 216.8 147.227C216.875 143.586 217.191 140.281 218.024 139.155L217.749 138.951C217.014 139.944 216.661 142.467 216.518 145.411C216.1 143.205 215.433 141.331 214.39 140.369L214.162 140.617C215.406 141.763 216.093 144.378 216.453 147.268C216.453 147.676 216.453 148.091 216.436 148.505C216.113 146.805 215.678 145.408 215.104 144.847C213.166 142.963 210.888 144.82 210.867 144.847L211.085 145.105C211.166 145.037 213.149 143.429 214.866 145.105C215.62 145.836 216.12 148.227 216.447 150.749C216.491 153.772 216.64 156.614 216.742 158.267C216.742 158.529 216.719 158.678 216.719 158.692H216.77C216.807 159.263 216.834 159.63 216.841 159.712L217.14 159.688C217.14 159.895 217.171 160.028 217.174 160.079L217.514 160.048C217.514 160.021 217.463 159.518 217.426 158.688H217.531C217.531 158.593 217.643 148.93 220.2 147.468C220.416 147.326 220.663 147.237 220.921 147.21C221.178 147.184 221.439 147.22 221.679 147.315C223.175 147.934 223.974 150.797 223.981 150.828L224.321 150.736C224.256 150.613 223.444 147.686 221.791 147.003Z" fill="white"/>
<path d="M212.952 147.312C211.466 147.417 210.317 149.427 210.266 149.512L210.565 149.678C210.565 149.658 211.673 147.744 212.975 147.638C213.523 147.604 214.043 147.9 214.526 148.526C216.532 151.147 216.127 158.593 216.124 158.668L216.464 158.688C216.464 158.376 216.879 151.038 214.794 148.322C214.24 147.608 213.618 147.264 212.952 147.312Z" fill="white"/>
</g>
<path d="M222.383 148.757C222.383 148.757 221.054 149.247 221.448 150.406C221.843 151.565 226.052 153.466 226.052 153.466C226.052 153.466 227.816 151.851 226.198 149.223C224.58 146.595 222.421 147.927 222.383 148.757Z" fill="#263238"/>
<path d="M216.592 146.55C216.592 146.55 218.01 146.489 218.091 147.713C218.173 148.937 215.031 152.313 215.031 152.313C215.031 152.313 212.78 151.501 213.263 148.451C213.746 145.401 216.242 145.799 216.592 146.55Z" fill="#263238"/>
<path d="M215.402 140.702C215.402 140.702 216.347 140.6 216.272 140.022C216.197 139.444 212.597 137.965 210.492 140.362C210.492 140.362 211.852 142.695 213.817 142.725C215.783 142.756 215.402 140.702 215.402 140.702Z" fill="#263238"/>
<path d="M217.159 139.305C217.159 139.305 216.306 139.72 216.064 139.189C215.823 138.659 218.104 135.5 221.164 136.412C221.164 136.412 221.246 139.111 219.597 140.175C217.948 141.24 217.159 139.305 217.159 139.305Z" fill="#263238"/>
<path d="M212.681 148.291C212.681 148.291 213.333 147.764 212.63 147.506C211.926 147.247 208.472 147.322 208.438 150.743C208.438 150.743 212.46 151.423 212.956 150.11C213.452 148.798 212.681 148.291 212.681 148.291Z" fill="#263238"/>
<path d="M220.887 140.617C220.887 140.617 220.234 140.09 220.938 139.832C221.642 139.574 225.096 139.648 225.13 143.069C225.13 143.069 221.108 143.749 220.612 142.436C220.115 141.124 220.887 140.617 220.887 140.617Z" fill="#263238"/>
<path d="M218.758 143.371C218.758 143.371 218.701 142.732 219.217 142.984C219.734 143.235 221.536 145.177 219.67 147.02C219.67 147.02 217.157 145.16 217.609 144.191C218.061 143.222 218.758 143.371 218.758 143.371Z" fill="#263238"/>
<path d="M212.095 144.286C212.095 144.286 212.482 143.773 211.914 143.711C211.347 143.65 208.783 144.33 209.378 146.884C209.378 146.884 212.496 146.649 212.628 145.588C212.761 144.527 212.095 144.286 212.095 144.286Z" fill="#263238"/>
<path d="M222.63 168.174H211.934L210.781 156.465H223.786L222.63 168.174Z" fill="#407BFF"/>
<path opacity="0.2" d="M222.63 168.174H211.934L210.781 156.465H223.786L222.63 168.174Z" fill="white"/>
<path d="M224.358 155.173H210.211V157.757H224.358V155.173Z" fill="#407BFF"/>
<path opacity="0.5" d="M224.358 155.173H210.211V157.757H224.358V155.173Z" fill="white"/>
</g>
<defs>
<clipPath id="clip0_2459_23652">
<rect width="170" height="170" fill="white" transform="translate(84.25 26)"/>
</clipPath>
</defs>
</svg>
