<svg width="347" height="182" viewBox="0 0 347 182" fill="none" xmlns="http://www.w3.org/2000/svg">
<path d="M0.25 8C0.25 3.58173 3.83172 0 8.25 0H338.25C342.668 0 346.25 3.58172 346.25 8V129H0.25V8Z" fill="#E0E5EE"/>
<mask id="mask0_2459_23361" style="mask-type:alpha" maskUnits="userSpaceOnUse" x="0" y="0" width="346" height="129">
<rect x="0.5" width="345" height="129" rx="8" fill="white"/>
</mask>
<g mask="url(#mask0_2459_23361)">
<path opacity="0.8" d="M157.642 70.0001C158.316 68.6602 158.636 67.1701 158.572 65.6715C158.507 64.173 158.06 62.716 157.273 61.439C156.486 60.1621 155.386 59.1077 154.076 58.3762C152.767 57.6448 151.292 57.2605 149.792 57.2601C148.66 57.2582 147.539 57.4791 146.492 57.9101C145.621 55.4225 143.998 53.2672 141.849 51.7425C139.699 50.2178 137.128 49.3993 134.492 49.4001H134.252C133.269 45.1195 130.954 41.2611 127.639 38.3796C124.324 35.4982 120.181 33.7422 115.805 33.3644C111.429 32.9865 107.047 34.0061 103.287 36.2766C99.5274 38.5471 96.5847 41.9515 94.8822 46.0001C92.8071 46.6445 90.8997 47.7386 89.2957 49.2043C87.6917 50.67 86.4306 52.4714 85.6022 54.4801C84.2184 54.0939 82.7692 54.0006 81.3473 54.2061C79.9254 54.4117 78.562 54.9115 77.3443 55.6738C76.1265 56.4361 75.0811 57.444 74.2749 58.6332C73.4687 59.8224 72.9195 61.1666 72.6622 62.5801C71.6988 62.202 70.6575 62.065 69.6291 62.1813C68.6006 62.2975 67.6162 62.6634 66.7614 63.247C65.9067 63.8306 65.2076 64.6143 64.7249 65.5299C64.2423 66.4455 63.9907 67.4651 63.9922 68.5001C63.9943 69.0126 64.0581 69.5229 64.1822 70.0201L157.642 70.0001Z" fill="#DADFE9"/>
<path opacity="0.8" d="M314.2 94C314.2 93.7045 314.25 93.3946 314.25 93.0919C314.25 90.9014 313.393 88.8006 311.866 87.2516C310.34 85.7027 308.27 84.8325 306.112 84.8325C305.101 84.8314 304.098 85.0246 303.158 85.4019C302.49 82.1371 300.63 79.2498 297.95 77.3204C295.271 75.3911 291.971 74.5628 288.714 75.002C287.747 70.5702 285.434 66.558 282.102 63.5303C278.769 60.5027 274.585 58.6123 270.138 58.1253C265.692 57.6382 261.207 58.5791 257.314 60.8155C253.422 63.0518 250.32 66.4709 248.443 70.5913C246.5 70.6531 244.588 71.0961 242.812 71.8958C240.413 69.9597 237.524 68.7507 234.478 68.4079C231.432 68.065 228.353 68.6024 225.595 69.9581C222.836 71.3137 220.511 73.4325 218.888 76.0705C217.264 78.7084 216.407 81.7582 216.416 84.8686C214.265 84.8628 212.198 85.7213 210.668 87.2566C209.138 88.792 208.269 90.8794 208.25 93.0631C208.251 93.3667 208.27 93.6699 208.307 93.9712L314.2 94Z" fill="#DADFE9"/>
<circle opacity="0.7" cx="-7.25" cy="98" r="15.5" transform="rotate(180 -7.25 98)" fill="#D7DCE6"/>
<circle opacity="0.7" cx="14.75" cy="67.5" r="4.5" transform="rotate(180 14.75 67.5)" fill="#D7DCE6"/>
</g>
<path d="M104.256 121.2C104.891 120.817 105.574 120.52 106.287 120.316L106.705 118.308L110.115 118.249L110.605 120.242C111.325 120.42 112.018 120.692 112.667 121.051L114.384 119.926L116.827 122.288L115.751 124.03C116.134 124.665 116.431 125.348 116.635 126.061L118.643 126.479L118.702 129.889L116.712 130.379C116.533 131.099 116.26 131.792 115.9 132.441L117.025 134.158L114.666 136.601L112.912 135.537C112.277 135.921 111.594 136.217 110.881 136.418L110.463 138.43L107.053 138.489L106.563 136.495C105.843 136.317 105.149 136.044 104.501 135.683L102.784 136.808L100.341 134.449L101.404 132.695C101.021 132.059 100.724 131.375 100.521 130.661L98.512 130.246L98.4531 126.836L100.446 126.346C100.625 125.626 100.898 124.933 101.259 124.284L100.133 122.567L102.492 120.124L104.247 121.188L104.256 121.2ZM106.067 125.726C105.566 126.245 105.23 126.9 105.102 127.61C104.974 128.319 105.059 129.051 105.346 129.712C105.634 130.373 106.111 130.934 106.717 131.324C107.324 131.714 108.032 131.916 108.753 131.903C109.474 131.891 110.175 131.665 110.767 131.254C111.36 130.843 111.817 130.265 112.081 129.595C112.345 128.924 112.405 128.19 112.252 127.485C112.099 126.78 111.741 126.137 111.222 125.636C110.878 125.303 110.471 125.041 110.026 124.865C109.58 124.69 109.105 124.604 108.626 124.612C108.147 124.62 107.674 124.723 107.235 124.914C106.796 125.105 106.399 125.381 106.067 125.726Z" fill="#EBEBEB"/>
<path d="M249.492 43.3806C250.046 43.0452 250.642 42.7856 251.265 42.6087L251.628 40.8572L254.588 40.8045L255.016 42.5436C255.644 42.6972 256.247 42.935 256.811 43.2504L258.308 42.2708L260.438 44.3261L259.508 45.8575C259.843 46.4101 260.102 47.0056 260.277 47.6276L262.028 47.9903L262.081 50.9508L260.342 51.3786C260.188 52.006 259.951 52.6098 259.635 53.1735L260.618 54.6708L258.559 56.8005L257.031 55.8705C256.484 56.2039 255.895 56.4635 255.28 56.6424L254.914 58.3939L251.953 58.4466L251.526 56.7075C250.898 56.5539 250.294 56.3161 249.731 56.0007L248.233 56.9834L246.104 54.925L247.034 53.3967C246.7 52.8435 246.441 52.2482 246.265 51.6266L244.513 51.2608L244.43 48.3003L246.169 47.8756C246.322 47.2472 246.56 46.6424 246.876 46.0776L245.893 44.5803L247.951 42.4506L249.48 43.3806H249.492ZM251.073 47.3238C250.637 47.7757 250.345 48.3466 250.234 48.9645C250.122 49.5824 250.197 50.2194 250.447 50.795C250.698 51.3706 251.114 51.859 251.642 52.1983C252.17 52.5377 252.787 52.7128 253.415 52.7015C254.042 52.6903 254.653 52.4931 255.168 52.135C255.684 51.7769 256.082 51.2739 256.312 50.6897C256.542 50.1054 256.593 49.4662 256.46 48.8527C256.326 48.2392 256.014 47.6791 255.562 47.2432C255.262 46.9537 254.908 46.7262 254.52 46.5736C254.132 46.421 253.718 46.3463 253.301 46.3538C252.884 46.3613 252.473 46.4508 252.09 46.6172C251.708 46.7837 251.362 47.0238 251.073 47.3238Z" fill="#F5F5F5"/>
<path d="M80.8062 44.286C81.4433 43.9004 82.1294 43.6022 82.846 43.3994L83.2645 41.3813L86.6745 41.3193L87.1643 43.325C87.888 43.5012 88.5846 43.7744 89.2351 44.1372L90.9587 43.0088L93.4139 45.3772L92.3475 47.1504C92.7331 47.7876 93.0313 48.4736 93.2341 49.1902L95.2522 49.6087L95.3142 53.0187L93.3116 53.5085C93.1324 54.2317 92.8582 54.9281 92.4963 55.5793L93.6247 57.3029L91.2563 59.7581L89.4924 58.6886C88.8553 59.0743 88.1692 59.3725 87.4526 59.5752L87.0341 61.5933L83.6241 61.6553L83.1343 59.6527C82.4097 59.4718 81.7123 59.1956 81.0604 58.8312L79.3368 59.9596L76.8816 57.5912L77.9604 55.8304C77.5748 55.1933 77.2765 54.5072 77.0738 53.7906L75.0464 53.369L74.9844 49.959L76.9901 49.4692C77.1668 48.7457 77.44 48.0492 77.8023 47.3984L76.6739 45.6748L79.0423 43.2196L80.8062 44.2891V44.286ZM82.6104 48.8306C82.1074 49.3515 81.7701 50.0098 81.6412 50.7223C81.5123 51.4348 81.5976 52.1696 81.8863 52.8336C82.175 53.4977 82.6541 54.0612 83.263 54.453C83.872 54.8447 84.5834 55.0471 85.3074 55.0345C86.0314 55.022 86.7354 54.795 87.3303 54.3823C87.9253 53.9697 88.3846 53.3898 88.65 52.7162C88.9155 52.0425 88.9752 51.3052 88.8217 50.5976C88.6681 49.89 88.3082 49.2438 87.7874 48.7407C87.4418 48.4063 87.0336 48.1433 86.5862 47.9668C86.1389 47.7903 85.6611 47.7038 85.1802 47.7121C84.6994 47.7205 84.2249 47.8236 83.7839 48.0155C83.343 48.2074 82.9442 48.4844 82.6104 48.8306Z" fill="#F5F5F5"/>
<path d="M95.4353 147.9C96.7807 146.933 98.4795 146.583 100.135 146.61C101.025 146.626 101.967 146.753 102.655 147.317C103.343 147.881 103.622 149.013 103.027 149.673C102.634 150.034 102.128 150.246 101.595 150.272C100.327 150.445 98.8887 150.43 97.9928 151.341C97.4782 151.859 97.2023 152.637 96.5451 152.953C96.2116 153.084 95.8446 153.103 95.4995 153.007C95.1544 152.91 94.85 152.704 94.6324 152.42C94.2111 151.835 94.0303 151.11 94.1271 150.396C94.1381 149.907 94.2619 149.427 94.4888 148.995C94.7157 148.562 95.0397 148.187 95.4353 147.9Z" fill="#EBEBEB"/>
<path d="M91.1486 144.49C92.2243 145.631 93.8921 144.955 94.5803 144.06C95.2685 143.164 95.4421 141.992 95.5909 140.873C95.935 138.318 96.2667 135.643 95.3739 133.225C95.1356 132.488 94.6991 131.83 94.1122 131.325C93.816 131.076 93.4596 130.909 93.0787 130.842C92.6978 130.774 92.3058 130.808 91.9422 130.94C91.1052 131.3 90.7022 132.233 90.417 133.11C89.6225 135.682 89.4107 138.398 89.797 141.062C89.9768 142.302 90.3147 143.579 91.1641 144.497" fill="#EBEBEB"/>
<path d="M89.2981 150.104C90.0297 148.92 89.9708 147.358 89.3818 146.096C88.7928 144.834 87.7326 143.842 86.5701 143.077C85.1991 142.179 83.6674 141.556 82.0596 141.241C81.4323 141.09 80.7799 141.077 80.1469 141.201C79.831 141.266 79.5358 141.407 79.2871 141.613C79.0385 141.818 78.8441 142.081 78.7209 142.379C78.4109 143.275 78.9751 144.224 79.5486 144.98C80.5614 146.315 81.6777 147.568 82.8873 148.728C83.8576 149.658 84.9488 150.56 86.2632 150.851C87.5776 151.143 88.861 150.898 89.3942 149.937" fill="#EBEBEB"/>
<path d="M93.9219 161.152C93.9414 160.957 93.9414 160.759 93.9219 160.563C93.9002 160.136 93.8754 159.599 93.8444 158.964C93.8029 158.176 93.8029 157.386 93.8444 156.599C93.9133 155.638 94.0595 154.684 94.2815 153.747C94.4967 152.811 94.8432 151.91 95.3107 151.071C95.6927 150.388 96.2222 149.798 96.8607 149.345C97.294 149.045 97.7722 148.816 98.2774 148.666C98.4711 148.63 98.6603 148.572 98.8416 148.495C98.6431 148.501 98.4458 148.527 98.2526 148.573C97.7247 148.69 97.2219 148.899 96.7677 149.193C96.0925 149.642 95.5303 150.242 95.1247 150.944C94.6346 151.797 94.2731 152.717 94.0521 153.675C93.8279 154.628 93.6858 155.597 93.6274 156.574C93.5938 157.37 93.6072 158.167 93.6677 158.961C93.7142 159.637 93.7762 160.182 93.8227 160.557C93.8317 160.759 93.865 160.959 93.9219 161.152Z" fill="#E0E0E0"/>
<path d="M93.8567 162.446C93.8603 162.355 93.8519 162.264 93.8319 162.176C93.8009 161.974 93.7637 161.723 93.7172 161.41C93.618 160.747 93.4754 159.783 93.3359 158.589C93.0445 156.202 92.8709 153.614 92.7345 149.949C92.6074 146.502 92.5268 142.478 92.6787 139.834C92.7066 139.236 92.7438 138.693 92.781 138.216C92.8182 137.739 92.8461 137.329 92.8833 136.998C92.9205 136.666 92.9329 136.427 92.9515 136.226C92.9618 136.135 92.9618 136.044 92.9515 135.953C92.9215 136.039 92.9027 136.129 92.8957 136.22C92.8647 136.421 92.8275 136.675 92.781 136.985C92.7345 137.295 92.6849 137.729 92.6384 138.204C92.5919 138.678 92.5361 139.22 92.5082 139.84C92.2988 142.972 92.2574 146.113 92.3842 149.249C92.5237 152.922 92.8306 156.239 93.1654 158.626C93.3297 159.82 93.4971 160.781 93.6242 161.441C93.6893 161.751 93.742 162.002 93.7854 162.201C93.7978 162.285 93.8218 162.368 93.8567 162.446Z" fill="#E0E0E0"/>
<path d="M92.9276 158.75C92.9082 158.502 92.8698 158.255 92.8129 158.012C92.7168 157.544 92.5494 156.872 92.2952 156.053C91.9871 155.098 91.627 154.16 91.2164 153.245C90.7259 152.118 90.1508 151.03 89.4959 149.99C88.3493 148.063 86.8632 146.359 85.1094 144.961C84.8057 144.728 84.4879 144.514 84.1577 144.32C84.012 144.23 83.8818 144.137 83.7547 144.069L83.3951 143.892C83.1777 143.772 82.9518 143.669 82.7193 143.582C82.6914 143.638 83.6834 144.038 85.0164 145.095C86.7218 146.512 88.1737 148.209 89.3099 150.114C89.9554 151.149 90.5312 152.226 91.0335 153.338C91.452 154.243 91.8245 155.169 92.1495 156.112C92.4223 156.918 92.6114 157.582 92.7323 158.043C92.7805 158.283 92.8458 158.52 92.9276 158.75Z" fill="#E0E0E0"/>
<path d="M86.2422 158.673L86.8839 167.483H98.1989L98.8437 158.673H86.2422Z" fill="#E0E0E0"/>
<path d="M100.193 155.201H85.1484V158.673H100.193V155.201Z" fill="#E0E0E0"/>
<path d="M85.1484 167.145V168.109H85.8552H99.9447V167.145H85.1484Z" fill="#EBEBEB"/>
<path d="M86.5538 169.802L85.8594 168.109H99.4095L98.6035 169.802H86.5538Z" fill="#E0E0E0"/>
<path d="M98.6313 161.54C98.6313 161.54 98.6158 161.571 98.5786 161.621L98.4174 161.85L97.7571 162.693L97.7261 162.731L97.6982 162.69C97.2859 162.117 96.731 161.351 96.08 160.452H96.173L94.5796 162.709L94.5269 162.78L94.4711 162.712C93.8852 162.011 93.2311 161.252 92.5801 160.461H92.6917L92.5863 160.592L90.8968 162.712L90.8379 162.783L90.7883 162.709L89.1918 160.452H89.2848L87.3194 162.69L87.2853 162.731L87.2574 162.687C87.0001 162.25 86.7924 161.906 86.6374 161.652L86.4793 161.379C86.4595 161.348 86.4429 161.314 86.4297 161.28C86.4297 161.28 86.4545 161.308 86.4979 161.367C86.5413 161.426 86.6002 161.525 86.6715 161.633C86.8296 161.878 87.0466 162.219 87.3163 162.647H87.2543L89.1887 160.381L89.2383 160.325L89.2817 160.387L90.8906 162.635H90.7821L92.4685 160.511L92.5739 160.381L92.6266 160.313L92.6824 160.378L94.5703 162.631H94.4618L96.0738 160.384L96.1203 160.319L96.1668 160.384C96.8054 161.295 97.3479 162.07 97.7509 162.65H97.6951L98.3802 161.829L98.5631 161.615C98.6065 161.574 98.6282 161.54 98.6313 161.54Z" fill="#F5F5F5"/>
<path d="M99.0009 158.617C99.0009 158.654 96.1644 158.685 92.6676 158.685C89.1708 158.685 86.3281 158.654 86.3281 158.617C86.3281 158.58 89.1646 158.546 92.6614 158.546C96.1582 158.546 99.0009 158.577 99.0009 158.617Z" fill="#F5F5F5"/>
<path d="M99.5765 168.202C99.5765 168.242 96.4951 168.273 92.6945 168.273C88.8939 168.273 85.8125 168.242 85.8125 168.202C85.8125 168.162 88.8939 168.134 92.6945 168.134C96.4951 168.134 99.5765 168.165 99.5765 168.202Z" fill="#F5F5F5"/>
<path d="M230.381 146.35C230.381 146.35 230.353 146.139 230.278 145.764C230.181 145.232 230.024 144.712 229.81 144.214C229.504 143.479 229.05 142.814 228.477 142.261C227.783 141.571 226.846 141.183 225.868 141.179C224.889 141.176 223.949 141.558 223.251 142.243C222.676 142.794 222.221 143.456 221.911 144.189C221.697 144.687 221.538 145.207 221.437 145.739C221.363 146.114 221.347 146.325 221.332 146.322C221.327 146.272 221.327 146.221 221.332 146.17C221.332 146.068 221.35 145.919 221.378 145.73C221.459 145.191 221.605 144.664 221.815 144.161C222.116 143.406 222.574 142.722 223.158 142.156C223.877 141.441 224.851 141.04 225.866 141.043C226.88 141.046 227.852 141.452 228.567 142.171C229.146 142.742 229.6 143.427 229.9 144.183C230.106 144.688 230.251 145.216 230.331 145.755C230.359 145.944 230.371 146.093 230.378 146.195C230.387 146.246 230.388 146.299 230.381 146.35Z" fill="#E0E0E0"/>
<path d="M231.943 146.35C231.943 146.35 231.915 146.139 231.841 145.764C231.743 145.232 231.586 144.712 231.373 144.214C231.066 143.479 230.613 142.815 230.04 142.261C229.346 141.573 228.409 141.184 227.432 141.181C226.454 141.178 225.515 141.559 224.816 142.243C224.242 142.791 223.785 143.45 223.474 144.18C223.261 144.678 223.102 145.198 223 145.73C222.925 146.105 222.91 146.316 222.894 146.313C222.889 146.262 222.889 146.212 222.894 146.161C222.894 146.059 222.913 145.91 222.941 145.721C223.021 145.182 223.168 144.655 223.378 144.152C223.68 143.397 224.137 142.714 224.72 142.147C225.44 141.431 226.414 141.031 227.428 141.034C228.443 141.037 229.414 141.443 230.13 142.162C230.708 142.733 231.162 143.418 231.463 144.174C231.669 144.679 231.814 145.206 231.894 145.746C231.921 145.935 231.934 146.084 231.94 146.186C231.95 146.24 231.951 146.296 231.943 146.35Z" fill="#E0E0E0"/>
<path d="M216.864 145.777L234.509 145.64L234.897 169.696H215.094L216.864 145.777Z" fill="#EBEBEB"/>
<path d="M234.508 145.64H236.724L238.631 169.696H234.895L234.508 145.64Z" fill="#E0E0E0"/>
<path d="M230.167 155.111H220.117V157.045H230.167V155.111Z" fill="#F3F3F3"/>
<path d="M266.335 92.1623C266.335 92.1623 262.203 93.734 263.192 98.136C264.181 102.538 266.134 105.988 268.18 107.436C270.226 108.884 272.945 108.152 273.834 107.126C274.346 106.54 273.248 103.313 271.568 103.139C270.796 103.059 270.018 104.965 268.8 104.187C267.582 103.409 265.765 99.2272 265.917 98.1825C266.069 97.1378 267.777 97.2711 268.375 96.8836C269.491 96.1737 267.957 91.13 266.335 92.1623Z" fill="#E0E0E0"/>
<path d="M216.152 42.0134H135.096C132.903 42.0134 131.125 43.7914 131.125 45.9845V165.762C131.125 167.956 132.903 169.733 135.096 169.733H216.152C218.345 169.733 220.123 167.956 220.123 165.762V45.9845C220.123 43.7914 218.345 42.0134 216.152 42.0134Z" fill="#7A89A5"/>
<path d="M216.146 169.73L216.425 169.712C216.54 169.708 216.654 169.695 216.766 169.672C216.923 169.648 217.079 169.614 217.231 169.569C217.749 169.419 218.23 169.166 218.647 168.824C219.064 168.483 219.407 168.06 219.655 167.582C219.825 167.248 219.949 166.892 220.024 166.525C220.089 166.115 220.114 165.7 220.099 165.285C220.099 164.408 220.099 163.45 220.099 162.411C220.099 160.331 220.099 157.935 220.099 155.238C220.099 144.441 220.08 128.823 220.068 109.522C220.068 99.875 220.068 89.304 220.068 77.9549C220.068 72.2819 220.068 66.4198 220.068 60.3686V51.1802C220.068 49.624 220.068 48.0595 220.068 46.4868C220.085 46.0972 220.064 45.7068 220.006 45.3212C219.942 44.9386 219.818 44.5683 219.64 44.2238C219.282 43.5258 218.722 42.9513 218.034 42.5746C217.688 42.3928 217.319 42.2603 216.937 42.1809C216.547 42.116 216.151 42.0901 215.756 42.1034H135.106C134.199 42.1001 133.32 42.4147 132.621 42.9923C131.922 43.57 131.448 44.3743 131.281 45.2654C131.214 45.7116 131.191 46.1633 131.212 46.6139V61.5497C131.212 68.721 131.212 75.7818 131.212 82.732C131.212 96.62 131.212 110.012 131.212 122.775C131.212 135.537 131.212 147.662 131.212 159.011V163.23C131.212 163.927 131.212 164.619 131.212 165.31C131.203 165.651 131.218 165.993 131.259 166.333C131.307 166.666 131.399 166.991 131.532 167.3C131.798 167.914 132.217 168.449 132.749 168.855C133.28 169.261 133.907 169.524 134.57 169.619C134.899 169.658 135.23 169.673 135.562 169.662H138.547H153.694L199.406 169.69L211.834 169.709L199.406 169.727L153.694 169.755H138.547H135.562C135.223 169.767 134.884 169.752 134.548 169.712C133.862 169.614 133.213 169.342 132.661 168.922C132.11 168.502 131.675 167.948 131.398 167.312C131.262 166.99 131.168 166.651 131.116 166.305C131.073 165.96 131.058 165.611 131.07 165.263C131.07 164.572 131.07 163.881 131.07 163.183V159.011C131.07 147.662 131.07 135.537 131.07 122.775C131.07 110.012 131.07 96.62 131.07 82.732C131.07 75.788 131.07 68.7272 131.07 61.5497V46.6139C131.049 46.1518 131.073 45.6888 131.141 45.2313C131.316 44.2989 131.812 43.4573 132.543 42.8529C133.275 42.2485 134.195 41.9197 135.143 41.9236H215.725C216.13 41.9095 216.536 41.9354 216.937 42.0011C217.336 42.0853 217.722 42.224 218.084 42.4134C218.798 42.8094 219.38 43.4081 219.755 44.1339C219.941 44.4973 220.069 44.8874 220.136 45.2902C220.196 45.685 220.218 46.0847 220.201 46.4837V51.1802C220.201 54.2802 220.201 57.3451 220.201 60.3748C220.201 66.4198 220.201 72.2819 220.201 77.9611C220.201 89.3102 220.201 99.8812 220.201 109.528C220.201 128.829 220.179 144.447 220.173 155.244C220.173 157.941 220.173 160.337 220.173 162.418C220.173 163.456 220.173 164.414 220.173 165.291C220.187 165.706 220.161 166.121 220.096 166.531C220.018 166.902 219.89 167.261 219.717 167.598C219.42 168.155 218.995 168.635 218.477 168.999C218.107 169.262 217.694 169.459 217.256 169.582C217.103 169.628 216.946 169.662 216.788 169.684C216.674 169.706 216.559 169.717 216.444 169.718C216.242 169.73 216.146 169.73 216.146 169.73Z" fill="#7A89A5"/>
<path d="M178.036 165.729C179.37 164.395 179.37 162.232 178.036 160.898C176.702 159.564 174.539 159.564 173.205 160.898C171.871 162.232 171.871 164.395 173.205 165.729C174.539 167.063 176.702 167.063 178.036 165.729Z" fill="#455A64"/>
<path d="M184.74 48.7625H166.565C166.229 48.7625 165.906 48.6289 165.668 48.3912C165.43 48.1534 165.297 47.8309 165.297 47.4946C165.296 47.3276 165.328 47.1621 165.392 47.0075C165.455 46.853 165.548 46.7125 165.666 46.5941C165.784 46.4757 165.924 46.3817 166.078 46.3176C166.232 46.2535 166.398 46.2205 166.565 46.2205H184.74C184.907 46.2205 185.071 46.2533 185.225 46.317C185.379 46.3808 185.519 46.4741 185.637 46.5919C185.754 46.7096 185.848 46.8494 185.911 47.0032C185.975 47.157 186.008 47.3219 186.008 47.4884C186.009 47.6554 185.977 47.821 185.913 47.9755C185.85 48.1301 185.757 48.2706 185.639 48.389C185.521 48.5074 185.381 48.6013 185.227 48.6654C185.072 48.7295 184.907 48.7625 184.74 48.7625Z" fill="#455A64"/>
<path d="M217.235 51.1246H133.852V157.786H217.235V51.1246Z" fill="#F3F3F3"/>
<path d="M173.234 109.15H150.713C150.252 109.15 149.811 108.967 149.485 108.642C149.159 108.316 148.977 107.875 148.977 107.414C148.977 106.954 149.159 106.512 149.485 106.187C149.811 105.861 150.252 105.678 150.713 105.678H173.234C173.694 105.678 174.136 105.861 174.462 106.187C174.787 106.512 174.97 106.954 174.97 107.414C174.97 107.875 174.787 108.316 174.462 108.642C174.136 108.967 173.694 109.15 173.234 109.15Z" fill="#E0E0E0"/>
<path d="M203.406 108.344H196.759C196.299 108.344 195.857 108.161 195.532 107.836C195.206 107.51 195.023 107.069 195.023 106.608C195.023 106.147 195.206 105.706 195.532 105.38C195.857 105.053 196.299 104.87 196.759 104.869H203.406C203.634 104.869 203.86 104.914 204.071 105.002C204.282 105.089 204.473 105.217 204.634 105.379C204.796 105.54 204.924 105.732 205.011 105.943C205.098 106.154 205.142 106.38 205.142 106.608C205.142 107.069 204.959 107.51 204.633 107.836C204.308 108.161 203.866 108.344 203.406 108.344Z" fill="#E0E0E0"/>
<path d="M180.838 116.507H150.713C150.252 116.507 149.811 116.324 149.485 115.998C149.159 115.673 148.977 115.231 148.977 114.771C148.977 114.543 149.021 114.317 149.109 114.106C149.196 113.896 149.324 113.704 149.485 113.543C149.646 113.382 149.838 113.254 150.048 113.167C150.259 113.079 150.485 113.035 150.713 113.035H180.838C181.066 113.035 181.292 113.079 181.503 113.167C181.713 113.254 181.905 113.382 182.066 113.543C182.227 113.704 182.355 113.896 182.442 114.106C182.529 114.317 182.574 114.543 182.574 114.771C182.574 115.231 182.391 115.673 182.066 115.998C181.74 116.324 181.299 116.507 180.838 116.507Z" fill="#E0E0E0"/>
<path d="M203.406 115.716H196.759C196.299 115.716 195.857 115.533 195.532 115.208C195.206 114.882 195.023 114.44 195.023 113.98C195.023 113.52 195.206 113.078 195.532 112.753C195.857 112.427 196.299 112.244 196.759 112.244H203.406C203.634 112.244 203.86 112.288 204.071 112.375C204.281 112.462 204.473 112.59 204.634 112.752C204.796 112.913 204.923 113.104 205.011 113.315C205.098 113.526 205.142 113.752 205.142 113.98C205.142 114.44 204.959 114.882 204.633 115.208C204.308 115.533 203.866 115.716 203.406 115.716Z" fill="#E0E0E0"/>
<path d="M162.97 123.878H150.713C150.252 123.878 149.811 123.695 149.485 123.37C149.159 123.044 148.977 122.603 148.977 122.142C148.977 121.914 149.021 121.689 149.109 121.478C149.196 121.267 149.324 121.076 149.485 120.915C149.646 120.754 149.838 120.626 150.048 120.538C150.259 120.451 150.485 120.406 150.713 120.406H162.97C163.198 120.406 163.424 120.451 163.634 120.538C163.845 120.626 164.036 120.754 164.198 120.915C164.359 121.076 164.487 121.267 164.574 121.478C164.661 121.689 164.706 121.914 164.706 122.142C164.706 122.37 164.662 122.596 164.575 122.807C164.488 123.018 164.36 123.209 164.198 123.371C164.037 123.532 163.846 123.66 163.635 123.747C163.424 123.834 163.198 123.879 162.97 123.878Z" fill="#E0E0E0"/>
<path d="M203.406 123.1H196.759C196.531 123.1 196.306 123.055 196.095 122.968C195.884 122.881 195.693 122.753 195.532 122.592C195.371 122.431 195.243 122.239 195.156 122.029C195.068 121.818 195.023 121.592 195.023 121.364C195.023 121.136 195.068 120.91 195.156 120.7C195.243 120.489 195.371 120.298 195.532 120.137C195.693 119.975 195.884 119.848 196.095 119.76C196.306 119.673 196.531 119.628 196.759 119.628H203.406C203.634 119.628 203.86 119.673 204.07 119.76C204.281 119.848 204.472 119.975 204.633 120.137C204.795 120.298 204.922 120.489 205.01 120.7C205.097 120.91 205.142 121.136 205.142 121.364C205.142 121.592 205.097 121.818 205.01 122.029C204.922 122.239 204.795 122.431 204.633 122.592C204.472 122.753 204.281 122.881 204.07 122.968C203.86 123.055 203.634 123.1 203.406 123.1Z" fill="#E0E0E0"/>
<path d="M203.406 130.103H196.759C196.299 130.103 195.857 129.92 195.532 129.595C195.206 129.269 195.023 128.827 195.023 128.367C195.023 127.907 195.206 127.465 195.532 127.139C195.857 126.814 196.299 126.631 196.759 126.631H203.406C203.866 126.631 204.308 126.814 204.633 127.139C204.959 127.465 205.142 127.907 205.142 128.367C205.142 128.595 205.098 128.821 205.011 129.032C204.923 129.243 204.796 129.434 204.634 129.595C204.473 129.757 204.281 129.885 204.071 129.972C203.86 130.059 203.634 130.103 203.406 130.103Z" fill="#455A64"/>
<path d="M188.233 71.4793H165.237C164.58 71.4793 164.047 72.0123 164.047 72.6697V95.6655C164.047 96.3229 164.58 96.8559 165.237 96.8559H188.233C188.891 96.8559 189.423 96.3229 189.423 95.6655V72.6697C189.423 72.0123 188.891 71.4793 188.233 71.4793Z" fill="#AFC3EC"/>
<path d="M180.963 86.1358H172.593C172.562 86.1358 172.532 86.1234 172.51 86.1013C172.488 86.0792 172.475 86.0493 172.475 86.018C172.475 86.0027 172.478 85.9875 172.484 85.9734C172.49 85.9593 172.499 85.9465 172.51 85.9358C172.521 85.9251 172.534 85.9167 172.548 85.9112C172.562 85.9056 172.578 85.9029 172.593 85.9033H180.882L181.812 80.4814H171.793C171.776 80.4842 171.759 80.4832 171.743 80.4787C171.726 80.4741 171.711 80.466 171.698 80.455C171.685 80.4439 171.674 80.4301 171.667 80.4146C171.66 80.3991 171.656 80.3823 171.656 80.3652C171.656 80.3481 171.66 80.3312 171.667 80.3157C171.674 80.3002 171.685 80.2865 171.698 80.2754C171.711 80.2643 171.726 80.2562 171.743 80.2517C171.759 80.2471 171.776 80.2462 171.793 80.2489H181.964C181.981 80.249 181.998 80.2526 182.013 80.2595C182.029 80.2664 182.043 80.2766 182.054 80.2892C182.065 80.3026 182.073 80.318 182.077 80.3346C182.081 80.3512 182.082 80.3685 182.079 80.3853L181.078 86.0397C181.072 86.0663 181.058 86.0902 181.037 86.1077C181.016 86.1251 180.99 86.135 180.963 86.1358Z" fill="#F3F3F3"/>
<path d="M180.681 88.1106L172.702 88.0858C172.673 88.086 172.646 88.0756 172.625 88.0567C172.604 88.0378 172.59 88.0118 172.587 87.9835L171.431 78.9749H168.969C168.954 78.9753 168.939 78.9727 168.925 78.9671C168.91 78.9615 168.897 78.9531 168.886 78.9425C168.875 78.9318 168.867 78.919 168.861 78.9049C168.855 78.8907 168.852 78.8756 168.852 78.8602C168.852 78.829 168.864 78.799 168.886 78.7769C168.908 78.7548 168.938 78.7424 168.969 78.7424H171.533C171.561 78.7429 171.588 78.7535 171.609 78.7723C171.63 78.7911 171.644 78.8168 171.648 78.8447L172.816 87.8533L180.697 87.8781C180.727 87.8789 180.757 87.8917 180.778 87.9137C180.799 87.9357 180.811 87.9652 180.811 87.9959C180.812 88.0124 180.808 88.0287 180.801 88.0437C180.795 88.0588 180.785 88.0722 180.772 88.0831C180.76 88.0939 180.746 88.102 180.73 88.1068C180.714 88.1115 180.697 88.1129 180.681 88.1106Z" fill="#F3F3F3"/>
<path d="M174.008 90.9535C173.789 90.9535 173.574 90.8884 173.392 90.7665C173.209 90.6445 173.067 90.4712 172.983 90.2684C172.899 90.0656 172.877 89.8425 172.92 89.6272C172.963 89.4119 173.068 89.2141 173.223 89.0589C173.379 88.9037 173.576 88.798 173.792 88.7552C174.007 88.7124 174.23 88.7344 174.433 88.8184C174.636 88.9024 174.809 89.0446 174.931 89.2271C175.053 89.4096 175.118 89.6242 175.118 89.8437C175.118 90.138 175.001 90.4203 174.793 90.6284C174.585 90.8366 174.303 90.9535 174.008 90.9535ZM174.008 88.9664C173.835 88.9664 173.665 89.0178 173.521 89.1142C173.377 89.2106 173.264 89.3477 173.198 89.508C173.131 89.6683 173.114 89.8447 173.148 90.0148C173.182 90.185 173.265 90.3413 173.388 90.464C173.511 90.5867 173.667 90.6703 173.837 90.7041C174.007 90.738 174.184 90.7206 174.344 90.6542C174.504 90.5878 174.641 90.4754 174.738 90.3311C174.834 90.1868 174.886 90.0172 174.886 89.8437C174.886 89.7285 174.863 89.6144 174.819 89.508C174.775 89.4015 174.71 89.3048 174.629 89.2233C174.547 89.1419 174.45 89.0773 174.344 89.0332C174.238 88.9891 174.123 88.9664 174.008 88.9664Z" fill="#F3F3F3"/>
<path d="M179.508 90.9535C179.289 90.9535 179.074 90.8884 178.892 90.7665C178.709 90.6445 178.567 90.4712 178.483 90.2684C178.399 90.0656 178.377 89.8425 178.42 89.6272C178.463 89.4119 178.568 89.2141 178.723 89.0589C178.879 88.9037 179.076 88.798 179.292 88.7552C179.507 88.7124 179.73 88.7344 179.933 88.8184C180.136 88.9024 180.309 89.0446 180.431 89.2271C180.553 89.4096 180.618 89.6242 180.618 89.8437C180.617 90.1378 180.5 90.4196 180.292 90.6275C180.084 90.8355 179.802 90.9527 179.508 90.9535ZM179.508 88.9664C179.335 88.9664 179.165 89.0178 179.021 89.1142C178.877 89.2106 178.764 89.3477 178.698 89.508C178.631 89.6683 178.614 89.8447 178.648 90.0148C178.682 90.185 178.765 90.3413 178.888 90.464C179.011 90.5867 179.167 90.6703 179.337 90.7041C179.507 90.738 179.684 90.7206 179.844 90.6542C180.004 90.5878 180.141 90.4754 180.238 90.3311C180.334 90.1868 180.386 90.0172 180.386 89.8437C180.386 89.7285 180.363 89.6144 180.319 89.508C180.275 89.4015 180.21 89.3048 180.129 89.2233C180.047 89.1419 179.95 89.0773 179.844 89.0332C179.738 88.9891 179.623 88.9664 179.508 88.9664Z" fill="#F3F3F3"/>
<path d="M175.175 86.136C175.145 86.1352 175.117 86.1233 175.096 86.1026C175.074 86.0819 175.062 86.054 175.06 86.0244L174.719 80.556C174.718 80.5407 174.72 80.5252 174.725 80.5106C174.729 80.496 174.737 80.4826 174.747 80.471C174.757 80.4594 174.77 80.45 174.783 80.4433C174.797 80.4366 174.812 80.4327 174.828 80.432C174.843 80.4307 174.858 80.4325 174.873 80.4373C174.888 80.4421 174.901 80.4498 174.913 80.46C174.924 80.4701 174.934 80.4824 174.94 80.4963C174.947 80.5101 174.951 80.5251 174.952 80.5405L175.293 86.012C175.294 86.0422 175.283 86.0716 175.263 86.0941C175.242 86.1166 175.214 86.1305 175.184 86.1329L175.175 86.136Z" fill="#F3F3F3"/>
<path d="M178.237 86.1358C178.221 86.1354 178.206 86.1319 178.192 86.1256C178.178 86.1193 178.166 86.1102 178.155 86.0989C178.145 86.0877 178.137 86.0744 178.132 86.06C178.127 86.0455 178.124 86.0302 178.125 86.0149L178.435 80.5434C178.436 80.5282 178.439 80.5132 178.445 80.4994C178.452 80.4856 178.461 80.4732 178.472 80.4631C178.484 80.4529 178.497 80.4452 178.511 80.4403C178.526 80.4355 178.541 80.4336 178.556 80.4349C178.587 80.4365 178.616 80.45 178.636 80.4726C178.657 80.4952 178.669 80.5251 178.668 80.5558L178.358 86.0273C178.357 86.0424 178.353 86.0571 178.347 86.0707C178.34 86.0844 178.331 86.0966 178.32 86.1066C178.309 86.1167 178.295 86.1245 178.281 86.1295C178.267 86.1345 178.252 86.1366 178.237 86.1358Z" fill="#F3F3F3"/>
<path d="M172.102 83.3983C172.087 83.3987 172.072 83.3961 172.057 83.3905C172.043 83.3849 172.03 83.3765 172.019 83.3658C172.008 83.3552 171.999 83.3424 171.993 83.3283C171.987 83.3141 171.984 83.299 171.984 83.2836C171.984 83.2529 171.996 83.2234 172.018 83.2014C172.039 83.1794 172.068 83.1666 172.099 83.1658L181.461 83.0759C181.491 83.0759 181.521 83.088 181.542 83.1095C181.564 83.131 181.576 83.1602 181.576 83.1906C181.576 83.2213 181.564 83.2508 181.542 83.2728C181.521 83.2949 181.492 83.3076 181.461 83.3084L172.099 83.3983H172.102Z" fill="#F3F3F3"/>
<path d="M183.526 81.9827C184.926 81.4067 185.594 79.8052 185.018 78.4056C184.442 77.006 182.84 76.3384 181.44 76.9144C180.041 77.4904 179.373 79.0919 179.949 80.4915C180.525 81.8911 182.127 82.5587 183.526 81.9827Z" fill="#F3F3F3"/>
<path d="M183.273 79.5357C183.389 79.6637 183.451 79.8313 183.447 80.0038C183.448 80.1444 183.408 80.2823 183.332 80.4006C183.249 80.5282 183.131 80.6285 182.991 80.6889C182.813 80.7682 182.619 80.8063 182.424 80.8005C182.251 80.8001 182.079 80.7761 181.912 80.7292C181.758 80.692 181.613 80.6257 181.484 80.5339L181.704 80.0968C181.803 80.1698 181.913 80.2253 182.03 80.2611C182.153 80.3005 182.282 80.3204 182.411 80.32C182.53 80.3262 182.647 80.2971 182.749 80.2363C182.788 80.2115 182.819 80.177 182.841 80.1362C182.862 80.0954 182.872 80.0498 182.87 80.0038C182.87 79.8023 182.718 79.6938 182.411 79.6938H182.148V79.3156L182.656 78.7421H181.605V78.2833H183.332V78.6553L182.777 79.2753C182.967 79.3033 183.142 79.3951 183.273 79.5357Z" fill="#AFC3EC"/>
<path d="M217.235 51.1246H133.852V62.6225H217.235V51.1246Z" fill="#E0E0E0"/>
<path d="M140.738 57.1136C140.738 57.3766 140.66 57.6337 140.514 57.8524C140.368 58.0711 140.16 58.2416 139.917 58.3423C139.674 58.4429 139.407 58.4693 139.149 58.4179C138.891 58.3666 138.654 58.24 138.468 58.054C138.282 57.868 138.155 57.631 138.104 57.373C138.052 57.1151 138.079 56.8477 138.179 56.6047C138.28 56.3617 138.45 56.154 138.669 56.0078C138.888 55.8617 139.145 55.7837 139.408 55.7837C139.76 55.7845 140.098 55.9249 140.347 56.1741C140.597 56.4233 140.737 56.7611 140.738 57.1136Z" fill="#F3F3F3"/>
<path d="M143.361 58.4435C144.096 58.4435 144.691 57.8481 144.691 57.1136C144.691 56.3791 144.096 55.7837 143.361 55.7837C142.627 55.7837 142.031 56.3791 142.031 57.1136C142.031 57.8481 142.627 58.4435 143.361 58.4435Z" fill="#F3F3F3"/>
<path d="M147.306 58.4435C148.041 58.4435 148.636 57.8481 148.636 57.1136C148.636 56.3791 148.041 55.7837 147.306 55.7837C146.572 55.7837 145.977 56.3791 145.977 57.1136C145.977 57.8481 146.572 58.4435 147.306 58.4435Z" fill="#F3F3F3"/>
<path d="M185.269 147.311H167.06C165.536 147.311 164.074 146.706 162.996 145.628C161.918 144.55 161.313 143.088 161.313 141.564C161.312 140.809 161.46 140.061 161.748 139.363C162.037 138.665 162.46 138.03 162.994 137.496C163.527 136.962 164.161 136.538 164.859 136.248C165.557 135.959 166.305 135.81 167.06 135.81H185.269C186.793 135.81 188.254 136.415 189.332 137.493C190.41 138.57 191.016 140.031 191.017 141.555C191.018 142.31 190.87 143.059 190.582 143.757C190.294 144.455 189.87 145.09 189.337 145.625C188.803 146.159 188.169 146.584 187.471 146.873C186.773 147.162 186.025 147.311 185.269 147.311Z" fill="#AFC3EC"/>
<path d="M174.837 141.269C174.837 141.787 174.446 142.109 173.823 142.109H173.442V142.705H172.797V140.423H173.838C174.446 140.423 174.837 140.748 174.837 141.269ZM174.186 141.269C174.186 141.055 174.052 140.931 173.786 140.931H173.442V141.601H173.801C174.062 141.601 174.186 141.477 174.186 141.269Z" fill="#F3F3F3"/>
<path d="M176.561 142.264H175.606L175.426 142.705H174.766L175.773 140.423H176.409L177.419 142.705H176.75L176.561 142.264ZM176.371 141.787L176.061 141.055L175.77 141.787H176.371Z" fill="#F3F3F3"/>
<path d="M178.672 141.889V142.705H178.027V141.877L177.156 140.423H177.838L178.381 141.331L178.92 140.423H179.54L178.672 141.889Z" fill="#F3F3F3"/>
<path d="M133.096 141.04C133.078 141.04 133.059 140.779 132.969 140.317C132.848 139.664 132.655 139.027 132.393 138.417C132.015 137.511 131.457 136.692 130.753 136.008C129.898 135.158 128.742 134.68 127.536 134.676C126.331 134.671 125.172 135.142 124.311 135.987C123.602 136.667 123.039 137.484 122.656 138.389C122.392 138.998 122.197 139.634 122.073 140.286C121.98 140.748 121.961 141.009 121.943 141.005C121.936 140.943 121.936 140.879 121.943 140.816C121.953 140.635 121.972 140.454 122.002 140.274C122.101 139.61 122.281 138.96 122.538 138.339C122.911 137.406 123.476 136.561 124.196 135.859C124.635 135.423 125.156 135.078 125.729 134.843C126.301 134.608 126.914 134.488 127.533 134.49C128.152 134.492 128.765 134.616 129.336 134.854C129.907 135.093 130.425 135.442 130.861 135.881C131.576 136.585 132.137 137.429 132.507 138.361C132.76 138.982 132.937 139.632 133.034 140.296C133.064 140.475 133.083 140.656 133.093 140.838C133.103 140.905 133.104 140.973 133.096 141.04Z" fill="#455A64"/>
<path d="M135.02 141.04C135.001 141.04 134.983 140.779 134.893 140.317C134.77 139.665 134.577 139.028 134.316 138.417C133.936 137.512 133.377 136.692 132.673 136.008C131.818 135.158 130.662 134.68 129.457 134.676C128.251 134.671 127.092 135.142 126.231 135.987C125.522 136.666 124.96 137.484 124.579 138.389C124.315 138.998 124.118 139.634 123.993 140.286C123.903 140.748 123.885 141.009 123.866 141.005C123.857 140.943 123.857 140.879 123.866 140.816C123.866 140.692 123.888 140.506 123.922 140.274C124.023 139.61 124.203 138.961 124.458 138.339C124.831 137.406 125.396 136.561 126.117 135.859C126.556 135.423 127.076 135.078 127.649 134.843C128.221 134.608 128.835 134.488 129.454 134.49C130.073 134.492 130.685 134.616 131.256 134.854C131.827 135.093 132.345 135.442 132.782 135.881C133.498 136.584 134.058 137.429 134.428 138.361C134.683 138.982 134.861 139.632 134.958 140.296C134.992 140.531 135.007 140.714 135.014 140.838C135.023 140.905 135.025 140.972 135.02 141.04Z" fill="#455A64"/>
<path d="M116.425 140.351L138.177 140.184L138.652 169.835H114.242L116.425 140.351Z" fill="#EBEBEB"/>
<path d="M138.18 140.184H140.911L143.261 169.835H138.654L138.18 140.184Z" fill="#E0E0E0"/>
<path d="M133.57 151.859H119.328V154.246H133.57V151.859Z" fill="#F3F3F3"/>
<path d="M120.951 149.267C120.843 148.449 120.651 147.643 120.377 146.864C120.082 146.051 119.634 145.302 119.057 144.657C118.743 144.277 118.35 143.971 117.905 143.76C117.46 143.549 116.974 143.438 116.481 143.436C115.989 143.434 115.502 143.541 115.055 143.748C114.608 143.955 114.212 144.258 113.895 144.635C113.316 145.278 112.864 146.025 112.565 146.836C112.289 147.615 112.094 148.42 111.983 149.239C111.975 149.18 111.975 149.121 111.983 149.062C111.983 148.948 111.998 148.78 112.029 148.563C112.106 147.956 112.249 147.359 112.457 146.784C112.746 145.944 113.198 145.17 113.787 144.505C114.114 144.108 114.526 143.788 114.992 143.569C115.458 143.351 115.966 143.238 116.481 143.24C116.996 143.242 117.504 143.359 117.968 143.581C118.432 143.804 118.841 144.127 119.165 144.527C119.753 145.193 120.202 145.97 120.486 146.812C120.692 147.387 120.834 147.984 120.908 148.591C120.935 148.808 120.948 148.979 120.951 149.093C120.959 149.151 120.959 149.209 120.951 149.267Z" fill="#263238"/>
<path d="M122.498 149.267C122.389 148.448 122.196 147.643 121.921 146.864C121.627 146.051 121.178 145.301 120.601 144.657C120.287 144.277 119.894 143.971 119.449 143.76C119.004 143.549 118.518 143.438 118.025 143.436C117.532 143.434 117.045 143.541 116.598 143.748C116.152 143.955 115.756 144.258 115.439 144.635C114.86 145.278 114.41 146.025 114.112 146.836C113.836 147.615 113.641 148.42 113.53 149.239C113.521 149.18 113.521 149.121 113.53 149.062C113.53 148.948 113.545 148.78 113.573 148.563C113.649 147.956 113.793 147.359 114.001 146.784C114.29 145.943 114.743 145.169 115.334 144.505C115.661 144.108 116.072 143.788 116.538 143.569C117.003 143.351 117.512 143.238 118.027 143.24C118.541 143.242 119.049 143.359 119.513 143.581C119.977 143.804 120.385 144.127 120.709 144.527C121.297 145.193 121.747 145.97 122.033 146.812C122.238 147.388 122.379 147.984 122.454 148.591C122.482 148.808 122.495 148.979 122.498 149.093C122.506 149.151 122.506 149.209 122.498 149.267Z" fill="#263238"/>
<path d="M106.778 148.226L124.265 148.105L124.646 169.802H105.023L106.778 148.226Z" fill="#AFC3EC"/>
<path d="M124.266 148.105H126.46L128.351 169.802H124.647L124.266 148.105Z" fill="#AFC3EC"/>
<g opacity="0.3">
<path d="M124.266 148.105H126.46L128.351 169.802H124.647L124.266 148.105Z" fill="black"/>
</g>
<path d="M121.284 155.473H109.836V157.665H121.284V155.473Z" fill="#F3F3F3"/>
<path d="M238.068 45.439H204.272C203.009 45.439 201.984 46.4632 201.984 47.7268V94.7228C201.984 95.9863 203.009 97.0106 204.272 97.0106H238.068C239.332 97.0106 240.356 95.9863 240.356 94.7228V47.7268C240.356 46.4632 239.332 45.439 238.068 45.439Z" fill="#F3F3F3"/>
<path d="M203.897 45.439H238.45C238.956 45.439 239.442 45.6402 239.8 45.9983C240.158 46.3564 240.359 46.8421 240.359 47.3486V51.4902H201.984V47.3486C201.984 47.0975 202.034 46.849 202.13 46.6171C202.226 46.3852 202.367 46.1745 202.545 45.9972C202.722 45.8198 202.933 45.6792 203.165 45.5834C203.397 45.4877 203.646 45.4386 203.897 45.439Z" fill="#E0E0E0"/>
<path d="M238.781 97.0106H238.892C238.997 96.9999 239.101 96.978 239.202 96.9455C239.411 96.8766 239.604 96.7654 239.768 96.6187C239.933 96.472 240.065 96.2931 240.157 96.093C240.224 95.9487 240.273 95.7967 240.303 95.6404C240.33 95.464 240.339 95.2854 240.331 95.1072C240.331 94.729 240.331 94.3167 240.331 93.8672C240.331 92.9713 240.331 91.939 240.331 90.7672C240.331 86.1172 240.331 79.3933 240.309 71.0853C240.309 66.9313 240.309 62.3805 240.309 57.4949C240.309 55.0521 240.309 52.5277 240.309 49.9216C240.309 49.2706 240.309 48.6165 240.309 47.9562C240.309 47.6462 240.309 47.2897 240.309 46.9704C240.278 46.6542 240.16 46.3528 239.968 46.0993C239.783 45.8538 239.528 45.6701 239.236 45.5723C238.939 45.5037 238.632 45.4807 238.328 45.5041H236.446H203.586C203.23 45.5061 202.886 45.6397 202.622 45.8792C202.341 46.1313 202.15 46.469 202.08 46.8402C202.053 47.0312 202.044 47.2242 202.052 47.4168V62.9602C202.052 68.9401 202.052 74.7061 202.052 80.1993C202.052 82.9501 202.052 85.6264 202.052 88.2283C202.052 89.5303 202.052 90.8127 202.052 92.0754V94.8902C202.031 95.1904 202.053 95.4921 202.117 95.7861C202.19 96.0574 202.333 96.3046 202.533 96.5027C202.732 96.7009 202.98 96.8429 203.251 96.9145C203.519 96.952 203.79 96.9645 204.061 96.9517H214.049L232.14 96.9765H237.06H238.34C238.629 96.9765 238.774 96.9765 238.774 96.9765H238.34H237.06H232.14L214.049 97.0602H204.051C203.774 97.0754 203.495 97.0629 203.22 97.023C202.928 96.9473 202.661 96.7951 202.447 96.582C202.233 96.369 202.079 96.1029 202.002 95.8109C201.934 95.5059 201.909 95.1929 201.928 94.8809V92.1002C201.928 90.8396 201.928 89.5572 201.928 88.2531C201.928 85.6533 201.928 82.9769 201.928 80.2241C201.928 74.7309 201.928 68.9649 201.928 62.985V47.4199C201.916 47.2128 201.925 47.0051 201.956 46.7999C202.026 46.4001 202.225 46.0343 202.523 45.7583C202.813 45.5006 203.186 45.3554 203.574 45.3491H236.434H238.784C238.946 45.3491 239.107 45.3742 239.261 45.4235C239.575 45.5297 239.85 45.7272 240.052 45.9908C240.255 46.2621 240.382 46.5835 240.417 46.9208C240.439 47.2649 240.417 47.5873 240.417 47.919V49.9402C240.417 52.5442 240.417 55.0687 240.417 57.5135C240.417 62.3991 240.417 66.9499 240.417 71.1039C240.417 79.4119 240.417 86.1358 240.396 90.7858C240.396 91.9483 240.396 92.9806 240.396 93.8858C240.396 94.3322 240.396 94.7445 240.396 95.1258C240.403 95.3062 240.392 95.4868 240.365 95.6652C240.332 95.8245 240.281 95.9795 240.213 96.1271C240.117 96.3286 239.981 96.5083 239.813 96.655C239.645 96.8017 239.449 96.9122 239.236 96.9796C239.135 97.0099 239.031 97.0286 238.926 97.0354L238.781 97.0106Z" fill="#263238"/>
<path d="M205.892 48.4616C205.877 48.6345 205.813 48.7993 205.706 48.9361C205.6 49.0729 205.456 49.1756 205.292 49.2318C205.128 49.288 204.951 49.2953 204.783 49.2526C204.615 49.21 204.462 49.1193 204.345 48.9917C204.228 48.8641 204.15 48.705 204.122 48.5339C204.093 48.3629 204.115 48.1873 204.185 48.0285C204.254 47.8697 204.369 47.7346 204.514 47.6398C204.659 47.5449 204.829 47.4944 205.002 47.4944C205.248 47.5049 205.48 47.6126 205.647 47.794C205.814 47.9753 205.902 48.2155 205.892 48.4616Z" fill="#F3F3F3"/>
<path d="M208.47 48.4616C208.456 48.6345 208.391 48.7993 208.284 48.9361C208.178 49.0729 208.034 49.1756 207.87 49.2318C207.706 49.288 207.529 49.2953 207.361 49.2526C207.193 49.21 207.041 49.1193 206.923 48.9917C206.806 48.8641 206.728 48.705 206.7 48.5339C206.671 48.3629 206.693 48.1873 206.763 48.0285C206.832 47.8697 206.947 47.7346 207.092 47.6398C207.237 47.5449 207.407 47.4944 207.58 47.4944C207.826 47.5049 208.058 47.6126 208.225 47.794C208.392 47.9753 208.48 48.2155 208.47 48.4616Z" fill="#F3F3F3"/>
<path d="M211.025 48.4616C211.01 48.6345 210.946 48.7993 210.839 48.9361C210.733 49.0729 210.588 49.1756 210.424 49.2318C210.26 49.288 210.083 49.2953 209.915 49.2526C209.747 49.21 209.595 49.1193 209.478 48.9917C209.361 48.8641 209.283 48.705 209.254 48.5339C209.226 48.3629 209.248 48.1873 209.317 48.0285C209.387 47.8697 209.502 47.7346 209.647 47.6398C209.792 47.5449 209.962 47.4944 210.135 47.4944C210.381 47.5049 210.613 47.6126 210.78 47.794C210.947 47.9753 211.035 48.2155 211.025 48.4616Z" fill="#F3F3F3"/>
<path d="M229.875 80.4536H214.009C213.592 80.4536 213.193 80.288 212.898 79.9933C212.603 79.6985 212.438 79.2988 212.438 78.8819C212.437 78.6753 212.477 78.4706 212.556 78.2795C212.635 78.0885 212.751 77.9148 212.897 77.7686C213.043 77.6223 213.216 77.5062 213.407 77.4271C213.598 77.3479 213.803 77.3071 214.009 77.3071H229.875C230.082 77.3071 230.286 77.3479 230.477 77.4271C230.668 77.5062 230.841 77.6223 230.987 77.7686C231.133 77.9148 231.249 78.0885 231.328 78.2795C231.407 78.4706 231.447 78.6753 231.447 78.8819C231.447 79.2988 231.281 79.6985 230.986 79.9933C230.692 80.288 230.292 80.4536 229.875 80.4536Z" fill="#E0E0E0"/>
<path d="M229.616 73.8348H213.737C213.324 73.8283 212.93 73.6595 212.64 73.3649C212.35 73.0703 212.187 72.6734 212.188 72.26C212.187 71.8429 212.353 71.4428 212.648 71.1476C212.942 70.8523 213.342 70.6861 213.759 70.6852H229.625C230.042 70.6861 230.442 70.8523 230.737 71.1476C231.031 71.4428 231.197 71.8429 231.197 72.26C231.197 72.4674 231.156 72.6727 231.076 72.8641C230.997 73.0556 230.88 73.2295 230.733 73.3758C230.586 73.5221 230.412 73.638 230.22 73.7168C230.028 73.7955 229.823 73.8357 229.616 73.8348Z" fill="#E0E0E0"/>
<path d="M225.343 65.6954C227.363 63.6749 227.363 60.399 225.343 58.3784C223.322 56.3579 220.046 56.3579 218.026 58.3784C216.005 60.399 216.005 63.6749 218.026 65.6954C220.046 67.716 223.322 67.716 225.343 65.6954Z" fill="#FAFAFA"/>
<path d="M222.195 62.1139C222.452 62.0135 222.666 61.8264 222.8 61.585C222.934 61.3435 222.979 61.0629 222.928 60.7917C222.877 60.5204 222.733 60.2755 222.52 60.0993C222.308 59.9232 222.04 59.8267 221.764 59.8267C221.488 59.8267 221.221 59.9232 221.008 60.0993C220.796 60.2755 220.652 60.5204 220.601 60.7917C220.549 61.0629 220.595 61.3435 220.729 61.585C220.862 61.8264 221.076 62.0135 221.333 62.1139C219.514 62.3712 219.594 64.2281 219.594 64.2281L223.9 64.2467C223.9 64.2467 223.999 62.3681 222.195 62.1139Z" fill="#E0E0E0"/>
<path d="M226.85 62.03C226.82 61.6121 226.756 61.1974 226.658 60.79C226.535 60.309 226.341 59.8492 226.082 59.426C225.742 58.8641 225.298 58.3727 224.773 57.9783C224.136 57.4946 223.392 57.1695 222.603 57.0297C221.705 56.8646 220.78 56.9427 219.922 57.256C219.459 57.4205 219.024 57.6546 218.632 57.9504C218.436 58.1001 218.248 58.2616 218.071 58.434C217.892 58.62 217.725 58.8178 217.572 59.0261C216.93 59.8988 216.583 60.9541 216.583 62.0377C216.583 63.1214 216.93 64.1766 217.572 65.0494C217.727 65.2564 217.893 65.4541 218.071 65.6415C218.253 65.8165 218.446 65.9801 218.648 66.1313C219.04 66.428 219.475 66.6632 219.937 66.8288C221.054 67.2353 222.278 67.2411 223.399 66.8453C224.519 66.4495 225.468 65.6766 226.082 64.6588C226.342 64.2358 226.536 63.7759 226.658 63.2948C226.756 62.8874 226.82 62.4727 226.85 62.0548C226.855 62.0825 226.855 62.1108 226.85 62.1385V62.3865C226.851 62.5204 226.84 62.6541 226.819 62.7864C226.799 62.9683 226.766 63.1486 226.72 63.3258C226.607 63.817 226.417 64.2876 226.159 64.7208C225.822 65.3003 225.374 65.808 224.842 66.215C224.197 66.7131 223.444 67.052 222.644 67.2039C221.722 67.3799 220.77 67.3049 219.888 66.9869C219.41 66.8194 218.962 66.5789 218.558 66.2739C218.127 65.9577 217.753 65.5709 217.451 65.13C216.788 64.2326 216.43 63.146 216.43 62.03C216.43 60.9139 216.788 59.8274 217.451 58.93C217.758 58.4996 218.134 58.1234 218.564 57.8171C218.968 57.513 219.417 57.2735 219.894 57.1072C220.776 56.7881 221.728 56.7121 222.65 56.8871C223.378 57.0281 224.068 57.3221 224.674 57.7496C225.28 58.1771 225.788 58.7284 226.165 59.3671C226.422 59.8007 226.612 60.2712 226.726 60.7621C226.772 60.9394 226.805 61.1196 226.826 61.3015C226.847 61.4348 226.857 61.5695 226.857 61.7045C226.857 61.8037 226.857 61.8843 226.857 61.9494C226.859 61.9764 226.857 62.0036 226.85 62.03Z" fill="#263238"/>
<path d="M229.786 91.4152H213.892C213.078 91.4152 212.297 91.092 211.721 90.5165C211.145 89.9411 210.821 89.1605 210.82 88.3462C210.821 87.532 211.145 86.7514 211.721 86.1759C212.297 85.6005 213.078 85.2772 213.892 85.2772H229.786C230.6 85.2772 231.381 85.6005 231.957 86.1759C232.533 86.7514 232.857 87.532 232.858 88.3462C232.857 89.1605 232.533 89.9411 231.957 90.5165C231.381 91.092 230.6 91.4152 229.786 91.4152Z" fill="#AFC3EC"/>
<path d="M130.939 71.4656L133.459 70.2039C136.063 70.854 138.816 70.5066 141.177 69.23C143.538 67.9534 145.336 65.8399 146.217 63.3049C147.099 60.7699 147.001 57.9968 145.942 55.5307C144.882 53.0646 142.939 51.0839 140.494 49.9778C138.048 48.8718 135.278 48.7204 132.726 49.5535C130.175 50.3866 128.027 52.1438 126.706 54.4799C125.384 56.8159 124.985 59.5618 125.585 62.1777C126.185 64.7937 127.742 67.0905 129.95 68.6167L130.939 71.4656Z" fill="#F3F3F3"/>
<path d="M130.937 71.4657C130.91 71.4095 130.887 71.3515 130.869 71.2921C130.819 71.1619 130.751 70.9821 130.667 70.7558L129.895 68.6323C129.893 68.626 129.892 68.6193 129.892 68.6126C129.892 68.6058 129.894 68.5992 129.897 68.5931C129.9 68.587 129.904 68.5816 129.909 68.5771C129.914 68.5727 129.92 68.5693 129.926 68.5672C129.932 68.5649 129.937 68.5637 129.943 68.5637C129.949 68.5637 129.955 68.5649 129.96 68.5672L129.914 68.6571C128.458 67.6698 127.267 66.3389 126.448 64.7821C125.916 63.7596 125.547 62.6604 125.354 61.524C125.141 60.2273 125.166 58.9026 125.428 57.6149C125.732 56.1974 126.311 54.8533 127.133 53.6593C128.017 52.3514 129.182 51.2573 130.543 50.457C131.993 49.6117 133.616 49.1051 135.289 48.9752C137.057 48.853 138.828 49.1638 140.449 49.8806C142.069 50.5975 143.49 51.6987 144.589 53.0889C145.631 54.4267 146.351 55.9858 146.694 57.6459C147.011 59.2062 146.972 60.818 146.58 62.361C146.226 63.7836 145.594 65.1219 144.72 66.298C143.925 67.3551 142.945 68.2585 141.827 68.964L141.031 69.4135C140.767 69.553 140.491 69.6584 140.228 69.7793C139.716 69.9969 139.187 70.1711 138.647 70.3001C136.943 70.7127 135.164 70.7009 133.466 70.266H133.501L131.603 71.196L131.117 71.4285C131.066 71.457 131.012 71.4798 130.955 71.4967L131.126 71.4037L131.613 71.1464L133.454 70.1885C133.465 70.1856 133.477 70.1856 133.488 70.1885C135.171 70.5946 136.927 70.5861 138.606 70.1637C139.137 70.0327 139.656 69.8564 140.156 69.6367C140.414 69.5158 140.686 69.4135 140.944 69.274L141.725 68.8276C144.053 67.3389 145.712 65.0051 146.353 62.3176C146.73 60.801 146.759 59.2186 146.437 57.6893C146.1 56.0665 145.394 54.5431 144.372 53.2377C143.301 51.8786 141.914 50.8013 140.333 50.099C138.751 49.3968 137.022 49.0908 135.295 49.2077C133.656 49.3298 132.066 49.8227 130.645 50.6492C129.319 51.4314 128.183 52.5 127.322 53.7771C126.511 54.9484 125.94 56.2685 125.642 57.6614C125.378 58.9233 125.345 60.2226 125.546 61.4961C125.73 62.6155 126.086 63.6998 126.6 64.7108C127.396 66.2537 128.556 67.5795 129.979 68.5734C129.988 68.5831 129.993 68.5959 129.993 68.6091C129.993 68.6223 129.988 68.635 129.979 68.6447C129.973 68.6546 129.964 68.6621 129.953 68.6661C129.943 68.67 129.931 68.6702 129.92 68.6664L129.985 68.6013C130.295 69.5127 130.528 70.2195 130.692 70.7155C130.77 70.9511 130.828 71.134 130.872 71.2704C130.899 71.3335 130.921 71.3989 130.937 71.4657Z" fill="#263238"/>
<path d="M133.819 60.2591C133.819 60.4915 133.75 60.7187 133.621 60.9119C133.491 61.1051 133.308 61.2557 133.093 61.3446C132.879 61.4335 132.642 61.4568 132.414 61.4115C132.187 61.3661 131.977 61.2542 131.813 61.0899C131.649 60.9256 131.537 60.7162 131.491 60.4883C131.446 60.2604 131.469 60.0242 131.558 59.8095C131.647 59.5948 131.798 59.4113 131.991 59.2822C132.184 59.1531 132.411 59.0842 132.644 59.0842C132.798 59.0842 132.951 59.1146 133.093 59.1737C133.236 59.2327 133.365 59.3192 133.474 59.4283C133.584 59.5374 133.67 59.667 133.729 59.8095C133.788 59.9521 133.819 60.1048 133.819 60.2591Z" fill="#263238"/>
<path d="M137.772 60.2591C137.772 60.4916 137.703 60.7189 137.573 60.9122C137.444 61.1055 137.261 61.2561 137.046 61.3449C136.831 61.4337 136.594 61.4568 136.366 61.4112C136.138 61.3656 135.929 61.2534 135.765 61.0888C135.601 60.9242 135.489 60.7146 135.444 60.4864C135.399 60.2583 135.423 60.022 135.512 59.8074C135.602 59.5927 135.753 59.4095 135.946 59.2807C136.14 59.152 136.367 59.0836 136.6 59.0842C136.911 59.0851 137.209 59.2092 137.429 59.4294C137.648 59.6497 137.772 59.9481 137.772 60.2591Z" fill="#263238"/>
<path d="M141.623 60.2591C141.623 60.4916 141.554 60.7189 141.425 60.9122C141.296 61.1055 141.112 61.2561 140.897 61.3449C140.682 61.4337 140.446 61.4568 140.218 61.4112C139.99 61.3656 139.781 61.2534 139.616 61.0888C139.452 60.9242 139.341 60.7146 139.296 60.4864C139.251 60.2583 139.274 60.022 139.364 59.8074C139.453 59.5927 139.604 59.4095 139.798 59.2807C139.991 59.152 140.219 59.0836 140.451 59.0842C140.763 59.0851 141.061 59.2092 141.28 59.4294C141.5 59.6497 141.623 59.9481 141.623 60.2591Z" fill="#263238"/>
</svg>
